o Mesh
usemtl material_3
v 0.09178189188241959 0.11433238536119461 -0.661965012550354
v 0.09176754206418991 0.11432970315217972 -0.6475449800491333
v 0.09838411211967468 0.11433238536119461 -0.6475449800491333
v 0.09178189188241959 0.11433238536119461 -0.661965012550354
v 0.09838411211967468 0.11433238536119461 -0.6475449800491333
v 0.09839846193790436 0.11432970315217972 -0.661965012550354
v 0.10236799716949463 0.11231499910354614 -0.6620650291442871
v 0.08779799938201904 0.11231499910354614 -0.6620650291442871
v 0.0917930006980896 0.11423300206661224 -0.6620650291442871
v 0.10236799716949463 0.11231499910354614 -0.6620650291442871
v 0.0917930006980896 0.11423300206661224 -0.6620650291442871
v 0.09837300330400467 0.11423300206661224 -0.6620650291442871
v 0.08779799938201904 0.11231499910354614 -0.6474449634552002
v 0.10236799716949463 0.11231499910354614 -0.6474449634552002
v 0.09837300330400467 0.11423300206661224 -0.6474449634552002
v 0.08779799938201904 0.11231499910354614 -0.6474449634552002
v 0.09837300330400467 0.11423300206661224 -0.6474449634552002
v 0.0917930006980896 0.11423300206661224 -0.6474449634552002
v 0.10241904854774475 0.11240098625421524 -0.6475449800491333
v 0.10241904854774475 0.11240098625421524 -0.661965012550354
v 0.09839846193790436 0.11432970315217972 -0.661965012550354
v 0.10241904854774475 0.11240098625421524 -0.6475449800491333
v 0.09839846193790436 0.11432970315217972 -0.661965012550354
v 0.09838411211967468 0.11433238536119461 -0.6475449800491333
v 0.08774694800376892 0.11240098625421524 -0.661965012550354
v 0.08774694800376892 0.11240098625421524 -0.6475449800491333
v 0.09176754206418991 0.11432970315217972 -0.6475449800491333
v 0.08774694800376892 0.11240098625421524 -0.661965012550354
v 0.09176754206418991 0.11432970315217972 -0.6475449800491333
v 0.09178189188241959 0.11433238536119461 -0.661965012550354
v 0.0785689428448677 0.10648815333843231 -0.661965012550354
v 0.0785689502954483 0.10648815333843231 -0.6475449800491333
v 0.08774694800376892 0.11240098625421524 -0.661965012550354
v 0.0785689502954483 0.10648815333843231 -0.6475449800491333
v 0.08774694800376892 0.11240098625421524 -0.6475449800491333
v 0.08774694800376892 0.11240098625421524 -0.661965012550354
v 0.11160270124673843 0.10647717118263245 -0.6475449800491333
v 0.11158780008554459 0.10649847984313965 -0.661965012550354
v 0.10241904854774475 0.11240098625421524 -0.6475449800491333
v 0.11158780008554459 0.10649847984313965 -0.661965012550354
v 0.10241904854774475 0.11240098625421524 -0.661965012550354
v 0.10241904854774475 0.11240098625421524 -0.6475449800491333
v 0.07865100353956223 0.10643099993467331 -0.6474449634552002
v 0.11151400208473206 0.10643099993467331 -0.6474449634552002
v 0.10236799716949463 0.11231499910354614 -0.6474449634552002
v 0.07865100353956223 0.10643099993467331 -0.6474449634552002
v 0.10236799716949463 0.11231499910354614 -0.6474449634552002
v 0.08779799938201904 0.11231499910354614 -0.6474449634552002
v 0.11151400208473206 0.10643099993467331 -0.6620650291442871
v 0.07865100353956223 0.10643099993467331 -0.6620650291442871
v 0.08779799938201904 0.11231499910354614 -0.6620650291442871
v 0.11151400208473206 0.10643099993467331 -0.6620650291442871
v 0.08779799938201904 0.11231499910354614 -0.6620650291442871
v 0.10236799716949463 0.11231499910354614 -0.6620650291442871
v 0.1144070029258728 0.0950310006737709 -0.6620650291442871
v 0.07575900107622147 0.0950310006737709 -0.6620650291442871
v 0.07865100353956223 0.10643099993467331 -0.6620650291442871
v 0.1144070029258728 0.0950310006737709 -0.6620650291442871
v 0.07865100353956223 0.10643099993467331 -0.6620650291442871
v 0.11151400208473206 0.10643099993467331 -0.6620650291442871
v 0.07575900107622147 0.0950310006737709 -0.6474449634552002
v 0.1144070029258728 0.0950310006737709 -0.6474449634552002
v 0.11151400208473206 0.10643099993467331 -0.6474449634552002
v 0.07575900107622147 0.0950310006737709 -0.6474449634552002
v 0.11151400208473206 0.10643099993467331 -0.6474449634552002
v 0.07865100353956223 0.10643099993467331 -0.6474449634552002
v 0.11450699716806412 0.09503173828125 -0.6475449800491333
v 0.11450696736574173 0.09503372013568878 -0.661965012550354
v 0.11160270124673843 0.10647717118263245 -0.6475449800491333
v 0.11450696736574173 0.09503372013568878 -0.661965012550354
v 0.11158780008554459 0.10649847984313965 -0.661965012550354
v 0.11160270124673843 0.10647717118263245 -0.6475449800491333
v 0.07565903663635254 0.09503372013568878 -0.661965012550354
v 0.07565900683403015 0.09503173828125 -0.6475449800491333
v 0.0785689502954483 0.10648815333843231 -0.6475449800491333
v 0.07565903663635254 0.09503372013568878 -0.661965012550354
v 0.0785689502954483 0.10648815333843231 -0.6475449800491333
v 0.0785689428448677 0.10648815333843231 -0.661965012550354
v 0.09902704507112503 -0.11452081799507141 -0.661965012550354
v 0.09903541207313538 -0.11451996117830276 -0.6475449800491333
v 0.09113796055316925 -0.11452081799507141 -0.6475449800491333
v 0.09902704507112503 -0.11452081799507141 -0.661965012550354
v 0.09113796055316925 -0.11452081799507141 -0.6475449800491333
v 0.0911295935511589 -0.11451996117830276 -0.661965012550354
v 0.08667699992656708 -0.11319699883460999 -0.6620650291442871
v 0.1034879982471466 -0.11319699883460999 -0.6620650291442871
v 0.09114400297403336 -0.11442100256681442 -0.6620650291442871
v 0.1034879982471466 -0.11319699883460999 -0.6620650291442871
v 0.09902100265026093 -0.11442100256681442 -0.6620650291442871
v 0.09114400297403336 -0.11442100256681442 -0.6620650291442871
v 0.1034879982471466 -0.11319699883460999 -0.6474449634552002
v 0.08667699992656708 -0.11319699883460999 -0.6474449634552002
v 0.09902100265026093 -0.11442100256681442 -0.6474449634552002
v 0.08667699992656708 -0.11319699883460999 -0.6474449634552002
v 0.09114400297403336 -0.11442100256681442 -0.6474449634552002
v 0.09902100265026093 -0.11442100256681442 -0.6474449634552002
v 0.10353393852710724 -0.11328581720590591 -0.661965012550354
v 0.10354682058095932 -0.113277867436409 -0.6475449800491333
v 0.09903541207313538 -0.11451996117830276 -0.6475449800491333
v 0.10353393852710724 -0.11328581720590591 -0.661965012550354
v 0.09903541207313538 -0.11451996117830276 -0.6475449800491333
v 0.09902704507112503 -0.11452081799507141 -0.661965012550354
v 0.08663105964660645 -0.11328581720590591 -0.6475449800491333
v 0.08661817759275436 -0.113277867436409 -0.661965012550354
v 0.0911295935511589 -0.11451996117830276 -0.661965012550354
v 0.08663105964660645 -0.11328581720590591 -0.6475449800491333
v 0.0911295935511589 -0.11451996117830276 -0.661965012550354
v 0.09113796055316925 -0.11452081799507141 -0.6475449800491333
v 0.08107331395149231 -0.10822468250989914 -0.6475449800491333
v 0.08106622099876404 -0.10821302235126495 -0.661965012550354
v 0.08661817759275436 -0.113277867436409 -0.661965012550354
v 0.08107331395149231 -0.10822468250989914 -0.6475449800491333
v 0.08661817759275436 -0.113277867436409 -0.661965012550354
v 0.08663105964660645 -0.11328581720590591 -0.6475449800491333
v 0.10909268260002136 -0.10822468996047974 -0.661965012550354
v 0.10909978300333023 -0.10821302235126495 -0.6475449800491333
v 0.10354682058095932 -0.113277867436409 -0.6475449800491333
v 0.10909268260002136 -0.10822468996047974 -0.661965012550354
v 0.10354682058095932 -0.113277867436409 -0.6475449800491333
v 0.10353393852710724 -0.11328581720590591 -0.661965012550354
v 0.10901100188493729 -0.10816700011491776 -0.6474449634552002
v 0.08115500211715698 -0.10816700011491776 -0.6474449634552002
v 0.08667699992656708 -0.11319699883460999 -0.6474449634552002
v 0.10901100188493729 -0.10816700011491776 -0.6474449634552002
v 0.08667699992656708 -0.11319699883460999 -0.6474449634552002
v 0.1034879982471466 -0.11319699883460999 -0.6474449634552002
v 0.08115500211715698 -0.10816700011491776 -0.6620650291442871
v 0.10901100188493729 -0.10816700011491776 -0.6620650291442871
v 0.08667699992656708 -0.11319699883460999 -0.6620650291442871
v 0.10901100188493729 -0.10816700011491776 -0.6620650291442871
v 0.1034879982471466 -0.11319699883460999 -0.6620650291442871
v 0.08667699992656708 -0.11319699883460999 -0.6620650291442871
v 0.07575900107622147 -0.0949459969997406 -0.6620650291442871
v 0.1144070029258728 -0.0949459969997406 -0.6620650291442871
v 0.10901100188493729 -0.10816700011491776 -0.6620650291442871
v 0.07575900107622147 -0.0949459969997406 -0.6620650291442871
v 0.10901100188493729 -0.10816700011491776 -0.6620650291442871
v 0.08115500211715698 -0.10816700011491776 -0.6620650291442871
v 0.1144070029258728 -0.0949459969997406 -0.6474449634552002
v 0.07575900107622147 -0.0949459969997406 -0.6474449634552002
v 0.08115500211715698 -0.10816700011491776 -0.6474449634552002
v 0.1144070029258728 -0.0949459969997406 -0.6474449634552002
v 0.08115500211715698 -0.10816700011491776 -0.6474449634552002
v 0.10901100188493729 -0.10816700011491776 -0.6474449634552002
v 0.11449959129095078 -0.0949837863445282 -0.661965012550354
v 0.11449959129095078 -0.0949837863445282 -0.6475449800491333
v 0.10909978300333023 -0.10821302235126495 -0.6475449800491333
v 0.11449959129095078 -0.0949837863445282 -0.661965012550354
v 0.10909978300333023 -0.10821302235126495 -0.6475449800491333
v 0.10909268260002136 -0.10822468996047974 -0.661965012550354
v 0.0756664127111435 -0.0949837863445282 -0.6475449800491333
v 0.0756664127111435 -0.0949837863445282 -0.661965012550354
v 0.08106622099876404 -0.10821302235126495 -0.661965012550354
v 0.0756664127111435 -0.0949837863445282 -0.6475449800491333
v 0.08106622099876404 -0.10821302235126495 -0.661965012550354
v 0.08107331395149231 -0.10822468250989914 -0.6475449800491333
v 0.07565900683403015 0.09503173828125 -0.6475449800491333
v 0.07565903663635254 0.09503372013568878 -0.661965012550354
v 0.07565899938344955 -0.0949459969997406 -0.661965012550354
v 0.07565900683403015 0.09503173828125 -0.6475449800491333
v 0.07565899938344955 -0.0949459969997406 -0.661965012550354
v 0.07565899938344955 -0.0949459969997406 -0.6475449800491333
v 0.11450696736574173 0.09503372013568878 -0.661965012550354
v 0.11450699716806412 0.09503173828125 -0.6475449800491333
v 0.11450700461864471 -0.0949459969997406 -0.661965012550354
v 0.11450699716806412 0.09503173828125 -0.6475449800491333
v 0.11450700461864471 -0.0949459969997406 -0.6475449800491333
v 0.11450700461864471 -0.0949459969997406 -0.661965012550354
v 0.07575900107622147 0.0950310006737709 -0.6474449634552002
v 0.07575900107622147 -0.0949459969997406 -0.6474449634552002
v 0.1144070029258728 0.0950310006737709 -0.6474449634552002
v 0.07575900107622147 -0.0949459969997406 -0.6474449634552002
v 0.1144070029258728 -0.0949459969997406 -0.6474449634552002
v 0.1144070029258728 0.0950310006737709 -0.6474449634552002
v 0.07575900107622147 0.0950310006737709 -0.6620650291442871
v 0.1144070029258728 0.0950310006737709 -0.6620650291442871
v 0.1144070029258728 -0.0949459969997406 -0.6620650291442871
v 0.07575900107622147 0.0950310006737709 -0.6620650291442871
v 0.1144070029258728 -0.0949459969997406 -0.6620650291442871
v 0.07575900107622147 -0.0949459969997406 -0.6620650291442871
v -0.05352471023797989 -0.05352570861577988 -0.634893000125885
v -0.05352471023797989 -0.05352471023797989 -0.026995999738574028
v -0.06293627619743347 -0.042057257145643234 -0.026995999738574028
v -0.05352471023797989 -0.05352570861577988 -0.634893000125885
v -0.06293627619743347 -0.042057257145643234 -0.026995999738574028
v -0.06294092535972595 -0.0420507974922657 -0.634893000125885
v -0.06993208080530167 -0.028970280662178993 -0.026995999738574028
v -0.06993559747934341 -0.028964215889573097 -0.634893000125885
v -0.06294092535972595 -0.0420507974922657 -0.634893000125885
v -0.06993208080530167 -0.028970280662178993 -0.026995999738574028
v -0.06294092535972595 -0.0420507974922657 -0.634893000125885
v -0.06293627619743347 -0.042057257145643234 -0.026995999738574028
v -0.07424038648605347 -0.014770716428756714 -0.026995999738574028
v -0.07424166798591614 -0.014764279127120972 -0.634893000125885
v -0.06993559747934341 -0.028964215889573097 -0.634893000125885
v -0.07424038648605347 -0.014770716428756714 -0.026995999738574028
v -0.06993559747934341 -0.028964215889573097 -0.634893000125885
v -0.06993208080530167 -0.028970280662178993 -0.026995999738574028
v -0.0756959468126297 -0.0000032814011774462415 -0.026995999738574028
v -0.0756959468126297 0.0000032814011774462415 -0.634893000125885
v -0.07424166798591614 -0.014764279127120972 -0.634893000125885
v -0.0756959468126297 -0.0000032814011774462415 -0.026995999738574028
v -0.07424166798591614 -0.014764279127120972 -0.634893000125885
v -0.07424038648605347 -0.014770716428756714 -0.026995999738574028
v -0.07424166798591614 0.014764280058443546 -0.026995999738574028
v -0.07424038648605347 0.014770716428756714 -0.634893000125885
v -0.0756959468126297 0.0000032814011774462415 -0.634893000125885
v -0.07424166798591614 0.014764280058443546 -0.026995999738574028
v -0.0756959468126297 0.0000032814011774462415 -0.634893000125885
v -0.0756959468126297 -0.0000032814011774462415 -0.026995999738574028
v -0.06993459165096283 0.028964217752218246 -0.026995999738574028
v -0.06993208080530167 0.028970280662178993 -0.634893000125885
v -0.07424038648605347 0.014770716428756714 -0.634893000125885
v -0.06993459165096283 0.028964217752218246 -0.026995999738574028
v -0.07424038648605347 0.014770716428756714 -0.634893000125885
v -0.07424166798591614 0.014764280058443546 -0.026995999738574028
v -0.06294092535972595 0.04205179959535599 -0.026995999738574028
v -0.06293627619743347 0.042057257145643234 -0.634893000125885
v -0.06993208080530167 0.028970280662178993 -0.634893000125885
v -0.06294092535972595 0.04205179959535599 -0.026995999738574028
v -0.06993208080530167 0.028970280662178993 -0.634893000125885
v -0.06993459165096283 0.028964217752218246 -0.026995999738574028
v -0.053526993840932846 0.05352235212922096 -0.026995999738574028
v -0.05352235212922096 0.053526993840932846 -0.634893000125885
v -0.06293627619743347 0.042057257145643234 -0.634893000125885
v -0.053526993840932846 0.05352235212922096 -0.026995999738574028
v -0.06293627619743347 0.042057257145643234 -0.634893000125885
v -0.06294092535972595 0.04205179959535599 -0.026995999738574028
v -0.042057257145643234 0.06293627619743347 -0.026995999738574028
v -0.0420507974922657 0.06293991953134537 -0.634893000125885
v -0.05352235212922096 0.053526993840932846 -0.634893000125885
v -0.042057257145643234 0.06293627619743347 -0.026995999738574028
v -0.05352235212922096 0.053526993840932846 -0.634893000125885
v -0.053526993840932846 0.05352235212922096 -0.026995999738574028
v -0.028970280662178993 0.06993208080530167 -0.026995999738574028
v -0.028964215889573097 0.06993459165096283 -0.634893000125885
v -0.0420507974922657 0.06293991953134537 -0.634893000125885
v -0.028970280662178993 0.06993208080530167 -0.026995999738574028
v -0.0420507974922657 0.06293991953134537 -0.634893000125885
v -0.042057257145643234 0.06293627619743347 -0.026995999738574028
v -0.014770716428756714 0.07424038648605347 -0.026995999738574028
v -0.014764280058443546 0.07424166798591614 -0.634893000125885
v -0.028964215889573097 0.06993459165096283 -0.634893000125885
v -0.014770716428756714 0.07424038648605347 -0.026995999738574028
v -0.028964215889573097 0.06993459165096283 -0.634893000125885
v -0.028970280662178993 0.06993208080530167 -0.026995999738574028
v -0.0000032814011774462415 0.0756959468126297 -0.026995999738574028
v 0.0000032814011774462415 0.07569494843482971 -0.634893000125885
v -0.014764280058443546 0.07424166798591614 -0.634893000125885
v -0.0000032814011774462415 0.0756959468126297 -0.026995999738574028
v -0.014764280058443546 0.07424166798591614 -0.634893000125885
v -0.014770716428756714 0.07424038648605347 -0.026995999738574028
v 0.014764280058443546 0.07424166798591614 -0.026995999738574028
v 0.014770716428756714 0.07424038648605347 -0.634893000125885
v 0.0000032814011774462415 0.07569494843482971 -0.634893000125885
v 0.014764280058443546 0.07424166798591614 -0.026995999738574028
v 0.0000032814011774462415 0.07569494843482971 -0.634893000125885
v -0.0000032814011774462415 0.0756959468126297 -0.026995999738574028
v 0.028964217752218246 0.06993459165096283 -0.026995999738574028
v 0.028970280662178993 0.06993208080530167 -0.634893000125885
v 0.014770716428756714 0.07424038648605347 -0.634893000125885
v 0.028964217752218246 0.06993459165096283 -0.026995999738574028
v 0.014770716428756714 0.07424038648605347 -0.634893000125885
v 0.014764280058443546 0.07424166798591614 -0.026995999738574028
v 0.04205179959535599 0.06294092535972595 -0.026995999738574028
v 0.042057257145643234 0.06293627619743347 -0.634893000125885
v 0.028970280662178993 0.06993208080530167 -0.634893000125885
v 0.04205179959535599 0.06294092535972595 -0.026995999738574028
v 0.028970280662178993 0.06993208080530167 -0.634893000125885
v 0.028964217752218246 0.06993459165096283 -0.026995999738574028
v 0.05352235212922096 0.053526993840932846 -0.026995999738574028
v 0.053526993840932846 0.05352235212922096 -0.634893000125885
v 0.042057257145643234 0.06293627619743347 -0.634893000125885
v 0.05352235212922096 0.053526993840932846 -0.026995999738574028
v 0.042057257145643234 0.06293627619743347 -0.634893000125885
v 0.04205179959535599 0.06294092535972595 -0.026995999738574028
v 0.06293728202581406 0.042057257145643234 -0.026995999738574028
v 0.06293991953134537 0.0420507974922657 -0.634893000125885
v 0.053526993840932846 0.05352235212922096 -0.634893000125885
v 0.06293728202581406 0.042057257145643234 -0.026995999738574028
v 0.053526993840932846 0.05352235212922096 -0.634893000125885
v 0.05352235212922096 0.053526993840932846 -0.026995999738574028
v 0.06993208080530167 0.028970278799533844 -0.026995999738574028
v 0.06993459165096283 0.028964215889573097 -0.634893000125885
v 0.06293991953134537 0.0420507974922657 -0.634893000125885
v 0.06993208080530167 0.028970278799533844 -0.026995999738574028
v 0.06293991953134537 0.0420507974922657 -0.634893000125885
v 0.06293728202581406 0.042057257145643234 -0.026995999738574028
v 0.07424038648605347 0.014770716428756714 -0.026995999738574028
v 0.07424166798591614 0.014764280058443546 -0.634893000125885
v 0.06993459165096283 0.028964215889573097 -0.634893000125885
v 0.07424038648605347 0.014770716428756714 -0.026995999738574028
v 0.06993459165096283 0.028964215889573097 -0.634893000125885
v 0.06993208080530167 0.028970278799533844 -0.026995999738574028
v 0.0756959468126297 0.0000032814011774462415 -0.026995999738574028
v 0.07569494843482971 -0.0000032814011774462415 -0.634893000125885
v 0.07424166798591614 0.014764280058443546 -0.634893000125885
v 0.0756959468126297 0.0000032814011774462415 -0.026995999738574028
v 0.07424166798591614 0.014764280058443546 -0.634893000125885
v 0.07424038648605347 0.014770716428756714 -0.026995999738574028
v 0.07424166798591614 -0.014764280058443546 -0.026995999738574028
v 0.07424038648605347 -0.014770716428756714 -0.634893000125885
v 0.07569494843482971 -0.0000032814011774462415 -0.634893000125885
v 0.07424166798591614 -0.014764280058443546 -0.026995999738574028
v 0.07569494843482971 -0.0000032814011774462415 -0.634893000125885
v 0.0756959468126297 0.0000032814011774462415 -0.026995999738574028
v 0.06993459165096283 -0.028964217752218246 -0.026995999738574028
v 0.06993208080530167 -0.028970280662178993 -0.634893000125885
v 0.07424038648605347 -0.014770716428756714 -0.634893000125885
v 0.06993459165096283 -0.028964217752218246 -0.026995999738574028
v 0.07424038648605347 -0.014770716428756714 -0.634893000125885
v 0.07424166798591614 -0.014764280058443546 -0.026995999738574028
v 0.06294092535972595 -0.04205179959535599 -0.026995999738574028
v 0.06293627619743347 -0.042057257145643234 -0.634893000125885
v 0.06993208080530167 -0.028970280662178993 -0.634893000125885
v 0.06294092535972595 -0.04205179959535599 -0.026995999738574028
v 0.06993208080530167 -0.028970280662178993 -0.634893000125885
v 0.06993459165096283 -0.028964217752218246 -0.026995999738574028
v 0.05352471023797989 -0.05352471023797989 -0.026995999738574028
v 0.05352471023797989 -0.05352570861577988 -0.634893000125885
v 0.06293627619743347 -0.042057257145643234 -0.634893000125885
v 0.05352471023797989 -0.05352471023797989 -0.026995999738574028
v 0.06293627619743347 -0.042057257145643234 -0.634893000125885
v 0.06294092535972595 -0.04205179959535599 -0.026995999738574028
v 0.04205179959535599 -0.06294092535972595 -0.026995999738574028
v 0.04205625504255295 -0.06293728202581406 -0.634893000125885
v 0.05352471023797989 -0.05352471023797989 -0.026995999738574028
v 0.04205625504255295 -0.06293728202581406 -0.634893000125885
v 0.05352471023797989 -0.05352570861577988 -0.634893000125885
v 0.05352471023797989 -0.05352471023797989 -0.026995999738574028
v 0.028964215889573097 -0.06993459165096283 -0.026995999738574028
v 0.028970280662178993 -0.06993308663368225 -0.634893000125885
v 0.04205179959535599 -0.06294092535972595 -0.026995999738574028
v 0.028970280662178993 -0.06993308663368225 -0.634893000125885
v 0.04205625504255295 -0.06293728202581406 -0.634893000125885
v 0.04205179959535599 -0.06294092535972595 -0.026995999738574028
v 0.014764280058443546 -0.07424166798591614 -0.026995999738574028
v 0.01477071549743414 -0.07424038648605347 -0.634893000125885
v 0.028964215889573097 -0.06993459165096283 -0.026995999738574028
v 0.01477071549743414 -0.07424038648605347 -0.634893000125885
v 0.028970280662178993 -0.06993308663368225 -0.634893000125885
v 0.028964215889573097 -0.06993459165096283 -0.026995999738574028
v -0.0000032814011774462415 -0.0756959468126297 -0.026995999738574028
v 0.0000032814011774462415 -0.0756959468126297 -0.634893000125885
v 0.014764280058443546 -0.07424166798591614 -0.026995999738574028
v 0.0000032814011774462415 -0.0756959468126297 -0.634893000125885
v 0.01477071549743414 -0.07424038648605347 -0.634893000125885
v 0.014764280058443546 -0.07424166798591614 -0.026995999738574028
v -0.01477071549743414 -0.07424038648605347 -0.026995999738574028
v -0.014764279127120972 -0.07424166798591614 -0.634893000125885
v -0.0000032814011774462415 -0.0756959468126297 -0.026995999738574028
v -0.014764279127120972 -0.07424166798591614 -0.634893000125885
v 0.0000032814011774462415 -0.0756959468126297 -0.634893000125885
v -0.0000032814011774462415 -0.0756959468126297 -0.026995999738574028
v -0.028970278799533844 -0.06993208080530167 -0.026995999738574028
v -0.028964215889573097 -0.06993559747934341 -0.634893000125885
v -0.01477071549743414 -0.07424038648605347 -0.026995999738574028
v -0.028964215889573097 -0.06993559747934341 -0.634893000125885
v -0.014764279127120972 -0.07424166798591614 -0.634893000125885
v -0.01477071549743414 -0.07424038648605347 -0.026995999738574028
v -0.042057257145643234 -0.06293728202581406 -0.026995999738574028
v -0.04205179959535599 -0.06294092535972595 -0.634893000125885
v -0.028970278799533844 -0.06993208080530167 -0.026995999738574028
v -0.04205179959535599 -0.06294092535972595 -0.634893000125885
v -0.028964215889573097 -0.06993559747934341 -0.634893000125885
v -0.028970278799533844 -0.06993208080530167 -0.026995999738574028
v -0.05352471023797989 -0.05352471023797989 -0.026995999738574028
v -0.05352471023797989 -0.05352570861577988 -0.634893000125885
v -0.042057257145643234 -0.06293728202581406 -0.026995999738574028
v -0.05352471023797989 -0.05352570861577988 -0.634893000125885
v -0.04205179959535599 -0.06294092535972595 -0.634893000125885
v -0.042057257145643234 -0.06293728202581406 -0.026995999738574028
vt 0.19407899677753448 0.0010369999799877405
vt 0.19407899677753448 0.29020199179649353
vt 0.1448500007390976 0.29020199179649353
vt 0.19407899677753448 0.0010369999799877405
vt 0.1448500007390976 0.29020199179649353
vt 0.1448500007390976 0.0010369999799877405
vt 0.9823369979858398 0.5724740028381348
vt 0.9806039929389954 0.43382498621940613
vt 0.9983100295066833 0.43820101022720337
vt 0.9823369979858398 0.5724740028381348
vt 0.9983100295066833 0.43820101022720337
vt 1 0.5734109878540039
vt 0.7014549970626831 0.21426600217819214
vt 0.6996989846229553 0.07385999709367752
vt 0.7176300287246704 0.07828500121831894
vt 0.7014549970626831 0.21426600217819214
vt 0.7176300287246704 0.07828500121831894
vt 0.7193419933319092 0.21521399915218353
vt 0.10693199932575226 0.2891649901866913
vt 0.10693199932575226 0
vt 0.1448500007390976 0.0010369999799877405
vt 0.10693199932575226 0.2891649901866913
vt 0.1448500007390976 0.0010369999799877405
vt 0.1448500007390976 0.29020199179649353
vt 0.23199699819087982 0.002073999959975481
vt 0.23199699819087982 0.2912389934062958
vt 0.19407899677753448 0.29020199179649353
vt 0.23199699819087982 0.002073999959975481
vt 0.19407899677753448 0.29020199179649353
vt 0.19407899677753448 0.0010369999799877405
vt 0.30101099610328674 0.002073999959975481
vt 0.3010120093822479 0.2912389934062958
vt 0.23199699819087982 0.002073999959975481
vt 0.3010120093822479 0.2912389934062958
vt 0.23199699819087982 0.2912389934062958
vt 0.23199699819087982 0.002073999959975481
vt 0.03791699931025505 0.2891649901866913
vt 0.03791699931025505 0
vt 0.10693199932575226 0.2891649901866913
vt 0.03791699931025505 0
vt 0.10693199932575226 0
vt 0.10693199932575226 0.2891649901866913
vt 0.6831129789352417 0.21329399943351746
vt 0.6806979775428772 0.02010899968445301
vt 0.6996989846229553 0.07385999709367752
vt 0.6831129789352417 0.21329399943351746
vt 0.6996989846229553 0.07385999709367752
vt 0.7014549970626831 0.21426600217819214
vt 0.9642249941825867 0.5715140104293823
vt 0.9618399739265442 0.380744993686676
vt 0.9806039929389954 0.43382498621940613
vt 0.9642249941825867 0.5715140104293823
vt 0.9806039929389954 0.43382498621940613
vt 0.9823369979858398 0.5724740028381348
vt 0.932112991809845 0.6065469980239868
vt 0.932112991809845 0.36088699102401733
vt 0.9618399739265442 0.380744993686676
vt 0.932112991809845 0.6065469980239868
vt 0.9618399739265442 0.380744993686676
vt 0.9642249941825867 0.5715140104293823
vt 0.6505939960479736 0.24876999855041504
vt 0.6505939960479736 0
vt 0.6806979775428772 0.02010899968445301
vt 0.6505939960479736 0.24876999855041504
vt 0.6806979775428772 0.02010899968445301
vt 0.6831129789352417 0.21329399943351746
vt 0 0.2903220057487488
vt 0 0.0011579999700188637
vt 0.03791699931025505 0.2891649901866913
vt 0 0.0011579999700188637
vt 0.03791699931025505 0
vt 0.03791699931025505 0.2891649901866913
vt 0.3388809859752655 0.003407000098377466
vt 0.3388819992542267 0.2925719916820526
vt 0.3010120093822479 0.2912389934062958
vt 0.3388809859752655 0.003407000098377466
vt 0.3010120093822479 0.2912389934062958
vt 0.30101099610328674 0.002073999959975481
vt 0.4410400092601776 0.9008070230484009
vt 0.44103699922561646 0.6071490049362183
vt 0.5008869767189026 0.6071490049362183
vt 0.4410400092601776 0.9008070230484009
vt 0.5008869767189026 0.6071490049362183
vt 0.5008900165557861 0.9008060097694397
vt 0.6412190198898315 0.5035319924354553
vt 0.6476730108261108 0.5556460022926331
vt 0.6344720125198364 0.5048199892044067
vt 0.6476730108261108 0.5556460022926331
vt 0.6279500126838684 0.5069779753684998
vt 0.6344720125198364 0.5048199892044067
vt 0.3484469950199127 0.14284899830818176
vt 0.3566589951515198 0.18088600039482117
vt 0.34355199337005615 0.14424599707126617
vt 0.3566589951515198 0.18088600039482117
vt 0.3388819992542267 0.1462700068950653
vt 0.34355199337005615 0.14424599707126617
vt 0.40246400237083435 0.9002040028572083
vt 0.4024609923362732 0.6065469980239868
vt 0.44103699922561646 0.6071490049362183
vt 0.40246400237083435 0.9002040028572083
vt 0.44103699922561646 0.6071490049362183
vt 0.4410400092601776 0.9008070230484009
vt 0.5394629836082458 0.6077510118484497
vt 0.5394660234451294 0.9014089703559875
vt 0.5008900165557861 0.9008060097694397
vt 0.5394629836082458 0.6077510118484497
vt 0.5008900165557861 0.9008060097694397
vt 0.5008869767189026 0.6071490049362183
vt 0.5821390151977539 0.6077510118484497
vt 0.5821419954299927 0.9014080166816711
vt 0.5394660234451294 0.9014089703559875
vt 0.5821390151977539 0.6077510118484497
vt 0.5394660234451294 0.9014089703559875
vt 0.5394629836082458 0.6077510118484497
vt 0.3597880005836487 0.9002050161361694
vt 0.3597849905490875 0.6065469980239868
vt 0.4024609923362732 0.6065469980239868
vt 0.3597880005836487 0.9002050161361694
vt 0.4024609923362732 0.6065469980239868
vt 0.40246400237083435 0.9002040028572083
vt 0.3710089921951294 0.05475499853491783
vt 0.3737950026988983 0.21289999783039093
vt 0.3566589951515198 0.18088600039482117
vt 0.3710089921951294 0.05475499853491783
vt 0.3566589951515198 0.18088600039482117
vt 0.3484469950199127 0.14284899830818176
vt 0.6560239791870117 0.4149569869041443
vt 0.6587749719619751 0.5711249709129333
vt 0.6412190198898315 0.5035319924354553
vt 0.6587749719619751 0.5711249709129333
vt 0.6476730108261108 0.5556460022926331
vt 0.6412190198898315 0.5035319924354553
vt 0.6864529848098755 0.36088699102401733
vt 0.6864529848098755 0.6065469980239868
vt 0.6587749719619751 0.5711249709129333
vt 0.6864529848098755 0.36088699102401733
vt 0.6587749719619751 0.5711249709129333
vt 0.6560239791870117 0.4149569869041443
vt 0.4018239974975586 0
vt 0.4018239974975586 0.24876999855041504
vt 0.3737950026988983 0.21289999783039093
vt 0.4018239974975586 0
vt 0.3737950026988983 0.21289999783039093
vt 0.3710089921951294 0.05475499853491783
vt 0.313977986574173 0.9002050161361694
vt 0.3139750063419342 0.606548011302948
vt 0.3597849905490875 0.6065469980239868
vt 0.313977986574173 0.9002050161361694
vt 0.3597849905490875 0.6065469980239868
vt 0.3597880005836487 0.9002050161361694
vt 0.6279489994049072 0.6077510118484497
vt 0.6279510259628296 0.9014080166816711
vt 0.5821419954299927 0.9014080166816711
vt 0.6279489994049072 0.6077510118484497
vt 0.5821419954299927 0.9014080166816711
vt 0.5821390151977539 0.6077510118484497
vt 0.3139750063419342 0.2925719916820526
vt 0.3139750063419342 0.6065469980239868
vt 0 0.6065469980239868
vt 0.3139750063419342 0.2925719916820526
vt 0 0.6065469980239868
vt 0 0.2925719916820526
vt 0.6279500126838684 0.2925719916820526
vt 0.6279500126838684 0.6065469980239868
vt 0.3139750063419342 0.2925719916820526
vt 0.6279500126838684 0.6065469980239868
vt 0.3139750063419342 0.6065469980239868
vt 0.3139750063419342 0.2925719916820526
vt 0.6505939960479736 0.24876999855041504
vt 0.4018239974975586 0.24876999855041504
vt 0.6505939960479736 0
vt 0.4018239974975586 0.24876999855041504
vt 0.4018239974975586 0
vt 0.6505939960479736 0
vt 0.932112991809845 0.36088699102401733
vt 0.932112991809845 0.6065469980239868
vt 0.6864529848098755 0.6065469980239868
vt 0.932112991809845 0.36088699102401733
vt 0.6864529848098755 0.6065469980239868
vt 0.6864529848098755 0.36088699102401733
vt 0.6769980192184448 0.4694080054759979
vt 0.6769980192184448 0
vt 0.7384939789772034 0.0020379999186843634
vt 0.6769980192184448 0.4694080054759979
vt 0.7384939789772034 0.0020379999186843634
vt 0.7384939789772034 0.4714449942111969
vt 0.7999899983406067 0.004075999837368727
vt 0.7999899983406067 0.47348299622535706
vt 0.7384939789772034 0.4714449942111969
vt 0.7999899983406067 0.004075999837368727
vt 0.7384939789772034 0.4714449942111969
vt 0.7384939789772034 0.0020379999186843634
vt 0.86148601770401 0.006113999988883734
vt 0.86148601770401 0.4755209982395172
vt 0.7999899983406067 0.47348299622535706
vt 0.86148601770401 0.006113999988883734
vt 0.7999899983406067 0.47348299622535706
vt 0.7999899983406067 0.004075999837368727
vt 0.9229819774627686 0.008151000365614891
vt 0.9229819774627686 0.47755900025367737
vt 0.86148601770401 0.4755209982395172
vt 0.9229819774627686 0.008151000365614891
vt 0.86148601770401 0.4755209982395172
vt 0.86148601770401 0.006113999988883734
vt 0.9844779968261719 0.010188999585807323
vt 0.9844779968261719 0.4795970022678375
vt 0.9229819774627686 0.47755900025367737
vt 0.9844779968261719 0.010188999585807323
vt 0.9229819774627686 0.47755900025367737
vt 0.9229819774627686 0.008151000365614891
vt 0.061528000980615616 0.48370200395584106
vt 0.07707399874925613 0.9528369903564453
vt 0.015545999631285667 0.9528369903564453
vt 0.061528000980615616 0.48370200395584106
vt 0.015545999631285667 0.9528369903564453
vt 0 0.48370200395584106
vt 0.12305600196123123 0.48370200395584106
vt 0.13860200345516205 0.9528369903564453
vt 0.07707399874925613 0.9528369903564453
vt 0.12305600196123123 0.48370200395584106
vt 0.07707399874925613 0.9528369903564453
vt 0.061528000980615616 0.48370200395584106
vt 0.18458299338817596 0.48370200395584106
vt 0.20012900233268738 0.9528369903564453
vt 0.13860200345516205 0.9528369903564453
vt 0.18458299338817596 0.48370200395584106
vt 0.13860200345516205 0.9528369903564453
vt 0.12305600196123123 0.48370200395584106
vt 0.24611100554466248 0.48370200395584106
vt 0.2616569995880127 0.9528369903564453
vt 0.20012900233268738 0.9528369903564453
vt 0.24611100554466248 0.48370200395584106
vt 0.20012900233268738 0.9528369903564453
vt 0.18458299338817596 0.48370200395584106
vt 0.3076390027999878 0.4837009906768799
vt 0.323184996843338 0.9528380036354065
vt 0.2616569995880127 0.9528369903564453
vt 0.3076390027999878 0.4837009906768799
vt 0.2616569995880127 0.9528369903564453
vt 0.24611100554466248 0.48370200395584106
vt 0.3691670000553131 0.4837009906768799
vt 0.38471299409866333 0.9528380036354065
vt 0.323184996843338 0.9528380036354065
vt 0.3691670000553131 0.4837009906768799
vt 0.323184996843338 0.9528380036354065
vt 0.3076390027999878 0.4837009906768799
vt 0.43069401383399963 0.4837000072002411
vt 0.44624099135398865 0.9528380036354065
vt 0.38471299409866333 0.9528380036354065
vt 0.43069401383399963 0.4837000072002411
vt 0.38471299409866333 0.9528380036354065
vt 0.3691670000553131 0.4837009906768799
vt 0.49222201108932495 0.4837000072002411
vt 0.507768988609314 0.9528380036354065
vt 0.44624099135398865 0.9528380036354065
vt 0.49222201108932495 0.4837000072002411
vt 0.44624099135398865 0.9528380036354065
vt 0.43069401383399963 0.4837000072002411
vt 0.5537499785423279 0.4836989939212799
vt 0.5692970156669617 0.9528390169143677
vt 0.507768988609314 0.9528380036354065
vt 0.5537499785423279 0.4836989939212799
vt 0.507768988609314 0.9528380036354065
vt 0.49222201108932495 0.4837000072002411
vt 0.6152790188789368 0.4836980104446411
vt 0.6308249831199646 0.9528390169143677
vt 0.5692970156669617 0.9528390169143677
vt 0.6152790188789368 0.4836980104446411
vt 0.5692970156669617 0.9528390169143677
vt 0.5537499785423279 0.4836989939212799
vt 0.6768069863319397 0.48369699716567993
vt 0.6923540234565735 0.9528399705886841
vt 0.6308249831199646 0.9528390169143677
vt 0.6768069863319397 0.48369699716567993
vt 0.6308249831199646 0.9528390169143677
vt 0.6152790188789368 0.4836980104446411
vt 0.7383360266685486 0.48369500041007996
vt 0.7538819909095764 0.9528409838676453
vt 0.6923540234565735 0.9528399705886841
vt 0.7383360266685486 0.48369500041007996
vt 0.6923540234565735 0.9528399705886841
vt 0.6768069863319397 0.48369699716567993
vt 0.7998650074005127 0.4836939871311188
vt 0.8154109716415405 0.9528419971466064
vt 0.7538819909095764 0.9528409838676453
vt 0.7998650074005127 0.4836939871311188
vt 0.7538819909095764 0.9528409838676453
vt 0.7383360266685486 0.48369500041007996
vt 0.8613939881324768 0.4836919903755188
vt 0.8769400119781494 0.9528430104255676
vt 0.8154109716415405 0.9528419971466064
vt 0.8613939881324768 0.4836919903755188
vt 0.8154109716415405 0.9528419971466064
vt 0.7998650074005127 0.4836939871311188
vt 0.9229239821434021 0.4836919903755188
vt 0.9384700059890747 0.9528419971466064
vt 0.8769400119781494 0.9528430104255676
vt 0.9229239821434021 0.4836919903755188
vt 0.8769400119781494 0.9528430104255676
vt 0.8613939881324768 0.4836919903755188
vt 0.9844539761543274 0.4836919903755188
vt 1 0.9528419971466064
vt 0.9384700059890747 0.9528419971466064
vt 0.9844539761543274 0.4836919903755188
vt 0.9384700059890747 0.9528419971466064
vt 0.9229239821434021 0.4836919903755188
vt 0.061496999114751816 0.010208000428974628
vt 0.06149600073695183 0.47961699962615967
vt 0 0.4775789976119995
vt 0.061496999114751816 0.010208000428974628
vt 0 0.4775789976119995
vt 0 0.008170999586582184
vt 0.12299299985170364 0.01224599964916706
vt 0.12299200147390366 0.48165398836135864
vt 0.06149600073695183 0.47961699962615967
vt 0.12299299985170364 0.01224599964916706
vt 0.06149600073695183 0.47961699962615967
vt 0.061496999114751816 0.010208000428974628
vt 0.18448899686336517 0.014283999800682068
vt 0.18448899686336517 0.4836919903755188
vt 0.12299200147390366 0.48165398836135864
vt 0.18448899686336517 0.014283999800682068
vt 0.12299200147390366 0.48165398836135864
vt 0.12299299985170364 0.01224599964916706
vt 0.24605299532413483 0.012497999705374241
vt 0.24605199694633484 0.4819070100784302
vt 0.18448899686336517 0.014283999800682068
vt 0.24605199694633484 0.4819070100784302
vt 0.18448899686336517 0.4836919903755188
vt 0.18448899686336517 0.014283999800682068
vt 0.3076170086860657 0.010712999850511551
vt 0.3076159954071045 0.480120986700058
vt 0.24605299532413483 0.012497999705374241
vt 0.3076159954071045 0.480120986700058
vt 0.24605199694633484 0.4819070100784302
vt 0.24605299532413483 0.012497999705374241
vt 0.36917999386787415 0.008926999755203724
vt 0.36917999386787415 0.47833600640296936
vt 0.3076170086860657 0.010712999850511551
vt 0.36917999386787415 0.47833600640296936
vt 0.3076159954071045 0.480120986700058
vt 0.3076170086860657 0.010712999850511551
vt 0.4307439923286438 0.007141999900341034
vt 0.430743008852005 0.47655001282691956
vt 0.36917999386787415 0.008926999755203724
vt 0.430743008852005 0.47655001282691956
vt 0.36917999386787415 0.47833600640296936
vt 0.36917999386787415 0.008926999755203724
vt 0.49230799078941345 0.005355999805033207
vt 0.49230700731277466 0.47476398944854736
vt 0.4307439923286438 0.007141999900341034
vt 0.49230700731277466 0.47476398944854736
vt 0.430743008852005 0.47655001282691956
vt 0.4307439923286438 0.007141999900341034
vt 0.5538709759712219 0.003570999950170517
vt 0.5538709759712219 0.47297900915145874
vt 0.49230799078941345 0.005355999805033207
vt 0.5538709759712219 0.47297900915145874
vt 0.49230700731277466 0.47476398944854736
vt 0.49230799078941345 0.005355999805033207
vt 0.615435004234314 0.0017859999788925052
vt 0.6154339909553528 0.47119298577308655
vt 0.5538709759712219 0.003570999950170517
vt 0.6154339909553528 0.47119298577308655
vt 0.5538709759712219 0.47297900915145874
vt 0.5538709759712219 0.003570999950170517
vt 0.6769980192184448 0
vt 0.6769980192184448 0.4694080054759979
vt 0.615435004234314 0.0017859999788925052
vt 0.6769980192184448 0.4694080054759979
vt 0.6154339909553528 0.47119298577308655
vt 0.615435004234314 0.0017859999788925052
vn -0.11111400201826635 0.9938076667824034 0
vn -0.25459501497542447 0.9670477642545188 0
vn 0.11111508953661538 0.9938075451903502 0
vn -0.11111400201826635 0.9938076667824034 0
vn 0.11111508953661538 0.9938075451903502 0
vn 0.25460105424724555 0.9670461742730754 0
vn 0 0 -1
vn 0 0 -1
vn 0 0 -1
vn 0 0 -1
vn 0 0 -1
vn 0 0 -1
vn 0 0 1
vn 0 0 1
vn 0 0 1
vn 0 0 1
vn 0 0 1
vn 0 0 1
vn 0.5105072915123192 0.8598734240065545 0
vn 0.5105072915123192 0.8598734240065545 0
vn 0.25460105424724555 0.9670461742730754 0
vn 0.5105072915123192 0.8598734240065545 0
vn 0.25460105424724555 0.9670461742730754 0
vn 0.11111508953661538 0.9938075451903502 0
vn -0.510496075740552 0.8598800827170592 0
vn -0.510496075740552 0.8598800827170592 0
vn -0.25459501497542447 0.9670477642545188 0
vn -0.510496075740552 0.8598800827170592 0
vn -0.25459501497542447 0.9670477642545188 0
vn -0.11111400201826635 0.9938076667824034 0
vn -0.8205713022986666 0.5715441696350951 0
vn -0.8205687318968427 0.5715478599673063 0
vn -0.510496075740552 0.8598800827170592 0
vn -0.8205687318968427 0.5715478599673063 0
vn -0.510496075740552 0.8598800827170592 0
vn -0.510496075740552 0.8598800827170592 0
vn 0.8870127671960112 0.46174489800243024 0
vn 0.7379869566211565 0.6748149760171624 0
vn 0.5105072915123192 0.8598734240065545 0
vn 0.7379869566211565 0.6748149760171624 0
vn 0.5105072915123192 0.8598734240065545 0
vn 0.5105072915123192 0.8598734240065545 0
vn 0 0 1
vn 0 0 1
vn 0 0 1
vn 0 0 1
vn 0 0 1
vn 0 0 1
vn 0 0 -1
vn 0 0 -1
vn 0 0 -1
vn 0 0 -1
vn 0 0 -1
vn 0 0 -1
vn 0 0 -1
vn 0 0 -1
vn 0 0 -1
vn 0 0 -1
vn 0 0 -1
vn 0 0 -1
vn 0 0 1
vn 0 0 1
vn 0 0 1
vn 0 0 1
vn 0 0 1
vn 0 0 1
vn 0.9999726788170794 0.007391996982833581 0
vn 0.9996304742676559 0.027182989449674757 0
vn 0.8870127671960112 0.46174489800243024 0
vn 0.9996304742676559 0.027182989449674757 0
vn 0.7379869566211565 0.6748149760171624 0
vn 0.8870127671960112 0.46174489800243024 0
vn -0.9996305830150418 0.027178990065997954 0
vn -0.9999726862101513 0.007390996797054369 0
vn -0.8205687318968427 0.5715478599673063 0
vn -0.9996305830150418 0.027178990065997954 0
vn -0.8205687318968427 0.5715478599673063 0
vn -0.8205713022986666 0.5715441696350951 0
vn 0.06042199481021277 -0.9981729221648696 0
vn 0.14410300594973266 -0.9895626931509957 0
vn -0.06042100019413238 -0.998172982371062 0
vn 0.06042199481021277 -0.9981729221648696 0
vn -0.06042100019413238 -0.998172982371062 0
vn -0.1440959887493784 -0.9895637149907727 0
vn 0 0 -1
vn 0 0 -1
vn 0 0 -1
vn 0 0 -1
vn 0 0 -1
vn 0 0 -1
vn 0 0 1
vn 0 0 1
vn 0 0 1
vn 0 0 1
vn 0 0 1
vn 0 0 1
vn 0.4594398765911532 -0.8882088717176303 0
vn 0.5882361374483623 -0.808689215088115 0
vn 0.14410300594973266 -0.9895626931509957 0
vn 0.4594398765911532 -0.8882088717176303 0
vn 0.14410300594973266 -0.9895626931509957 0
vn 0.06042199481021277 -0.9981729221648696 0
vn -0.45943199122440664 -0.888212950502061 0
vn -0.5882511774677305 -0.8086782748459541 0
vn -0.1440959887493784 -0.9895637149907727 0
vn -0.45943199122440664 -0.888212950502061 0
vn -0.1440959887493784 -0.9895637149907727 0
vn -0.06042100019413238 -0.998172982371062 0
vn -0.8168487797197307 -0.5768518623272242 0
vn -0.8878086482648057 -0.4602127812938473 0
vn -0.5882511774677305 -0.8086782748459541 0
vn -0.8168487797197307 -0.5768518623272242 0
vn -0.5882511774677305 -0.8086782748459541 0
vn -0.45943199122440664 -0.888212950502061 0
vn 0.8168273152063287 -0.5768822558658057 0
vn 0.8877960602882531 -0.46023706427954764 0
vn 0.5882361374483623 -0.808689215088115 0
vn 0.8168273152063287 -0.5768822558658057 0
vn 0.5882361374483623 -0.808689215088115 0
vn 0.4594398765911532 -0.8882088717176303 0
vn 0 0 1
vn 0 0 1
vn 0 0 1
vn 0 0 1
vn 0 0 1
vn 0 0 1
vn 0 0 -1
vn 0 0 -1
vn 0 0 -1
vn 0 0 -1
vn 0 0 -1
vn 0 0 -1
vn 0 0 -1
vn 0 0 -1
vn 0 0 -1
vn 0 0 -1
vn 0 0 -1
vn 0 0 -1
vn 0 0 1
vn 0 0 1
vn 0 0 1
vn 0 0 1
vn 0 0 1
vn 0 0 1
vn 0.9258537983212727 -0.37788191824175954 0
vn 0.9258537983212727 -0.37788191824175954 0
vn 0.8877960602882531 -0.46023706427954764 0
vn 0.9258537983212727 -0.37788191824175954 0
vn 0.8877960602882531 -0.46023706427954764 0
vn 0.8168273152063287 -0.5768822558658057 0
vn -0.9258610821380255 -0.3778640715683407 0
vn -0.9258610821380255 -0.3778640715683407 0
vn -0.8878086482648057 -0.4602127812938473 0
vn -0.9258610821380255 -0.3778640715683407 0
vn -0.8878086482648057 -0.4602127812938473 0
vn -0.8168487797197307 -0.5768518623272242 0
vn -0.9999726862101513 0.007390996797054369 0
vn -0.9996305830150418 0.027178990065997954 0
vn -1 0 0
vn -0.9999726862101513 0.007390996797054369 0
vn -1 0 0
vn -1 0 0
vn 0.9996304742676559 0.027182989449674757 0
vn 0.9999726788170794 0.007391996982833581 0
vn 1 0 0
vn 0.9999726788170794 0.007391996982833581 0
vn 1 0 0
vn 1 0 0
vn 0 0 1
vn 0 0 1
vn 0 0 1
vn 0 0 1
vn 0 0 1
vn 0 0 1
vn 0 0 -1
vn 0 0 -1
vn 0 0 -1
vn 0 0 -1
vn 0 0 -1
vn 0 0 -1
vn -0.70710833090564 -0.7071052314640587 0
vn -0.7071067811865476 -0.7071067811865476 0
vn -0.8127940726401001 -0.582551109758723 0
vn -0.70710833090564 -0.7071052314640587 0
vn -0.8127940726401001 -0.582551109758723 0
vn -0.8492518598774642 -0.5279879529825163 0
vn -0.9108248681840219 -0.41279299836305283 0
vn -0.935940940718007 -0.3521570040307192 0
vn -0.8492518598774642 -0.5279879529825163 0
vn -0.9108248681840219 -0.41279299836305283 0
vn -0.8492518598774642 -0.5279879529825163 0
vn -0.8127940726401001 -0.582551109758723 0
vn -0.9738562609493008 -0.2271651007744088 0
vn -0.9866594049910553 -0.1627980913361603 0
vn -0.935940940718007 -0.3521570040307192 0
vn -0.9738562609493008 -0.2271651007744088 0
vn -0.935940940718007 -0.3521570040307192 0
vn -0.9108248681840219 -0.41279299836305283 0
vn -0.9994614753338137 -0.03281401108606861 0
vn -0.9994614753338137 0.03281401108606861 0
vn -0.9866594049910553 -0.1627980913361603 0
vn -0.9994614753338137 -0.03281401108606861 0
vn -0.9866594049910553 -0.1627980913361603 0
vn -0.9738562609493008 -0.2271651007744088 0
vn -0.986658611336769 0.16280290131013797 0
vn -0.9738548847626629 0.22717100040256163 0
vn -0.9994614753338137 0.03281401108606861 0
vn -0.986658611336769 0.16280290131013797 0
vn -0.9994614753338137 0.03281401108606861 0
vn -0.9994614753338137 -0.03281401108606861 0
vn -0.9359379385839616 0.35216498281232417 0
vn -0.9108230294239098 0.41279705555036555 0
vn -0.9738548847626629 0.22717100040256163 0
vn -0.9359379385839616 0.35216498281232417 0
vn -0.9738548847626629 0.22717100040256163 0
vn -0.986658611336769 0.16280290131013797 0
vn -0.8492511526821575 0.5279890904820164 0
vn -0.8127912107930771 0.5825551026791573 0
vn -0.9108230294239098 0.41279705555036555 0
vn -0.8492511526821575 0.5279890904820164 0
vn -0.9108230294239098 0.41279705555036555 0
vn -0.9359379385839616 0.35216498281232417 0
vn -0.7299236695764865 0.6835286655232509 0
vn -0.6835157373686812 0.7299357757839712 0
vn -0.8127912107930771 0.5825551026791573 0
vn -0.7299236695764865 0.6835286655232509 0
vn -0.8127912107930771 0.5825551026791573 0
vn -0.8492511526821575 0.5279890904820164 0
vn -0.58255336808342 0.8127924540340316 0
vn -0.5279890904820164 0.8492511526821575 0
vn -0.6835157373686812 0.7299357757839712 0
vn -0.58255336808342 0.8127924540340316 0
vn -0.6835157373686812 0.7299357757839712 0
vn -0.7299236695764865 0.6835286655232509 0
vn -0.4127962040924629 0.9108234153154242 0
vn -0.35215906076411113 0.9359401668492163 0
vn -0.5279890904820164 0.8492511526821575 0
vn -0.4127962040924629 0.9108234153154242 0
vn -0.5279890904820164 0.8492511526821575 0
vn -0.58255336808342 0.8127924540340316 0
vn -0.22716598731867418 0.9738560541504745 0
vn -0.16280509116850347 0.9866582499982531 0
vn -0.35215906076411113 0.9359401668492163 0
vn -0.22716598731867418 0.9738560541504745 0
vn -0.35215906076411113 0.9359401668492163 0
vn -0.4127962040924629 0.9108234153154242 0
vn -0.03281401108606861 0.9994614753338137 0
vn 0.03281401108606861 0.9994614753338137 0
vn -0.16280509116850347 0.9866582499982531 0
vn -0.03281401108606861 0.9994614753338137 0
vn -0.16280509116850347 0.9866582499982531 0
vn -0.22716598731867418 0.9738560541504745 0
vn 0.16280290131013797 0.986658611336769 0
vn 0.22717001493405686 0.9738551146422451 0
vn 0.03281401108606861 0.9994614753338137 0
vn 0.16280290131013797 0.986658611336769 0
vn 0.03281401108606861 0.9994614753338137 0
vn -0.03281401108606861 0.9994614753338137 0
vn 0.3521640295369031 0.9359382972719575 0
vn 0.4127949887148768 0.91082396613829 0
vn 0.22717001493405686 0.9738551146422451 0
vn 0.3521640295369031 0.9359382972719575 0
vn 0.22717001493405686 0.9738551146422451 0
vn 0.16280290131013797 0.986658611336769 0
vn 0.5279859731033404 0.8492530907839656 0
vn 0.5825557898243287 0.8127907182923243 0
vn 0.4127949887148768 0.91082396613829 0
vn 0.5279859731033404 0.8492530907839656 0
vn 0.4127949887148768 0.91082396613829 0
vn 0.3521640295369031 0.9359382972719575 0
vn 0.6835286655232509 0.7299236695764865 0
vn 0.7299338159989883 0.6835178302437729 0
vn 0.5825557898243287 0.8127907182923243 0
vn 0.6835286655232509 0.7299236695764865 0
vn 0.5825557898243287 0.8127907182923243 0
vn 0.5279859731033404 0.8492530907839656 0
vn 0.8127907182923243 0.5825557898243287 0
vn 0.8492499651110624 0.527991000641923 0
vn 0.7299338159989883 0.6835178302437729 0
vn 0.8127907182923243 0.5825557898243287 0
vn 0.7299338159989883 0.6835178302437729 0
vn 0.6835286655232509 0.7299236695764865 0
vn 0.9108262121366109 0.4127900329282108 0
vn 0.9359401668492163 0.35215906076411113 0
vn 0.8492499651110624 0.527991000641923 0
vn 0.9108262121366109 0.4127900329282108 0
vn 0.8492499651110624 0.527991000641923 0
vn 0.8127907182923243 0.5825557898243287 0
vn 0.9738560541504745 0.22716598731867418 0
vn 0.9866582499982531 0.16280509116850347 0
vn 0.9359401668492163 0.35215906076411113 0
vn 0.9738560541504745 0.22716598731867418 0
vn 0.9359401668492163 0.35215906076411113 0
vn 0.9108262121366109 0.4127900329282108 0
vn 0.9994614753338137 0.03281401108606861 0
vn 0.9994614753338137 -0.03281401108606861 0
vn 0.9866582499982531 0.16280509116850347 0
vn 0.9994614753338137 0.03281401108606861 0
vn 0.9866582499982531 0.16280509116850347 0
vn 0.9738560541504745 0.22716598731867418 0
vn 0.986658611336769 -0.16280290131013797 0
vn 0.9738558240543009 -0.22716697373412034 0
vn 0.9994614753338137 -0.03281401108606861 0
vn 0.986658611336769 -0.16280290131013797 0
vn 0.9994614753338137 -0.03281401108606861 0
vn 0.9994614753338137 0.03281401108606861 0
vn 0.9359393635072343 -0.35216119581474786 0
vn 0.9108252866385114 -0.4127920750448991 0
vn 0.9738558240543009 -0.22716697373412034 0
vn 0.9359393635072343 -0.35216119581474786 0
vn 0.9738558240543009 -0.22716697373412034 0
vn 0.986658611336769 -0.16280290131013797 0
vn 0.8492530907839656 -0.5279859731033404 0
vn 0.8127956912399308 -0.5825488514294772 0
vn 0.9108252866385114 -0.4127920750448991 0
vn 0.8492530907839656 -0.5279859731033404 0
vn 0.9108252866385114 -0.4127920750448991 0
vn 0.9359393635072343 -0.35216119581474786 0
vn 0.7071052314640587 -0.70710833090564 0
vn 0.7071033241086405 -0.7071102382475528 0
vn 0.8127956912399308 -0.5825488514294772 0
vn 0.7071052314640587 -0.70710833090564 0
vn 0.8127956912399308 -0.5825488514294772 0
vn 0.8492530907839656 -0.5279859731033404 0
vn 0.5279921381389309 -0.8492492579116453 0
vn 0.5825517293068128 -0.812793628593164 0
vn 0.7071052314640587 -0.70710833090564 0
vn 0.5825517293068128 -0.812793628593164 0
vn 0.7071033241086405 -0.7071102382475528 0
vn 0.7071052314640587 -0.70710833090564 0
vn 0.3521548754372609 -0.9359417416195132 0
vn 0.41279299836305283 -0.9108248681840219 0
vn 0.5279921381389309 -0.8492492579116453 0
vn 0.41279299836305283 -0.9108248681840219 0
vn 0.5825517293068128 -0.812793628593164 0
vn 0.5279921381389309 -0.8492492579116453 0
vn 0.16280290131013797 -0.986658611336769 0
vn 0.2271600744973559 -0.9738574333825029 0
vn 0.3521548754372609 -0.9359417416195132 0
vn 0.2271600744973559 -0.9738574333825029 0
vn 0.41279299836305283 -0.9108248681840219 0
vn 0.3521548754372609 -0.9359417416195132 0
vn -0.03281401108606861 -0.9994614753338137 0
vn 0.03281401108606861 -0.9994614753338137 0
vn 0.16280290131013797 -0.986658611336769 0
vn 0.03281401108606861 -0.9994614753338137 0
vn 0.2271600744973559 -0.9738574333825029 0
vn 0.16280290131013797 -0.986658611336769 0
vn -0.22715989077828183 -0.9738574762364351 0
vn -0.1627980913361603 -0.9866594049910553 0
vn -0.03281401108606861 -0.9994614753338137 0
vn -0.1627980913361603 -0.9866594049910553 0
vn 0.03281401108606861 -0.9994614753338137 0
vn -0.03281401108606861 -0.9994614753338137 0
vn -0.4127889164434658 -0.9108267181310777 0
vn -0.3521519633852646 -0.9359428372950471 0
vn -0.22715989077828183 -0.9738574762364351 0
vn -0.3521519633852646 -0.9359428372950471 0
vn -0.1627980913361603 -0.9866594049910553 0
vn -0.22715989077828183 -0.9738574762364351 0
vn -0.58255336808342 -0.8127924540340316 0
vn -0.5279879529825163 -0.8492518598774642 0
vn -0.4127889164434658 -0.9108267181310777 0
vn -0.5279879529825163 -0.8492518598774642 0
vn -0.3521519633852646 -0.9359428372950471 0
vn -0.4127889164434658 -0.9108267181310777 0
vn -0.7071067811865476 -0.7071067811865476 0
vn -0.70710833090564 -0.7071052314640587 0
vn -0.58255336808342 -0.8127924540340316 0
vn -0.70710833090564 -0.7071052314640587 0
vn -0.5279879529825163 -0.8492518598774642 0
vn -0.58255336808342 -0.8127924540340316 0
f 1/1/1 2/2/2 3/3/3
f 4/4/4 5/5/5 6/6/6
f 7/7/7 8/8/8 9/9/9
f 10/10/10 11/11/11 12/12/12
f 13/13/13 14/14/14 15/15/15
f 16/16/16 17/17/17 18/18/18
f 19/19/19 20/20/20 21/21/21
f 22/22/22 23/23/23 24/24/24
f 25/25/25 26/26/26 27/27/27
f 28/28/28 29/29/29 30/30/30
f 31/31/31 32/32/32 33/33/33
f 34/34/34 35/35/35 36/36/36
f 37/37/37 38/38/38 39/39/39
f 40/40/40 41/41/41 42/42/42
f 43/43/43 44/44/44 45/45/45
f 46/46/46 47/47/47 48/48/48
f 49/49/49 50/50/50 51/51/51
f 52/52/52 53/53/53 54/54/54
f 55/55/55 56/56/56 57/57/57
f 58/58/58 59/59/59 60/60/60
f 61/61/61 62/62/62 63/63/63
f 64/64/64 65/65/65 66/66/66
f 67/67/67 68/68/68 69/69/69
f 70/70/70 71/71/71 72/72/72
f 73/73/73 74/74/74 75/75/75
f 76/76/76 77/77/77 78/78/78
f 79/79/79 80/80/80 81/81/81
f 82/82/82 83/83/83 84/84/84
f 85/85/85 86/86/86 87/87/87
f 88/88/88 89/89/89 90/90/90
f 91/91/91 92/92/92 93/93/93
f 94/94/94 95/95/95 96/96/96
f 97/97/97 98/98/98 99/99/99
f 100/100/100 101/101/101 102/102/102
f 103/103/103 104/104/104 105/105/105
f 106/106/106 107/107/107 108/108/108
f 109/109/109 110/110/110 111/111/111
f 112/112/112 113/113/113 114/114/114
f 115/115/115 116/116/116 117/117/117
f 118/118/118 119/119/119 120/120/120
f 121/121/121 122/122/122 123/123/123
f 124/124/124 125/125/125 126/126/126
f 127/127/127 128/128/128 129/129/129
f 130/130/130 131/131/131 132/132/132
f 133/133/133 134/134/134 135/135/135
f 136/136/136 137/137/137 138/138/138
f 139/139/139 140/140/140 141/141/141
f 142/142/142 143/143/143 144/144/144
f 145/145/145 146/146/146 147/147/147
f 148/148/148 149/149/149 150/150/150
f 151/151/151 152/152/152 153/153/153
f 154/154/154 155/155/155 156/156/156
f 157/157/157 158/158/158 159/159/159
f 160/160/160 161/161/161 162/162/162
f 163/163/163 164/164/164 165/165/165
f 166/166/166 167/167/167 168/168/168
f 169/169/169 170/170/170 171/171/171
f 172/172/172 173/173/173 174/174/174
f 175/175/175 176/176/176 177/177/177
f 178/178/178 179/179/179 180/180/180
f 181/181/181 182/182/182 183/183/183
f 184/184/184 185/185/185 186/186/186
f 187/187/187 188/188/188 189/189/189
f 190/190/190 191/191/191 192/192/192
f 193/193/193 194/194/194 195/195/195
f 196/196/196 197/197/197 198/198/198
f 199/199/199 200/200/200 201/201/201
f 202/202/202 203/203/203 204/204/204
f 205/205/205 206/206/206 207/207/207
f 208/208/208 209/209/209 210/210/210
f 211/211/211 212/212/212 213/213/213
f 214/214/214 215/215/215 216/216/216
f 217/217/217 218/218/218 219/219/219
f 220/220/220 221/221/221 222/222/222
f 223/223/223 224/224/224 225/225/225
f 226/226/226 227/227/227 228/228/228
f 229/229/229 230/230/230 231/231/231
f 232/232/232 233/233/233 234/234/234
f 235/235/235 236/236/236 237/237/237
f 238/238/238 239/239/239 240/240/240
f 241/241/241 242/242/242 243/243/243
f 244/244/244 245/245/245 246/246/246
f 247/247/247 248/248/248 249/249/249
f 250/250/250 251/251/251 252/252/252
f 253/253/253 254/254/254 255/255/255
f 256/256/256 257/257/257 258/258/258
f 259/259/259 260/260/260 261/261/261
f 262/262/262 263/263/263 264/264/264
f 265/265/265 266/266/266 267/267/267
f 268/268/268 269/269/269 270/270/270
f 271/271/271 272/272/272 273/273/273
f 274/274/274 275/275/275 276/276/276
f 277/277/277 278/278/278 279/279/279
f 280/280/280 281/281/281 282/282/282
f 283/283/283 284/284/284 285/285/285
f 286/286/286 287/287/287 288/288/288
f 289/289/289 290/290/290 291/291/291
f 292/292/292 293/293/293 294/294/294
f 295/295/295 296/296/296 297/297/297
f 298/298/298 299/299/299 300/300/300
f 301/301/301 302/302/302 303/303/303
f 304/304/304 305/305/305 306/306/306
f 307/307/307 308/308/308 309/309/309
f 310/310/310 311/311/311 312/312/312
f 313/313/313 314/314/314 315/315/315
f 316/316/316 317/317/317 318/318/318
f 319/319/319 320/320/320 321/321/321
f 322/322/322 323/323/323 324/324/324
f 325/325/325 326/326/326 327/327/327
f 328/328/328 329/329/329 330/330/330
f 331/331/331 332/332/332 333/333/333
f 334/334/334 335/335/335 336/336/336
f 337/337/337 338/338/338 339/339/339
f 340/340/340 341/341/341 342/342/342
f 343/343/343 344/344/344 345/345/345
f 346/346/346 347/347/347 348/348/348
f 349/349/349 350/350/350 351/351/351
f 352/352/352 353/353/353 354/354/354
f 355/355/355 356/356/356 357/357/357
f 358/358/358 359/359/359 360/360/360
f 361/361/361 362/362/362 363/363/363
f 364/364/364 365/365/365 366/366/366
f 367/367/367 368/368/368 369/369/369
f 370/370/370 371/371/371 372/372/372
