o Mesh
usemtl material_23
v -0.098362997174263 -0.11418800055980682 -0.014391000382602215
v -0.098362997174263 -0.11418800055980682 -0.026045000180602074
v 0.098362997174263 -0.11418800055980682 -0.014391000382602215
v -0.098362997174263 -0.11418800055980682 -0.026045000180602074
v 0.098362997174263 -0.11418800055980682 -0.026045000180602074
v 0.098362997174263 -0.11418800055980682 -0.014391000382602215
v 0.10802300274372101 -0.10967200249433517 -0.014391000382602215
v -0.10802300274372101 -0.10967200249433517 -0.014391000382602215
v -0.098362997174263 -0.11418800055980682 -0.014391000382602215
v 0.10802300274372101 -0.10967200249433517 -0.014391000382602215
v -0.098362997174263 -0.11418800055980682 -0.014391000382602215
v 0.098362997174263 -0.11418800055980682 -0.014391000382602215
v -0.10802300274372101 -0.10967200249433517 -0.026045000180602074
v 0.10802300274372101 -0.10967099666595459 -0.026045000180602074
v 0.098362997174263 -0.11418800055980682 -0.026045000180602074
v -0.10802300274372101 -0.10967200249433517 -0.026045000180602074
v 0.098362997174263 -0.11418800055980682 -0.026045000180602074
v -0.098362997174263 -0.11418800055980682 -0.026045000180602074
v 0.10802300274372101 -0.10967099666595459 -0.026045000180602074
v 0.10802300274372101 -0.10967200249433517 -0.014391000382602215
v 0.098362997174263 -0.11418800055980682 -0.014391000382602215
v 0.10802300274372101 -0.10967099666595459 -0.026045000180602074
v 0.098362997174263 -0.11418800055980682 -0.014391000382602215
v 0.098362997174263 -0.11418800055980682 -0.026045000180602074
v -0.10802300274372101 -0.10967200249433517 -0.014391000382602215
v -0.10802300274372101 -0.10967200249433517 -0.026045000180602074
v -0.098362997174263 -0.11418800055980682 -0.026045000180602074
v -0.10802300274372101 -0.10967200249433517 -0.014391000382602215
v -0.098362997174263 -0.11418800055980682 -0.026045000180602074
v -0.098362997174263 -0.11418800055980682 -0.014391000382602215
v -0.11293599754571915 -0.1035270020365715 -0.014391000382602215
v -0.11293599754571915 -0.1035270020365715 -0.026045000180602074
v -0.10802300274372101 -0.10967200249433517 -0.026045000180602074
v -0.11293599754571915 -0.1035270020365715 -0.014391000382602215
v -0.10802300274372101 -0.10967200249433517 -0.026045000180602074
v -0.10802300274372101 -0.10967200249433517 -0.014391000382602215
v 0.11293599754571915 -0.1035270020365715 -0.026045000180602074
v 0.11293599754571915 -0.1035270020365715 -0.014391000382602215
v 0.10802300274372101 -0.10967200249433517 -0.014391000382602215
v 0.11293599754571915 -0.1035270020365715 -0.026045000180602074
v 0.10802300274372101 -0.10967200249433517 -0.014391000382602215
v 0.10802300274372101 -0.10967099666595459 -0.026045000180602074
v -0.11293599754571915 -0.1035270020365715 -0.026045000180602074
v 0.11293599754571915 -0.1035270020365715 -0.026045000180602074
v 0.10802300274372101 -0.10967099666595459 -0.026045000180602074
v -0.11293599754571915 -0.1035270020365715 -0.026045000180602074
v 0.10802300274372101 -0.10967099666595459 -0.026045000180602074
v -0.10802300274372101 -0.10967200249433517 -0.026045000180602074
v 0.11293599754571915 -0.1035270020365715 -0.014391000382602215
v -0.11293599754571915 -0.1035270020365715 -0.014391000382602215
v -0.10802300274372101 -0.10967200249433517 -0.014391000382602215
v 0.11293599754571915 -0.1035270020365715 -0.014391000382602215
v -0.10802300274372101 -0.10967200249433517 -0.014391000382602215
v 0.10802300274372101 -0.10967200249433517 -0.014391000382602215
v 0.11475100368261337 -0.09853599965572357 -0.014391000382602215
v -0.11475100368261337 -0.09853599965572357 -0.014391000382602215
v -0.11293599754571915 -0.1035270020365715 -0.014391000382602215
v 0.11475100368261337 -0.09853599965572357 -0.014391000382602215
v -0.11293599754571915 -0.1035270020365715 -0.014391000382602215
v 0.11293599754571915 -0.1035270020365715 -0.014391000382602215
v -0.11475100368261337 -0.09853599965572357 -0.026045000180602074
v 0.11475100368261337 -0.09853599965572357 -0.026045000180602074
v 0.11293599754571915 -0.1035270020365715 -0.026045000180602074
v -0.11475100368261337 -0.09853599965572357 -0.026045000180602074
v 0.11293599754571915 -0.1035270020365715 -0.026045000180602074
v -0.11293599754571915 -0.1035270020365715 -0.026045000180602074
v 0.11475100368261337 -0.09853599965572357 -0.026045000180602074
v 0.11475100368261337 -0.09853599965572357 -0.014391000382602215
v 0.11293599754571915 -0.1035270020365715 -0.014391000382602215
v 0.11475100368261337 -0.09853599965572357 -0.026045000180602074
v 0.11293599754571915 -0.1035270020365715 -0.014391000382602215
v 0.11293599754571915 -0.1035270020365715 -0.026045000180602074
v -0.11475100368261337 -0.09853599965572357 -0.014391000382602215
v -0.11475100368261337 -0.09853599965572357 -0.026045000180602074
v -0.11293599754571915 -0.1035270020365715 -0.026045000180602074
v -0.11475100368261337 -0.09853599965572357 -0.014391000382602215
v -0.11293599754571915 -0.1035270020365715 -0.026045000180602074
v -0.11293599754571915 -0.1035270020365715 -0.014391000382602215
v 0.09827599674463272 0.11410100013017654 -0.014391000382602215
v 0.09827599674463272 0.11410100013017654 -0.026045000180602074
v -0.09827599674463272 0.11410100013017654 -0.026045000180602074
v 0.09827599674463272 0.11410100013017654 -0.014391000382602215
v -0.09827599674463272 0.11410100013017654 -0.026045000180602074
v -0.09827599674463272 0.11410100013017654 -0.014391000382602215
v -0.10825300216674805 0.10913100093603134 -0.014391000382602215
v 0.10825300216674805 0.10913100093603134 -0.014391000382602215
v 0.09827599674463272 0.11410100013017654 -0.014391000382602215
v -0.10825300216674805 0.10913100093603134 -0.014391000382602215
v 0.09827599674463272 0.11410100013017654 -0.014391000382602215
v -0.09827599674463272 0.11410100013017654 -0.014391000382602215
v 0.10825300216674805 0.10913100093603134 -0.026045000180602074
v -0.10825300216674805 0.10913100093603134 -0.026045000180602074
v -0.09827599674463272 0.11410100013017654 -0.026045000180602074
v 0.10825300216674805 0.10913100093603134 -0.026045000180602074
v -0.09827599674463272 0.11410100013017654 -0.026045000180602074
v 0.09827599674463272 0.11410100013017654 -0.026045000180602074
v 0.10825300216674805 0.10913100093603134 -0.014391000382602215
v 0.10825300216674805 0.10913100093603134 -0.026045000180602074
v 0.09827599674463272 0.11410100013017654 -0.026045000180602074
v 0.10825300216674805 0.10913100093603134 -0.014391000382602215
v 0.09827599674463272 0.11410100013017654 -0.026045000180602074
v 0.09827599674463272 0.11410100013017654 -0.014391000382602215
v -0.10825300216674805 0.10913100093603134 -0.026045000180602074
v -0.10825300216674805 0.10913100093603134 -0.014391000382602215
v -0.09827599674463272 0.11410100013017654 -0.014391000382602215
v -0.10825300216674805 0.10913100093603134 -0.026045000180602074
v -0.09827599674463272 0.11410100013017654 -0.014391000382602215
v -0.09827599674463272 0.11410100013017654 -0.026045000180602074
v -0.11280500143766403 0.10322900116443634 -0.026045000180602074
v -0.11280500143766403 0.10322900116443634 -0.014391000382602215
v -0.10825300216674805 0.10913100093603134 -0.014391000382602215
v -0.11280500143766403 0.10322900116443634 -0.026045000180602074
v -0.10825300216674805 0.10913100093603134 -0.014391000382602215
v -0.10825300216674805 0.10913100093603134 -0.026045000180602074
v 0.11280500143766403 0.10322900116443634 -0.014391000382602215
v 0.11280500143766403 0.10322900116443634 -0.026045000180602074
v 0.10825300216674805 0.10913100093603134 -0.026045000180602074
v 0.11280500143766403 0.10322900116443634 -0.014391000382602215
v 0.10825300216674805 0.10913100093603134 -0.026045000180602074
v 0.10825300216674805 0.10913100093603134 -0.014391000382602215
v 0.11280500143766403 0.10322900116443634 -0.026045000180602074
v -0.11280500143766403 0.10322900116443634 -0.026045000180602074
v -0.10825300216674805 0.10913100093603134 -0.026045000180602074
v 0.11280500143766403 0.10322900116443634 -0.026045000180602074
v -0.10825300216674805 0.10913100093603134 -0.026045000180602074
v 0.10825300216674805 0.10913100093603134 -0.026045000180602074
v -0.11280500143766403 0.10322900116443634 -0.014391000382602215
v 0.11280500143766403 0.10322900116443634 -0.014391000382602215
v 0.10825300216674805 0.10913100093603134 -0.014391000382602215
v -0.11280500143766403 0.10322900116443634 -0.014391000382602215
v 0.10825300216674805 0.10913100093603134 -0.014391000382602215
v -0.10825300216674805 0.10913100093603134 -0.014391000382602215
v -0.11475100368261337 0.09853599965572357 -0.014391000382602215
v 0.11475100368261337 0.09853599965572357 -0.014391000382602215
v 0.11280500143766403 0.10322900116443634 -0.014391000382602215
v -0.11475100368261337 0.09853599965572357 -0.014391000382602215
v 0.11280500143766403 0.10322900116443634 -0.014391000382602215
v -0.11280500143766403 0.10322900116443634 -0.014391000382602215
v 0.11475100368261337 0.09853599965572357 -0.026045000180602074
v -0.11475100368261337 0.09853599965572357 -0.026045000180602074
v 0.11280500143766403 0.10322900116443634 -0.026045000180602074
v -0.11475100368261337 0.09853599965572357 -0.026045000180602074
v -0.11280500143766403 0.10322900116443634 -0.026045000180602074
v 0.11280500143766403 0.10322900116443634 -0.026045000180602074
v 0.11475100368261337 0.09853599965572357 -0.014391000382602215
v 0.11475100368261337 0.09853599965572357 -0.026045000180602074
v 0.11280500143766403 0.10322900116443634 -0.026045000180602074
v 0.11475100368261337 0.09853599965572357 -0.014391000382602215
v 0.11280500143766403 0.10322900116443634 -0.026045000180602074
v 0.11280500143766403 0.10322900116443634 -0.014391000382602215
v -0.11475100368261337 0.09853599965572357 -0.026045000180602074
v -0.11475100368261337 0.09853599965572357 -0.014391000382602215
v -0.11280500143766403 0.10322900116443634 -0.014391000382602215
v -0.11475100368261337 0.09853599965572357 -0.026045000180602074
v -0.11280500143766403 0.10322900116443634 -0.014391000382602215
v -0.11280500143766403 0.10322900116443634 -0.026045000180602074
v -0.11475100368261337 -0.09853599965572357 -0.026045000180602074
v -0.11475100368261337 -0.09853599965572357 -0.014391000382602215
v -0.11475100368261337 0.09853599965572357 -0.014391000382602215
v -0.11475100368261337 -0.09853599965572357 -0.026045000180602074
v -0.11475100368261337 0.09853599965572357 -0.014391000382602215
v -0.11475100368261337 0.09853599965572357 -0.026045000180602074
v 0.11475100368261337 -0.09853599965572357 -0.014391000382602215
v 0.11475100368261337 -0.09853599965572357 -0.026045000180602074
v 0.11475100368261337 0.09853599965572357 -0.014391000382602215
v 0.11475100368261337 -0.09853599965572357 -0.026045000180602074
v 0.11475100368261337 0.09853599965572357 -0.026045000180602074
v 0.11475100368261337 0.09853599965572357 -0.014391000382602215
v -0.11475100368261337 -0.09853599965572357 -0.026045000180602074
v -0.11475100368261337 0.09853599965572357 -0.026045000180602074
v 0.11475100368261337 -0.09853599965572357 -0.026045000180602074
v -0.11475100368261337 0.09853599965572357 -0.026045000180602074
v 0.11475100368261337 0.09853599965572357 -0.026045000180602074
v 0.11475100368261337 -0.09853599965572357 -0.026045000180602074
v -0.11475100368261337 -0.09853599965572357 -0.014391000382602215
v 0.11475100368261337 -0.09853599965572357 -0.014391000382602215
v 0.11475100368261337 0.09853599965572357 -0.014391000382602215
v -0.11475100368261337 -0.09853599965572357 -0.014391000382602215
v 0.11475100368261337 0.09853599965572357 -0.014391000382602215
v -0.11475100368261337 0.09853599965572357 -0.014391000382602215
vt 0.4436880052089691 0.9322779774665833
vt 0.4436880052089691 0.6996669769287109
vt 0.6430789828300476 0.9322779774665833
vt 0.4436880052089691 0.6996669769287109
vt 0.6430789828300476 0.6996669769287109
vt 0.6430789828300476 0.9322779774665833
vt 0.9684969782829285 0.5467770099639893
vt 0.9657599925994873 0.330157995223999
vt 0.9929230213165283 0.34120500087738037
vt 0.9684969782829285 0.5467770099639893
vt 0.9929230213165283 0.34120500087738037
vt 1 0.4998700022697449
vt 0.5288320183753967 0.5609220266342163
vt 0.4704830050468445 0.3190479874610901
vt 0.5037199854850769 0.32448700070381165
vt 0.5288320183753967 0.5609220266342163
vt 0.5037199854850769 0.32448700070381165
vt 0.5521379709243774 0.500353991985321
vt 0.7727890014648438 0.31590598821640015
vt 0.7727890014648438 0.023329999297857285
vt 0.8107609748840332 0.026473000645637512
vt 0.7727890014648438 0.31590598821640015
vt 0.8107609748840332 0.026473000645637512
vt 0.8107609748840332 0.3190479874610901
vt 0.41349801421165466 0.9297800064086914
vt 0.41349801421165466 0.6971690058708191
vt 0.4436880052089691 0.6996669769287109
vt 0.41349801421165466 0.9297800064086914
vt 0.4436880052089691 0.6996669769287109
vt 0.4436880052089691 0.9322779774665833
vt 0.38337400555610657 0.9269840121269226
vt 0.38337400555610657 0.6943740248680115
vt 0.41349801421165466 0.6971690058708191
vt 0.38337400555610657 0.9269840121269226
vt 0.41349801421165466 0.6971690058708191
vt 0.41349801421165466 0.9297800064086914
vt 0.7348989844322205 0.31238898634910583
vt 0.7348989844322205 0.01981399953365326
vt 0.7727890014648438 0.023329999297857285
vt 0.7348989844322205 0.31238898634910583
vt 0.7727890014648438 0.023329999297857285
vt 0.7727890014648438 0.31590598821640015
vt 0.49678000807762146 0.5896589756011963
vt 0.4340539872646332 0.3190479874610901
vt 0.4704830050468445 0.3190479874610901
vt 0.49678000807762146 0.5896589756011963
vt 0.4704830050468445 0.3190479874610901
vt 0.5288320183753967 0.5609220266342163
vt 0.9357280135154724 0.5649710297584534
vt 0.9348350167274475 0.3231090009212494
vt 0.9657599925994873 0.330157995223999
vt 0.9357280135154724 0.5649710297584534
vt 0.9657599925994873 0.330157995223999
vt 0.9684969782829285 0.5467770099639893
vt 0.9021090269088745 0.571690022945404
vt 0.9021090269088745 0.3190479874610901
vt 0.9348350167274475 0.3231090009212494
vt 0.9021090269088745 0.571690022945404
vt 0.9348350167274475 0.3231090009212494
vt 0.9357280135154724 0.5649710297584534
vt 0.46084699034690857 0.6057630181312561
vt 0.396369993686676 0.3228519856929779
vt 0.4340539872646332 0.3190479874610901
vt 0.46084699034690857 0.6057630181312561
vt 0.4340539872646332 0.3190479874610901
vt 0.49678000807762146 0.5896589756011963
vt 0.6971060037612915 0.30845800042152405
vt 0.6971060037612915 0.01588200032711029
vt 0.7348989844322205 0.01981399953365326
vt 0.6971060037612915 0.30845800042152405
vt 0.7348989844322205 0.01981399953365326
vt 0.7348989844322205 0.31238898634910583
vt 0.3533270061016083 0.9238579869270325
vt 0.3533270061016083 0.6912479996681213
vt 0.38337400555610657 0.6943740248680115
vt 0.3533270061016083 0.9238579869270325
vt 0.38337400555610657 0.6943740248680115
vt 0.38337400555610657 0.9269840121269226
vt 0.2530210018157959 0.0002789999998640269
vt 0.2526949942111969 0.2953360080718994
vt 0 0.2950569987297058
vt 0.2530210018157959 0.0002789999998640269
vt 0 0.2950569987297058
vt 0.00032500000088475645 0
vt 0.5831509828567505 0.3444809913635254
vt 0.5859779715538025 0.5608609914779663
vt 0.5588729977607727 0.5495560169219971
vt 0.5831509828567505 0.3444809913635254
vt 0.5588729977607727 0.5495560169219971
vt 0.5521379709243774 0.38833799958229065
vt 0.04767199978232384 0.4365159869194031
vt 0.10613600164651871 0.6788409948348999
vt 0.07280199974775314 0.6730690002441406
vt 0.04767199978232384 0.4365159869194031
vt 0.07280199974775314 0.6730690002441406
vt 0.024041999131441116 0.4937030076980591
vt 0.32887399196624756 0.008318999782204628
vt 0.32887500524520874 0.30089399218559265
vt 0.29088398814201355 0.2978389859199524
vt 0.32887399196624756 0.008318999782204628
vt 0.29088398814201355 0.2978389859199524
vt 0.29088300466537476 0.0052629997953772545
vt 0.06056699901819229 0.685234010219574
vt 0.06056699901819229 0.9178450107574463
vt 0.030362000688910484 0.9154149889945984
vt 0.06056699901819229 0.685234010219574
vt 0.030362000688910484 0.9154149889945984
vt 0.030362000688910484 0.6828039884567261
vt 0.09067799896001816 0.6880850195884705
vt 0.09067799896001816 0.9206960201263428
vt 0.06056699901819229 0.9178450107574463
vt 0.09067799896001816 0.6880850195884705
vt 0.06056699901819229 0.9178450107574463
vt 0.06056699901819229 0.685234010219574
vt 0.36674800515174866 0.011904999613761902
vt 0.36674898862838745 0.30448099970817566
vt 0.32887500524520874 0.30089399218559265
vt 0.36674800515174866 0.011904999613761902
vt 0.32887500524520874 0.30089399218559265
vt 0.32887399196624756 0.008318999782204628
vt 0.07980599999427795 0.40871599316596985
vt 0.14240199327468872 0.6784070134162903
vt 0.10613600164651871 0.6788409948348999
vt 0.07980599999427795 0.40871599316596985
vt 0.10613600164651871 0.6788409948348999
vt 0.04767199978232384 0.4365159869194031
vt 0.6157050132751465 0.32713600993156433
vt 0.6167600154876709 0.5674759745597839
vt 0.5859779715538025 0.5608609914779663
vt 0.6157050132751465 0.32713600993156433
vt 0.5859779715538025 0.5608609914779663
vt 0.5831509828567505 0.3444809913635254
vt 0.6494659781455994 0.3190479874610901
vt 0.6494659781455994 0.571690022945404
vt 0.6167600154876709 0.5674759745597839
vt 0.6494659781455994 0.3190479874610901
vt 0.6167600154876709 0.5674759745597839
vt 0.6157050132751465 0.32713600993156433
vt 0.11345899850130081 0.38732901215553284
vt 0.17793600261211395 0.6702409982681274
vt 0.07980599999427795 0.40871599316596985
vt 0.17793600261211395 0.6702409982681274
vt 0.14240199327468872 0.6784070134162903
vt 0.07980599999427795 0.40871599316596985
vt 0.40452998876571655 0.015883000567555428
vt 0.40453100204467773 0.30845800042152405
vt 0.36674898862838745 0.30448099970817566
vt 0.40452998876571655 0.015883000567555428
vt 0.36674898862838745 0.30448099970817566
vt 0.36674800515174866 0.011904999613761902
vt 0.12071699649095535 0.6912479996681213
vt 0.12071699649095535 0.9238579869270325
vt 0.09067799896001816 0.9206960201263428
vt 0.12071699649095535 0.6912479996681213
vt 0.09067799896001816 0.9206960201263428
vt 0.09067799896001816 0.6880850195884705
vt 0.3533270061016083 0.6912479996681213
vt 0.3533270061016083 0.9238579869270325
vt 0.12071699649095535 0.9238579869270325
vt 0.3533270061016083 0.6912479996681213
vt 0.12071699649095535 0.9238579869270325
vt 0.12071699649095535 0.6912479996681213
vt 0.6971060037612915 0.01588200032711029
vt 0.6971060037612915 0.30845800042152405
vt 0.40452998876571655 0.015883000567555428
vt 0.6971060037612915 0.30845800042152405
vt 0.40453100204467773 0.30845800042152405
vt 0.40452998876571655 0.015883000567555428
vt 0.46084699034690857 0.6057630181312561
vt 0.17793600261211395 0.6702409982681274
vt 0.396369993686676 0.3228519856929779
vt 0.17793600261211395 0.6702409982681274
vt 0.11345899850130081 0.38732901215553284
vt 0.396369993686676 0.3228519856929779
vt 0.9021090269088745 0.3190479874610901
vt 0.9021090269088745 0.571690022945404
vt 0.6494659781455994 0.571690022945404
vt 0.9021090269088745 0.3190479874610901
vt 0.6494659781455994 0.571690022945404
vt 0.6494659781455994 0.3190479874610901
vn -0.021875990653835126 -0.9997606918822691 0
vn -0.021875990653835126 -0.9997606918822691 0
vn 0.02187798961921923 -0.9997606481404543 0
vn -0.021875990653835126 -0.9997606918822691 0
vn 0.021880988346178857 -0.9997605825141308 0
vn 0.02187798961921923 -0.9997606481404543 0
vn 0 0 1
vn 0 0 1
vn 0 0 1
vn 0 0 1
vn 0 0 1
vn 0 0 1
vn 0 0 -1
vn 0 0 -1
vn 0 0 -1
vn 0 0 -1
vn 0 0 -1
vn 0 0 -1
vn 0.5308030776224844 -0.847495187470996 0
vn 0.6530988073390952 -0.7572727037548965 0
vn 0.02187798961921923 -0.9997606481404543 0
vn 0.5308030776224844 -0.847495187470996 0
vn 0.02187798961921923 -0.9997606481404543 0
vn 0.021880988346178857 -0.9997605825141308 0
vn -0.5307999934243467 -0.8474971191577666 0
vn -0.6531180722028588 -0.7572560886265765 0
vn -0.021875990653835126 -0.9997606918822691 0
vn -0.5307999934243467 -0.8474971191577666 0
vn -0.021875990653835126 -0.9997606918822691 0
vn -0.021875990653835126 -0.9997606918822691 0
vn -0.829382732229476 -0.5586808422342485 0
vn -0.8836822887449602 -0.4680871847834209 0
vn -0.6531180722028588 -0.7572560886265765 0
vn -0.829382732229476 -0.5586808422342485 0
vn -0.6531180722028588 -0.7572560886265765 0
vn -0.5307999934243467 -0.8474971191577666 0
vn 0.8293678807097498 -0.5587028892416955 0
vn 0.8836822887449602 -0.4680871847834209 0
vn 0.6530988073390952 -0.7572727037548965 0
vn 0.8293678807097498 -0.5587028892416955 0
vn 0.6530988073390952 -0.7572727037548965 0
vn 0.5308030776224844 -0.847495187470996 0
vn 0 0 -1
vn 0 0 -1
vn 0 0 -1
vn 0 0 -1
vn 0 0 -1
vn 0 0 -1
vn 0 0 1
vn 0 0 1
vn 0 0 1
vn 0 0 1
vn 0 0 1
vn 0 0 1
vn 0 0 1
vn 0 0 1
vn 0 0 1
vn 0 0 1
vn 0 0 1
vn 0 0 1
vn 0 0 -1
vn 0 0 -1
vn 0 0 -1
vn 0 0 -1
vn 0 0 -1
vn 0 0 -1
vn 0.9999596610405629 -0.008981998198754643 0
vn 0.9999596610405629 -0.008981998198754643 0
vn 0.8836822887449602 -0.4680871847834209 0
vn 0.9999596610405629 -0.008981998198754643 0
vn 0.8836822887449602 -0.4680871847834209 0
vn 0.8293678807097498 -0.5587028892416955 0
vn -0.9998463551477026 -0.017529007326553356 0
vn -0.9999896623471519 -0.004546998881565504 0
vn -0.8836822887449602 -0.4680871847834209 0
vn -0.9998463551477026 -0.017529007326553356 0
vn -0.8836822887449602 -0.4680871847834209 0
vn -0.829382732229476 -0.5586808422342485 0
vn 0 1 0
vn 0 1 0
vn 0 1 0
vn 0 1 0
vn 0 1 0
vn 0 1 0
vn 0 0 1
vn 0 0 1
vn 0 0 1
vn 0 0 1
vn 0 0 1
vn 0 0 1
vn 0 0 -1
vn 0 0 -1
vn 0 0 -1
vn 0 0 -1
vn 0 0 -1
vn 0 0 -1
vn 0.5428990195249008 0.8397979843979749 0
vn 0.6602482971031134 0.7510473927605628 0
vn 0.4458918633074516 0.8950868372600553 0
vn 0.5428990195249008 0.8397979843979749 0
vn 0.4458918633074516 0.8950868372600553 0
vn 0.4458918633074516 0.8950868372600553 0
vn -0.5428990195249008 0.8397979843979749 0
vn -0.6602482971031134 0.7510473927605628 0
vn -0.4458918633074516 0.8950868372600553 0
vn -0.5428990195249008 0.8397979843979749 0
vn -0.4458918633074516 0.8950868372600553 0
vn -0.4458918633074516 0.8950868372600553 0
vn -0.8308473931723254 0.5565003227840495 0
vn -0.8753669904899907 0.4834590282128327 0
vn -0.6602482971031134 0.7510473927605628 0
vn -0.8308473931723254 0.5565003227840495 0
vn -0.6602482971031134 0.7510473927605628 0
vn -0.5428990195249008 0.8397979843979749 0
vn 0.8308473931723254 0.5565003227840495 0
vn 0.8753669904899907 0.4834590282128327 0
vn 0.6602482971031134 0.7510473927605628 0
vn 0.8308473931723254 0.5565003227840495 0
vn 0.6602482971031134 0.7510473927605628 0
vn 0.5428990195249008 0.8397979843979749 0
vn 0 0 -1
vn 0 0 -1
vn 0 0 -1
vn 0 0 -1
vn 0 0 -1
vn 0 0 -1
vn 0 0 1
vn 0 0 1
vn 0 0 1
vn 0 0 1
vn 0 0 1
vn 0 0 1
vn 0 0 1
vn 0 0 1
vn 0 0 1
vn 0 0 1
vn 0 0 1
vn 0 0 1
vn 0 0 -1
vn 0 0 -1
vn 0 0 -1
vn 0 0 -1
vn 0 0 -1
vn 0 0 -1
vn 0.9999534955083078 0.009644004392191319 0
vn 0.9999534955083078 0.009644004392191319 0
vn 0.8753669904899907 0.4834590282128327 0
vn 0.9999534955083078 0.009644004392191319 0
vn 0.8753669904899907 0.4834590282128327 0
vn 0.8308473931723254 0.5565003227840495 0
vn -0.9998223604990656 0.01884800907461467 0
vn -0.9999880976030422 0.004879001152782099 0
vn -0.8753669904899907 0.4834590282128327 0
vn -0.9998223604990656 0.01884800907461467 0
vn -0.8753669904899907 0.4834590282128327 0
vn -0.8308473931723254 0.5565003227840495 0
vn -0.9999896623471519 -0.004546998881565504 0
vn -0.9998463551477026 -0.017529007326553356 0
vn -0.9999880976030422 0.004879001152782099 0
vn -0.9999896623471519 -0.004546998881565504 0
vn -0.9999880976030422 0.004879001152782099 0
vn -0.9998223604990656 0.01884800907461467 0
vn 0.9999596610405629 -0.008981998198754643 0
vn 0.9999596610405629 -0.008981998198754643 0
vn 0.9999534955083078 0.009644004392191319 0
vn 0.9999596610405629 -0.008981998198754643 0
vn 0.9999534955083078 0.009644004392191319 0
vn 0.9999534955083078 0.009644004392191319 0
vn 0 0 -1
vn 0 0 -1
vn 0 0 -1
vn 0 0 -1
vn 0 0 -1
vn 0 0 -1
vn 0 0 1
vn 0 0 1
vn 0 0 1
vn 0 0 1
vn 0 0 1
vn 0 0 1
f 1/1/1 2/2/2 3/3/3
f 4/4/4 5/5/5 6/6/6
f 7/7/7 8/8/8 9/9/9
f 10/10/10 11/11/11 12/12/12
f 13/13/13 14/14/14 15/15/15
f 16/16/16 17/17/17 18/18/18
f 19/19/19 20/20/20 21/21/21
f 22/22/22 23/23/23 24/24/24
f 25/25/25 26/26/26 27/27/27
f 28/28/28 29/29/29 30/30/30
f 31/31/31 32/32/32 33/33/33
f 34/34/34 35/35/35 36/36/36
f 37/37/37 38/38/38 39/39/39
f 40/40/40 41/41/41 42/42/42
f 43/43/43 44/44/44 45/45/45
f 46/46/46 47/47/47 48/48/48
f 49/49/49 50/50/50 51/51/51
f 52/52/52 53/53/53 54/54/54
f 55/55/55 56/56/56 57/57/57
f 58/58/58 59/59/59 60/60/60
f 61/61/61 62/62/62 63/63/63
f 64/64/64 65/65/65 66/66/66
f 67/67/67 68/68/68 69/69/69
f 70/70/70 71/71/71 72/72/72
f 73/73/73 74/74/74 75/75/75
f 76/76/76 77/77/77 78/78/78
f 79/79/79 80/80/80 81/81/81
f 82/82/82 83/83/83 84/84/84
f 85/85/85 86/86/86 87/87/87
f 88/88/88 89/89/89 90/90/90
f 91/91/91 92/92/92 93/93/93
f 94/94/94 95/95/95 96/96/96
f 97/97/97 98/98/98 99/99/99
f 100/100/100 101/101/101 102/102/102
f 103/103/103 104/104/104 105/105/105
f 106/106/106 107/107/107 108/108/108
f 109/109/109 110/110/110 111/111/111
f 112/112/112 113/113/113 114/114/114
f 115/115/115 116/116/116 117/117/117
f 118/118/118 119/119/119 120/120/120
f 121/121/121 122/122/122 123/123/123
f 124/124/124 125/125/125 126/126/126
f 127/127/127 128/128/128 129/129/129
f 130/130/130 131/131/131 132/132/132
f 133/133/133 134/134/134 135/135/135
f 136/136/136 137/137/137 138/138/138
f 139/139/139 140/140/140 141/141/141
f 142/142/142 143/143/143 144/144/144
f 145/145/145 146/146/146 147/147/147
f 148/148/148 149/149/149 150/150/150
f 151/151/151 152/152/152 153/153/153
f 154/154/154 155/155/155 156/156/156
f 157/157/157 158/158/158 159/159/159
f 160/160/160 161/161/161 162/162/162
f 163/163/163 164/164/164 165/165/165
f 166/166/166 167/167/167 168/168/168
f 169/169/169 170/170/170 171/171/171
f 172/172/172 173/173/173 174/174/174
f 175/175/175 176/176/176 177/177/177
f 178/178/178 179/179/179 180/180/180
