o Mesh
usemtl material_21
v 0.09178189188241959 -0.11430338025093079 0
v 0.09176753461360931 -0.1143006980419159 -0.014418000355362892
v 0.09838411957025528 -0.1143023818731308 -0.014418000355362892
v 0.09178189188241959 -0.11430338025093079 0
v 0.09838411957025528 -0.1143023818731308 -0.014418000355362892
v 0.09839846938848495 -0.1143006980419159 0
v 0.10236799716949463 -0.11228500306606293 0.00009999999747378752
v 0.08779799938201904 -0.11228500306606293 0.00009999999747378752
v 0.0917930006980896 -0.11420399695634842 0.00009999999747378752
v 0.10236799716949463 -0.11228500306606293 0.00009999999747378752
v 0.0917930006980896 -0.11420399695634842 0.00009999999747378752
v 0.09837300330400467 -0.11420399695634842 0.00009999999747378752
v 0.08779799938201904 -0.11228500306606293 -0.014518000185489655
v 0.10236799716949463 -0.11228500306606293 -0.014518000185489655
v 0.09837300330400467 -0.11420299857854843 -0.014518000185489655
v 0.08779799938201904 -0.11228500306606293 -0.014518000185489655
v 0.09837300330400467 -0.11420299857854843 -0.014518000185489655
v 0.0917930006980896 -0.11420399695634842 -0.014518000185489655
v 0.10241904854774475 -0.11237099021673203 -0.014418000355362892
v 0.10241905599832535 -0.11237099021673203 0
v 0.09839846938848495 -0.1143006980419159 0
v 0.10241904854774475 -0.11237099021673203 -0.014418000355362892
v 0.09839846938848495 -0.1143006980419159 0
v 0.09838411957025528 -0.1143023818731308 -0.014418000355362892
v 0.08774694055318832 -0.11237099021673203 0
v 0.08774694055318832 -0.11237099021673203 -0.014418000355362892
v 0.09176753461360931 -0.1143006980419159 -0.014418000355362892
v 0.08774694055318832 -0.11237099021673203 0
v 0.09176753461360931 -0.1143006980419159 -0.014418000355362892
v 0.09178189188241959 -0.11430338025093079 0
v 0.07856994867324829 -0.1064581498503685 0
v 0.07856994867324829 -0.1064581498503685 -0.014418000355362892
v 0.08774694055318832 -0.11237099021673203 0
v 0.07856994867324829 -0.1064581498503685 -0.014418000355362892
v 0.08774694055318832 -0.11237099021673203 -0.014418000355362892
v 0.08774694055318832 -0.11237099021673203 0
v 0.11160270124673843 -0.10644717514514923 -0.014418000355362892
v 0.11158780008554459 -0.10646847635507584 0
v 0.10241904854774475 -0.11237099021673203 -0.014418000355362892
v 0.11158780008554459 -0.10646847635507584 0
v 0.10241905599832535 -0.11237099021673203 0
v 0.10241904854774475 -0.11237099021673203 -0.014418000355362892
v 0.07865200191736221 -0.1064009964466095 -0.014518000185489655
v 0.11151400208473206 -0.1064009964466095 -0.014518000185489655
v 0.10236799716949463 -0.11228500306606293 -0.014518000185489655
v 0.07865200191736221 -0.1064009964466095 -0.014518000185489655
v 0.10236799716949463 -0.11228500306606293 -0.014518000185489655
v 0.08779799938201904 -0.11228500306606293 -0.014518000185489655
v 0.11151400208473206 -0.1064009964466095 0.00009999999747378752
v 0.07865200191736221 -0.1064009964466095 0.00009999999747378752
v 0.08779799938201904 -0.11228500306606293 0.00009999999747378752
v 0.11151400208473206 -0.1064009964466095 0.00009999999747378752
v 0.08779799938201904 -0.11228500306606293 0.00009999999747378752
v 0.10236799716949463 -0.11228500306606293 0.00009999999747378752
v 0.1144070029258728 -0.09500099718570709 0.00009999999747378752
v 0.07575900107622147 -0.09500099718570709 0.00009999999747378752
v 0.07865200191736221 -0.1064009964466095 0.00009999999747378752
v 0.1144070029258728 -0.09500099718570709 0.00009999999747378752
v 0.07865200191736221 -0.1064009964466095 0.00009999999747378752
v 0.11151400208473206 -0.1064009964466095 0.00009999999747378752
v 0.07575900107622147 -0.09500099718570709 -0.014518000185489655
v 0.1144070029258728 -0.09500099718570709 -0.014518000185489655
v 0.11151400208473206 -0.1064009964466095 -0.014518000185489655
v 0.07575900107622147 -0.09500099718570709 -0.014518000185489655
v 0.11151400208473206 -0.1064009964466095 -0.014518000185489655
v 0.07865200191736221 -0.1064009964466095 -0.014518000185489655
v 0.11450699716806412 -0.09500173479318619 -0.014418000355362892
v 0.11450696736574173 -0.09500371664762497 0
v 0.11160270124673843 -0.10644717514514923 -0.014418000355362892
v 0.11450696736574173 -0.09500371664762497 0
v 0.11158780008554459 -0.10646847635507584 0
v 0.11160270124673843 -0.10644717514514923 -0.014418000355362892
v 0.07565903663635254 -0.09500371664762497 0
v 0.07565900683403015 -0.09500173479318619 -0.014418000355362892
v 0.07856994867324829 -0.1064581498503685 -0.014418000355362892
v 0.07565903663635254 -0.09500371664762497 0
v 0.07856994867324829 -0.1064581498503685 -0.014418000355362892
v 0.07856994867324829 -0.1064581498503685 0
v 0.09902704507112503 0.11455081403255463 0
v 0.09903540462255478 0.11454995721578598 -0.014418000355362892
v 0.09113895893096924 0.11455081403255463 -0.014418000355362892
v 0.09902704507112503 0.11455081403255463 0
v 0.09113895893096924 0.11455081403255463 -0.014418000355362892
v 0.09113059192895889 0.11454995721578598 0
v 0.08667699992656708 0.1132270023226738 0.00009999999747378752
v 0.1034889966249466 0.1132270023226738 0.00009999999747378752
v 0.09114500135183334 0.11445099860429764 0.00009999999747378752
v 0.1034889966249466 0.1132270023226738 0.00009999999747378752
v 0.09902100265026093 0.11445099860429764 0.00009999999747378752
v 0.09114500135183334 0.11445099860429764 0.00009999999747378752
v 0.1034889966249466 0.11322800070047379 -0.014518000185489655
v 0.08667699992656708 0.1132270023226738 -0.014518000185489655
v 0.09902100265026093 0.11445099860429764 -0.014518000185489655
v 0.08667699992656708 0.1132270023226738 -0.014518000185489655
v 0.09114500135183334 0.11445099860429764 -0.014518000185489655
v 0.09902100265026093 0.11445099860429764 -0.014518000185489655
v 0.10353493690490723 0.11331582814455032 0
v 0.1035478264093399 0.1133088693022728 -0.014418000355362892
v 0.09903540462255478 0.11454995721578598 -0.014418000355362892
v 0.10353493690490723 0.11331582814455032 0
v 0.09903540462255478 0.11454995721578598 -0.014418000355362892
v 0.09902704507112503 0.11455081403255463 0
v 0.08663105964660645 0.11331582069396973 -0.014418000355362892
v 0.08661817759275436 0.11330787092447281 0
v 0.09113059192895889 0.11454995721578598 0
v 0.08663105964660645 0.11331582069396973 -0.014418000355362892
v 0.09113059192895889 0.11454995721578598 0
v 0.09113895893096924 0.11455081403255463 -0.014418000355362892
v 0.08107331395149231 0.10825468599796295 -0.014418000355362892
v 0.08106622099876404 0.10824302583932877 0
v 0.08661817759275436 0.11330787092447281 0
v 0.08107331395149231 0.10825468599796295 -0.014418000355362892
v 0.08661817759275436 0.11330787092447281 0
v 0.08663105964660645 0.11331582069396973 -0.014418000355362892
v 0.10909269005060196 0.10825468599796295 0
v 0.10909978300333023 0.10824302583932877 -0.014418000355362892
v 0.1035478264093399 0.1133088693022728 -0.014418000355362892
v 0.10909269005060196 0.10825468599796295 0
v 0.1035478264093399 0.1133088693022728 -0.014418000355362892
v 0.10353493690490723 0.11331582814455032 0
v 0.10901100188493729 0.10819700360298157 -0.014518000185489655
v 0.08115500211715698 0.10819700360298157 -0.014518000185489655
v 0.08667699992656708 0.1132270023226738 -0.014518000185489655
v 0.10901100188493729 0.10819700360298157 -0.014518000185489655
v 0.08667699992656708 0.1132270023226738 -0.014518000185489655
v 0.1034889966249466 0.11322800070047379 -0.014518000185489655
v 0.08115500211715698 0.10819700360298157 0.00009999999747378752
v 0.10901100188493729 0.10819700360298157 0.00009999999747378752
v 0.08667699992656708 0.1132270023226738 0.00009999999747378752
v 0.10901100188493729 0.10819700360298157 0.00009999999747378752
v 0.1034889966249466 0.1132270023226738 0.00009999999747378752
v 0.08667699992656708 0.1132270023226738 0.00009999999747378752
v 0.07575900107622147 0.09497600048780441 0.00009999999747378752
v 0.1144070029258728 0.09497600048780441 0.00009999999747378752
v 0.10901100188493729 0.10819700360298157 0.00009999999747378752
v 0.07575900107622147 0.09497600048780441 0.00009999999747378752
v 0.10901100188493729 0.10819700360298157 0.00009999999747378752
v 0.08115500211715698 0.10819700360298157 0.00009999999747378752
v 0.1144070029258728 0.09497600048780441 -0.014518000185489655
v 0.07575900107622147 0.09497600048780441 -0.014518000185489655
v 0.08115500211715698 0.10819700360298157 -0.014518000185489655
v 0.1144070029258728 0.09497600048780441 -0.014518000185489655
v 0.08115500211715698 0.10819700360298157 -0.014518000185489655
v 0.10901100188493729 0.10819700360298157 -0.014518000185489655
v 0.11449959129095078 0.09501378983259201 0
v 0.11449959129095078 0.09501378983259201 -0.014418000355362892
v 0.10909978300333023 0.10824302583932877 -0.014418000355362892
v 0.11449959129095078 0.09501378983259201 0
v 0.10909978300333023 0.10824302583932877 -0.014418000355362892
v 0.10909269005060196 0.10825468599796295 0
v 0.0756664127111435 0.09501378983259201 -0.014418000355362892
v 0.0756664127111435 0.09501378983259201 0
v 0.08106622099876404 0.10824302583932877 0
v 0.0756664127111435 0.09501378983259201 -0.014418000355362892
v 0.08106622099876404 0.10824302583932877 0
v 0.08107331395149231 0.10825468599796295 -0.014418000355362892
v 0.07565900683403015 -0.09500173479318619 -0.014418000355362892
v 0.07565903663635254 -0.09500371664762497 0
v 0.07565899938344955 0.09497600048780441 0
v 0.07565900683403015 -0.09500173479318619 -0.014418000355362892
v 0.07565899938344955 0.09497600048780441 0
v 0.07565899938344955 0.09497600048780441 -0.014418000355362892
v 0.11450696736574173 -0.09500371664762497 0
v 0.11450699716806412 -0.09500173479318619 -0.014418000355362892
v 0.11450700461864471 0.09497600048780441 0
v 0.11450699716806412 -0.09500173479318619 -0.014418000355362892
v 0.11450700461864471 0.09497600048780441 -0.014418000355362892
v 0.11450700461864471 0.09497600048780441 0
v 0.07575900107622147 -0.09500099718570709 -0.014518000185489655
v 0.07575900107622147 0.09497600048780441 -0.014518000185489655
v 0.1144070029258728 -0.09500099718570709 -0.014518000185489655
v 0.07575900107622147 0.09497600048780441 -0.014518000185489655
v 0.1144070029258728 0.09497600048780441 -0.014518000185489655
v 0.1144070029258728 -0.09500099718570709 -0.014518000185489655
v 0.07575900107622147 -0.09500099718570709 0.00009999999747378752
v 0.1144070029258728 -0.09500099718570709 0.00009999999747378752
v 0.1144070029258728 0.09497600048780441 0.00009999999747378752
v 0.07575900107622147 -0.09500099718570709 0.00009999999747378752
v 0.1144070029258728 0.09497600048780441 0.00009999999747378752
v 0.07575900107622147 0.09497600048780441 0.00009999999747378752
vt 0.19407899677753448 0.0010369999799877405
vt 0.19407899677753448 0.29020199179649353
vt 0.1448500007390976 0.29020199179649353
vt 0.19407899677753448 0.0010369999799877405
vt 0.1448500007390976 0.29020199179649353
vt 0.1448500007390976 0.0010369999799877405
vt 0.9823369979858398 0.5724740028381348
vt 0.9806039929389954 0.43382498621940613
vt 0.9983100295066833 0.43820101022720337
vt 0.9823369979858398 0.5724740028381348
vt 0.9983100295066833 0.43820101022720337
vt 1 0.5734109878540039
vt 0.7014549970626831 0.21426600217819214
vt 0.6996989846229553 0.07385999709367752
vt 0.7176300287246704 0.07828500121831894
vt 0.7014549970626831 0.21426600217819214
vt 0.7176300287246704 0.07828500121831894
vt 0.7193419933319092 0.21521399915218353
vt 0.10693199932575226 0.2891649901866913
vt 0.10693199932575226 0
vt 0.1448500007390976 0.0010369999799877405
vt 0.10693199932575226 0.2891649901866913
vt 0.1448500007390976 0.0010369999799877405
vt 0.1448500007390976 0.29020199179649353
vt 0.23199699819087982 0.002073999959975481
vt 0.23199699819087982 0.2912389934062958
vt 0.19407899677753448 0.29020199179649353
vt 0.23199699819087982 0.002073999959975481
vt 0.19407899677753448 0.29020199179649353
vt 0.19407899677753448 0.0010369999799877405
vt 0.30101099610328674 0.002073999959975481
vt 0.3010120093822479 0.2912389934062958
vt 0.23199699819087982 0.002073999959975481
vt 0.3010120093822479 0.2912389934062958
vt 0.23199699819087982 0.2912389934062958
vt 0.23199699819087982 0.002073999959975481
vt 0.03791699931025505 0.2891649901866913
vt 0.03791699931025505 0
vt 0.10693199932575226 0.2891649901866913
vt 0.03791699931025505 0
vt 0.10693199932575226 0
vt 0.10693199932575226 0.2891649901866913
vt 0.6831129789352417 0.21329399943351746
vt 0.6806979775428772 0.02010899968445301
vt 0.6996989846229553 0.07385999709367752
vt 0.6831129789352417 0.21329399943351746
vt 0.6996989846229553 0.07385999709367752
vt 0.7014549970626831 0.21426600217819214
vt 0.9642249941825867 0.5715140104293823
vt 0.9618399739265442 0.380744993686676
vt 0.9806039929389954 0.43382498621940613
vt 0.9642249941825867 0.5715140104293823
vt 0.9806039929389954 0.43382498621940613
vt 0.9823369979858398 0.5724740028381348
vt 0.932112991809845 0.6065469980239868
vt 0.932112991809845 0.36088699102401733
vt 0.9618399739265442 0.380744993686676
vt 0.932112991809845 0.6065469980239868
vt 0.9618399739265442 0.380744993686676
vt 0.9642249941825867 0.5715140104293823
vt 0.6505939960479736 0.24876999855041504
vt 0.6505939960479736 0
vt 0.6806979775428772 0.02010899968445301
vt 0.6505939960479736 0.24876999855041504
vt 0.6806979775428772 0.02010899968445301
vt 0.6831129789352417 0.21329399943351746
vt 0 0.2903220057487488
vt 0 0.0011579999700188637
vt 0.03791699931025505 0.2891649901866913
vt 0 0.0011579999700188637
vt 0.03791699931025505 0
vt 0.03791699931025505 0.2891649901866913
vt 0.3388809859752655 0.003407000098377466
vt 0.3388819992542267 0.2925719916820526
vt 0.3010120093822479 0.2912389934062958
vt 0.3388809859752655 0.003407000098377466
vt 0.3010120093822479 0.2912389934062958
vt 0.30101099610328674 0.002073999959975481
vt 0.4410400092601776 0.9008070230484009
vt 0.44103699922561646 0.6071490049362183
vt 0.5008869767189026 0.6071490049362183
vt 0.4410400092601776 0.9008070230484009
vt 0.5008869767189026 0.6071490049362183
vt 0.5008900165557861 0.9008060097694397
vt 0.6412190198898315 0.5035319924354553
vt 0.6476730108261108 0.5556460022926331
vt 0.6344720125198364 0.5048199892044067
vt 0.6476730108261108 0.5556460022926331
vt 0.6279500126838684 0.5069779753684998
vt 0.6344720125198364 0.5048199892044067
vt 0.3484469950199127 0.14284899830818176
vt 0.3566589951515198 0.18088600039482117
vt 0.34355199337005615 0.14424599707126617
vt 0.3566589951515198 0.18088600039482117
vt 0.3388819992542267 0.1462700068950653
vt 0.34355199337005615 0.14424599707126617
vt 0.40246400237083435 0.9002040028572083
vt 0.4024609923362732 0.6065469980239868
vt 0.44103699922561646 0.6071490049362183
vt 0.40246400237083435 0.9002040028572083
vt 0.44103699922561646 0.6071490049362183
vt 0.4410400092601776 0.9008070230484009
vt 0.5394629836082458 0.6077510118484497
vt 0.5394660234451294 0.9014089703559875
vt 0.5008900165557861 0.9008060097694397
vt 0.5394629836082458 0.6077510118484497
vt 0.5008900165557861 0.9008060097694397
vt 0.5008869767189026 0.6071490049362183
vt 0.5821390151977539 0.6077510118484497
vt 0.5821419954299927 0.9014080166816711
vt 0.5394660234451294 0.9014089703559875
vt 0.5821390151977539 0.6077510118484497
vt 0.5394660234451294 0.9014089703559875
vt 0.5394629836082458 0.6077510118484497
vt 0.3597880005836487 0.9002050161361694
vt 0.3597849905490875 0.6065469980239868
vt 0.4024609923362732 0.6065469980239868
vt 0.3597880005836487 0.9002050161361694
vt 0.4024609923362732 0.6065469980239868
vt 0.40246400237083435 0.9002040028572083
vt 0.3710089921951294 0.05475499853491783
vt 0.3737950026988983 0.21289999783039093
vt 0.3566589951515198 0.18088600039482117
vt 0.3710089921951294 0.05475499853491783
vt 0.3566589951515198 0.18088600039482117
vt 0.3484469950199127 0.14284899830818176
vt 0.6560239791870117 0.4149569869041443
vt 0.6587749719619751 0.5711249709129333
vt 0.6412190198898315 0.5035319924354553
vt 0.6587749719619751 0.5711249709129333
vt 0.6476730108261108 0.5556460022926331
vt 0.6412190198898315 0.5035319924354553
vt 0.6864529848098755 0.36088699102401733
vt 0.6864529848098755 0.6065469980239868
vt 0.6587749719619751 0.5711249709129333
vt 0.6864529848098755 0.36088699102401733
vt 0.6587749719619751 0.5711249709129333
vt 0.6560239791870117 0.4149569869041443
vt 0.4018239974975586 0
vt 0.4018239974975586 0.24876999855041504
vt 0.3737950026988983 0.21289999783039093
vt 0.4018239974975586 0
vt 0.3737950026988983 0.21289999783039093
vt 0.3710089921951294 0.05475499853491783
vt 0.313977986574173 0.9002050161361694
vt 0.3139750063419342 0.606548011302948
vt 0.3597849905490875 0.6065469980239868
vt 0.313977986574173 0.9002050161361694
vt 0.3597849905490875 0.6065469980239868
vt 0.3597880005836487 0.9002050161361694
vt 0.6279489994049072 0.6077510118484497
vt 0.6279510259628296 0.9014080166816711
vt 0.5821419954299927 0.9014080166816711
vt 0.6279489994049072 0.6077510118484497
vt 0.5821419954299927 0.9014080166816711
vt 0.5821390151977539 0.6077510118484497
vt 0.3139750063419342 0.2925719916820526
vt 0.3139750063419342 0.6065469980239868
vt 0 0.6065469980239868
vt 0.3139750063419342 0.2925719916820526
vt 0 0.6065469980239868
vt 0 0.2925719916820526
vt 0.6279500126838684 0.2925719916820526
vt 0.6279500126838684 0.6065469980239868
vt 0.3139750063419342 0.2925719916820526
vt 0.6279500126838684 0.6065469980239868
vt 0.3139750063419342 0.6065469980239868
vt 0.3139750063419342 0.2925719916820526
vt 0.6505939960479736 0.24876999855041504
vt 0.4018239974975586 0.24876999855041504
vt 0.6505939960479736 0
vt 0.4018239974975586 0.24876999855041504
vt 0.4018239974975586 0
vt 0.6505939960479736 0
vt 0.932112991809845 0.36088699102401733
vt 0.932112991809845 0.6065469980239868
vt 0.6864529848098755 0.6065469980239868
vt 0.932112991809845 0.36088699102401733
vt 0.6864529848098755 0.6065469980239868
vt 0.6864529848098755 0.36088699102401733
vn -0.11111400201826635 -0.9938076667824034 0
vn -0.254658963024034 -0.9670309263676751 0
vn 0.11117299039751911 -0.9938010697348204 0
vn -0.11111400201826635 -0.9938076667824034 0
vn 0.11117299039751911 -0.9938010697348204 0
vn 0.2546690713358196 -0.9670282643774955 0
vn 0 0 1
vn 0 0 1
vn 0 0 1
vn 0 0 1
vn 0 0 1
vn 0 0 1
vn 0 0 -1
vn 0 0 -1
vn 0 0 -1
vn 0 0 -1
vn 0 0 -1
vn 0 0 -1
vn 0.5105369569774917 -0.8598558109125988 0
vn 0.5105620070965083 -0.8598409369817098 0
vn 0.2546690713358196 -0.9670282643774955 0
vn 0.5105369569774917 -0.8598558109125988 0
vn 0.2546690713358196 -0.9670282643774955 0
vn 0.11117299039751911 -0.9938010697348204 0
vn -0.5105531383851726 -0.8598462030415966 0
vn -0.5105531383851726 -0.8598462030415966 0
vn -0.254658963024034 -0.9670309263676751 0
vn -0.5105531383851726 -0.8598462030415966 0
vn -0.254658963024034 -0.9670309263676751 0
vn -0.11111400201826635 -0.9938076667824034 0
vn -0.8205663596634369 -0.5715512657572329 0
vn -0.8205663596634369 -0.5715512657572329 0
vn -0.5105531383851726 -0.8598462030415966 0
vn -0.8205663596634369 -0.5715512657572329 0
vn -0.5105531383851726 -0.8598462030415966 0
vn -0.5105531383851726 -0.8598462030415966 0
vn 0.8870086678460037 -0.4617527727757115 0
vn 0.7379822027495484 -0.6748201748798892 0
vn 0.5105369569774917 -0.8598558109125988 0
vn 0.7379822027495484 -0.6748201748798892 0
vn 0.5105620070965083 -0.8598409369817098 0
vn 0.5105369569774917 -0.8598558109125988 0
vn 0 0 -1
vn 0 0 -1
vn 0 0 -1
vn 0 0 -1
vn 0 0 -1
vn 0 0 -1
vn 0 0 1
vn 0 0 1
vn 0 0 1
vn 0 0 1
vn 0 0 1
vn 0 0 1
vn 0 0 1
vn 0 0 1
vn 0 0 1
vn 0 0 1
vn 0 0 1
vn 0 0 1
vn 0 0 -1
vn 0 0 -1
vn 0 0 -1
vn 0 0 -1
vn 0 0 -1
vn 0 0 -1
vn 0.9999726788170794 -0.007391996982833581 0
vn 0.9996304742676559 -0.027182989449674757 0
vn 0.8870086678460037 -0.4617527727757115 0
vn 0.9996304742676559 -0.027182989449674757 0
vn 0.7379822027495484 -0.6748201748798892 0
vn 0.8870086678460037 -0.4617527727757115 0
vn -0.9996305286180442 -0.027180990688514796 0
vn -0.9999726788170794 -0.007391996982833581 0
vn -0.8205663596634369 -0.5715512657572329 0
vn -0.9996305286180442 -0.027180990688514796 0
vn -0.8205663596634369 -0.5715512657572329 0
vn -0.8205663596634369 -0.5715512657572329 0
vn 0.06042199481021277 0.9981729221648696 0
vn 0.1440350855849883 0.9895725815323125 0
vn -0.06042199481021277 0.9981729221648696 0
vn 0.06042199481021277 0.9981729221648696 0
vn -0.06042199481021277 0.9981729221648696 0
vn -0.1440959887493784 0.9895637149907727 0
vn 0 0 1
vn 0 0 1
vn 0 0 1
vn 0 0 1
vn 0 0 1
vn 0 0 1
vn 0 0 -1
vn 0 0 -1
vn 0 0 -1
vn 0 0 -1
vn 0 0 -1
vn 0 0 -1
vn 0.45938072735200197 0.8882394650867218 0
vn 0.5882679820713107 0.8086660505237919 0
vn 0.1440350855849883 0.9895725815323125 0
vn 0.45938072735200197 0.8882394650867218 0
vn 0.1440350855849883 0.9895725815323125 0
vn 0.06042199481021277 0.9981729221648696 0
vn -0.459426758616329 0.8882156570716896 0
vn -0.5882490086529061 0.8086798524872948 0
vn -0.1440959887493784 0.9895637149907727 0
vn -0.459426758616329 0.8882156570716896 0
vn -0.1440959887493784 0.9895637149907727 0
vn -0.06042199481021277 0.9981729221648696 0
vn -0.8168458418440151 0.5768560224719353 0
vn -0.8878042928540079 0.4602211833347041 0
vn -0.5882490086529061 0.8086798524872948 0
vn -0.8168458418440151 0.5768560224719353 0
vn -0.5882490086529061 0.8086798524872948 0
vn -0.459426758616329 0.8882156570716896 0
vn 0.8168719895393142 0.5768189947514579 0
vn 0.8878121571575499 0.46020601213289014 0
vn 0.5882679820713107 0.8086660505237919 0
vn 0.8168719895393142 0.5768189947514579 0
vn 0.5882679820713107 0.8086660505237919 0
vn 0.45938072735200197 0.8882394650867218 0
vn 0 0 -1
vn 0 0 -1
vn 0 0 -1
vn 0 0 -1
vn 0 0 -1
vn 0 0 -1
vn 0 0 1
vn 0 0 1
vn 0 0 1
vn 0 0 1
vn 0 0 1
vn 0 0 1
vn 0 0 1
vn 0 0 1
vn 0 0 1
vn 0 0 1
vn 0 0 1
vn 0 0 1
vn 0 0 -1
vn 0 0 -1
vn 0 0 -1
vn 0 0 -1
vn 0 0 -1
vn 0 0 -1
vn 0.9258526062713264 0.37788483888691804 0
vn 0.9258517780869959 0.3778868680083341 0
vn 0.8878121571575499 0.46020601213289014 0
vn 0.9258526062713264 0.37788483888691804 0
vn 0.8878121571575499 0.46020601213289014 0
vn 0.8168719895393142 0.5768189947514579 0
vn -0.9258561719669169 0.3778761024870014 0
vn -0.9258561719669169 0.3778761024870014 0
vn -0.8878042928540079 0.4602211833347041 0
vn -0.9258561719669169 0.3778761024870014 0
vn -0.8878042928540079 0.4602211833347041 0
vn -0.8168458418440151 0.5768560224719353 0
vn -0.9999726788170794 -0.007391996982833581 0
vn -0.9996305286180442 -0.027180990688514796 0
vn -1 0 0
vn -0.9999726788170794 -0.007391996982833581 0
vn -1 0 0
vn -1 0 0
vn 0.9996304742676559 -0.027182989449674757 0
vn 0.9999726788170794 -0.007391996982833581 0
vn 1 0 0
vn 0.9999726788170794 -0.007391996982833581 0
vn 1 0 0
vn 1 0 0
vn 0 0 -1
vn 0 0 -1
vn 0 0 -1
vn 0 0 -1
vn 0 0 -1
vn 0 0 -1
vn 0 0 1
vn 0 0 1
vn 0 0 1
vn 0 0 1
vn 0 0 1
vn 0 0 1
f 1/1/1 2/2/2 3/3/3
f 4/4/4 5/5/5 6/6/6
f 7/7/7 8/8/8 9/9/9
f 10/10/10 11/11/11 12/12/12
f 13/13/13 14/14/14 15/15/15
f 16/16/16 17/17/17 18/18/18
f 19/19/19 20/20/20 21/21/21
f 22/22/22 23/23/23 24/24/24
f 25/25/25 26/26/26 27/27/27
f 28/28/28 29/29/29 30/30/30
f 31/31/31 32/32/32 33/33/33
f 34/34/34 35/35/35 36/36/36
f 37/37/37 38/38/38 39/39/39
f 40/40/40 41/41/41 42/42/42
f 43/43/43 44/44/44 45/45/45
f 46/46/46 47/47/47 48/48/48
f 49/49/49 50/50/50 51/51/51
f 52/52/52 53/53/53 54/54/54
f 55/55/55 56/56/56 57/57/57
f 58/58/58 59/59/59 60/60/60
f 61/61/61 62/62/62 63/63/63
f 64/64/64 65/65/65 66/66/66
f 67/67/67 68/68/68 69/69/69
f 70/70/70 71/71/71 72/72/72
f 73/73/73 74/74/74 75/75/75
f 76/76/76 77/77/77 78/78/78
f 79/79/79 80/80/80 81/81/81
f 82/82/82 83/83/83 84/84/84
f 85/85/85 86/86/86 87/87/87
f 88/88/88 89/89/89 90/90/90
f 91/91/91 92/92/92 93/93/93
f 94/94/94 95/95/95 96/96/96
f 97/97/97 98/98/98 99/99/99
f 100/100/100 101/101/101 102/102/102
f 103/103/103 104/104/104 105/105/105
f 106/106/106 107/107/107 108/108/108
f 109/109/109 110/110/110 111/111/111
f 112/112/112 113/113/113 114/114/114
f 115/115/115 116/116/116 117/117/117
f 118/118/118 119/119/119 120/120/120
f 121/121/121 122/122/122 123/123/123
f 124/124/124 125/125/125 126/126/126
f 127/127/127 128/128/128 129/129/129
f 130/130/130 131/131/131 132/132/132
f 133/133/133 134/134/134 135/135/135
f 136/136/136 137/137/137 138/138/138
f 139/139/139 140/140/140 141/141/141
f 142/142/142 143/143/143 144/144/144
f 145/145/145 146/146/146 147/147/147
f 148/148/148 149/149/149 150/150/150
f 151/151/151 152/152/152 153/153/153
f 154/154/154 155/155/155 156/156/156
f 157/157/157 158/158/158 159/159/159
f 160/160/160 161/161/161 162/162/162
f 163/163/163 164/164/164 165/165/165
f 166/166/166 167/167/167 168/168/168
f 169/169/169 170/170/170 171/171/171
f 172/172/172 173/173/173 174/174/174
f 175/175/175 176/176/176 177/177/177
f 178/178/178 179/179/179 180/180/180
