o Mesh
usemtl material_3
v 0.36512500047683716 0.023876000195741653 -0.08143399655818939
v 0.35179999470710754 0.03860799968242645 -0.08143399655818939
v 0.36512500047683716 0.03101699985563755 -0.08143399655818939
v 0.36512500047683716 0.023876000195741653 -0.08143399655818939
v -0.35179999470710754 0.03860799968242645 -0.08143399655818939
v 0.35179999470710754 0.03860799968242645 -0.08143399655818939
v 0.36512500047683716 0.023876000195741653 -0.08143399655818939
v -0.36512500047683716 0.03101699985563755 -0.08143399655818939
v -0.35179999470710754 0.03860799968242645 -0.08143399655818939
v 0.36512500047683716 0.023876000195741653 -0.08143399655818939
v -0.36512500047683716 0.023876000195741653 -0.08143399655818939
v -0.36512500047683716 0.03101699985563755 -0.08143399655818939
v 0.36512500047683716 0.023876000195741653 0.08143399655818939
v 0.36512500047683716 0.03101699985563755 0.08143399655818939
v 0.35179999470710754 0.03860799968242645 0.08143399655818939
v 0.36512500047683716 0.023876000195741653 0.08143399655818939
v 0.35179999470710754 0.03860799968242645 0.08143399655818939
v -0.35179999470710754 0.03860799968242645 0.08143399655818939
v 0.36512500047683716 0.023876000195741653 0.08143399655818939
v -0.35179999470710754 0.03860799968242645 0.08143399655818939
v -0.36512500047683716 0.03101699985563755 0.08143399655818939
v 0.36512500047683716 0.023876000195741653 0.08143399655818939
v -0.36512500047683716 0.03101699985563755 0.08143399655818939
v -0.36512500047683716 0.023876000195741653 0.08143399655818939
v 0.36512500047683716 0.023876000195741653 -0.08143399655818939
v 0.36512500047683716 0.03101699985563755 -0.08143399655818939
v 0.36512500047683716 0.023876000195741653 0.08143399655818939
v 0.36512500047683716 0.03101699985563755 -0.08143399655818939
v 0.36512500047683716 0.03101699985563755 0.08143399655818939
v 0.36512500047683716 0.023876000195741653 0.08143399655818939
v 0.36512500047683716 0.03101699985563755 -0.08143399655818939
v 0.35179999470710754 0.03860799968242645 -0.08143399655818939
v 0.36512500047683716 0.03101699985563755 0.08143399655818939
v 0.35179999470710754 0.03860799968242645 -0.08143399655818939
v 0.35179999470710754 0.03860799968242645 0.08143399655818939
v 0.36512500047683716 0.03101699985563755 0.08143399655818939
v 0.35179999470710754 0.03860799968242645 -0.08143399655818939
v -0.35179999470710754 0.03860799968242645 -0.08143399655818939
v 0.35179999470710754 0.03860799968242645 0.08143399655818939
v -0.35179999470710754 0.03860799968242645 -0.08143399655818939
v -0.35179999470710754 0.03860799968242645 0.08143399655818939
v 0.35179999470710754 0.03860799968242645 0.08143399655818939
v -0.35179999470710754 0.03860799968242645 -0.08143399655818939
v -0.36512500047683716 0.03101699985563755 -0.08143399655818939
v -0.35179999470710754 0.03860799968242645 0.08143399655818939
v -0.36512500047683716 0.03101699985563755 -0.08143399655818939
v -0.36512500047683716 0.03101699985563755 0.08143399655818939
v -0.35179999470710754 0.03860799968242645 0.08143399655818939
v -0.36512500047683716 0.03101699985563755 -0.08143399655818939
v -0.36512500047683716 0.023876000195741653 -0.08143399655818939
v -0.36512500047683716 0.03101699985563755 0.08143399655818939
v -0.36512500047683716 0.023876000195741653 -0.08143399655818939
v -0.36512500047683716 0.023876000195741653 0.08143399655818939
v -0.36512500047683716 0.03101699985563755 0.08143399655818939
vt 0.46180498600006104 0.01305800024420023
vt 0.030764000490307808 0.022245999425649643
vt 0.2528649866580963 0.01305800024420023
vt 0.46180498600006104 0.01305800024420023
vt 0.030764000490307808 0.5074750185012817
vt 0.030764000490307808 0.022245999425649643
vt 0.46180498600006104 0.01305800024420023
vt 0.2528649866580963 0.5166640281677246
vt 0.030764000490307808 0.5074750185012817
vt 0.46180498600006104 0.01305800024420023
vt 0.46180498600006104 0.5166640281677246
vt 0.2528649866580963 0.5166640281677246
vt 0.5361220240592957 0.01305800024420023
vt 0.745061993598938 0.01305800024420023
vt 0.9671630263328552 0.022245999425649643
vt 0.5361220240592957 0.01305800024420023
vt 0.9671630263328552 0.022245999425649643
vt 0.9671630263328552 0.5074750185012817
vt 0.5361220240592957 0.01305800024420023
vt 0.9671630263328552 0.5074750185012817
vt 0.745061993598938 0.5166640281677246
vt 0.5361220240592957 0.01305800024420023
vt 0.745061993598938 0.5166640281677246
vt 0.5361220240592957 0.5166640281677246
vt 0.030764000490307808 0.016062000766396523
vt 0.23970499634742737 0.016062000766396523
vt 0.030764000490307808 0.5136600136756897
vt 0.23970499634742737 0.016062000766396523
vt 0.23970499634742737 0.5136600136756897
vt 0.030764000490307808 0.5136600136756897
vt 0.01913299970328808 0.5347139835357666
vt 0.03668000176548958 0.5347139835357666
vt 0.01913299970328808 0.9878180027008057
vt 0.03668000176548958 0.5347139835357666
vt 0.03668000176548958 0.9878180027008057
vt 0.01913299970328808 0.9878180027008057
vt 0.03668000176548958 0.5347139835357666
vt 0.9633200168609619 0.5347139835357666
vt 0.03668000176548958 0.9878180027008057
vt 0.9633200168609619 0.5347139835357666
vt 0.9633200168609619 0.9878180027008057
vt 0.03668000176548958 0.9878180027008057
vt 0.9633200168609619 0.5347139835357666
vt 0.9808670282363892 0.5347139835357666
vt 0.9633200168609619 0.9878180027008057
vt 0.9808670282363892 0.5347139835357666
vt 0.9808670282363892 0.9878180027008057
vt 0.9633200168609619 0.9878180027008057
vt 0.7582229971885681 0.016062000766396523
vt 0.9671630263328552 0.016062000766396523
vt 0.7582229971885681 0.5136600136756897
vt 0.9671630263328552 0.016062000766396523
vt 0.9671630263328552 0.5136600136756897
vt 0.7582229971885681 0.5136600136756897
vn 0.05448802616233098 0 -0.9985144240344918
vn 0.020704999323925735 0.9959409716475511 -0.08759499983862008
vn 0.8537875502632772 0.520121818226303 -0.022805990888283174
vn 0.05448802616233098 0 -0.9985144240344918
vn -0.005330999413195107 0.9976019321942606 -0.06900699477251827
vn 0.020704999323925735 0.9959409716475511 -0.08759499983862008
vn 0.05448802616233098 0 -0.9985144240344918
vn -0.29700101026682396 0.35457298881608784 -0.8866049827868736
vn -0.005330999413195107 0.9976019321942606 -0.06900699477251827
vn 0.05448802616233098 0 -0.9985144240344918
vn -0.4073709033494904 0 -0.9132628028690428
vn -0.29700101026682396 0.35457298881608784 -0.8866049827868736
vn 0.10849399761448482 0 0.9940971041511127
vn 0.6420351214187019 0.7664910492001289 0.0168039983622451
vn 0.005338000982945543 0.9989651884144028 0.0451670021330036
vn 0.10849399761448482 0 0.9940971041511127
vn 0.005338000982945543 0.9989651884144028 0.0451670021330036
vn -0.020599987349066155 0.9908577199523259 0.13332898909125707
vn 0.10849399761448482 0 0.9940971041511127
vn -0.020599987349066155 0.9908577199523259 0.13332898909125707
vn -0.3063880777674756 0.1866499767276601 0.9334281611294547
vn 0.10849399761448482 0 0.9940971041511127
vn -0.3063880777674756 0.1866499767276601 0.9334281611294547
vn -0.21768201948384808 0 0.976019742829741
vn 0.05448802616233098 0 -0.9985144240344918
vn 0.8537875502632772 0.520121818226303 -0.022805990888283174
vn 0.10849399761448482 0 0.9940971041511127
vn 0.8537875502632772 0.520121818226303 -0.022805990888283174
vn 0.6420351214187019 0.7664910492001289 0.0168039983622451
vn 0.10849399761448482 0 0.9940971041511127
vn 0.8537875502632772 0.520121818226303 -0.022805990888283174
vn 0.020704999323925735 0.9959409716475511 -0.08759499983862008
vn 0.6420351214187019 0.7664910492001289 0.0168039983622451
vn 0.020704999323925735 0.9959409716475511 -0.08759499983862008
vn 0.005338000982945543 0.9989651884144028 0.0451670021330036
vn 0.6420351214187019 0.7664910492001289 0.0168039983622451
vn 0.020704999323925735 0.9959409716475511 -0.08759499983862008
vn -0.005330999413195107 0.9976019321942606 -0.06900699477251827
vn 0.005338000982945543 0.9989651884144028 0.0451670021330036
vn -0.005330999413195107 0.9976019321942606 -0.06900699477251827
vn -0.020599987349066155 0.9908577199523259 0.13332898909125707
vn 0.005338000982945543 0.9989651884144028 0.0451670021330036
vn -0.005330999413195107 0.9976019321942606 -0.06900699477251827
vn -0.29700101026682396 0.35457298881608784 -0.8866049827868736
vn -0.020599987349066155 0.9908577199523259 0.13332898909125707
vn -0.29700101026682396 0.35457298881608784 -0.8866049827868736
vn -0.3063880777674756 0.1866499767276601 0.9334281611294547
vn -0.020599987349066155 0.9908577199523259 0.13332898909125707
vn -0.29700101026682396 0.35457298881608784 -0.8866049827868736
vn -0.4073709033494904 0 -0.9132628028690428
vn -0.3063880777674756 0.1866499767276601 0.9334281611294547
vn -0.4073709033494904 0 -0.9132628028690428
vn -0.21768201948384808 0 0.976019742829741
vn -0.3063880777674756 0.1866499767276601 0.9334281611294547
f 1/1/1 2/2/2 3/3/3
f 4/4/4 5/5/5 6/6/6
f 7/7/7 8/8/8 9/9/9
f 10/10/10 11/11/11 12/12/12
f 13/13/13 14/14/14 15/15/15
f 16/16/16 17/17/17 18/18/18
f 19/19/19 20/20/20 21/21/21
f 22/22/22 23/23/23 24/24/24
f 25/25/25 26/26/26 27/27/27
f 28/28/28 29/29/29 30/30/30
f 31/31/31 32/32/32 33/33/33
f 34/34/34 35/35/35 36/36/36
f 37/37/37 38/38/38 39/39/39
f 40/40/40 41/41/41 42/42/42
f 43/43/43 44/44/44 45/45/45
f 46/46/46 47/47/47 48/48/48
f 49/49/49 50/50/50 51/51/51
f 52/52/52 53/53/53 54/54/54
