o Mesh
usemtl material_5
v -0.4952999949455261 0 0.2762250006198883
v -0.5206999778747559 0 -0.2762250006198883
v -0.5206999778747559 0 0.2762250006198883
v -0.4952999949455261 0 0.2762250006198883
v -0.4952999949455261 0 -0.2762250006198883
v -0.5206999778747559 0 -0.2762250006198883
v -0.5206999778747559 -0.05079999938607216 0.2762250006198883
v -0.5206999778747559 0 0.2762250006198883
v -0.5206999778747559 0 -0.2762250006198883
v -0.5206999778747559 -0.05079999938607216 0.2762250006198883
v -0.5206999778747559 0 -0.2762250006198883
v -0.5206999778747559 -0.05079999938607216 -0.2762250006198883
v -0.4952999949455261 -0.05079999938607216 0.2762250006198883
v -0.4952999949455261 0 -0.2762250006198883
v -0.4952999949455261 0 0.2762250006198883
v -0.4952999949455261 -0.05079999938607216 0.2762250006198883
v -0.4952999949455261 -0.05079999938607216 -0.2762250006198883
v -0.4952999949455261 0 -0.2762250006198883
v -0.5206999778747559 -0.05079999938607216 -0.2762250006198883
v -0.5206999778747559 0 -0.2762250006198883
v -0.4952999949455261 0 -0.2762250006198883
v -0.5206999778747559 -0.05079999938607216 -0.2762250006198883
v -0.4952999949455261 0 -0.2762250006198883
v -0.4952999949455261 -0.05079999938607216 -0.2762250006198883
v -0.5206999778747559 -0.05079999938607216 0.2762250006198883
v -0.4952999949455261 0 0.2762250006198883
v -0.5206999778747559 0 0.2762250006198883
v -0.5206999778747559 -0.05079999938607216 0.2762250006198883
v -0.4952999949455261 -0.05079999938607216 0.2762250006198883
v -0.4952999949455261 0 0.2762250006198883
v 0.5206999778747559 0 0.2762250006198883
v 0.5206999778747559 0 -0.2762250006198883
v 0.4952999949455261 0 0.2762250006198883
v 0.5206999778747559 0 -0.2762250006198883
v 0.4952999949455261 0 -0.2762250006198883
v 0.4952999949455261 0 0.2762250006198883
v 0.5206999778747559 0 -0.2762250006198883
v 0.5206999778747559 0 0.2762250006198883
v 0.5206999778747559 -0.05079999938607216 0.2762250006198883
v 0.5206999778747559 -0.05079999938607216 -0.2762250006198883
v 0.5206999778747559 0 -0.2762250006198883
v 0.5206999778747559 -0.05079999938607216 0.2762250006198883
v 0.4952999949455261 0 0.2762250006198883
v 0.4952999949455261 0 -0.2762250006198883
v 0.4952999949455261 -0.05079999938607216 0.2762250006198883
v 0.4952999949455261 0 -0.2762250006198883
v 0.4952999949455261 -0.05079999938607216 -0.2762250006198883
v 0.4952999949455261 -0.05079999938607216 0.2762250006198883
v 0.4952999949455261 0 -0.2762250006198883
v 0.5206999778747559 0 -0.2762250006198883
v 0.5206999778747559 -0.05079999938607216 -0.2762250006198883
v 0.4952999949455261 -0.05079999938607216 -0.2762250006198883
v 0.4952999949455261 0 -0.2762250006198883
v 0.5206999778747559 -0.05079999938607216 -0.2762250006198883
v 0.5206999778747559 0 0.2762250006198883
v 0.4952999949455261 0 0.2762250006198883
v 0.5206999778747559 -0.05079999938607216 0.2762250006198883
v 0.4952999949455261 0 0.2762250006198883
v 0.4952999949455261 -0.05079999938607216 0.2762250006198883
v 0.5206999778747559 -0.05079999938607216 0.2762250006198883
v -0.49845701456069946 0.008255000226199627 -0.24677400290966034
v -0.4969710111618042 0.039496999233961105 -0.2586509883403778
v -0.49845701456069946 0.039496999233961105 -0.24677400290966034
v -0.49845701456069946 0.008255000226199627 -0.24677400290966034
v -0.4969710111618042 0.008255000226199627 -0.2586509883403778
v -0.4969710111618042 0.039496999233961105 -0.2586509883403778
v -0.4969710111618042 0.008255000226199627 -0.2586509883403778
v -0.5065140128135681 0.039496999233961105 -0.26587700843811035
v -0.4969710111618042 0.039496999233961105 -0.2586509883403778
v -0.4969710111618042 0.008255000226199627 -0.2586509883403778
v -0.5065140128135681 0.008255000226199627 -0.26587700843811035
v -0.5065140128135681 0.039496999233961105 -0.26587700843811035
v -0.5065140128135681 0.008255000226199627 -0.26587700843811035
v -0.5175430178642273 0.039496999233961105 -0.26122400164604187
v -0.5065140128135681 0.039496999233961105 -0.26587700843811035
v -0.5065140128135681 0.008255000226199627 -0.26587700843811035
v -0.5175430178642273 0.008255000226199627 -0.26122400164604187
v -0.5175430178642273 0.039496999233961105 -0.26122400164604187
v -0.5175430178642273 0.008255000226199627 -0.26122400164604187
v -0.5190290212631226 0.039496999233961105 -0.2493470013141632
v -0.5175430178642273 0.039496999233961105 -0.26122400164604187
v -0.5175430178642273 0.008255000226199627 -0.26122400164604187
v -0.5190290212631226 0.008255000226199627 -0.2493470013141632
v -0.5190290212631226 0.039496999233961105 -0.2493470013141632
v -0.5190290212631226 0.008255000226199627 -0.2493470013141632
v -0.5094860196113586 0.039496999233961105 -0.24212199449539185
v -0.5190290212631226 0.039496999233961105 -0.2493470013141632
v -0.5190290212631226 0.008255000226199627 -0.2493470013141632
v -0.5094860196113586 0.008255000226199627 -0.24212199449539185
v -0.5094860196113586 0.039496999233961105 -0.24212199449539185
v -0.5094860196113586 0.008255000226199627 -0.24212199449539185
v -0.49845701456069946 0.039496999233961105 -0.24677400290966034
v -0.5094860196113586 0.039496999233961105 -0.24212199449539185
v -0.5094860196113586 0.008255000226199627 -0.24212199449539185
v -0.49845701456069946 0.008255000226199627 -0.24677400290966034
v -0.49845701456069946 0.039496999233961105 -0.24677400290966034
v -0.49630600214004517 0.023876000195741653 -0.24514499306678772
v -0.4934459924697876 0.027939999476075172 -0.25217899680137634
v -0.49630600214004517 0.027939999476075172 -0.24514499306678772
v -0.49630600214004517 0.023876000195741653 -0.24514499306678772
v -0.4934459924697876 0.023876000195741653 -0.25217899680137634
v -0.4934459924697876 0.027939999476075172 -0.25217899680137634
v -0.4934459924697876 0.023876000195741653 -0.25217899680137634
v -0.4944849908351898 0.027939999476075172 -0.2597000002861023
v -0.4934459924697876 0.027939999476075172 -0.25217899680137634
v -0.4934459924697876 0.023876000195741653 -0.25217899680137634
v -0.4944849908351898 0.023876000195741653 -0.2597000002861023
v -0.4944849908351898 0.027939999476075172 -0.2597000002861023
v -0.4944849908351898 0.023876000195741653 -0.2597000002861023
v -0.4991460144519806 0.027939999476075172 -0.2656939923763275
v -0.4944849908351898 0.027939999476075172 -0.2597000002861023
v -0.4944849908351898 0.023876000195741653 -0.2597000002861023
v -0.4991460144519806 0.023876000195741653 -0.2656939923763275
v -0.4991460144519806 0.027939999476075172 -0.2656939923763275
v -0.4991460144519806 0.023876000195741653 -0.2656939923763275
v -0.5061789751052856 0.027939999476075172 -0.2685540020465851
v -0.4991460144519806 0.027939999476075172 -0.2656939923763275
v -0.4991460144519806 0.023876000195741653 -0.2656939923763275
v -0.5061789751052856 0.023876000195741653 -0.2685540020465851
v -0.5061789751052856 0.027939999476075172 -0.2685540020465851
v -0.5061789751052856 0.023876000195741653 -0.2685540020465851
v -0.5137019753456116 0.027939999476075172 -0.26751500368118286
v -0.5061789751052856 0.027939999476075172 -0.2685540020465851
v -0.5061789751052856 0.023876000195741653 -0.2685540020465851
v -0.5137019753456116 0.023876000195741653 -0.26751500368118286
v -0.5137019753456116 0.027939999476075172 -0.26751500368118286
v -0.5137019753456116 0.023876000195741653 -0.26751500368118286
v -0.5196939706802368 0.027939999476075172 -0.2628540098667145
v -0.5137019753456116 0.027939999476075172 -0.26751500368118286
v -0.5137019753456116 0.023876000195741653 -0.26751500368118286
v -0.5196939706802368 0.023876000195741653 -0.2628540098667145
v -0.5196939706802368 0.027939999476075172 -0.2628540098667145
v -0.5196939706802368 0.023876000195741653 -0.2628540098667145
v -0.5225539803504944 0.027939999476075172 -0.2558189928531647
v -0.5196939706802368 0.027939999476075172 -0.2628540098667145
v -0.5196939706802368 0.023876000195741653 -0.2628540098667145
v -0.5225539803504944 0.023876000195741653 -0.2558189928531647
v -0.5225539803504944 0.027939999476075172 -0.2558189928531647
v -0.5225539803504944 0.023876000195741653 -0.2558189928531647
v -0.5215150117874146 0.027939999476075172 -0.24829800426959991
v -0.5225539803504944 0.027939999476075172 -0.2558189928531647
v -0.5225539803504944 0.023876000195741653 -0.2558189928531647
v -0.5215150117874146 0.023876000195741653 -0.24829800426959991
v -0.5215150117874146 0.027939999476075172 -0.24829800426959991
v -0.5215150117874146 0.023876000195741653 -0.24829800426959991
v -0.5168539881706238 0.027939999476075172 -0.2423049956560135
v -0.5215150117874146 0.027939999476075172 -0.24829800426959991
v -0.5215150117874146 0.023876000195741653 -0.24829800426959991
v -0.5168539881706238 0.023876000195741653 -0.2423049956560135
v -0.5168539881706238 0.027939999476075172 -0.2423049956560135
v -0.5168539881706238 0.023876000195741653 -0.2423049956560135
v -0.5098209977149963 0.027939999476075172 -0.23944400250911713
v -0.5168539881706238 0.027939999476075172 -0.2423049956560135
v -0.5168539881706238 0.023876000195741653 -0.2423049956560135
v -0.5098209977149963 0.023876000195741653 -0.23944400250911713
v -0.5098209977149963 0.027939999476075172 -0.23944400250911713
v -0.5098209977149963 0.023876000195741653 -0.23944400250911713
v -0.5023000240325928 0.027939999476075172 -0.24048399925231934
v -0.5098209977149963 0.027939999476075172 -0.23944400250911713
v -0.5098209977149963 0.023876000195741653 -0.23944400250911713
v -0.5023000240325928 0.023876000195741653 -0.24048399925231934
v -0.5023000240325928 0.027939999476075172 -0.24048399925231934
v -0.5023000240325928 0.023876000195741653 -0.24048399925231934
v -0.49630600214004517 0.027939999476075172 -0.24514499306678772
v -0.5023000240325928 0.027939999476075172 -0.24048399925231934
v -0.5023000240325928 0.023876000195741653 -0.24048399925231934
v -0.49630600214004517 0.023876000195741653 -0.24514499306678772
v -0.49630600214004517 0.027939999476075172 -0.24514499306678772
v -0.5080000162124634 0.027939999476075172 -0.2539989948272705
v -0.49630600214004517 0.027939999476075172 -0.24514499306678772
v -0.4934459924697876 0.027939999476075172 -0.25217899680137634
v -0.5080000162124634 0.027939999476075172 -0.2539989948272705
v -0.4934459924697876 0.027939999476075172 -0.25217899680137634
v -0.4944849908351898 0.027939999476075172 -0.2597000002861023
v -0.5080000162124634 0.027939999476075172 -0.2539989948272705
v -0.4944849908351898 0.027939999476075172 -0.2597000002861023
v -0.4991460144519806 0.027939999476075172 -0.2656939923763275
v -0.5080000162124634 0.027939999476075172 -0.2539989948272705
v -0.4991460144519806 0.027939999476075172 -0.2656939923763275
v -0.5061789751052856 0.027939999476075172 -0.2685540020465851
v -0.5080000162124634 0.027939999476075172 -0.2539989948272705
v -0.5061789751052856 0.027939999476075172 -0.2685540020465851
v -0.5137019753456116 0.027939999476075172 -0.26751500368118286
v -0.5080000162124634 0.027939999476075172 -0.2539989948272705
v -0.5137019753456116 0.027939999476075172 -0.26751500368118286
v -0.5196939706802368 0.027939999476075172 -0.2628540098667145
v -0.5080000162124634 0.027939999476075172 -0.2539989948272705
v -0.5196939706802368 0.027939999476075172 -0.2628540098667145
v -0.5225539803504944 0.027939999476075172 -0.2558189928531647
v -0.5080000162124634 0.027939999476075172 -0.2539989948272705
v -0.5225539803504944 0.027939999476075172 -0.2558189928531647
v -0.5215150117874146 0.027939999476075172 -0.24829800426959991
v -0.5080000162124634 0.027939999476075172 -0.2539989948272705
v -0.5215150117874146 0.027939999476075172 -0.24829800426959991
v -0.5168539881706238 0.027939999476075172 -0.2423049956560135
v -0.5080000162124634 0.027939999476075172 -0.2539989948272705
v -0.5168539881706238 0.027939999476075172 -0.2423049956560135
v -0.5098209977149963 0.027939999476075172 -0.23944400250911713
v -0.5080000162124634 0.027939999476075172 -0.2539989948272705
v -0.5098209977149963 0.027939999476075172 -0.23944400250911713
v -0.5023000240325928 0.027939999476075172 -0.24048399925231934
v -0.5080000162124634 0.027939999476075172 -0.2539989948272705
v -0.5023000240325928 0.027939999476075172 -0.24048399925231934
v -0.49630600214004517 0.027939999476075172 -0.24514499306678772
v 0.5175430178642273 0.008255000226199627 0.26122400164604187
v 0.5190290212631226 0.039496999233961105 0.2493470013141632
v 0.5175430178642273 0.039496999233961105 0.26122400164604187
v 0.5175430178642273 0.008255000226199627 0.26122400164604187
v 0.5190290212631226 0.008255000226199627 0.2493470013141632
v 0.5190290212631226 0.039496999233961105 0.2493470013141632
v 0.5190290212631226 0.008255000226199627 0.2493470013141632
v 0.5094860196113586 0.039496999233961105 0.24212199449539185
v 0.5190290212631226 0.039496999233961105 0.2493470013141632
v 0.5190290212631226 0.008255000226199627 0.2493470013141632
v 0.5094860196113586 0.008255000226199627 0.24212199449539185
v 0.5094860196113586 0.039496999233961105 0.24212199449539185
v 0.5094860196113586 0.008255000226199627 0.24212199449539185
v 0.49845701456069946 0.039496999233961105 0.24677400290966034
v 0.5094860196113586 0.039496999233961105 0.24212199449539185
v 0.5094860196113586 0.008255000226199627 0.24212199449539185
v 0.49845701456069946 0.008255000226199627 0.24677400290966034
v 0.49845701456069946 0.039496999233961105 0.24677400290966034
v 0.49845701456069946 0.008255000226199627 0.24677400290966034
v 0.4969710111618042 0.039496999233961105 0.2586509883403778
v 0.49845701456069946 0.039496999233961105 0.24677400290966034
v 0.49845701456069946 0.008255000226199627 0.24677400290966034
v 0.4969710111618042 0.008255000226199627 0.2586509883403778
v 0.4969710111618042 0.039496999233961105 0.2586509883403778
v 0.4969710111618042 0.008255000226199627 0.2586509883403778
v 0.5065140128135681 0.039496999233961105 0.26587700843811035
v 0.4969710111618042 0.039496999233961105 0.2586509883403778
v 0.4969710111618042 0.008255000226199627 0.2586509883403778
v 0.5065140128135681 0.008255000226199627 0.26587700843811035
v 0.5065140128135681 0.039496999233961105 0.26587700843811035
v 0.5065140128135681 0.008255000226199627 0.26587700843811035
v 0.5175430178642273 0.039496999233961105 0.26122400164604187
v 0.5065140128135681 0.039496999233961105 0.26587700843811035
v 0.5065140128135681 0.008255000226199627 0.26587700843811035
v 0.5175430178642273 0.008255000226199627 0.26122400164604187
v 0.5175430178642273 0.039496999233961105 0.26122400164604187
v 0.5196939706802368 0.023876000195741653 0.2628540098667145
v 0.5225539803504944 0.027939999476075172 0.2558189928531647
v 0.5196939706802368 0.027939999476075172 0.2628540098667145
v 0.5196939706802368 0.023876000195741653 0.2628540098667145
v 0.5225539803504944 0.023876000195741653 0.2558189928531647
v 0.5225539803504944 0.027939999476075172 0.2558189928531647
v 0.5225539803504944 0.023876000195741653 0.2558189928531647
v 0.5215150117874146 0.027939999476075172 0.24829800426959991
v 0.5225539803504944 0.027939999476075172 0.2558189928531647
v 0.5225539803504944 0.023876000195741653 0.2558189928531647
v 0.5215150117874146 0.023876000195741653 0.24829800426959991
v 0.5215150117874146 0.027939999476075172 0.24829800426959991
v 0.5215150117874146 0.023876000195741653 0.24829800426959991
v 0.5168539881706238 0.027939999476075172 0.2423049956560135
v 0.5215150117874146 0.027939999476075172 0.24829800426959991
v 0.5215150117874146 0.023876000195741653 0.24829800426959991
v 0.5168539881706238 0.023876000195741653 0.2423049956560135
v 0.5168539881706238 0.027939999476075172 0.2423049956560135
v 0.5168539881706238 0.023876000195741653 0.2423049956560135
v 0.5098209977149963 0.027939999476075172 0.23944400250911713
v 0.5168539881706238 0.027939999476075172 0.2423049956560135
v 0.5168539881706238 0.023876000195741653 0.2423049956560135
v 0.5098209977149963 0.023876000195741653 0.23944400250911713
v 0.5098209977149963 0.027939999476075172 0.23944400250911713
v 0.5098209977149963 0.023876000195741653 0.23944400250911713
v 0.5023000240325928 0.027939999476075172 0.24048399925231934
v 0.5098209977149963 0.027939999476075172 0.23944400250911713
v 0.5098209977149963 0.023876000195741653 0.23944400250911713
v 0.5023000240325928 0.023876000195741653 0.24048399925231934
v 0.5023000240325928 0.027939999476075172 0.24048399925231934
v 0.5023000240325928 0.023876000195741653 0.24048399925231934
v 0.49630600214004517 0.027939999476075172 0.24514499306678772
v 0.5023000240325928 0.027939999476075172 0.24048399925231934
v 0.5023000240325928 0.023876000195741653 0.24048399925231934
v 0.49630600214004517 0.023876000195741653 0.24514499306678772
v 0.49630600214004517 0.027939999476075172 0.24514499306678772
v 0.49630600214004517 0.023876000195741653 0.24514499306678772
v 0.4934459924697876 0.027939999476075172 0.25217899680137634
v 0.49630600214004517 0.027939999476075172 0.24514499306678772
v 0.49630600214004517 0.023876000195741653 0.24514499306678772
v 0.4934459924697876 0.023876000195741653 0.25217899680137634
v 0.4934459924697876 0.027939999476075172 0.25217899680137634
v 0.4934459924697876 0.023876000195741653 0.25217899680137634
v 0.4944849908351898 0.027939999476075172 0.2597000002861023
v 0.4934459924697876 0.027939999476075172 0.25217899680137634
v 0.4934459924697876 0.023876000195741653 0.25217899680137634
v 0.4944849908351898 0.023876000195741653 0.2597000002861023
v 0.4944849908351898 0.027939999476075172 0.2597000002861023
v 0.4944849908351898 0.023876000195741653 0.2597000002861023
v 0.4991460144519806 0.027939999476075172 0.2656939923763275
v 0.4944849908351898 0.027939999476075172 0.2597000002861023
v 0.4944849908351898 0.023876000195741653 0.2597000002861023
v 0.4991460144519806 0.023876000195741653 0.2656939923763275
v 0.4991460144519806 0.027939999476075172 0.2656939923763275
v 0.4991460144519806 0.023876000195741653 0.2656939923763275
v 0.5061789751052856 0.027939999476075172 0.2685540020465851
v 0.4991460144519806 0.027939999476075172 0.2656939923763275
v 0.4991460144519806 0.023876000195741653 0.2656939923763275
v 0.5061789751052856 0.023876000195741653 0.2685540020465851
v 0.5061789751052856 0.027939999476075172 0.2685540020465851
v 0.5061789751052856 0.023876000195741653 0.2685540020465851
v 0.5137019753456116 0.027939999476075172 0.26751500368118286
v 0.5061789751052856 0.027939999476075172 0.2685540020465851
v 0.5061789751052856 0.023876000195741653 0.2685540020465851
v 0.5137019753456116 0.023876000195741653 0.26751500368118286
v 0.5137019753456116 0.027939999476075172 0.26751500368118286
v 0.5137019753456116 0.023876000195741653 0.26751500368118286
v 0.5196939706802368 0.027939999476075172 0.2628540098667145
v 0.5137019753456116 0.027939999476075172 0.26751500368118286
v 0.5137019753456116 0.023876000195741653 0.26751500368118286
v 0.5196939706802368 0.023876000195741653 0.2628540098667145
v 0.5196939706802368 0.027939999476075172 0.2628540098667145
v 0.5080000162124634 0.027939999476075172 0.2539989948272705
v 0.5196939706802368 0.027939999476075172 0.2628540098667145
v 0.5225539803504944 0.027939999476075172 0.2558189928531647
v 0.5080000162124634 0.027939999476075172 0.2539989948272705
v 0.5225539803504944 0.027939999476075172 0.2558189928531647
v 0.5215150117874146 0.027939999476075172 0.24829800426959991
v 0.5080000162124634 0.027939999476075172 0.2539989948272705
v 0.5215150117874146 0.027939999476075172 0.24829800426959991
v 0.5168539881706238 0.027939999476075172 0.2423049956560135
v 0.5080000162124634 0.027939999476075172 0.2539989948272705
v 0.5168539881706238 0.027939999476075172 0.2423049956560135
v 0.5098209977149963 0.027939999476075172 0.23944400250911713
v 0.5080000162124634 0.027939999476075172 0.2539989948272705
v 0.5098209977149963 0.027939999476075172 0.23944400250911713
v 0.5023000240325928 0.027939999476075172 0.24048399925231934
v 0.5080000162124634 0.027939999476075172 0.2539989948272705
v 0.5023000240325928 0.027939999476075172 0.24048399925231934
v 0.49630600214004517 0.027939999476075172 0.24514499306678772
v 0.5080000162124634 0.027939999476075172 0.2539989948272705
v 0.49630600214004517 0.027939999476075172 0.24514499306678772
v 0.4934459924697876 0.027939999476075172 0.25217899680137634
v 0.5080000162124634 0.027939999476075172 0.2539989948272705
v 0.4934459924697876 0.027939999476075172 0.25217899680137634
v 0.4944849908351898 0.027939999476075172 0.2597000002861023
v 0.5080000162124634 0.027939999476075172 0.2539989948272705
v 0.4944849908351898 0.027939999476075172 0.2597000002861023
v 0.4991460144519806 0.027939999476075172 0.2656939923763275
v 0.5080000162124634 0.027939999476075172 0.2539989948272705
v 0.4991460144519806 0.027939999476075172 0.2656939923763275
v 0.5061789751052856 0.027939999476075172 0.2685540020465851
v 0.5080000162124634 0.027939999476075172 0.2539989948272705
v 0.5061789751052856 0.027939999476075172 0.2685540020465851
v 0.5137019753456116 0.027939999476075172 0.26751500368118286
v 0.5080000162124634 0.027939999476075172 0.2539989948272705
v 0.5137019753456116 0.027939999476075172 0.26751500368118286
v 0.5196939706802368 0.027939999476075172 0.2628540098667145
v 0.5173010230064392 0.008255000226199627 -0.2464669942855835
v 0.5191760063171387 0.039496999233961105 -0.25828999280929565
v 0.5173010230064392 0.039496999233961105 -0.2464669942855835
v 0.5173010230064392 0.008255000226199627 -0.2464669942855835
v 0.5191760063171387 0.008255000226199627 -0.25828999280929565
v 0.5191760063171387 0.039496999233961105 -0.25828999280929565
v 0.5191760063171387 0.008255000226199627 -0.25828999280929565
v 0.5098720192909241 0.039496999233961105 -0.26582100987434387
v 0.5191760063171387 0.039496999233961105 -0.25828999280929565
v 0.5191760063171387 0.008255000226199627 -0.25828999280929565
v 0.5098720192909241 0.008255000226199627 -0.26582100987434387
v 0.5098720192909241 0.039496999233961105 -0.26582100987434387
v 0.5098720192909241 0.008255000226199627 -0.26582100987434387
v 0.49869900941848755 0.039496999233961105 -0.2615340054035187
v 0.5098720192909241 0.039496999233961105 -0.26582100987434387
v 0.5098720192909241 0.008255000226199627 -0.26582100987434387
v 0.49869900941848755 0.008255000226199627 -0.2615340054035187
v 0.49869900941848755 0.039496999233961105 -0.2615340054035187
v 0.49869900941848755 0.008255000226199627 -0.2615340054035187
v 0.49682700634002686 0.039496999233961105 -0.24970999360084534
v 0.49869900941848755 0.039496999233961105 -0.2615340054035187
v 0.49869900941848755 0.008255000226199627 -0.2615340054035187
v 0.49682700634002686 0.008255000226199627 -0.24970999360084534
v 0.49682700634002686 0.039496999233961105 -0.24970999360084534
v 0.49682700634002686 0.008255000226199627 -0.24970999360084534
v 0.5061280131340027 0.039496999233961105 -0.24217799305915833
v 0.49682700634002686 0.039496999233961105 -0.24970999360084534
v 0.49682700634002686 0.008255000226199627 -0.24970999360084534
v 0.5061280131340027 0.008255000226199627 -0.24217799305915833
v 0.5061280131340027 0.039496999233961105 -0.24217799305915833
v 0.5061280131340027 0.008255000226199627 -0.24217799305915833
v 0.5173010230064392 0.039496999233961105 -0.2464669942855835
v 0.5061280131340027 0.039496999233961105 -0.24217799305915833
v 0.5061280131340027 0.008255000226199627 -0.24217799305915833
v 0.5173010230064392 0.008255000226199627 -0.2464669942855835
v 0.5173010230064392 0.039496999233961105 -0.2464669942855835
v 0.5193989872932434 0.023876000195741653 -0.24476900696754456
v 0.522487998008728 0.027939999476075172 -0.25170499086380005
v 0.5193989872932434 0.027939999476075172 -0.24476900696754456
v 0.5193989872932434 0.023876000195741653 -0.24476900696754456
v 0.522487998008728 0.023876000195741653 -0.25170499086380005
v 0.522487998008728 0.027939999476075172 -0.25170499086380005
v 0.522487998008728 0.023876000195741653 -0.25170499086380005
v 0.5216929912567139 0.027939999476075172 -0.2592580020427704
v 0.522487998008728 0.027939999476075172 -0.25170499086380005
v 0.522487998008728 0.023876000195741653 -0.25170499086380005
v 0.5216929912567139 0.023876000195741653 -0.2592580020427704
v 0.5216929912567139 0.027939999476075172 -0.2592580020427704
v 0.5216929912567139 0.023876000195741653 -0.2592580020427704
v 0.5172299742698669 0.027939999476075172 -0.2653999924659729
v 0.5216929912567139 0.027939999476075172 -0.2592580020427704
v 0.5216929912567139 0.023876000195741653 -0.2592580020427704
v 0.5172299742698669 0.023876000195741653 -0.2653999924659729
v 0.5172299742698669 0.027939999476075172 -0.2653999924659729
v 0.5172299742698669 0.023876000195741653 -0.2653999924659729
v 0.5102940201759338 0.027939999476075172 -0.26848798990249634
v 0.5172299742698669 0.027939999476075172 -0.2653999924659729
v 0.5172299742698669 0.023876000195741653 -0.2653999924659729
v 0.5102940201759338 0.023876000195741653 -0.26848798990249634
v 0.5102940201759338 0.027939999476075172 -0.26848798990249634
v 0.5102940201759338 0.023876000195741653 -0.26848798990249634
v 0.5027419924736023 0.027939999476075172 -0.26769301295280457
v 0.5102940201759338 0.027939999476075172 -0.26848798990249634
v 0.5102940201759338 0.023876000195741653 -0.26848798990249634
v 0.5027419924736023 0.023876000195741653 -0.26769301295280457
v 0.5027419924736023 0.027939999476075172 -0.26769301295280457
v 0.5027419924736023 0.023876000195741653 -0.26769301295280457
v 0.4966009855270386 0.027939999476075172 -0.26322999596595764
v 0.5027419924736023 0.027939999476075172 -0.26769301295280457
v 0.5027419924736023 0.023876000195741653 -0.26769301295280457
v 0.4966009855270386 0.023876000195741653 -0.26322999596595764
v 0.4966009855270386 0.027939999476075172 -0.26322999596595764
v 0.4966009855270386 0.023876000195741653 -0.26322999596595764
v 0.49351200461387634 0.027939999476075172 -0.25629401206970215
v 0.4966009855270386 0.027939999476075172 -0.26322999596595764
v 0.4966009855270386 0.023876000195741653 -0.26322999596595764
v 0.49351200461387634 0.023876000195741653 -0.25629401206970215
v 0.49351200461387634 0.027939999476075172 -0.25629401206970215
v 0.49351200461387634 0.023876000195741653 -0.25629401206970215
v 0.4943070113658905 0.027939999476075172 -0.2487429976463318
v 0.49351200461387634 0.027939999476075172 -0.25629401206970215
v 0.49351200461387634 0.023876000195741653 -0.25629401206970215
v 0.4943070113658905 0.023876000195741653 -0.2487429976463318
v 0.4943070113658905 0.027939999476075172 -0.2487429976463318
v 0.4943070113658905 0.023876000195741653 -0.2487429976463318
v 0.49876999855041504 0.027939999476075172 -0.2425999939441681
v 0.4943070113658905 0.027939999476075172 -0.2487429976463318
v 0.4943070113658905 0.023876000195741653 -0.2487429976463318
v 0.49876999855041504 0.023876000195741653 -0.2425999939441681
v 0.49876999855041504 0.027939999476075172 -0.2425999939441681
v 0.49876999855041504 0.023876000195741653 -0.2425999939441681
v 0.5057060122489929 0.027939999476075172 -0.23951199650764465
v 0.49876999855041504 0.027939999476075172 -0.2425999939441681
v 0.49876999855041504 0.023876000195741653 -0.2425999939441681
v 0.5057060122489929 0.023876000195741653 -0.23951199650764465
v 0.5057060122489929 0.027939999476075172 -0.23951199650764465
v 0.5057060122489929 0.023876000195741653 -0.23951199650764465
v 0.5132579803466797 0.027939999476075172 -0.24030600488185883
v 0.5057060122489929 0.027939999476075172 -0.23951199650764465
v 0.5057060122489929 0.023876000195741653 -0.23951199650764465
v 0.5132579803466797 0.023876000195741653 -0.24030600488185883
v 0.5132579803466797 0.027939999476075172 -0.24030600488185883
v 0.5132579803466797 0.023876000195741653 -0.24030600488185883
v 0.5193989872932434 0.027939999476075172 -0.24476900696754456
v 0.5132579803466797 0.027939999476075172 -0.24030600488185883
v 0.5132579803466797 0.023876000195741653 -0.24030600488185883
v 0.5193989872932434 0.023876000195741653 -0.24476900696754456
v 0.5193989872932434 0.027939999476075172 -0.24476900696754456
v 0.5080000162124634 0.027939999476075172 -0.2540000081062317
v 0.5193989872932434 0.027939999476075172 -0.24476900696754456
v 0.522487998008728 0.027939999476075172 -0.25170499086380005
v 0.5080000162124634 0.027939999476075172 -0.2540000081062317
v 0.522487998008728 0.027939999476075172 -0.25170499086380005
v 0.5216929912567139 0.027939999476075172 -0.2592580020427704
v 0.5080000162124634 0.027939999476075172 -0.2540000081062317
v 0.5216929912567139 0.027939999476075172 -0.2592580020427704
v 0.5172299742698669 0.027939999476075172 -0.2653999924659729
v 0.5080000162124634 0.027939999476075172 -0.2540000081062317
v 0.5172299742698669 0.027939999476075172 -0.2653999924659729
v 0.5102940201759338 0.027939999476075172 -0.26848798990249634
v 0.5080000162124634 0.027939999476075172 -0.2540000081062317
v 0.5102940201759338 0.027939999476075172 -0.26848798990249634
v 0.5027419924736023 0.027939999476075172 -0.26769301295280457
v 0.5080000162124634 0.027939999476075172 -0.2540000081062317
v 0.5027419924736023 0.027939999476075172 -0.26769301295280457
v 0.4966009855270386 0.027939999476075172 -0.26322999596595764
v 0.5080000162124634 0.027939999476075172 -0.2540000081062317
v 0.4966009855270386 0.027939999476075172 -0.26322999596595764
v 0.49351200461387634 0.027939999476075172 -0.25629401206970215
v 0.5080000162124634 0.027939999476075172 -0.2540000081062317
v 0.49351200461387634 0.027939999476075172 -0.25629401206970215
v 0.4943070113658905 0.027939999476075172 -0.2487429976463318
v 0.5080000162124634 0.027939999476075172 -0.2540000081062317
v 0.4943070113658905 0.027939999476075172 -0.2487429976463318
v 0.49876999855041504 0.027939999476075172 -0.2425999939441681
v 0.5080000162124634 0.027939999476075172 -0.2540000081062317
v 0.49876999855041504 0.027939999476075172 -0.2425999939441681
v 0.5057060122489929 0.027939999476075172 -0.23951199650764465
v 0.5080000162124634 0.027939999476075172 -0.2540000081062317
v 0.5057060122489929 0.027939999476075172 -0.23951199650764465
v 0.5132579803466797 0.027939999476075172 -0.24030600488185883
v 0.5080000162124634 0.027939999476075172 -0.2540000081062317
v 0.5132579803466797 0.027939999476075172 -0.24030600488185883
v 0.5193989872932434 0.027939999476075172 -0.24476900696754456
v -0.49869900941848755 0.008255000226199627 0.2615340054035187
v -0.49682700634002686 0.039496999233961105 0.24970999360084534
v -0.49869900941848755 0.039496999233961105 0.2615340054035187
v -0.49869900941848755 0.008255000226199627 0.2615340054035187
v -0.49682700634002686 0.008255000226199627 0.24970999360084534
v -0.49682700634002686 0.039496999233961105 0.24970999360084534
v -0.49682700634002686 0.008255000226199627 0.24970999360084534
v -0.5061280131340027 0.039496999233961105 0.24217799305915833
v -0.49682700634002686 0.039496999233961105 0.24970999360084534
v -0.49682700634002686 0.008255000226199627 0.24970999360084534
v -0.5061280131340027 0.008255000226199627 0.24217799305915833
v -0.5061280131340027 0.039496999233961105 0.24217799305915833
v -0.5061280131340027 0.008255000226199627 0.24217799305915833
v -0.5173010230064392 0.039496999233961105 0.2464669942855835
v -0.5061280131340027 0.039496999233961105 0.24217799305915833
v -0.5061280131340027 0.008255000226199627 0.24217799305915833
v -0.5173010230064392 0.008255000226199627 0.2464669942855835
v -0.5173010230064392 0.039496999233961105 0.2464669942855835
v -0.5173010230064392 0.008255000226199627 0.2464669942855835
v -0.5191730260848999 0.039496999233961105 0.25828999280929565
v -0.5173010230064392 0.039496999233961105 0.2464669942855835
v -0.5173010230064392 0.008255000226199627 0.2464669942855835
v -0.5191730260848999 0.008255000226199627 0.25828999280929565
v -0.5191730260848999 0.039496999233961105 0.25828999280929565
v -0.5191730260848999 0.008255000226199627 0.25828999280929565
v -0.5098720192909241 0.039496999233961105 0.26582100987434387
v -0.5191730260848999 0.039496999233961105 0.25828999280929565
v -0.5191730260848999 0.008255000226199627 0.25828999280929565
v -0.5098720192909241 0.008255000226199627 0.26582100987434387
v -0.5098720192909241 0.039496999233961105 0.26582100987434387
v -0.5098720192909241 0.008255000226199627 0.26582100987434387
v -0.49869900941848755 0.039496999233961105 0.2615340054035187
v -0.5098720192909241 0.039496999233961105 0.26582100987434387
v -0.5098720192909241 0.008255000226199627 0.26582100987434387
v -0.49869900941848755 0.008255000226199627 0.2615340054035187
v -0.49869900941848755 0.039496999233961105 0.2615340054035187
v -0.4966009855270386 0.023876000195741653 0.26322999596595764
v -0.49351200461387634 0.027939999476075172 0.25629401206970215
v -0.4966009855270386 0.027939999476075172 0.26322999596595764
v -0.4966009855270386 0.023876000195741653 0.26322999596595764
v -0.49351200461387634 0.023876000195741653 0.25629401206970215
v -0.49351200461387634 0.027939999476075172 0.25629401206970215
v -0.49351200461387634 0.023876000195741653 0.25629401206970215
v -0.4943070113658905 0.027939999476075172 0.2487429976463318
v -0.49351200461387634 0.027939999476075172 0.25629401206970215
v -0.49351200461387634 0.023876000195741653 0.25629401206970215
v -0.4943070113658905 0.023876000195741653 0.2487429976463318
v -0.4943070113658905 0.027939999476075172 0.2487429976463318
v -0.4943070113658905 0.023876000195741653 0.2487429976463318
v -0.49876999855041504 0.027939999476075172 0.2425999939441681
v -0.4943070113658905 0.027939999476075172 0.2487429976463318
v -0.4943070113658905 0.023876000195741653 0.2487429976463318
v -0.49876999855041504 0.023876000195741653 0.2425999939441681
v -0.49876999855041504 0.027939999476075172 0.2425999939441681
v -0.49876999855041504 0.023876000195741653 0.2425999939441681
v -0.5057060122489929 0.027939999476075172 0.23951199650764465
v -0.49876999855041504 0.027939999476075172 0.2425999939441681
v -0.49876999855041504 0.023876000195741653 0.2425999939441681
v -0.5057060122489929 0.023876000195741653 0.23951199650764465
v -0.5057060122489929 0.027939999476075172 0.23951199650764465
v -0.5057060122489929 0.023876000195741653 0.23951199650764465
v -0.5132579803466797 0.027939999476075172 0.24030600488185883
v -0.5057060122489929 0.027939999476075172 0.23951199650764465
v -0.5057060122489929 0.023876000195741653 0.23951199650764465
v -0.5132579803466797 0.023876000195741653 0.24030600488185883
v -0.5132579803466797 0.027939999476075172 0.24030600488185883
v -0.5132579803466797 0.023876000195741653 0.24030600488185883
v -0.5193989872932434 0.027939999476075172 0.24476900696754456
v -0.5132579803466797 0.027939999476075172 0.24030600488185883
v -0.5132579803466797 0.023876000195741653 0.24030600488185883
v -0.5193989872932434 0.023876000195741653 0.24476900696754456
v -0.5193989872932434 0.027939999476075172 0.24476900696754456
v -0.5193989872932434 0.023876000195741653 0.24476900696754456
v -0.522487998008728 0.027939999476075172 0.25170499086380005
v -0.5193989872932434 0.027939999476075172 0.24476900696754456
v -0.5193989872932434 0.023876000195741653 0.24476900696754456
v -0.522487998008728 0.023876000195741653 0.25170499086380005
v -0.522487998008728 0.027939999476075172 0.25170499086380005
v -0.522487998008728 0.023876000195741653 0.25170499086380005
v -0.5216929912567139 0.027939999476075172 0.2592580020427704
v -0.522487998008728 0.027939999476075172 0.25170499086380005
v -0.522487998008728 0.023876000195741653 0.25170499086380005
v -0.5216929912567139 0.023876000195741653 0.2592580020427704
v -0.5216929912567139 0.027939999476075172 0.2592580020427704
v -0.5216929912567139 0.023876000195741653 0.2592580020427704
v -0.5172299742698669 0.027939999476075172 0.2653999924659729
v -0.5216929912567139 0.027939999476075172 0.2592580020427704
v -0.5216929912567139 0.023876000195741653 0.2592580020427704
v -0.5172299742698669 0.023876000195741653 0.2653999924659729
v -0.5172299742698669 0.027939999476075172 0.2653999924659729
v -0.5172299742698669 0.023876000195741653 0.2653999924659729
v -0.5102940201759338 0.027939999476075172 0.26848798990249634
v -0.5172299742698669 0.027939999476075172 0.2653999924659729
v -0.5172299742698669 0.023876000195741653 0.2653999924659729
v -0.5102940201759338 0.023876000195741653 0.26848798990249634
v -0.5102940201759338 0.027939999476075172 0.26848798990249634
v -0.5102940201759338 0.023876000195741653 0.26848798990249634
v -0.5027419924736023 0.027939999476075172 0.26769301295280457
v -0.5102940201759338 0.027939999476075172 0.26848798990249634
v -0.5102940201759338 0.023876000195741653 0.26848798990249634
v -0.5027419924736023 0.023876000195741653 0.26769301295280457
v -0.5027419924736023 0.027939999476075172 0.26769301295280457
v -0.5027419924736023 0.023876000195741653 0.26769301295280457
v -0.4966009855270386 0.027939999476075172 0.26322999596595764
v -0.5027419924736023 0.027939999476075172 0.26769301295280457
v -0.5027419924736023 0.023876000195741653 0.26769301295280457
v -0.4966009855270386 0.023876000195741653 0.26322999596595764
v -0.4966009855270386 0.027939999476075172 0.26322999596595764
v -0.5080000162124634 0.027939999476075172 0.2540000081062317
v -0.4966009855270386 0.027939999476075172 0.26322999596595764
v -0.49351200461387634 0.027939999476075172 0.25629401206970215
v -0.5080000162124634 0.027939999476075172 0.2540000081062317
v -0.49351200461387634 0.027939999476075172 0.25629401206970215
v -0.4943070113658905 0.027939999476075172 0.2487429976463318
v -0.5080000162124634 0.027939999476075172 0.2540000081062317
v -0.4943070113658905 0.027939999476075172 0.2487429976463318
v -0.49876999855041504 0.027939999476075172 0.2425999939441681
v -0.5080000162124634 0.027939999476075172 0.2540000081062317
v -0.49876999855041504 0.027939999476075172 0.2425999939441681
v -0.5057060122489929 0.027939999476075172 0.23951199650764465
v -0.5080000162124634 0.027939999476075172 0.2540000081062317
v -0.5057060122489929 0.027939999476075172 0.23951199650764465
v -0.5132579803466797 0.027939999476075172 0.24030600488185883
v -0.5080000162124634 0.027939999476075172 0.2540000081062317
v -0.5132579803466797 0.027939999476075172 0.24030600488185883
v -0.5193989872932434 0.027939999476075172 0.24476900696754456
v -0.5080000162124634 0.027939999476075172 0.2540000081062317
v -0.5193989872932434 0.027939999476075172 0.24476900696754456
v -0.522487998008728 0.027939999476075172 0.25170499086380005
v -0.5080000162124634 0.027939999476075172 0.2540000081062317
v -0.522487998008728 0.027939999476075172 0.25170499086380005
v -0.5216929912567139 0.027939999476075172 0.2592580020427704
v -0.5080000162124634 0.027939999476075172 0.2540000081062317
v -0.5216929912567139 0.027939999476075172 0.2592580020427704
v -0.5172299742698669 0.027939999476075172 0.2653999924659729
v -0.5080000162124634 0.027939999476075172 0.2540000081062317
v -0.5172299742698669 0.027939999476075172 0.2653999924659729
v -0.5102940201759338 0.027939999476075172 0.26848798990249634
v -0.5080000162124634 0.027939999476075172 0.2540000081062317
v -0.5102940201759338 0.027939999476075172 0.26848798990249634
v -0.5027419924736023 0.027939999476075172 0.26769301295280457
v -0.5080000162124634 0.027939999476075172 0.2540000081062317
v -0.5027419924736023 0.027939999476075172 0.26769301295280457
v -0.4966009855270386 0.027939999476075172 0.26322999596595764
vt 0.25 0.6499999761581421
vt 0.5 0.8999999761581421
vt 0.25 0.8999999761581421
vt 0.25 0.6499999761581421
vt 0.5 0.6499999761581421
vt 0.5 0.8999999761581421
vt 1 0.4000000059604645
vt 1 0.6499999761581421
vt 0.75 0.6499999761581421
vt 1 0.4000000059604645
vt 0.75 0.6499999761581421
vt 0.75 0.4000000059604645
vt 0.25 0.4000000059604645
vt 0.5 0.6499999761581421
vt 0.25 0.6499999761581421
vt 0.25 0.4000000059604645
vt 0.5 0.4000000059604645
vt 0.5 0.6499999761581421
vt 0.75 0.4000000059604645
vt 0.75 0.6499999761581421
vt 0.5 0.6499999761581421
vt 0.75 0.4000000059604645
vt 0.5 0.6499999761581421
vt 0.5 0.4000000059604645
vt 0 0.4000000059604645
vt 0.25 0.6499999761581421
vt 0 0.6499999761581421
vt 0 0.4000000059604645
vt 0.25 0.4000000059604645
vt 0.25 0.6499999761581421
vt 0.045455001294612885 0.9977120161056519
vt 0.045455001294612885 0.0022879999596625566
vt 0.9545450210571289 0.9977120161056519
vt 0.045455001294612885 0.0022879999596625566
vt 0.9545450210571289 0.0022879999596625566
vt 0.9545450210571289 0.9977120161056519
vt 0.9761899709701538 0.0022879999596625566
vt 0.9761899709701538 0.9977120161056519
vt 0.023809999227523804 0.9977120161056519
vt 0.023809999227523804 0.0022879999596625566
vt 0.9761899709701538 0.0022879999596625566
vt 0.023809999227523804 0.9977120161056519
vt -0.9761899709701538 0.9977120161056519
vt -0.9761899709701538 0.0022879999596625566
vt -0.023809999227523804 0.9977120161056519
vt -0.9761899709701538 0.0022879999596625566
vt -0.023809999227523804 0.0022879999596625566
vt -0.023809999227523804 0.9977120161056519
vt -0.045455001294612885 0.9761899709701538
vt -0.9545450210571289 0.9761899709701538
vt -0.9545450210571289 0.023809999227523804
vt -0.045455001294612885 0.023809999227523804
vt -0.045455001294612885 0.9761899709701538
vt -0.9545450210571289 0.023809999227523804
vt 0.9545450210571289 0.9761899709701538
vt 0.045455001294612885 0.9761899709701538
vt 0.9545450210571289 0.023809999227523804
vt 0.045455001294612885 0.9761899709701538
vt 0.045455001294612885 0.023809999227523804
vt 0.9545450210571289 0.023809999227523804
vt 0.5 0
vt 0.5833330154418945 1
vt 0.5 1
vt 0.5 0
vt 0.5833330154418945 0
vt 0.5833330154418945 1
vt 1.059999942779541 0.9287499785423279
vt 0.42911800742149353 0.3137499988079071
vt 1.059999942779541 0.3137499988079071
vt 1.059999942779541 0.9287499785423279
vt 0.42911800742149353 0.9287499785423279
vt 0.42911800742149353 0.3137499988079071
vt 0.42911800742149353 0.9287499785423279
vt -0.15475599467754364 0.3137499988079071
vt 0.42911800742149353 0.3137499988079071
vt 0.42911800742149353 0.9287499785423279
vt -0.15475599467754364 0.9287499785423279
vt -0.15475599467754364 0.3137499988079071
vt 0.75 0
vt 0.8333330154418945 1
vt 0.75 1
vt 0.75 0
vt 0.8333330154418945 0
vt 0.8333330154418945 1
vt 0.8333330154418945 0
vt 0.9166669845581055 1
vt 0.8333330154418945 1
vt 0.8333330154418945 0
vt 0.9166669845581055 0
vt 0.9166669845581055 1
vt 0.9166669845581055 0
vt 1 1
vt 0.9166669845581055 1
vt 0.9166669845581055 0
vt 1 0
vt 1 1
vt 0.5 0.5
vt 0.5416669845581055 1.5
vt 0.5 1.5
vt 0.5 0.5
vt 0.5416669845581055 0.5
vt 0.5416669845581055 1.5
vt 0.5416669845581055 0.5
vt 0.5833330154418945 1.5
vt 0.5416669845581055 1.5
vt 0.5416669845581055 0.5
vt 0.5833330154418945 0.5
vt 0.5833330154418945 1.5
vt 1.0779199600219727 0.6212499737739563
vt 0.7499799728393555 0.5412499904632568
vt 1.0779199600219727 0.5412499904632568
vt 1.0779199600219727 0.6212499737739563
vt 0.7499799728393555 0.6212499737739563
vt 0.7499799728393555 0.5412499904632568
vt 0.7499799728393555 0.6212499737739563
vt 0.4391779899597168 0.5412499904632568
vt 0.7499799728393555 0.5412499904632568
vt 0.7499799728393555 0.6212499737739563
vt 0.4391779899597168 0.6212499737739563
vt 0.4391779899597168 0.5412499904632568
vt 0.4391779899597168 0.6212499737739563
vt 0.13868899643421173 0.5412499904632568
vt 0.4391779899597168 0.5412499904632568
vt 0.4391779899597168 0.6212499737739563
vt 0.13868999481201172 0.6212499737739563
vt 0.13868899643421173 0.5412499904632568
vt 0.13868999481201172 0.6212499737739563
vt -0.15854300558567047 0.5412499904632568
vt 0.13868899643421173 0.5412499904632568
vt 0.7083330154418945 0.5
vt 0.75 0.5
vt 0.75 1.5
vt 0.75 0.5
vt 0.7916669845581055 1.5
vt 0.75 1.5
vt 0.75 0.5
vt 0.7916669845581055 0.5
vt 0.7916669845581055 1.5
vt 0.7916669845581055 0.5
vt 0.8333330154418945 1.5
vt 0.7916669845581055 1.5
vt 0.7916669845581055 0.5
vt 0.8333330154418945 0.5
vt 0.8333330154418945 1.5
vt 0.8333330154418945 0.5
vt 0.875 1.5
vt 0.8333330154418945 1.5
vt 0.8333330154418945 0.5
vt 0.875 0.5
vt 0.875 1.5
vt 0.875 0.5
vt 0.9166669845581055 1.5
vt 0.875 1.5
vt 0.875 0.5
vt 0.9166669845581055 0.5
vt 0.9166669845581055 1.5
vt 0.9166669845581055 0.5
vt 0.9583330154418945 1.5
vt 0.9166669845581055 1.5
vt 0.9166669845581055 0.5
vt 0.9583330154418945 0.5
vt 0.9583330154418945 1.5
vt 0.9583330154418945 0.5
vt 1 1.5
vt 0.9583330154418945 1.5
vt 0.9583330154418945 0.5
vt 1 0.5
vt 1 1.5
vt 0.25 0.75
vt 0.5 0.75
vt 0.4665060043334961 0.875
vt 0.25 0.75
vt 0.4665060043334961 0.875
vt 0.375 0.9665060043334961
vt 0.25 0.75
vt 0.375 0.9665060043334961
vt 0.25 1
vt 0.25 0.75
vt 0.25 1
vt 0.125 0.9665060043334961
vt 0.25 0.75
vt 0.125 0.9665060043334961
vt 0.033493999391794205 0.875
vt 0.25 0.75
vt 0.033493999391794205 0.875
vt 0 0.75
vt 0.25 0.75
vt 0 0.75
vt 0.033493999391794205 0.625
vt 0.25 0.75
vt 0.033493999391794205 0.625
vt 0.125 0.5334939956665039
vt 0.25 0.75
vt 0.125 0.5334939956665039
vt 0.25 0.5
vt 0.25 0.75
vt 0.25 0.5
vt 0.375 0.5334939956665039
vt 0.25 0.75
vt 0.375 0.5334939956665039
vt 0.4665060043334961 0.625
vt 0.25 0.75
vt 0.4665060043334961 0.625
vt 0.5 0.75
vt 0.5 0
vt 0.5833330154418945 1
vt 0.5 1
vt 0.5 0
vt 0.5833330154418945 0
vt 0.5833330154418945 1
vt 1.059999942779541 0.9287499785423279
vt 0.42911800742149353 0.3137499988079071
vt 1.059999942779541 0.3137499988079071
vt 1.059999942779541 0.9287499785423279
vt 0.42911800742149353 0.9287499785423279
vt 0.42911800742149353 0.3137499988079071
vt 0.42911800742149353 0.9287499785423279
vt -0.15475599467754364 0.3137499988079071
vt 0.42911800742149353 0.3137499988079071
vt 0.42911800742149353 0.9287499785423279
vt -0.15475599467754364 0.9287499785423279
vt -0.15475599467754364 0.3137499988079071
vt 0.75 0
vt 0.8333330154418945 1
vt 0.75 1
vt 0.75 0
vt 0.8333330154418945 0
vt 0.8333330154418945 1
vt 0.8333330154418945 0
vt 0.9166669845581055 1
vt 0.8333330154418945 1
vt 0.8333330154418945 0
vt 0.9166669845581055 0
vt 0.9166669845581055 1
vt 0.9166669845581055 0
vt 1 1
vt 0.9166669845581055 1
vt 0.9166669845581055 0
vt 1 0
vt 1 1
vt 0.5 0.5
vt 0.5416669845581055 1.5
vt 0.5 1.5
vt 0.5 0.5
vt 0.5416669845581055 0.5
vt 0.5416669845581055 1.5
vt 0.5416669845581055 0.5
vt 0.5833330154418945 1.5
vt 0.5416669845581055 1.5
vt 0.5416669845581055 0.5
vt 0.5833330154418945 0.5
vt 0.5833330154418945 1.5
vt 1.0779199600219727 0.6212499737739563
vt 0.7499799728393555 0.5412499904632568
vt 1.0779199600219727 0.5412499904632568
vt 1.0779199600219727 0.6212499737739563
vt 0.7499799728393555 0.6212499737739563
vt 0.7499799728393555 0.5412499904632568
vt 0.7499799728393555 0.6212499737739563
vt 0.4391779899597168 0.5412499904632568
vt 0.7499799728393555 0.5412499904632568
vt 0.7499799728393555 0.6212499737739563
vt 0.4391779899597168 0.6212499737739563
vt 0.4391779899597168 0.5412499904632568
vt 0.4391779899597168 0.6212499737739563
vt 0.13868899643421173 0.5412499904632568
vt 0.4391779899597168 0.5412499904632568
vt 0.4391779899597168 0.6212499737739563
vt 0.13868999481201172 0.6212499737739563
vt 0.13868899643421173 0.5412499904632568
vt 0.13868999481201172 0.6212499737739563
vt -0.15854300558567047 0.5412499904632568
vt 0.13868899643421173 0.5412499904632568
vt 0.7083330154418945 0.5
vt 0.75 0.5
vt 0.75 1.5
vt 0.75 0.5
vt 0.7916669845581055 1.5
vt 0.75 1.5
vt 0.75 0.5
vt 0.7916669845581055 0.5
vt 0.7916669845581055 1.5
vt 0.7916669845581055 0.5
vt 0.8333330154418945 1.5
vt 0.7916669845581055 1.5
vt 0.7916669845581055 0.5
vt 0.8333330154418945 0.5
vt 0.8333330154418945 1.5
vt 0.8333330154418945 0.5
vt 0.875 1.5
vt 0.8333330154418945 1.5
vt 0.8333330154418945 0.5
vt 0.875 0.5
vt 0.875 1.5
vt 0.875 0.5
vt 0.9166669845581055 1.5
vt 0.875 1.5
vt 0.875 0.5
vt 0.9166669845581055 0.5
vt 0.9166669845581055 1.5
vt 0.9166669845581055 0.5
vt 0.9583330154418945 1.5
vt 0.9166669845581055 1.5
vt 0.9166669845581055 0.5
vt 0.9583330154418945 0.5
vt 0.9583330154418945 1.5
vt 0.9583330154418945 0.5
vt 1 1.5
vt 0.9583330154418945 1.5
vt 0.9583330154418945 0.5
vt 1 0.5
vt 1 1.5
vt 0.25 0.75
vt 0.5 0.75
vt 0.4665060043334961 0.875
vt 0.25 0.75
vt 0.4665060043334961 0.875
vt 0.375 0.9665060043334961
vt 0.25 0.75
vt 0.375 0.9665060043334961
vt 0.25 1
vt 0.25 0.75
vt 0.25 1
vt 0.125 0.9665060043334961
vt 0.25 0.75
vt 0.125 0.9665060043334961
vt 0.033493999391794205 0.875
vt 0.25 0.75
vt 0.033493999391794205 0.875
vt 0 0.75
vt 0.25 0.75
vt 0 0.75
vt 0.033493999391794205 0.625
vt 0.25 0.75
vt 0.033493999391794205 0.625
vt 0.125 0.5334939956665039
vt 0.25 0.75
vt 0.125 0.5334939956665039
vt 0.25 0.5
vt 0.25 0.75
vt 0.25 0.5
vt 0.375 0.5334939956665039
vt 0.25 0.75
vt 0.375 0.5334939956665039
vt 0.4665060043334961 0.625
vt 0.25 0.75
vt 0.4665060043334961 0.625
vt 0.5 0.75
vt 0.5 0
vt 0.5833330154418945 1
vt 0.5 1
vt 0.5 0
vt 0.5833330154418945 0
vt 0.5833330154418945 1
vt 1.059999942779541 0.9287499785423279
vt 0.42911800742149353 0.3137499988079071
vt 1.059999942779541 0.3137499988079071
vt 1.059999942779541 0.9287499785423279
vt 0.42911800742149353 0.9287499785423279
vt 0.42911800742149353 0.3137499988079071
vt 0.42911800742149353 0.9287499785423279
vt -0.15475599467754364 0.3137499988079071
vt 0.42911800742149353 0.3137499988079071
vt 0.42911800742149353 0.9287499785423279
vt -0.15475599467754364 0.9287499785423279
vt -0.15475599467754364 0.3137499988079071
vt 0.75 0
vt 0.8333330154418945 1
vt 0.75 1
vt 0.75 0
vt 0.8333330154418945 0
vt 0.8333330154418945 1
vt 0.8333330154418945 0
vt 0.9166669845581055 1
vt 0.8333330154418945 1
vt 0.8333330154418945 0
vt 0.9166669845581055 0
vt 0.9166669845581055 1
vt 0.9166669845581055 0
vt 1 1
vt 0.9166669845581055 1
vt 0.9166669845581055 0
vt 1 0
vt 1 1
vt 0.5 0.5
vt 0.5416669845581055 1.5
vt 0.5 1.5
vt 0.5 0.5
vt 0.5416669845581055 0.5
vt 0.5416669845581055 1.5
vt 0.5416669845581055 0.5
vt 0.5833330154418945 1.5
vt 0.5416669845581055 1.5
vt 0.5416669845581055 0.5
vt 0.5833330154418945 0.5
vt 0.5833330154418945 1.5
vt 1.0779199600219727 0.6212499737739563
vt 0.7499799728393555 0.5412499904632568
vt 1.0779199600219727 0.5412499904632568
vt 1.0779199600219727 0.6212499737739563
vt 0.7499799728393555 0.6212499737739563
vt 0.7499799728393555 0.5412499904632568
vt 0.7499799728393555 0.6212499737739563
vt 0.4391779899597168 0.5412499904632568
vt 0.7499799728393555 0.5412499904632568
vt 0.7499799728393555 0.6212499737739563
vt 0.4391779899597168 0.6212499737739563
vt 0.4391779899597168 0.5412499904632568
vt 0.4391779899597168 0.6212499737739563
vt 0.13868899643421173 0.5412499904632568
vt 0.4391779899597168 0.5412499904632568
vt 0.4391779899597168 0.6212499737739563
vt 0.13868999481201172 0.6212499737739563
vt 0.13868899643421173 0.5412499904632568
vt 0.13868999481201172 0.6212499737739563
vt -0.15854300558567047 0.5412499904632568
vt 0.13868899643421173 0.5412499904632568
vt 0.7083330154418945 0.5
vt 0.75 0.5
vt 0.75 1.5
vt 0.75 0.5
vt 0.7916669845581055 1.5
vt 0.75 1.5
vt 0.75 0.5
vt 0.7916669845581055 0.5
vt 0.7916669845581055 1.5
vt 0.7916669845581055 0.5
vt 0.8333330154418945 1.5
vt 0.7916669845581055 1.5
vt 0.7916669845581055 0.5
vt 0.8333330154418945 0.5
vt 0.8333330154418945 1.5
vt 0.8333330154418945 0.5
vt 0.875 1.5
vt 0.8333330154418945 1.5
vt 0.8333330154418945 0.5
vt 0.875 0.5
vt 0.875 1.5
vt 0.875 0.5
vt 0.9166669845581055 1.5
vt 0.875 1.5
vt 0.875 0.5
vt 0.9166669845581055 0.5
vt 0.9166669845581055 1.5
vt 0.9166669845581055 0.5
vt 0.9583330154418945 1.5
vt 0.9166669845581055 1.5
vt 0.9166669845581055 0.5
vt 0.9583330154418945 0.5
vt 0.9583330154418945 1.5
vt 0.9583330154418945 0.5
vt 1 1.5
vt 0.9583330154418945 1.5
vt 0.9583330154418945 0.5
vt 1 0.5
vt 1 1.5
vt 0.25 0.75
vt 0.5 0.75
vt 0.4665060043334961 0.875
vt 0.25 0.75
vt 0.4665060043334961 0.875
vt 0.375 0.9665060043334961
vt 0.25 0.75
vt 0.375 0.9665060043334961
vt 0.25 1
vt 0.25 0.75
vt 0.25 1
vt 0.125 0.9665060043334961
vt 0.25 0.75
vt 0.125 0.9665060043334961
vt 0.033493999391794205 0.875
vt 0.25 0.75
vt 0.033493999391794205 0.875
vt 0 0.75
vt 0.25 0.75
vt 0 0.75
vt 0.033493999391794205 0.625
vt 0.25 0.75
vt 0.033493999391794205 0.625
vt 0.125 0.5334939956665039
vt 0.25 0.75
vt 0.125 0.5334939956665039
vt 0.25 0.5
vt 0.25 0.75
vt 0.25 0.5
vt 0.375 0.5334939956665039
vt 0.25 0.75
vt 0.375 0.5334939956665039
vt 0.4665060043334961 0.625
vt 0.25 0.75
vt 0.4665060043334961 0.625
vt 0.5 0.75
vt 0.5 0
vt 0.5833330154418945 1
vt 0.5 1
vt 0.5 0
vt 0.5833330154418945 0
vt 0.5833330154418945 1
vt 1.059999942779541 0.9287499785423279
vt 0.42911800742149353 0.3137499988079071
vt 1.059999942779541 0.3137499988079071
vt 1.059999942779541 0.9287499785423279
vt 0.42911800742149353 0.9287499785423279
vt 0.42911800742149353 0.3137499988079071
vt 0.42911800742149353 0.9287499785423279
vt -0.15475599467754364 0.3137499988079071
vt 0.42911800742149353 0.3137499988079071
vt 0.42911800742149353 0.9287499785423279
vt -0.15475599467754364 0.9287499785423279
vt -0.15475599467754364 0.3137499988079071
vt 0.75 0
vt 0.8333330154418945 1
vt 0.75 1
vt 0.75 0
vt 0.8333330154418945 0
vt 0.8333330154418945 1
vt 0.8333330154418945 0
vt 0.9166669845581055 1
vt 0.8333330154418945 1
vt 0.8333330154418945 0
vt 0.9166669845581055 0
vt 0.9166669845581055 1
vt 0.9166669845581055 0
vt 1 1
vt 0.9166669845581055 1
vt 0.9166669845581055 0
vt 1 0
vt 1 1
vt 0.5 0.5
vt 0.5416669845581055 1.5
vt 0.5 1.5
vt 0.5 0.5
vt 0.5416669845581055 0.5
vt 0.5416669845581055 1.5
vt 0.5416669845581055 0.5
vt 0.5833330154418945 1.5
vt 0.5416669845581055 1.5
vt 0.5416669845581055 0.5
vt 0.5833330154418945 0.5
vt 0.5833330154418945 1.5
vt 1.0779199600219727 0.6212499737739563
vt 0.7499799728393555 0.5412499904632568
vt 1.0779199600219727 0.5412499904632568
vt 1.0779199600219727 0.6212499737739563
vt 0.7499799728393555 0.6212499737739563
vt 0.7499799728393555 0.5412499904632568
vt 0.7499799728393555 0.6212499737739563
vt 0.4391779899597168 0.5412499904632568
vt 0.7499799728393555 0.5412499904632568
vt 0.7499799728393555 0.6212499737739563
vt 0.4391779899597168 0.6212499737739563
vt 0.4391779899597168 0.5412499904632568
vt 0.4391779899597168 0.6212499737739563
vt 0.13868899643421173 0.5412499904632568
vt 0.4391779899597168 0.5412499904632568
vt 0.4391779899597168 0.6212499737739563
vt 0.13868999481201172 0.6212499737739563
vt 0.13868899643421173 0.5412499904632568
vt 0.13868999481201172 0.6212499737739563
vt -0.15854300558567047 0.5412499904632568
vt 0.13868899643421173 0.5412499904632568
vt 0.7083330154418945 0.5
vt 0.75 0.5
vt 0.75 1.5
vt 0.75 0.5
vt 0.7916669845581055 1.5
vt 0.75 1.5
vt 0.75 0.5
vt 0.7916669845581055 0.5
vt 0.7916669845581055 1.5
vt 0.7916669845581055 0.5
vt 0.8333330154418945 1.5
vt 0.7916669845581055 1.5
vt 0.7916669845581055 0.5
vt 0.8333330154418945 0.5
vt 0.8333330154418945 1.5
vt 0.8333330154418945 0.5
vt 0.875 1.5
vt 0.8333330154418945 1.5
vt 0.8333330154418945 0.5
vt 0.875 0.5
vt 0.875 1.5
vt 0.875 0.5
vt 0.9166669845581055 1.5
vt 0.875 1.5
vt 0.875 0.5
vt 0.9166669845581055 0.5
vt 0.9166669845581055 1.5
vt 0.9166669845581055 0.5
vt 0.9583330154418945 1.5
vt 0.9166669845581055 1.5
vt 0.9166669845581055 0.5
vt 0.9583330154418945 0.5
vt 0.9583330154418945 1.5
vt 0.9583330154418945 0.5
vt 1 1.5
vt 0.9583330154418945 1.5
vt 0.9583330154418945 0.5
vt 1 0.5
vt 1 1.5
vt 0.25 0.75
vt 0.5 0.75
vt 0.4665060043334961 0.875
vt 0.25 0.75
vt 0.4665060043334961 0.875
vt 0.375 0.9665060043334961
vt 0.25 0.75
vt 0.375 0.9665060043334961
vt 0.25 1
vt 0.25 0.75
vt 0.25 1
vt 0.125 0.9665060043334961
vt 0.25 0.75
vt 0.125 0.9665060043334961
vt 0.033493999391794205 0.875
vt 0.25 0.75
vt 0.033493999391794205 0.875
vt 0 0.75
vt 0.25 0.75
vt 0 0.75
vt 0.033493999391794205 0.625
vt 0.25 0.75
vt 0.033493999391794205 0.625
vt 0.125 0.5334939956665039
vt 0.25 0.75
vt 0.125 0.5334939956665039
vt 0.25 0.5
vt 0.25 0.75
vt 0.25 0.5
vt 0.375 0.5334939956665039
vt 0.25 0.75
vt 0.375 0.5334939956665039
vt 0.4665060043334961 0.625
vt 0.25 0.75
vt 0.4665060043334961 0.625
vt 0.5 0.75
vn 0.7056167761111602 0.7056167761111602 0.06488397753671803
vn -0.8942381829326699 0.44711909146633494 -0.02055699957668432
vn -0.8936718873634585 0.4468359138794063 0.04108800072758193
vn 0.7056167761111602 0.7056167761111602 0.06488397753671803
vn 0.9691788042127623 0.24229496927409439 -0.04455999696124391
vn -0.8942381829326699 0.44711909146633494 -0.02055699957668432
vn -0.9989447532679564 0 0.04592798622214751
vn -0.8936718873634585 0.4468359138794063 0.04108800072758193
vn -0.8942381829326699 0.44711909146633494 -0.02055699957668432
vn -0.9989447532679564 0 0.04592798622214751
vn -0.8942381829326699 0.44711909146633494 -0.02055699957668432
vn -0.9957988270620506 0 -0.09156798579112804
vn 0.9997358789776513 0 0.022981999146783477
vn 0.9691788042127623 0.24229496927409439 -0.04455999696124391
vn 0.7056167761111602 0.7056167761111602 0.06488397753671803
vn 0.9997358789776513 0 0.022981999146783477
vn 0.9989447532679564 0 -0.04592798622214751
vn 0.9691788042127623 0.24229496927409439 -0.04455999696124391
vn -0.9957988270620506 0 -0.09156798579112804
vn -0.8942381829326699 0.44711909146633494 -0.02055699957668432
vn 0.9691788042127623 0.24229496927409439 -0.04455999696124391
vn -0.9957988270620506 0 -0.09156798579112804
vn 0.9691788042127623 0.24229496927409439 -0.04455999696124391
vn 0.9989447532679564 0 -0.04592798622214751
vn -0.9989447532679564 0 0.04592798622214751
vn 0.7056167761111602 0.7056167761111602 0.06488397753671803
vn -0.8936718873634585 0.4468359138794063 0.04108800072758193
vn -0.9989447532679564 0 0.04592798622214751
vn 0.9997358789776513 0 0.022981999146783477
vn 0.7056167761111602 0.7056167761111602 0.06488397753671803
vn 0.8936718873634585 0.4468359138794063 0.04108800072758193
vn 0.8942381829326699 0.44711909146633494 -0.02055699957668432
vn -0.7056167761111602 0.7056167761111602 0.06488397753671803
vn 0.8942381829326699 0.44711909146633494 -0.02055699957668432
vn -0.9691788042127623 0.24229496927409439 -0.04455999696124391
vn -0.7056167761111602 0.7056167761111602 0.06488397753671803
vn 0.8942381829326699 0.44711909146633494 -0.02055699957668432
vn 0.8936718873634585 0.4468359138794063 0.04108800072758193
vn 0.9989447532679564 0 0.04592798622214751
vn 0.9957988270620506 0 -0.09156798579112804
vn 0.8942381829326699 0.44711909146633494 -0.02055699957668432
vn 0.9989447532679564 0 0.04592798622214751
vn -0.7056167761111602 0.7056167761111602 0.06488397753671803
vn -0.9691788042127623 0.24229496927409439 -0.04455999696124391
vn -0.9997358789776513 0 0.022981999146783477
vn -0.9691788042127623 0.24229496927409439 -0.04455999696124391
vn -0.9989447532679564 0 -0.04592798622214751
vn -0.9997358789776513 0 0.022981999146783477
vn -0.9691788042127623 0.24229496927409439 -0.04455999696124391
vn 0.8942381829326699 0.44711909146633494 -0.02055699957668432
vn 0.9957988270620506 0 -0.09156798579112804
vn -0.9989447532679564 0 -0.04592798622214751
vn -0.9691788042127623 0.24229496927409439 -0.04455999696124391
vn 0.9957988270620506 0 -0.09156798579112804
vn 0.8936718873634585 0.4468359138794063 0.04108800072758193
vn -0.7056167761111602 0.7056167761111602 0.06488397753671803
vn 0.9989447532679564 0 0.04592798622214751
vn -0.7056167761111602 0.7056167761111602 0.06488397753671803
vn -0.9997358789776513 0 0.022981999146783477
vn 0.9989447532679564 0 0.04592798622214751
vn 0.8969638115548684 0 0.44210397053290856
vn 0.9782373352559377 0 -0.20748907419756346
vn 0.6688150050185868 0 0.7434288729004194
vn 0.8969638115548684 0 0.44210397053290856
vn 0.8313601450146798 0 -0.5557340274638314
vn 0.9782373352559377 0 -0.20748907419756346
vn 0.8313601450146798 0 -0.5557340274638314
vn 0.30941897144832586 0 -0.9509258120946451
vn 0.9782373352559377 0 -0.20748907419756346
vn 0.8313601450146798 0 -0.5557340274638314
vn -0.06567799223594467 0 -0.9978408697462011
vn 0.30941897144832586 0 -0.9509258120946451
vn -0.06567799223594467 0 -0.9978408697462011
vn -0.6688496734676196 0 -0.7433976824703309
vn 0.30941897144832586 0 -0.9509258120946451
vn -0.06567799223594467 0 -0.9978408697462011
vn -0.8969701636292469 0 -0.44209108287650645
vn -0.6688496734676196 0 -0.7433976824703309
vn -0.8969701636292469 0 -0.44209108287650645
vn -0.978236077582638 0 0.2074950035922195
vn -0.6688496734676196 0 -0.7433976824703309
vn -0.8969701636292469 0 -0.44209108287650645
vn -0.8313405393437407 0 0.5557633557942248
vn -0.978236077582638 0 0.2074950035922195
vn -0.8313405393437407 0 0.5557633557942248
vn -0.309390104254987 0 0.9509352046217915
vn -0.978236077582638 0 0.2074950035922195
vn -0.8313405393437407 0 0.5557633557942248
vn 0.0656469912550591 0 0.9978429097504068
vn -0.309390104254987 0 0.9509352046217915
vn 0.0656469912550591 0 0.9978429097504068
vn 0.6688150050185868 0 0.7434288729004194
vn -0.309390104254987 0 0.9509352046217915
vn 0.0656469912550591 0 0.9978429097504068
vn 0.8969638115548684 0 0.44210397053290856
vn 0.6688150050185868 0 0.7434288729004194
vn 0.8478269733800411 0 0.5302729704682668
vn 0.3763499470024302 0.9228769325123475 0.08160199034256589
vn 0.28511898930010865 0.9228830681197872 0.2588320005685019
vn 0.8478269733800411 0 0.5302729704682668
vn 0.9993731879773043 0 0.03540100495860734
vn 0.3763499470024302 0.9228769325123475 0.08160199034256589
vn 0.9993731879773043 0 0.03540100495860734
vn 0.3667088450770025 0.9228886966388236 -0.11747798329297494
vn 0.3763499470024302 0.9228769325123475 0.08160199034256589
vn 0.9993731879773043 0 0.03540100495860734
vn 0.8831738068318029 0 -0.469045868680475
vn 0.3667088450770025 0.9228886966388236 -0.11747798329297494
vn 0.8831738068318029 0 -0.469045868680475
vn 0.2588331038984594 0.9228873619505319 -0.28510408884875227
vn 0.3667088450770025 0.9228886966388236 -0.11747798329297494
vn 0.8831738068318029 0 -0.469045868680475
vn 0.5303136749522342 0 -0.8478015134208337
vn 0.2588331038984594 0.9228873619505319 -0.28510408884875227
vn 0.5303136749522342 0 -0.8478015134208337
vn 0.08159204612987037 0.9228964493839261 -0.37630424090472775
vn 0.2588331038984594 0.9228873619505319 -0.28510408884875227
vn 0.5303136749522342 0 -0.8478015134208337
vn 0.035397012234383574 0 -0.9993733294044217
vn 0.08159204612987037 0.9228964493839261 -0.37630424090472775
vn 0.035397012234383574 0 -0.9993733294044217
vn -0.11746689239130353 0.9228885414955422 -0.36671278838917126
vn 0.08159204612987037 0.9228964493839261 -0.37630424090472775
vn 0.035397012234383574 0 -0.9993733294044217
vn -0.46908105125085897 0 -0.883155120778558
vn -0.11746689239130353 0.9228885414955422 -0.36671278838917126
vn -0.46908105125085897 0 -0.883155120778558
vn -0.2851378872679424 0.9228966090416979 -0.25876289197585844
vn -0.11746689239130353 0.9228885414955422 -0.36671278838917126
vn -0.46908105125085897 0 -0.883155120778558
vn -0.8478939158080805 0 -0.5301659245327258
vn -0.2851378872679424 0.9228966090416979 -0.25876289197585844
vn -0.8478939158080805 0 -0.5301659245327258
vn -0.37636005536531314 0.9228732502065404 -0.08159701452035409
vn -0.2851378872679424 0.9228966090416979 -0.25876289197585844
vn -0.8478939158080805 0 -0.5301659245327258
vn -0.9993731173895699 0 -0.035402997599819686
vn -0.37636005536531314 0.9228732502065404 -0.08159701452035409
vn -0.9993731173895699 0 -0.035402997599819686
vn -0.36671479808718754 0.9228855784375879 0.11748389666584977
vn -0.37636005536531314 0.9228732502065404 -0.08159701452035409
vn -0.9993731173895699 0 -0.035402997599819686
vn -0.8831546709303709 0 0.46908189819462026
vn -0.36671479808718754 0.9228855784375879 0.11748389666584977
vn -0.8831546709303709 0 0.46908189819462026
vn -0.25882905969661707 0.9228841750833146 0.2851180759568826
vn -0.36671479808718754 0.9228855784375879 0.11748389666584977
vn -0.8831546709303709 0 0.46908189819462026
vn -0.5303450260546907 0 0.8477819019883883
vn -0.25882905969661707 0.9228841750833146 0.2851180759568826
vn -0.5303450260546907 0 0.8477819019883883
vn -0.0816200308288737 0.9228882871448267 0.37631818985850446
vn -0.25882905969661707 0.9228841750833146 0.2851180759568826
vn -0.5303450260546907 0 0.8477819019883883
vn -0.03535699467289554 0 0.9993747459925635
vn -0.0816200308288737 0.9228882871448267 0.37631818985850446
vn -0.03535699467289554 0 0.9993747459925635
vn 0.11751199460249312 0.9228847580914296 0.36670785975632875
vn -0.0816200308288737 0.9228882871448267 0.37631818985850446
vn -0.03535699467289554 0 0.9993747459925635
vn 0.46907789591888827 0 0.8831567967016437
vn 0.11751199460249312 0.9228847580914296 0.36670785975632875
vn 0.46907789591888827 0 0.8831567967016437
vn 0.28511898930010865 0.9228830681197872 0.2588320005685019
vn 0.11751199460249312 0.9228847580914296 0.36670785975632875
vn 0.46907789591888827 0 0.8831567967016437
vn 0.8478269733800411 0 0.5302729704682668
vn 0.28511898930010865 0.9228830681197872 0.2588320005685019
vn 0 1 0
vn 0.28511898930010865 0.9228830681197872 0.2588320005685019
vn 0.3763499470024302 0.9228769325123475 0.08160199034256589
vn 0 1 0
vn 0.3763499470024302 0.9228769325123475 0.08160199034256589
vn 0.3667088450770025 0.9228886966388236 -0.11747798329297494
vn 0 1 0
vn 0.3667088450770025 0.9228886966388236 -0.11747798329297494
vn 0.2588331038984594 0.9228873619505319 -0.28510408884875227
vn 0 1 0
vn 0.2588331038984594 0.9228873619505319 -0.28510408884875227
vn 0.08159204612987037 0.9228964493839261 -0.37630424090472775
vn 0 1 0
vn 0.08159204612987037 0.9228964493839261 -0.37630424090472775
vn -0.11746689239130353 0.9228885414955422 -0.36671278838917126
vn 0 1 0
vn -0.11746689239130353 0.9228885414955422 -0.36671278838917126
vn -0.2851378872679424 0.9228966090416979 -0.25876289197585844
vn 0 1 0
vn -0.2851378872679424 0.9228966090416979 -0.25876289197585844
vn -0.37636005536531314 0.9228732502065404 -0.08159701452035409
vn 0 1 0
vn -0.37636005536531314 0.9228732502065404 -0.08159701452035409
vn -0.36671479808718754 0.9228855784375879 0.11748389666584977
vn 0 1 0
vn -0.36671479808718754 0.9228855784375879 0.11748389666584977
vn -0.25882905969661707 0.9228841750833146 0.2851180759568826
vn 0 1 0
vn -0.25882905969661707 0.9228841750833146 0.2851180759568826
vn -0.0816200308288737 0.9228882871448267 0.37631818985850446
vn 0 1 0
vn -0.0816200308288737 0.9228882871448267 0.37631818985850446
vn 0.11751199460249312 0.9228847580914296 0.36670785975632875
vn 0 1 0
vn 0.11751199460249312 0.9228847580914296 0.36670785975632875
vn 0.28511898930010865 0.9228830681197872 0.2588320005685019
vn 0.8969701636292469 0 0.44209108287650645
vn 0.978236077582638 0 -0.2074950035922195
vn 0.6688496734676196 0 0.7433976824703309
vn 0.8969701636292469 0 0.44209108287650645
vn 0.8313405393437407 0 -0.5557633557942248
vn 0.978236077582638 0 -0.2074950035922195
vn 0.8313405393437407 0 -0.5557633557942248
vn 0.309390104254987 0 -0.9509352046217915
vn 0.978236077582638 0 -0.2074950035922195
vn 0.8313405393437407 0 -0.5557633557942248
vn -0.0656469912550591 0 -0.9978429097504068
vn 0.309390104254987 0 -0.9509352046217915
vn -0.0656469912550591 0 -0.9978429097504068
vn -0.6688150050185868 0 -0.7434288729004194
vn 0.309390104254987 0 -0.9509352046217915
vn -0.0656469912550591 0 -0.9978429097504068
vn -0.8969638115548684 0 -0.44210397053290856
vn -0.6688150050185868 0 -0.7434288729004194
vn -0.8969638115548684 0 -0.44210397053290856
vn -0.9782373352559377 0 0.20748907419756346
vn -0.6688150050185868 0 -0.7434288729004194
vn -0.8969638115548684 0 -0.44210397053290856
vn -0.8313601450146798 0 0.5557340274638314
vn -0.9782373352559377 0 0.20748907419756346
vn -0.8313601450146798 0 0.5557340274638314
vn -0.30941897144832586 0 0.9509258120946451
vn -0.9782373352559377 0 0.20748907419756346
vn -0.8313601450146798 0 0.5557340274638314
vn 0.06567799223594467 0 0.9978408697462011
vn -0.30941897144832586 0 0.9509258120946451
vn 0.06567799223594467 0 0.9978408697462011
vn 0.6688496734676196 0 0.7433976824703309
vn -0.30941897144832586 0 0.9509258120946451
vn 0.06567799223594467 0 0.9978408697462011
vn 0.8969701636292469 0 0.44209108287650645
vn 0.6688496734676196 0 0.7433976824703309
vn 0.8478939158080805 0 0.5301659245327258
vn 0.37636005536531314 0.9228732502065404 0.08159701452035409
vn 0.2851378872679424 0.9228966090416979 0.25876289197585844
vn 0.8478939158080805 0 0.5301659245327258
vn 0.9993731173895699 0 0.035402997599819686
vn 0.37636005536531314 0.9228732502065404 0.08159701452035409
vn 0.9993731173895699 0 0.035402997599819686
vn 0.36671479808718754 0.9228855784375879 -0.11748389666584977
vn 0.37636005536531314 0.9228732502065404 0.08159701452035409
vn 0.9993731173895699 0 0.035402997599819686
vn 0.8831546709303709 0 -0.46908189819462026
vn 0.36671479808718754 0.9228855784375879 -0.11748389666584977
vn 0.8831546709303709 0 -0.46908189819462026
vn 0.25882905969661707 0.9228841750833146 -0.2851180759568826
vn 0.36671479808718754 0.9228855784375879 -0.11748389666584977
vn 0.8831546709303709 0 -0.46908189819462026
vn 0.5303450260546907 0 -0.8477819019883883
vn 0.25882905969661707 0.9228841750833146 -0.2851180759568826
vn 0.5303450260546907 0 -0.8477819019883883
vn 0.0816200308288737 0.9228882871448267 -0.37631818985850446
vn 0.25882905969661707 0.9228841750833146 -0.2851180759568826
vn 0.5303450260546907 0 -0.8477819019883883
vn 0.03535699467289554 0 -0.9993747459925635
vn 0.0816200308288737 0.9228882871448267 -0.37631818985850446
vn 0.03535699467289554 0 -0.9993747459925635
vn -0.11751199460249312 0.9228847580914296 -0.36670785975632875
vn 0.0816200308288737 0.9228882871448267 -0.37631818985850446
vn 0.03535699467289554 0 -0.9993747459925635
vn -0.46907789591888827 0 -0.8831567967016437
vn -0.11751199460249312 0.9228847580914296 -0.36670785975632875
vn -0.46907789591888827 0 -0.8831567967016437
vn -0.28511898930010865 0.9228830681197872 -0.2588320005685019
vn -0.11751199460249312 0.9228847580914296 -0.36670785975632875
vn -0.46907789591888827 0 -0.8831567967016437
vn -0.8478269733800411 0 -0.5302729704682668
vn -0.28511898930010865 0.9228830681197872 -0.2588320005685019
vn -0.8478269733800411 0 -0.5302729704682668
vn -0.3763499470024302 0.9228769325123475 -0.08160199034256589
vn -0.28511898930010865 0.9228830681197872 -0.2588320005685019
vn -0.8478269733800411 0 -0.5302729704682668
vn -0.9993731879773043 0 -0.03540100495860734
vn -0.3763499470024302 0.9228769325123475 -0.08160199034256589
vn -0.9993731879773043 0 -0.03540100495860734
vn -0.3667088450770025 0.9228886966388236 0.11747798329297494
vn -0.3763499470024302 0.9228769325123475 -0.08160199034256589
vn -0.9993731879773043 0 -0.03540100495860734
vn -0.8831738068318029 0 0.469045868680475
vn -0.3667088450770025 0.9228886966388236 0.11747798329297494
vn -0.8831738068318029 0 0.469045868680475
vn -0.2588331038984594 0.9228873619505319 0.28510408884875227
vn -0.3667088450770025 0.9228886966388236 0.11747798329297494
vn -0.8831738068318029 0 0.469045868680475
vn -0.5303136749522342 0 0.8478015134208337
vn -0.2588331038984594 0.9228873619505319 0.28510408884875227
vn -0.5303136749522342 0 0.8478015134208337
vn -0.08159204612987037 0.9228964493839261 0.37630424090472775
vn -0.2588331038984594 0.9228873619505319 0.28510408884875227
vn -0.5303136749522342 0 0.8478015134208337
vn -0.035397012234383574 0 0.9993733294044217
vn -0.08159204612987037 0.9228964493839261 0.37630424090472775
vn -0.035397012234383574 0 0.9993733294044217
vn 0.11746689239130353 0.9228885414955422 0.36671278838917126
vn -0.08159204612987037 0.9228964493839261 0.37630424090472775
vn -0.035397012234383574 0 0.9993733294044217
vn 0.46908105125085897 0 0.883155120778558
vn 0.11746689239130353 0.9228885414955422 0.36671278838917126
vn 0.46908105125085897 0 0.883155120778558
vn 0.2851378872679424 0.9228966090416979 0.25876289197585844
vn 0.11746689239130353 0.9228885414955422 0.36671278838917126
vn 0.46908105125085897 0 0.883155120778558
vn 0.8478939158080805 0 0.5301659245327258
vn 0.2851378872679424 0.9228966090416979 0.25876289197585844
vn 0 1 0
vn 0.2851378872679424 0.9228966090416979 0.25876289197585844
vn 0.37636005536531314 0.9228732502065404 0.08159701452035409
vn 0 1 0
vn 0.37636005536531314 0.9228732502065404 0.08159701452035409
vn 0.36671479808718754 0.9228855784375879 -0.11748389666584977
vn 0 1 0
vn 0.36671479808718754 0.9228855784375879 -0.11748389666584977
vn 0.25882905969661707 0.9228841750833146 -0.2851180759568826
vn 0 1 0
vn 0.25882905969661707 0.9228841750833146 -0.2851180759568826
vn 0.0816200308288737 0.9228882871448267 -0.37631818985850446
vn 0 1 0
vn 0.0816200308288737 0.9228882871448267 -0.37631818985850446
vn -0.11751199460249312 0.9228847580914296 -0.36670785975632875
vn 0 1 0
vn -0.11751199460249312 0.9228847580914296 -0.36670785975632875
vn -0.28511898930010865 0.9228830681197872 -0.2588320005685019
vn 0 1 0
vn -0.28511898930010865 0.9228830681197872 -0.2588320005685019
vn -0.3763499470024302 0.9228769325123475 -0.08160199034256589
vn 0 1 0
vn -0.3763499470024302 0.9228769325123475 -0.08160199034256589
vn -0.3667088450770025 0.9228886966388236 0.11747798329297494
vn 0 1 0
vn -0.3667088450770025 0.9228886966388236 0.11747798329297494
vn -0.2588331038984594 0.9228873619505319 0.28510408884875227
vn 0 1 0
vn -0.2588331038984594 0.9228873619505319 0.28510408884875227
vn -0.08159204612987037 0.9228964493839261 0.37630424090472775
vn 0 1 0
vn -0.08159204612987037 0.9228964493839261 0.37630424090472775
vn 0.11746689239130353 0.9228885414955422 0.36671278838917126
vn 0 1 0
vn 0.11746689239130353 0.9228885414955422 0.36671278838917126
vn 0.2851378872679424 0.9228966090416979 0.25876289197585844
vn 0.8820338706847801 0 0.4711860046359875
vn 0.9845001031001602 0 -0.17538399868794768
vn 0.6442163397598806 0 0.7648433222473621
vn 0.8820338706847801 0 0.4711860046359875
vn 0.8489923095156382 0 -0.5284052028351941
vn 0.9845001031001602 0 -0.17538399868794768
vn 0.8489923095156382 0 -0.5284052028351941
vn 0.3402250173157754 0 -0.9403440527766846
vn 0.9845001031001602 0 -0.17538399868794768
vn 0.8489923095156382 0 -0.5284052028351941
vn -0.032936009980046574 0 -0.9994574624498004
vn 0.3402250173157754 0 -0.9403440527766846
vn -0.032936009980046574 0 -0.9994574624498004
vn -0.6442077009039092 0 -0.7648505985459509
vn 0.3402250173157754 0 -0.9403440527766846
vn -0.032936009980046574 0 -0.9994574624498004
vn -0.8821122854814545 0 -0.4710391871200156
vn -0.6442077009039092 0 -0.7648505985459509
vn -0.8821122854814545 0 -0.4710391871200156
vn -0.9844869206015754 0 0.17545798119329753
vn -0.6442077009039092 0 -0.7648505985459509
vn -0.8821122854814545 0 -0.4710391871200156
vn -0.8490609421312507 0 0.5282949143680948
vn -0.9844869206015754 0 0.17545798119329753
vn -0.8490609421312507 0 0.5282949143680948
vn -0.34028387077342354 0 0.9403227569783984
vn -0.9844869206015754 0 0.17545798119329753
vn -0.8490609421312507 0 0.5282949143680948
vn 0.033034008919336666 0 0.9994542281939266
vn -0.34028387077342354 0 0.9403227569783984
vn 0.033034008919336666 0 0.9994542281939266
vn 0.6442163397598806 0 0.7648433222473621
vn -0.34028387077342354 0 0.9403227569783984
vn 0.033034008919336666 0 0.9994542281939266
vn 0.8820338706847801 0 0.4711860046359875
vn 0.6442163397598806 0 0.7648433222473621
vn 0.8300452161436652 0 0.5576960992843828
vn 0.37344208075464347 0.9228962589587457 0.0938270084868641
vn 0.27652901689573584 0.9228888246982221 0.26796999843604097
vn 0.8300452161436652 0 0.5576960992843828
vn 0.997695535277949 0 0.0678499733710114
vn 0.37344208075464347 0.9228962589587457 0.0938270084868641
vn 0.997695535277949 0 0.0678499733710114
vn 0.3703640601927443 0.9228751416544072 -0.10550798943162247
vn 0.37344208075464347 0.9228962589587457 0.0938270084868641
vn 0.997695535277949 0 0.0678499733710114
vn 0.8979738030857363 0 -0.4400489165669417
vn 0.3703640601927443 0.9228751416544072 -0.10550798943162247
vn 0.8979738030857363 0 -0.4400489165669417
vn 0.2679840682458092 0.9228853187462978 -0.27652708295747414
vn 0.3703640601927443 0.9228751416544072 -0.10550798943162247
vn 0.8979738030857363 0 -0.4400489165669417
vn 0.5576651149908607 0 -0.8300660332300256
vn 0.2679840682458092 0.9228853187462978 -0.27652708295747414
vn 0.5576651149908607 0 -0.8300660332300256
vn 0.09380004323395902 0.9228933225698749 -0.3734561112704464
vn 0.2679840682458092 0.9228853187462978 -0.27652708295747414
vn 0.5576651149908607 0 -0.8300660332300256
vn 0.06781300024028963 0 -0.9976980490100251
vn 0.09380004323395902 0.9228933225698749 -0.3734561112704464
vn 0.06781300024028963 0 -0.9976980490100251
vn -0.10551999399216119 0.9228758119594859 -0.3703589698765431
vn 0.09380004323395902 0.9228933225698749 -0.3734561112704464
vn 0.06781300024028963 0 -0.9976980490100251
vn -0.4400999501622707 0 -0.8979487924526469
vn -0.10551999399216119 0.9228758119594859 -0.3703589698765431
vn -0.4400999501622707 0 -0.8979487924526469
vn -0.27654001199023737 0.9228829172887439 -0.2679789968356789
vn -0.10551999399216119 0.9228758119594859 -0.3703589698765431
vn -0.4400999501622707 0 -0.8979487924526469
vn -0.8300464146652785 0 -0.5576943154644097
vn -0.27654001199023737 0.9228829172887439 -0.2679789968356789
vn -0.8300464146652785 0 -0.5576943154644097
vn -0.37345793486185974 0.922888627764812 -0.09383896648566264
vn -0.27654001199023737 0.9228829172887439 -0.2679789968356789
vn -0.8300464146652785 0 -0.5576943154644097
vn -0.9976947864851815 0 -0.06786098304834817
vn -0.37345793486185974 0.922888627764812 -0.09383896648566264
vn -0.9976947864851815 0 -0.06786098304834817
vn -0.3703460785388145 0.922881328150788 0.10551699513139885
vn -0.37345793486185974 0.922888627764812 -0.09383896648566264
vn -0.9976947864851815 0 -0.06786098304834817
vn -0.8979752106298353 0 0.4400460442888936
vn -0.3703460785388145 0.922881328150788 0.10551699513139885
vn -0.8979752106298353 0 0.4400460442888936
vn -0.26800609300588185 0.9228834143017148 0.27651209325910475
vn -0.3703460785388145 0.922881328150788 0.10551699513139885
vn -0.8979752106298353 0 0.4400460442888936
vn -0.5576949603347913 0 0.8300459813872817
vn -0.26800609300588185 0.9228834143017148 0.27651209325910475
vn -0.5576949603347913 0 0.8300459813872817
vn -0.09381602504137729 0.9228933256433564 0.3734520892007187
vn -0.26800609300588185 0.9228834143017148 0.27651209325910475
vn -0.5576949603347913 0 0.8300459813872817
vn -0.0679000110164526 0 0.9976921311226051
vn -0.09381602504137729 0.9228933256433564 0.3734520892007187
vn -0.0679000110164526 0 0.9976921311226051
vn 0.10548299677320401 0.9228845349196114 0.37034777250303086
vn -0.09381602504137729 0.9228933256433564 0.3734520892007187
vn -0.0679000110164526 0 0.9976921311226051
vn 0.44006495480461943 0 0.8979659434259233
vn 0.10548299677320401 0.9228845349196114 0.37034777250303086
vn 0.44006495480461943 0 0.8979659434259233
vn 0.27652901689573584 0.9228888246982221 0.26796999843604097
vn 0.10548299677320401 0.9228845349196114 0.37034777250303086
vn 0.44006495480461943 0 0.8979659434259233
vn 0.8300452161436652 0 0.5576960992843828
vn 0.27652901689573584 0.9228888246982221 0.26796999843604097
vn 0 1 0
vn 0.27652901689573584 0.9228888246982221 0.26796999843604097
vn 0.37344208075464347 0.9228962589587457 0.0938270084868641
vn 0 1 0
vn 0.37344208075464347 0.9228962589587457 0.0938270084868641
vn 0.3703640601927443 0.9228751416544072 -0.10550798943162247
vn 0 1 0
vn 0.3703640601927443 0.9228751416544072 -0.10550798943162247
vn 0.2679840682458092 0.9228853187462978 -0.27652708295747414
vn 0 1 0
vn 0.2679840682458092 0.9228853187462978 -0.27652708295747414
vn 0.09380004323395902 0.9228933225698749 -0.3734561112704464
vn 0 1 0
vn 0.09380004323395902 0.9228933225698749 -0.3734561112704464
vn -0.10551999399216119 0.9228758119594859 -0.3703589698765431
vn 0 1 0
vn -0.10551999399216119 0.9228758119594859 -0.3703589698765431
vn -0.27654001199023737 0.9228829172887439 -0.2679789968356789
vn 0 1 0
vn -0.27654001199023737 0.9228829172887439 -0.2679789968356789
vn -0.37345793486185974 0.922888627764812 -0.09383896648566264
vn 0 1 0
vn -0.37345793486185974 0.922888627764812 -0.09383896648566264
vn -0.3703460785388145 0.922881328150788 0.10551699513139885
vn 0 1 0
vn -0.3703460785388145 0.922881328150788 0.10551699513139885
vn -0.26800609300588185 0.9228834143017148 0.27651209325910475
vn 0 1 0
vn -0.26800609300588185 0.9228834143017148 0.27651209325910475
vn -0.09381602504137729 0.9228933256433564 0.3734520892007187
vn 0 1 0
vn -0.09381602504137729 0.9228933256433564 0.3734520892007187
vn 0.10548299677320401 0.9228845349196114 0.37034777250303086
vn 0 1 0
vn 0.10548299677320401 0.9228845349196114 0.37034777250303086
vn 0.27652901689573584 0.9228888246982221 0.26796999843604097
vn 0.8821122854814545 0 0.4710391871200156
vn 0.9844869206015754 0 -0.17545798119329753
vn 0.6442077009039092 0 0.7648505985459509
vn 0.8821122854814545 0 0.4710391871200156
vn 0.8490609421312507 0 -0.5282949143680948
vn 0.9844869206015754 0 -0.17545798119329753
vn 0.8490609421312507 0 -0.5282949143680948
vn 0.34028387077342354 0 -0.9403227569783984
vn 0.9844869206015754 0 -0.17545798119329753
vn 0.8490609421312507 0 -0.5282949143680948
vn -0.033034008919336666 0 -0.9994542281939266
vn 0.34028387077342354 0 -0.9403227569783984
vn -0.033034008919336666 0 -0.9994542281939266
vn -0.6442630234032366 0 -0.7648039988620094
vn 0.34028387077342354 0 -0.9403227569783984
vn -0.033034008919336666 0 -0.9994542281939266
vn -0.8821122854814545 0 -0.4710391871200156
vn -0.6442630234032366 0 -0.7648039988620094
vn -0.8821122854814545 0 -0.4710391871200156
vn -0.9844838873998234 0 0.17547499950172893
vn -0.6442630234032366 0 -0.7648039988620094
vn -0.8821122854814545 0 -0.4710391871200156
vn -0.8490348326952358 0 0.5283368744183706
vn -0.9844838873998234 0 0.17547499950172893
vn -0.8490348326952358 0 0.5283368744183706
vn -0.3402850846859482 0 0.9403223176870137
vn -0.9844838873998234 0 0.17547499950172893
vn -0.8490348326952358 0 0.5283368744183706
vn 0.03293900950964538 0 0.99945736359913
vn -0.3402850846859482 0 0.9403223176870137
vn 0.03293900950964538 0 0.99945736359913
vn 0.6442077009039092 0 0.7648505985459509
vn -0.3402850846859482 0 0.9403223176870137
vn 0.03293900950964538 0 0.99945736359913
vn 0.8821122854814545 0 0.4710391871200156
vn 0.6442077009039092 0 0.7648505985459509
vn 0.8300464146652785 0 0.5576943154644097
vn 0.37345793486185974 0.922888627764812 0.09383896648566264
vn 0.27654001199023737 0.9228829172887439 0.2679789968356789
vn 0.8300464146652785 0 0.5576943154644097
vn 0.9976947864851815 0 0.06786098304834817
vn 0.37345793486185974 0.922888627764812 0.09383896648566264
vn 0.9976947864851815 0 0.06786098304834817
vn 0.3703460785388145 0.922881328150788 -0.10551699513139885
vn 0.37345793486185974 0.922888627764812 0.09383896648566264
vn 0.9976947864851815 0 0.06786098304834817
vn 0.8979752106298353 0 -0.4400460442888936
vn 0.3703460785388145 0.922881328150788 -0.10551699513139885
vn 0.8979752106298353 0 -0.4400460442888936
vn 0.26800609300588185 0.9228834143017148 -0.27651209325910475
vn 0.3703460785388145 0.922881328150788 -0.10551699513139885
vn 0.8979752106298353 0 -0.4400460442888936
vn 0.5576949603347913 0 -0.8300459813872817
vn 0.26800609300588185 0.9228834143017148 -0.27651209325910475
vn 0.5576949603347913 0 -0.8300459813872817
vn 0.09381602504137729 0.9228933256433564 -0.3734520892007187
vn 0.26800609300588185 0.9228834143017148 -0.27651209325910475
vn 0.5576949603347913 0 -0.8300459813872817
vn 0.0679000110164526 0 -0.9976921311226051
vn 0.09381602504137729 0.9228933256433564 -0.3734520892007187
vn 0.0679000110164526 0 -0.9976921311226051
vn -0.10548299677320401 0.9228845349196114 -0.37034777250303086
vn 0.09381602504137729 0.9228933256433564 -0.3734520892007187
vn 0.0679000110164526 0 -0.9976921311226051
vn -0.44006495480461943 0 -0.8979659434259233
vn -0.10548299677320401 0.9228845349196114 -0.37034777250303086
vn -0.44006495480461943 0 -0.8979659434259233
vn -0.27652901689573584 0.9228888246982221 -0.26796999843604097
vn -0.10548299677320401 0.9228845349196114 -0.37034777250303086
vn -0.44006495480461943 0 -0.8979659434259233
vn -0.8300452161436652 0 -0.5576960992843828
vn -0.27652901689573584 0.9228888246982221 -0.26796999843604097
vn -0.8300452161436652 0 -0.5576960992843828
vn -0.37344208075464347 0.9228962589587457 -0.0938270084868641
vn -0.27652901689573584 0.9228888246982221 -0.26796999843604097
vn -0.8300452161436652 0 -0.5576960992843828
vn -0.997695535277949 0 -0.0678499733710114
vn -0.37344208075464347 0.9228962589587457 -0.0938270084868641
vn -0.997695535277949 0 -0.0678499733710114
vn -0.3703640601927443 0.9228751416544072 0.10550798943162247
vn -0.37344208075464347 0.9228962589587457 -0.0938270084868641
vn -0.997695535277949 0 -0.0678499733710114
vn -0.8979738030857363 0 0.4400489165669417
vn -0.3703640601927443 0.9228751416544072 0.10550798943162247
vn -0.8979738030857363 0 0.4400489165669417
vn -0.2679840682458092 0.9228853187462978 0.27652708295747414
vn -0.3703640601927443 0.9228751416544072 0.10550798943162247
vn -0.8979738030857363 0 0.4400489165669417
vn -0.5576651149908607 0 0.8300660332300256
vn -0.2679840682458092 0.9228853187462978 0.27652708295747414
vn -0.5576651149908607 0 0.8300660332300256
vn -0.09380004323395902 0.9228933225698749 0.3734561112704464
vn -0.2679840682458092 0.9228853187462978 0.27652708295747414
vn -0.5576651149908607 0 0.8300660332300256
vn -0.06781300024028963 0 0.9976980490100251
vn -0.09380004323395902 0.9228933225698749 0.3734561112704464
vn -0.06781300024028963 0 0.9976980490100251
vn 0.10551999399216119 0.9228758119594859 0.3703589698765431
vn -0.09380004323395902 0.9228933225698749 0.3734561112704464
vn -0.06781300024028963 0 0.9976980490100251
vn 0.4400999501622707 0 0.8979487924526469
vn 0.10551999399216119 0.9228758119594859 0.3703589698765431
vn 0.4400999501622707 0 0.8979487924526469
vn 0.27654001199023737 0.9228829172887439 0.2679789968356789
vn 0.10551999399216119 0.9228758119594859 0.3703589698765431
vn 0.4400999501622707 0 0.8979487924526469
vn 0.8300464146652785 0 0.5576943154644097
vn 0.27654001199023737 0.9228829172887439 0.2679789968356789
vn 0 1 0
vn 0.27654001199023737 0.9228829172887439 0.2679789968356789
vn 0.37345793486185974 0.922888627764812 0.09383896648566264
vn 0 1 0
vn 0.37345793486185974 0.922888627764812 0.09383896648566264
vn 0.3703460785388145 0.922881328150788 -0.10551699513139885
vn 0 1 0
vn 0.3703460785388145 0.922881328150788 -0.10551699513139885
vn 0.26800609300588185 0.9228834143017148 -0.27651209325910475
vn 0 1 0
vn 0.26800609300588185 0.9228834143017148 -0.27651209325910475
vn 0.09381602504137729 0.9228933256433564 -0.3734520892007187
vn 0 1 0
vn 0.09381602504137729 0.9228933256433564 -0.3734520892007187
vn -0.10548299677320401 0.9228845349196114 -0.37034777250303086
vn 0 1 0
vn -0.10548299677320401 0.9228845349196114 -0.37034777250303086
vn -0.27652901689573584 0.9228888246982221 -0.26796999843604097
vn 0 1 0
vn -0.27652901689573584 0.9228888246982221 -0.26796999843604097
vn -0.37344208075464347 0.9228962589587457 -0.0938270084868641
vn 0 1 0
vn -0.37344208075464347 0.9228962589587457 -0.0938270084868641
vn -0.3703640601927443 0.9228751416544072 0.10550798943162247
vn 0 1 0
vn -0.3703640601927443 0.9228751416544072 0.10550798943162247
vn -0.2679840682458092 0.9228853187462978 0.27652708295747414
vn 0 1 0
vn -0.2679840682458092 0.9228853187462978 0.27652708295747414
vn -0.09380004323395902 0.9228933225698749 0.3734561112704464
vn 0 1 0
vn -0.09380004323395902 0.9228933225698749 0.3734561112704464
vn 0.10551999399216119 0.9228758119594859 0.3703589698765431
vn 0 1 0
vn 0.10551999399216119 0.9228758119594859 0.3703589698765431
vn 0.27654001199023737 0.9228829172887439 0.2679789968356789
f 1/1/1 2/2/2 3/3/3
f 4/4/4 5/5/5 6/6/6
f 7/7/7 8/8/8 9/9/9
f 10/10/10 11/11/11 12/12/12
f 13/13/13 14/14/14 15/15/15
f 16/16/16 17/17/17 18/18/18
f 19/19/19 20/20/20 21/21/21
f 22/22/22 23/23/23 24/24/24
f 25/25/25 26/26/26 27/27/27
f 28/28/28 29/29/29 30/30/30
f 31/31/31 32/32/32 33/33/33
f 34/34/34 35/35/35 36/36/36
f 37/37/37 38/38/38 39/39/39
f 40/40/40 41/41/41 42/42/42
f 43/43/43 44/44/44 45/45/45
f 46/46/46 47/47/47 48/48/48
f 49/49/49 50/50/50 51/51/51
f 52/52/52 53/53/53 54/54/54
f 55/55/55 56/56/56 57/57/57
f 58/58/58 59/59/59 60/60/60
f 61/61/61 62/62/62 63/63/63
f 64/64/64 65/65/65 66/66/66
f 67/67/67 68/68/68 69/69/69
f 70/70/70 71/71/71 72/72/72
f 73/73/73 74/74/74 75/75/75
f 76/76/76 77/77/77 78/78/78
f 79/79/79 80/80/80 81/81/81
f 82/82/82 83/83/83 84/84/84
f 85/85/85 86/86/86 87/87/87
f 88/88/88 89/89/89 90/90/90
f 91/91/91 92/92/92 93/93/93
f 94/94/94 95/95/95 96/96/96
f 97/97/97 98/98/98 99/99/99
f 100/100/100 101/101/101 102/102/102
f 103/103/103 104/104/104 105/105/105
f 106/106/106 107/107/107 108/108/108
f 109/109/109 110/110/110 111/111/111
f 112/112/112 113/113/113 114/114/114
f 115/115/115 116/116/116 117/117/117
f 118/118/118 119/119/119 120/120/120
f 121/121/121 122/122/122 123/123/123
f 124/124/124 125/125/125 126/126/126
f 127/127/127 128/128/128 129/129/129
f 130/130/130 131/131/131 132/132/132
f 133/133/133 134/134/134 135/135/135
f 136/136/136 137/137/137 138/138/138
f 139/139/139 140/140/140 141/141/141
f 142/142/142 143/143/143 144/144/144
f 145/145/145 146/146/146 147/147/147
f 148/148/148 149/149/149 150/150/150
f 151/151/151 152/152/152 153/153/153
f 154/154/154 155/155/155 156/156/156
f 157/157/157 158/158/158 159/159/159
f 160/160/160 161/161/161 162/162/162
f 163/163/163 164/164/164 165/165/165
f 166/166/166 167/167/167 168/168/168
f 169/169/169 170/170/170 171/171/171
f 172/172/172 173/173/173 174/174/174
f 175/175/175 176/176/176 177/177/177
f 178/178/178 179/179/179 180/180/180
f 181/181/181 182/182/182 183/183/183
f 184/184/184 185/185/185 186/186/186
f 187/187/187 188/188/188 189/189/189
f 190/190/190 191/191/191 192/192/192
f 193/193/193 194/194/194 195/195/195
f 196/196/196 197/197/197 198/198/198
f 199/199/199 200/200/200 201/201/201
f 202/202/202 203/203/203 204/204/204
f 205/205/205 206/206/206 207/207/207
f 208/208/208 209/209/209 210/210/210
f 211/211/211 212/212/212 213/213/213
f 214/214/214 215/215/215 216/216/216
f 217/217/217 218/218/218 219/219/219
f 220/220/220 221/221/221 222/222/222
f 223/223/223 224/224/224 225/225/225
f 226/226/226 227/227/227 228/228/228
f 229/229/229 230/230/230 231/231/231
f 232/232/232 233/233/233 234/234/234
f 235/235/235 236/236/236 237/237/237
f 238/238/238 239/239/239 240/240/240
f 241/241/241 242/242/242 243/243/243
f 244/244/244 245/245/245 246/246/246
f 247/247/247 248/248/248 249/249/249
f 250/250/250 251/251/251 252/252/252
f 253/253/253 254/254/254 255/255/255
f 256/256/256 257/257/257 258/258/258
f 259/259/259 260/260/260 261/261/261
f 262/262/262 263/263/263 264/264/264
f 265/265/265 266/266/266 267/267/267
f 268/268/268 269/269/269 270/270/270
f 271/271/271 272/272/272 273/273/273
f 274/274/274 275/275/275 276/276/276
f 277/277/277 278/278/278 279/279/279
f 280/280/280 281/281/281 282/282/282
f 283/283/283 284/284/284 285/285/285
f 286/286/286 287/287/287 288/288/288
f 289/289/289 290/290/290 291/291/291
f 292/292/292 293/293/293 294/294/294
f 295/295/295 296/296/296 297/297/297
f 298/298/298 299/299/299 300/300/300
f 301/301/301 302/302/302 303/303/303
f 304/304/304 305/305/305 306/306/306
f 307/307/307 308/308/308 309/309/309
f 310/310/310 311/311/311 312/312/312
f 313/313/313 314/314/314 315/315/315
f 316/316/316 317/317/317 318/318/318
f 319/319/319 320/320/320 321/321/321
f 322/322/322 323/323/323 324/324/324
f 325/325/325 326/326/326 327/327/327
f 328/328/328 329/329/329 330/330/330
f 331/331/331 332/332/332 333/333/333
f 334/334/334 335/335/335 336/336/336
f 337/337/337 338/338/338 339/339/339
f 340/340/340 341/341/341 342/342/342
f 343/343/343 344/344/344 345/345/345
f 346/346/346 347/347/347 348/348/348
f 349/349/349 350/350/350 351/351/351
f 352/352/352 353/353/353 354/354/354
f 355/355/355 356/356/356 357/357/357
f 358/358/358 359/359/359 360/360/360
f 361/361/361 362/362/362 363/363/363
f 364/364/364 365/365/365 366/366/366
f 367/367/367 368/368/368 369/369/369
f 370/370/370 371/371/371 372/372/372
f 373/373/373 374/374/374 375/375/375
f 376/376/376 377/377/377 378/378/378
f 379/379/379 380/380/380 381/381/381
f 382/382/382 383/383/383 384/384/384
f 385/385/385 386/386/386 387/387/387
f 388/388/388 389/389/389 390/390/390
f 391/391/391 392/392/392 393/393/393
f 394/394/394 395/395/395 396/396/396
f 397/397/397 398/398/398 399/399/399
f 400/400/400 401/401/401 402/402/402
f 403/403/403 404/404/404 405/405/405
f 406/406/406 407/407/407 408/408/408
f 409/409/409 410/410/410 411/411/411
f 412/412/412 413/413/413 414/414/414
f 415/415/415 416/416/416 417/417/417
f 418/418/418 419/419/419 420/420/420
f 421/421/421 422/422/422 423/423/423
f 424/424/424 425/425/425 426/426/426
f 427/427/427 428/428/428 429/429/429
f 430/430/430 431/431/431 432/432/432
f 433/433/433 434/434/434 435/435/435
f 436/436/436 437/437/437 438/438/438
f 439/439/439 440/440/440 441/441/441
f 442/442/442 443/443/443 444/444/444
f 445/445/445 446/446/446 447/447/447
f 448/448/448 449/449/449 450/450/450
f 451/451/451 452/452/452 453/453/453
f 454/454/454 455/455/455 456/456/456
f 457/457/457 458/458/458 459/459/459
f 460/460/460 461/461/461 462/462/462
f 463/463/463 464/464/464 465/465/465
f 466/466/466 467/467/467 468/468/468
f 469/469/469 470/470/470 471/471/471
f 472/472/472 473/473/473 474/474/474
f 475/475/475 476/476/476 477/477/477
f 478/478/478 479/479/479 480/480/480
f 481/481/481 482/482/482 483/483/483
f 484/484/484 485/485/485 486/486/486
f 487/487/487 488/488/488 489/489/489
f 490/490/490 491/491/491 492/492/492
f 493/493/493 494/494/494 495/495/495
f 496/496/496 497/497/497 498/498/498
f 499/499/499 500/500/500 501/501/501
f 502/502/502 503/503/503 504/504/504
f 505/505/505 506/506/506 507/507/507
f 508/508/508 509/509/509 510/510/510
f 511/511/511 512/512/512 513/513/513
f 514/514/514 515/515/515 516/516/516
f 517/517/517 518/518/518 519/519/519
f 520/520/520 521/521/521 522/522/522
f 523/523/523 524/524/524 525/525/525
f 526/526/526 527/527/527 528/528/528
f 529/529/529 530/530/530 531/531/531
f 532/532/532 533/533/533 534/534/534
f 535/535/535 536/536/536 537/537/537
f 538/538/538 539/539/539 540/540/540
f 541/541/541 542/542/542 543/543/543
f 544/544/544 545/545/545 546/546/546
f 547/547/547 548/548/548 549/549/549
f 550/550/550 551/551/551 552/552/552
f 553/553/553 554/554/554 555/555/555
f 556/556/556 557/557/557 558/558/558
f 559/559/559 560/560/560 561/561/561
f 562/562/562 563/563/563 564/564/564
f 565/565/565 566/566/566 567/567/567
f 568/568/568 569/569/569 570/570/570
f 571/571/571 572/572/572 573/573/573
f 574/574/574 575/575/575 576/576/576
f 577/577/577 578/578/578 579/579/579
f 580/580/580 581/581/581 582/582/582
f 583/583/583 584/584/584 585/585/585
f 586/586/586 587/587/587 588/588/588
f 589/589/589 590/590/590 591/591/591
f 592/592/592 593/593/593 594/594/594
f 595/595/595 596/596/596 597/597/597
f 598/598/598 599/599/599 600/600/600
f 601/601/601 602/602/602 603/603/603
f 604/604/604 605/605/605 606/606/606
f 607/607/607 608/608/608 609/609/609
f 610/610/610 611/611/611 612/612/612
f 613/613/613 614/614/614 615/615/615
f 616/616/616 617/617/617 618/618/618
f 619/619/619 620/620/620 621/621/621
f 622/622/622 623/623/623 624/624/624
f 625/625/625 626/626/626 627/627/627
f 628/628/628 629/629/629 630/630/630
f 631/631/631 632/632/632 633/633/633
f 634/634/634 635/635/635 636/636/636
