o Mesh
usemtl material_1
v 0.5270500183105469 0 0.2793999910354614
v -0.5270500183105469 0.023876000195741653 0.2793999910354614
v -0.5270500183105469 0 0.2793999910354614
v 0.5270500183105469 0 0.2793999910354614
v 0.5270500183105469 0.023876000195741653 0.2793999910354614
v -0.5270500183105469 0.023876000195741653 0.2793999910354614
v -0.5270500183105469 0 -0.2793999910354614
v 0.5270500183105469 0.023876000195741653 -0.2793999910354614
v 0.5270500183105469 0 -0.2793999910354614
v -0.5270500183105469 0 -0.2793999910354614
v -0.5270500183105469 0.023876000195741653 -0.2793999910354614
v 0.5270500183105469 0.023876000195741653 -0.2793999910354614
v -0.5270500183105469 0 -0.2793999910354614
v -0.5270500183105469 0 0.2793999910354614
v -0.5270500183105469 0.023876000195741653 0.2793999910354614
v -0.5270500183105469 0 -0.2793999910354614
v -0.5270500183105469 0.023876000195741653 0.2793999910354614
v -0.5270500183105469 0.023876000195741653 -0.2793999910354614
v 0.5270500183105469 0 -0.2793999910354614
v 0.5270500183105469 0.023876000195741653 0.2793999910354614
v 0.5270500183105469 0 0.2793999910354614
v 0.5270500183105469 0 -0.2793999910354614
v 0.5270500183105469 0.023876000195741653 -0.2793999910354614
v 0.5270500183105469 0.023876000195741653 0.2793999910354614
v -0.5270500183105469 0.023876000195741653 -0.2793999910354614
v -0.5270500183105469 0.023876000195741653 0.2793999910354614
v 0.5270500183105469 0.023876000195741653 0.2793999910354614
v -0.5270500183105469 0.023876000195741653 -0.2793999910354614
v 0.5270500183105469 0.023876000195741653 0.2793999910354614
v 0.5270500183105469 0.023876000195741653 -0.2793999910354614
vt 0.8819680213928223 0.04551300033926964
vt 0.5143579840660095 0.37857699394226074
vt 0.5143579840660095 0.04551300033926964
vt 0.8819680213928223 0.04551300033926964
vt 0.8819680213928223 0.37857699394226074
vt 0.5143579840660095 0.37857699394226074
vt 0.5134720206260681 0.04551300033926964
vt 0.14586199820041656 0.37857699394226074
vt 0.14586199820041656 0.04551300033926964
vt 0.5134720206260681 0.04551300033926964
vt 0.5134720206260681 0.37857699394226074
vt 0.14586199820041656 0.37857699394226074
vt 0.49619901180267334 0.028630999848246574
vt 0.49619901180267334 0.39545899629592896
vt 0.16313500702381134 0.39545899629592896
vt 0.49619901180267334 0.028630999848246574
vt 0.16313500702381134 0.39545899629592896
vt 0.16313500702381134 0.028630999848246574
vt 0.5316309928894043 0.028630999848246574
vt 0.8646950125694275 0.39545899629592896
vt 0.5316309928894043 0.39545899629592896
vt 0.5316309928894043 0.028630999848246574
vt 0.8646950125694275 0.028630999848246574
vt 0.8646950125694275 0.39545899629592896
vt 0.976917028427124 0.42960798740386963
vt 0.976917028427124 0.9870079755783081
vt 0.029201000928878784 0.9870079755783081
vt 0.976917028427124 0.42960798740386963
vt 0.029201000928878784 0.9870079755783081
vt 0.029201000928878784 0.42960798740386963
vn 0.25621288822322497 0 0.9666203783845617
vn -0.04509101017334453 0.9953551787633244 0.08505803260467426
vn -0.46837687898858615 0 0.883528776684105
vn 0.25621288822322497 0 0.9666203783845617
vn 0.022639987321849235 0.99951562314739 0.021352987106049364
vn -0.04509101017334453 0.9953551787633244 0.08505803260467426
vn -0.46837687898858615 0 -0.883528776684105
vn 0.022562996906702593 0.9961149467839236 -0.08512299315842284
vn 0.7274711894796754 0 -0.6861382284037423
vn -0.46837687898858615 0 -0.883528776684105
vn -0.011321998960191546 0.9997078028050884 -0.021356997686188393
vn 0.022562996906702593 0.9961149467839236 -0.08512299315842284
vn -0.46837687898858615 0 -0.883528776684105
vn -0.46837687898858615 0 0.883528776684105
vn -0.04509101017334453 0.9953551787633244 0.08505803260467426
vn -0.46837687898858615 0 -0.883528776684105
vn -0.04509101017334453 0.9953551787633244 0.08505803260467426
vn -0.011321998960191546 0.9997078028050884 -0.021356997686188393
vn 0.7274711894796754 0 -0.6861382284037423
vn 0.022639987321849235 0.99951562314739 0.021352987106049364
vn 0.25621288822322497 0 0.9666203783845617
vn 0.7274711894796754 0 -0.6861382284037423
vn 0.022562996906702593 0.9961149467839236 -0.08512299315842284
vn 0.022639987321849235 0.99951562314739 0.021352987106049364
vn -0.011321998960191546 0.9997078028050884 -0.021356997686188393
vn -0.04509101017334453 0.9953551787633244 0.08505803260467426
vn 0.022639987321849235 0.99951562314739 0.021352987106049364
vn -0.011321998960191546 0.9997078028050884 -0.021356997686188393
vn 0.022639987321849235 0.99951562314739 0.021352987106049364
vn 0.022562996906702593 0.9961149467839236 -0.08512299315842284
f 1/1/1 2/2/2 3/3/3
f 4/4/4 5/5/5 6/6/6
f 7/7/7 8/8/8 9/9/9
f 10/10/10 11/11/11 12/12/12
f 13/13/13 14/14/14 15/15/15
f 16/16/16 17/17/17 18/18/18
f 19/19/19 20/20/20 21/21/21
f 22/22/22 23/23/23 24/24/24
f 25/25/25 26/26/26 27/27/27
f 28/28/28 29/29/29 30/30/30
