o Mesh
usemtl material_1
v -0.0983651876449585 0.11431797593832016 -0.6475729942321777
v -0.0983651876449585 0.11431797593832016 -0.6359189748764038
v 0.0983651876449585 0.11431797593832016 -0.6475729942321777
v -0.0983651876449585 0.11431797593832016 -0.6359189748764038
v 0.0983651876449585 0.11431797593832016 -0.6359189748764038
v 0.0983651876449585 0.11431797593832016 -0.6475729942321777
v 0.10802300274372101 0.1097010001540184 -0.6476730108261108
v -0.10802300274372101 0.1097010001540184 -0.6476730108261108
v -0.098362997174263 0.11421799659729004 -0.6476730108261108
v 0.10802300274372101 0.1097010001540184 -0.6476730108261108
v -0.098362997174263 0.11421799659729004 -0.6476730108261108
v 0.098362997174263 0.11421799659729004 -0.6476730108261108
v -0.10802300274372101 0.1097010001540184 -0.6358189582824707
v 0.10802300274372101 0.1097010001540184 -0.6358189582824707
v 0.098362997174263 0.11421799659729004 -0.6358189582824707
v -0.10802300274372101 0.1097010001540184 -0.6358189582824707
v 0.098362997174263 0.11421799659729004 -0.6358189582824707
v -0.098362997174263 0.11421799659729004 -0.6358189582824707
v 0.10807608813047409 0.10978575050830841 -0.6359189748764038
v 0.10808831453323364 0.10977672785520554 -0.6475729942321777
v 0.0983651876449585 0.11431797593832016 -0.6475729942321777
v 0.10807608813047409 0.10978575050830841 -0.6359189748764038
v 0.0983651876449585 0.11431797593832016 -0.6475729942321777
v 0.0983651876449585 0.11431797593832016 -0.6359189748764038
v -0.10807608813047409 0.10978575050830841 -0.6475729942321777
v -0.10808831453323364 0.10977672785520554 -0.6359189748764038
v -0.0983651876449585 0.11431797593832016 -0.6359189748764038
v -0.10807608813047409 0.10978575050830841 -0.6475729942321777
v -0.0983651876449585 0.11431797593832016 -0.6359189748764038
v -0.0983651876449585 0.11431797593832016 -0.6475729942321777
v -0.1130189299583435 0.10361286997795105 -0.6475729942321777
v -0.11302436888217926 0.10360381007194519 -0.6359189748764038
v -0.10808831453323364 0.10977672785520554 -0.6359189748764038
v -0.1130189299583435 0.10361286997795105 -0.6475729942321777
v -0.10808831453323364 0.10977672785520554 -0.6359189748764038
v -0.10807608813047409 0.10978575050830841 -0.6475729942321777
v 0.1130189299583435 0.10361286997795105 -0.6359189748764038
v 0.11302436888217926 0.10360381007194519 -0.6475729942321777
v 0.10808831453323364 0.10977672785520554 -0.6475729942321777
v 0.1130189299583435 0.10361286997795105 -0.6359189748764038
v 0.10808831453323364 0.10977672785520554 -0.6475729942321777
v 0.10807608813047409 0.10978575050830841 -0.6359189748764038
v -0.11293599754571915 0.10355699807405472 -0.6358189582824707
v 0.11293599754571915 0.10355699807405472 -0.6358189582824707
v 0.10802300274372101 0.1097010001540184 -0.6358189582824707
v -0.11293599754571915 0.10355699807405472 -0.6358189582824707
v 0.10802300274372101 0.1097010001540184 -0.6358189582824707
v -0.10802300274372101 0.1097010001540184 -0.6358189582824707
v 0.11293599754571915 0.10355699807405472 -0.6476730108261108
v -0.11293599754571915 0.10355699807405472 -0.6476730108261108
v -0.10802300274372101 0.1097010001540184 -0.6476730108261108
v 0.11293599754571915 0.10355699807405472 -0.6476730108261108
v -0.10802300274372101 0.1097010001540184 -0.6476730108261108
v 0.10802300274372101 0.1097010001540184 -0.6476730108261108
v 0.11475100368261337 0.0985649973154068 -0.6476730108261108
v -0.11475100368261337 0.0985649973154068 -0.6476730108261108
v -0.11293599754571915 0.10355699807405472 -0.6476730108261108
v 0.11475100368261337 0.0985649973154068 -0.6476730108261108
v -0.11293599754571915 0.10355699807405472 -0.6476730108261108
v 0.11293599754571915 0.10355699807405472 -0.6476730108261108
v -0.11475100368261337 0.0985649973154068 -0.6358189582824707
v 0.11475100368261337 0.0985649973154068 -0.6358189582824707
v 0.11293599754571915 0.10355699807405472 -0.6358189582824707
v -0.11475100368261337 0.0985649973154068 -0.6358189582824707
v 0.11293599754571915 0.10355699807405472 -0.6358189582824707
v -0.11293599754571915 0.10355699807405472 -0.6358189582824707
v 0.11485099792480469 0.09856589883565903 -0.6359189748764038
v 0.11485099792480469 0.09856589883565903 -0.6475729942321777
v 0.11302436888217926 0.10360381007194519 -0.6475729942321777
v 0.11485099792480469 0.09856589883565903 -0.6359189748764038
v 0.11302436888217926 0.10360381007194519 -0.6475729942321777
v 0.1130189299583435 0.10361286997795105 -0.6359189748764038
v -0.11485099047422409 0.09856674820184708 -0.6475729942321777
v -0.11485100537538528 0.09856545180082321 -0.6359189748764038
v -0.11302436888217926 0.10360381007194519 -0.6359189748764038
v -0.11485099047422409 0.09856674820184708 -0.6475729942321777
v -0.11302436888217926 0.10360381007194519 -0.6359189748764038
v -0.1130189299583435 0.10361286997795105 -0.6475729942321777
v 0.09827599674463272 -0.11417099833488464 -0.6475729942321777
v 0.09827599674463272 -0.11417099833488464 -0.6359189748764038
v -0.09827599674463272 -0.11417099833488464 -0.6359189748764038
v 0.09827599674463272 -0.11417099833488464 -0.6475729942321777
v -0.09827599674463272 -0.11417099833488464 -0.6359189748764038
v -0.09827599674463272 -0.11417099833488464 -0.6475729942321777
v -0.10825300216674805 -0.10910099744796753 -0.6476730108261108
v 0.10825300216674805 -0.10910099744796753 -0.6476730108261108
v 0.09827599674463272 -0.11407099664211273 -0.6476730108261108
v -0.10825300216674805 -0.10910099744796753 -0.6476730108261108
v 0.09827599674463272 -0.11407099664211273 -0.6476730108261108
v -0.09827599674463272 -0.11407099664211273 -0.6476730108261108
v 0.10825300216674805 -0.10910099744796753 -0.6358189582824707
v -0.10825300216674805 -0.10910099744796753 -0.6358189582824707
v -0.09827599674463272 -0.11407099664211273 -0.6358189582824707
v 0.10825300216674805 -0.10910099744796753 -0.6358189582824707
v -0.09827599674463272 -0.11407099664211273 -0.6358189582824707
v 0.09827599674463272 -0.11407099664211273 -0.6358189582824707
v 0.10830728709697723 -0.10918498039245605 -0.6475729942321777
v 0.10831902921199799 -0.10917610675096512 -0.6359189748764038
v 0.09832058101892471 -0.11416050791740417 -0.6359189748764038
v 0.10830728709697723 -0.10918498039245605 -0.6475729942321777
v 0.09832058101892471 -0.11416050791740417 -0.6359189748764038
v 0.09832058846950531 -0.11416050791740417 -0.6475729942321777
v -0.10830729454755783 -0.10918498039245605 -0.6359189748764038
v -0.10831902921199799 -0.10917609930038452 -0.6475729942321777
v -0.09832058846950531 -0.11416050791740417 -0.6475729942321777
v -0.10830729454755783 -0.10918498039245605 -0.6359189748764038
v -0.09832058846950531 -0.11416050791740417 -0.6475729942321777
v -0.09832058846950531 -0.11416050791740417 -0.6359189748764038
v -0.11288808286190033 -0.10325464606285095 -0.6359189748764038
v -0.11289253830909729 -0.10324734449386597 -0.6475729942321777
v -0.10831902921199799 -0.10917609930038452 -0.6475729942321777
v -0.11288808286190033 -0.10325464606285095 -0.6359189748764038
v -0.10831902921199799 -0.10917609930038452 -0.6475729942321777
v -0.10830729454755783 -0.10918498039245605 -0.6359189748764038
v 0.11288808286190033 -0.10325464606285095 -0.6475729942321777
v 0.11289253830909729 -0.10324734449386597 -0.6359189748764038
v 0.10831902921199799 -0.10917610675096512 -0.6359189748764038
v 0.11288808286190033 -0.10325464606285095 -0.6475729942321777
v 0.10831902921199799 -0.10917610675096512 -0.6359189748764038
v 0.10830728709697723 -0.10918498039245605 -0.6475729942321777
v 0.11280500143766403 -0.10319899767637253 -0.6358189582824707
v -0.11280500143766403 -0.10319899767637253 -0.6358189582824707
v -0.10825300216674805 -0.10910099744796753 -0.6358189582824707
v 0.11280500143766403 -0.10319899767637253 -0.6358189582824707
v -0.10825300216674805 -0.10910099744796753 -0.6358189582824707
v 0.10825300216674805 -0.10910099744796753 -0.6358189582824707
v -0.11280500143766403 -0.10319899767637253 -0.6476730108261108
v 0.11280500143766403 -0.10319899767637253 -0.6476730108261108
v 0.10825300216674805 -0.10910099744796753 -0.6476730108261108
v -0.11280500143766403 -0.10319899767637253 -0.6476730108261108
v 0.10825300216674805 -0.10910099744796753 -0.6476730108261108
v -0.10825300216674805 -0.10910099744796753 -0.6476730108261108
v -0.11475100368261337 -0.09850499778985977 -0.6476730108261108
v 0.11475100368261337 -0.09850499778985977 -0.6476730108261108
v 0.11280500143766403 -0.10319899767637253 -0.6476730108261108
v -0.11475100368261337 -0.09850499778985977 -0.6476730108261108
v 0.11280500143766403 -0.10319899767637253 -0.6476730108261108
v -0.11280500143766403 -0.10319899767637253 -0.6476730108261108
v 0.11475100368261337 -0.09850499778985977 -0.6358189582824707
v -0.11475100368261337 -0.09850499778985977 -0.6358189582824707
v 0.11280500143766403 -0.10319899767637253 -0.6358189582824707
v -0.11475100368261337 -0.09850499778985977 -0.6358189582824707
v -0.11280500143766403 -0.10319899767637253 -0.6358189582824707
v 0.11280500143766403 -0.10319899767637253 -0.6358189582824707
v 0.11485099792480469 -0.09850595891475677 -0.6475729942321777
v 0.11485099792480469 -0.09850595891475677 -0.6359189748764038
v 0.11289253830909729 -0.10324734449386597 -0.6359189748764038
v 0.11485099792480469 -0.09850595891475677 -0.6475729942321777
v 0.11289253830909729 -0.10324734449386597 -0.6359189748764038
v 0.11288808286190033 -0.10325464606285095 -0.6475729942321777
v -0.1148509830236435 -0.0985068827867508 -0.6359189748764038
v -0.11485100537538528 -0.09850548207759857 -0.6475729942321777
v -0.11289253830909729 -0.10324734449386597 -0.6475729942321777
v -0.1148509830236435 -0.0985068827867508 -0.6359189748764038
v -0.11289253830909729 -0.10324734449386597 -0.6475729942321777
v -0.11288808286190033 -0.10325464606285095 -0.6359189748764038
v -0.11485100537538528 0.09856545180082321 -0.6359189748764038
v -0.11485099047422409 0.09856674820184708 -0.6475729942321777
v -0.11485100537538528 -0.09850548207759857 -0.6475729942321777
v -0.11485100537538528 0.09856545180082321 -0.6359189748764038
v -0.11485100537538528 -0.09850548207759857 -0.6475729942321777
v -0.1148509830236435 -0.0985068827867508 -0.6359189748764038
v 0.11485099792480469 0.09856589883565903 -0.6475729942321777
v 0.11485099792480469 0.09856589883565903 -0.6359189748764038
v 0.11485099792480469 -0.09850595891475677 -0.6475729942321777
v 0.11485099792480469 0.09856589883565903 -0.6359189748764038
v 0.11485099792480469 -0.09850595891475677 -0.6359189748764038
v 0.11485099792480469 -0.09850595891475677 -0.6475729942321777
v -0.11475100368261337 0.0985649973154068 -0.6358189582824707
v -0.11475100368261337 -0.09850499778985977 -0.6358189582824707
v 0.11475100368261337 0.0985649973154068 -0.6358189582824707
v -0.11475100368261337 -0.09850499778985977 -0.6358189582824707
v 0.11475100368261337 -0.09850499778985977 -0.6358189582824707
v 0.11475100368261337 0.0985649973154068 -0.6358189582824707
v -0.11475100368261337 0.0985649973154068 -0.6476730108261108
v 0.11475100368261337 0.0985649973154068 -0.6476730108261108
v 0.11475100368261337 -0.09850499778985977 -0.6476730108261108
v -0.11475100368261337 0.0985649973154068 -0.6476730108261108
v 0.11475100368261337 -0.09850499778985977 -0.6476730108261108
v -0.11475100368261337 -0.09850499778985977 -0.6476730108261108
v -0.098204106092453 0.11433238536119461 -0.661965012550354
v -0.09821845591068268 0.11432970315217972 -0.6475449800491333
v -0.0916018933057785 0.11433238536119461 -0.6475449800491333
v -0.098204106092453 0.11433238536119461 -0.661965012550354
v -0.0916018933057785 0.11433238536119461 -0.6475449800491333
v -0.09158754348754883 0.11432970315217972 -0.661965012550354
v -0.08761800080537796 0.11231499910354614 -0.6620650291442871
v -0.10218799859285355 0.11231499910354614 -0.6620650291442871
v -0.09819299727678299 0.11423300206661224 -0.6620650291442871
v -0.08761800080537796 0.11231499910354614 -0.6620650291442871
v -0.09819299727678299 0.11423300206661224 -0.6620650291442871
v -0.09161300212144852 0.11423300206661224 -0.6620650291442871
v -0.10218799859285355 0.11231499910354614 -0.6474449634552002
v -0.08761800080537796 0.11231499910354614 -0.6474449634552002
v -0.09161300212144852 0.11423300206661224 -0.6474449634552002
v -0.10218799859285355 0.11231499910354614 -0.6474449634552002
v -0.09161300212144852 0.11423300206661224 -0.6474449634552002
v -0.09819299727678299 0.11423300206661224 -0.6474449634552002
v -0.08756694942712784 0.11240098625421524 -0.6475449800491333
v -0.08756694942712784 0.11240098625421524 -0.661965012550354
v -0.09158754348754883 0.11432970315217972 -0.661965012550354
v -0.08756694942712784 0.11240098625421524 -0.6475449800491333
v -0.09158754348754883 0.11432970315217972 -0.661965012550354
v -0.0916018933057785 0.11433238536119461 -0.6475449800491333
v -0.10223904997110367 0.11240098625421524 -0.661965012550354
v -0.10223904997110367 0.11240098625421524 -0.6475449800491333
v -0.09821845591068268 0.11432970315217972 -0.6475449800491333
v -0.10223904997110367 0.11240098625421524 -0.661965012550354
v -0.09821845591068268 0.11432970315217972 -0.6475449800491333
v -0.098204106092453 0.11433238536119461 -0.661965012550354
v -0.1114160567522049 0.10648815333843231 -0.661965012550354
v -0.1114160567522049 0.10648815333843231 -0.6475449800491333
v -0.10223904997110367 0.11240098625421524 -0.661965012550354
v -0.1114160567522049 0.10648815333843231 -0.6475449800491333
v -0.10223904997110367 0.11240098625421524 -0.6475449800491333
v -0.10223904997110367 0.11240098625421524 -0.661965012550354
v -0.07838229835033417 0.10647717118263245 -0.6475449800491333
v -0.07839719951152802 0.10649847984313965 -0.661965012550354
v -0.08756694942712784 0.11240098625421524 -0.6475449800491333
v -0.07839719951152802 0.10649847984313965 -0.661965012550354
v -0.08756694942712784 0.11240098625421524 -0.661965012550354
v -0.08756694942712784 0.11240098625421524 -0.6475449800491333
v -0.11133400350809097 0.10643099993467331 -0.6474449634552002
v -0.07847099751234055 0.10643099993467331 -0.6474449634552002
v -0.08761800080537796 0.11231499910354614 -0.6474449634552002
v -0.11133400350809097 0.10643099993467331 -0.6474449634552002
v -0.08761800080537796 0.11231499910354614 -0.6474449634552002
v -0.10218799859285355 0.11231499910354614 -0.6474449634552002
v -0.07847099751234055 0.10643099993467331 -0.6620650291442871
v -0.11133400350809097 0.10643099993467331 -0.6620650291442871
v -0.10218799859285355 0.11231499910354614 -0.6620650291442871
v -0.07847099751234055 0.10643099993467331 -0.6620650291442871
v -0.10218799859285355 0.11231499910354614 -0.6620650291442871
v -0.08761800080537796 0.11231499910354614 -0.6620650291442871
v -0.07557900249958038 0.0950310006737709 -0.6620650291442871
v -0.11422699689865112 0.0950310006737709 -0.6620650291442871
v -0.11133400350809097 0.10643099993467331 -0.6620650291442871
v -0.07557900249958038 0.0950310006737709 -0.6620650291442871
v -0.11133400350809097 0.10643099993467331 -0.6620650291442871
v -0.07847099751234055 0.10643099993467331 -0.6620650291442871
v -0.11422699689865112 0.0950310006737709 -0.6474449634552002
v -0.07557900249958038 0.0950310006737709 -0.6474449634552002
v -0.07847099751234055 0.10643099993467331 -0.6474449634552002
v -0.11422699689865112 0.0950310006737709 -0.6474449634552002
v -0.07847099751234055 0.10643099993467331 -0.6474449634552002
v -0.11133400350809097 0.10643099993467331 -0.6474449634552002
v -0.07547900825738907 0.09503173828125 -0.6475449800491333
v -0.07547903805971146 0.09503372013568878 -0.661965012550354
v -0.07838229835033417 0.10647717118263245 -0.6475449800491333
v -0.07547903805971146 0.09503372013568878 -0.661965012550354
v -0.07839719951152802 0.10649847984313965 -0.661965012550354
v -0.07838229835033417 0.10647717118263245 -0.6475449800491333
v -0.11432696133852005 0.09503372013568878 -0.661965012550354
v -0.11432699114084244 0.09503173828125 -0.6475449800491333
v -0.1114160567522049 0.10648815333843231 -0.6475449800491333
v -0.11432696133852005 0.09503372013568878 -0.661965012550354
v -0.1114160567522049 0.10648815333843231 -0.6475449800491333
v -0.1114160567522049 0.10648815333843231 -0.661965012550354
v -0.09095795452594757 -0.11452081799507141 -0.661965012550354
v -0.09094958752393723 -0.11451996117830276 -0.6475449800491333
v -0.09884703904390335 -0.11452081799507141 -0.6475449800491333
v -0.09095795452594757 -0.11452081799507141 -0.661965012550354
v -0.09884703904390335 -0.11452081799507141 -0.6475449800491333
v -0.0988554060459137 -0.11451996117830276 -0.661965012550354
v -0.10330799967050552 -0.11319699883460999 -0.6620650291442871
v -0.086497001349926 -0.11319699883460999 -0.6620650291442871
v -0.09884099662303925 -0.11442100256681442 -0.6620650291442871
v -0.086497001349926 -0.11319699883460999 -0.6620650291442871
v -0.09096399694681168 -0.11442100256681442 -0.6620650291442871
v -0.09884099662303925 -0.11442100256681442 -0.6620650291442871
v -0.086497001349926 -0.11319699883460999 -0.6474449634552002
v -0.10330799967050552 -0.11319699883460999 -0.6474449634552002
v -0.09096399694681168 -0.11442100256681442 -0.6474449634552002
v -0.10330799967050552 -0.11319699883460999 -0.6474449634552002
v -0.09884099662303925 -0.11442100256681442 -0.6474449634552002
v -0.09096399694681168 -0.11442100256681442 -0.6474449634552002
v -0.08645106106996536 -0.11328581720590591 -0.661965012550354
v -0.08643817901611328 -0.113277867436409 -0.6475449800491333
v -0.09094958752393723 -0.11451996117830276 -0.6475449800491333
v -0.08645106106996536 -0.11328581720590591 -0.661965012550354
v -0.09094958752393723 -0.11451996117830276 -0.6475449800491333
v -0.09095795452594757 -0.11452081799507141 -0.661965012550354
v -0.10335393995046616 -0.11328581720590591 -0.6475449800491333
v -0.10336682200431824 -0.113277867436409 -0.661965012550354
v -0.0988554060459137 -0.11451996117830276 -0.661965012550354
v -0.10335393995046616 -0.11328581720590591 -0.6475449800491333
v -0.0988554060459137 -0.11451996117830276 -0.661965012550354
v -0.09884703904390335 -0.11452081799507141 -0.6475449800491333
v -0.10891268402338028 -0.10822468996047974 -0.6475449800491333
v -0.10891978442668915 -0.10821302235126495 -0.661965012550354
v -0.10336682200431824 -0.113277867436409 -0.661965012550354
v -0.10891268402338028 -0.10822468996047974 -0.6475449800491333
v -0.10336682200431824 -0.113277867436409 -0.661965012550354
v -0.10335393995046616 -0.11328581720590591 -0.6475449800491333
v -0.08089231699705124 -0.10822468996047974 -0.661965012550354
v -0.08088521659374237 -0.10821302235126495 -0.6475449800491333
v -0.08643817901611328 -0.113277867436409 -0.6475449800491333
v -0.08089231699705124 -0.10822468996047974 -0.661965012550354
v -0.08643817901611328 -0.113277867436409 -0.6475449800491333
v -0.08645106106996536 -0.11328581720590591 -0.661965012550354
v -0.08097399771213531 -0.10816700011491776 -0.6474449634552002
v -0.1088310033082962 -0.10816700011491776 -0.6474449634552002
v -0.10330799967050552 -0.11319699883460999 -0.6474449634552002
v -0.08097399771213531 -0.10816700011491776 -0.6474449634552002
v -0.10330799967050552 -0.11319699883460999 -0.6474449634552002
v -0.086497001349926 -0.11319699883460999 -0.6474449634552002
v -0.1088310033082962 -0.10816700011491776 -0.6620650291442871
v -0.08097399771213531 -0.10816700011491776 -0.6620650291442871
v -0.10330799967050552 -0.11319699883460999 -0.6620650291442871
v -0.08097399771213531 -0.10816700011491776 -0.6620650291442871
v -0.086497001349926 -0.11319699883460999 -0.6620650291442871
v -0.10330799967050552 -0.11319699883460999 -0.6620650291442871
v -0.11422699689865112 -0.0949459969997406 -0.6620650291442871
v -0.07557900249958038 -0.0949459969997406 -0.6620650291442871
v -0.08097399771213531 -0.10816700011491776 -0.6620650291442871
v -0.11422699689865112 -0.0949459969997406 -0.6620650291442871
v -0.08097399771213531 -0.10816700011491776 -0.6620650291442871
v -0.1088310033082962 -0.10816700011491776 -0.6620650291442871
v -0.07557900249958038 -0.0949459969997406 -0.6474449634552002
v -0.11422699689865112 -0.0949459969997406 -0.6474449634552002
v -0.1088310033082962 -0.10816700011491776 -0.6474449634552002
v -0.07557900249958038 -0.0949459969997406 -0.6474449634552002
v -0.1088310033082962 -0.10816700011491776 -0.6474449634552002
v -0.08097399771213531 -0.10816700011491776 -0.6474449634552002
v -0.07548641413450241 -0.0949837863445282 -0.661965012550354
v -0.07548641413450241 -0.0949837863445282 -0.6475449800491333
v -0.08088521659374237 -0.10821302235126495 -0.6475449800491333
v -0.07548641413450241 -0.0949837863445282 -0.661965012550354
v -0.08088521659374237 -0.10821302235126495 -0.6475449800491333
v -0.08089231699705124 -0.10822468996047974 -0.661965012550354
v -0.1143195852637291 -0.0949837863445282 -0.6475449800491333
v -0.1143195852637291 -0.0949837863445282 -0.661965012550354
v -0.10891978442668915 -0.10821302235126495 -0.661965012550354
v -0.1143195852637291 -0.0949837863445282 -0.6475449800491333
v -0.10891978442668915 -0.10821302235126495 -0.661965012550354
v -0.10891268402338028 -0.10822468996047974 -0.6475449800491333
v -0.11432699114084244 0.09503173828125 -0.6475449800491333
v -0.11432696133852005 0.09503372013568878 -0.661965012550354
v -0.11432699859142303 -0.0949459969997406 -0.661965012550354
v -0.11432699114084244 0.09503173828125 -0.6475449800491333
v -0.11432699859142303 -0.0949459969997406 -0.661965012550354
v -0.11432699859142303 -0.0949459969997406 -0.6475449800491333
v -0.07547903805971146 0.09503372013568878 -0.661965012550354
v -0.07547900825738907 0.09503173828125 -0.6475449800491333
v -0.07547900080680847 -0.0949459969997406 -0.661965012550354
v -0.07547900825738907 0.09503173828125 -0.6475449800491333
v -0.07547900080680847 -0.0949459969997406 -0.6475449800491333
v -0.07547900080680847 -0.0949459969997406 -0.661965012550354
v -0.11422699689865112 0.0950310006737709 -0.6474449634552002
v -0.11422699689865112 -0.0949459969997406 -0.6474449634552002
v -0.07557900249958038 0.0950310006737709 -0.6474449634552002
v -0.11422699689865112 -0.0949459969997406 -0.6474449634552002
v -0.07557900249958038 -0.0949459969997406 -0.6474449634552002
v -0.07557900249958038 0.0950310006737709 -0.6474449634552002
v -0.11422699689865112 0.0950310006737709 -0.6620650291442871
v -0.07557900249958038 0.0950310006737709 -0.6620650291442871
v -0.07557900249958038 -0.0949459969997406 -0.6620650291442871
v -0.11422699689865112 0.0950310006737709 -0.6620650291442871
v -0.07557900249958038 -0.0949459969997406 -0.6620650291442871
v -0.11422699689865112 -0.0949459969997406 -0.6620650291442871
v -0.098204106092453 -0.11430338025093079 0
v -0.09821846336126328 -0.1143006980419159 -0.014418000355362892
v -0.0916018858551979 -0.1143023818731308 -0.014418000355362892
v -0.098204106092453 -0.11430338025093079 0
v -0.0916018858551979 -0.1143023818731308 -0.014418000355362892
v -0.09158753603696823 -0.1143006980419159 0
v -0.08761800080537796 -0.11228500306606293 0.00009999999747378752
v -0.10218799859285355 -0.11228500306606293 0.00009999999747378752
v -0.09819299727678299 -0.11420399695634842 0.00009999999747378752
v -0.08761800080537796 -0.11228500306606293 0.00009999999747378752
v -0.09819299727678299 -0.11420399695634842 0.00009999999747378752
v -0.09161300212144852 -0.11420399695634842 0.00009999999747378752
v -0.10218799859285355 -0.11228500306606293 -0.014518000185489655
v -0.08761800080537796 -0.11228500306606293 -0.014518000185489655
v -0.09161300212144852 -0.11420299857854843 -0.014518000185489655
v -0.10218799859285355 -0.11228500306606293 -0.014518000185489655
v -0.09161300212144852 -0.11420299857854843 -0.014518000185489655
v -0.09819299727678299 -0.11420399695634842 -0.014518000185489655
v -0.08756694942712784 -0.11237099021673203 -0.014418000355362892
v -0.08756694942712784 -0.11237099021673203 0
v -0.09158753603696823 -0.1143006980419159 0
v -0.08756694942712784 -0.11237099021673203 -0.014418000355362892
v -0.09158753603696823 -0.1143006980419159 0
v -0.0916018858551979 -0.1143023818731308 -0.014418000355362892
v -0.10223905742168427 -0.11237099021673203 0
v -0.10223905742168427 -0.11237099021673203 -0.014418000355362892
v -0.09821846336126328 -0.1143006980419159 -0.014418000355362892
v -0.10223905742168427 -0.11237099021673203 0
v -0.09821846336126328 -0.1143006980419159 -0.014418000355362892
v -0.098204106092453 -0.11430338025093079 0
v -0.1114160567522049 -0.1064581498503685 0
v -0.1114160567522049 -0.1064581498503685 -0.014418000355362892
v -0.10223905742168427 -0.11237099021673203 0
v -0.1114160567522049 -0.1064581498503685 -0.014418000355362892
v -0.10223905742168427 -0.11237099021673203 -0.014418000355362892
v -0.10223905742168427 -0.11237099021673203 0
v -0.07838229835033417 -0.10644716769456863 -0.014418000355362892
v -0.07839719951152802 -0.10646847635507584 0
v -0.08756694942712784 -0.11237099021673203 -0.014418000355362892
v -0.07839719951152802 -0.10646847635507584 0
v -0.08756694942712784 -0.11237099021673203 0
v -0.08756694942712784 -0.11237099021673203 -0.014418000355362892
v -0.11133400350809097 -0.1064009964466095 -0.014518000185489655
v -0.07847099751234055 -0.1064009964466095 -0.014518000185489655
v -0.08761800080537796 -0.11228500306606293 -0.014518000185489655
v -0.11133400350809097 -0.1064009964466095 -0.014518000185489655
v -0.08761800080537796 -0.11228500306606293 -0.014518000185489655
v -0.10218799859285355 -0.11228500306606293 -0.014518000185489655
v -0.07847099751234055 -0.1064009964466095 0.00009999999747378752
v -0.11133400350809097 -0.1064009964466095 0.00009999999747378752
v -0.10218799859285355 -0.11228500306606293 0.00009999999747378752
v -0.07847099751234055 -0.1064009964466095 0.00009999999747378752
v -0.10218799859285355 -0.11228500306606293 0.00009999999747378752
v -0.08761800080537796 -0.11228500306606293 0.00009999999747378752
v -0.07557900249958038 -0.09500099718570709 0.00009999999747378752
v -0.11422699689865112 -0.09500099718570709 0.00009999999747378752
v -0.11133400350809097 -0.1064009964466095 0.00009999999747378752
v -0.07557900249958038 -0.09500099718570709 0.00009999999747378752
v -0.11133400350809097 -0.1064009964466095 0.00009999999747378752
v -0.07847099751234055 -0.1064009964466095 0.00009999999747378752
v -0.11422699689865112 -0.09500099718570709 -0.014518000185489655
v -0.07557900249958038 -0.09500099718570709 -0.014518000185489655
v -0.07847099751234055 -0.1064009964466095 -0.014518000185489655
v -0.11422699689865112 -0.09500099718570709 -0.014518000185489655
v -0.07847099751234055 -0.1064009964466095 -0.014518000185489655
v -0.11133400350809097 -0.1064009964466095 -0.014518000185489655
v -0.07547900825738907 -0.09500173479318619 -0.014418000355362892
v -0.07547903805971146 -0.09500371664762497 0
v -0.07838229835033417 -0.10644716769456863 -0.014418000355362892
v -0.07547903805971146 -0.09500371664762497 0
v -0.07839719951152802 -0.10646847635507584 0
v -0.07838229835033417 -0.10644716769456863 -0.014418000355362892
v -0.11432696133852005 -0.09500371664762497 0
v -0.11432699114084244 -0.09500173479318619 -0.014418000355362892
v -0.1114160567522049 -0.1064581498503685 -0.014418000355362892
v -0.11432696133852005 -0.09500371664762497 0
v -0.1114160567522049 -0.1064581498503685 -0.014418000355362892
v -0.1114160567522049 -0.1064581498503685 0
v -0.09095795452594757 0.11455081403255463 0
v -0.09094959497451782 0.11454995721578598 -0.014418000355362892
v -0.09884703904390335 0.11455081403255463 -0.014418000355362892
v -0.09095795452594757 0.11455081403255463 0
v -0.09884703904390335 0.11455081403255463 -0.014418000355362892
v -0.0988554060459137 0.11454995721578598 0
v -0.10330799967050552 0.1132270023226738 0.00009999999747378752
v -0.086497001349926 0.1132270023226738 0.00009999999747378752
v -0.09884099662303925 0.11445099860429764 0.00009999999747378752
v -0.086497001349926 0.1132270023226738 0.00009999999747378752
v -0.09096399694681168 0.11445099860429764 0.00009999999747378752
v -0.09884099662303925 0.11445099860429764 0.00009999999747378752
v -0.086497001349926 0.11322800070047379 -0.014518000185489655
v -0.10330799967050552 0.1132270023226738 -0.014518000185489655
v -0.09096399694681168 0.11445099860429764 -0.014518000185489655
v -0.10330799967050552 0.1132270023226738 -0.014518000185489655
v -0.09884099662303925 0.11445099860429764 -0.014518000185489655
v -0.09096399694681168 0.11445099860429764 -0.014518000185489655
v -0.08645106106996536 0.11331582814455032 0
v -0.08643817901611328 0.1133088693022728 -0.014418000355362892
v -0.09094959497451782 0.11454995721578598 -0.014418000355362892
v -0.08645106106996536 0.11331582814455032 0
v -0.09094959497451782 0.11454995721578598 -0.014418000355362892
v -0.09095795452594757 0.11455081403255463 0
v -0.10335393995046616 0.11331582069396973 -0.014418000355362892
v -0.10336682200431824 0.11330787092447281 0
v -0.0988554060459137 0.11454995721578598 0
v -0.10335393995046616 0.11331582069396973 -0.014418000355362892
v -0.0988554060459137 0.11454995721578598 0
v -0.09884703904390335 0.11455081403255463 -0.014418000355362892
v -0.10891268402338028 0.10825469344854355 -0.014418000355362892
v -0.10891978442668915 0.10824302583932877 0
v -0.10336682200431824 0.11330787092447281 0
v -0.10891268402338028 0.10825469344854355 -0.014418000355362892
v -0.10336682200431824 0.11330787092447281 0
v -0.10335393995046616 0.11331582069396973 -0.014418000355362892
v -0.08089230954647064 0.10825468599796295 0
v -0.08088521659374237 0.10824302583932877 -0.014418000355362892
v -0.08643817901611328 0.1133088693022728 -0.014418000355362892
v -0.08089230954647064 0.10825468599796295 0
v -0.08643817901611328 0.1133088693022728 -0.014418000355362892
v -0.08645106106996536 0.11331582814455032 0
v -0.08097399771213531 0.10819700360298157 -0.014518000185489655
v -0.1088310033082962 0.10819700360298157 -0.014518000185489655
v -0.10330799967050552 0.1132270023226738 -0.014518000185489655
v -0.08097399771213531 0.10819700360298157 -0.014518000185489655
v -0.10330799967050552 0.1132270023226738 -0.014518000185489655
v -0.086497001349926 0.11322800070047379 -0.014518000185489655
v -0.1088310033082962 0.10819700360298157 0.00009999999747378752
v -0.08097399771213531 0.10819700360298157 0.00009999999747378752
v -0.10330799967050552 0.1132270023226738 0.00009999999747378752
v -0.08097399771213531 0.10819700360298157 0.00009999999747378752
v -0.086497001349926 0.1132270023226738 0.00009999999747378752
v -0.10330799967050552 0.1132270023226738 0.00009999999747378752
v -0.11422699689865112 0.09497600048780441 0.00009999999747378752
v -0.07557900249958038 0.09497600048780441 0.00009999999747378752
v -0.08097399771213531 0.10819700360298157 0.00009999999747378752
v -0.11422699689865112 0.09497600048780441 0.00009999999747378752
v -0.08097399771213531 0.10819700360298157 0.00009999999747378752
v -0.1088310033082962 0.10819700360298157 0.00009999999747378752
v -0.07557900249958038 0.09497600048780441 -0.014518000185489655
v -0.11422699689865112 0.09497600048780441 -0.014518000185489655
v -0.1088310033082962 0.10819700360298157 -0.014518000185489655
v -0.07557900249958038 0.09497600048780441 -0.014518000185489655
v -0.1088310033082962 0.10819700360298157 -0.014518000185489655
v -0.08097399771213531 0.10819700360298157 -0.014518000185489655
v -0.07548641413450241 0.09501378983259201 0
v -0.07548641413450241 0.09501378983259201 -0.014418000355362892
v -0.08088521659374237 0.10824302583932877 -0.014418000355362892
v -0.07548641413450241 0.09501378983259201 0
v -0.08088521659374237 0.10824302583932877 -0.014418000355362892
v -0.08089230954647064 0.10825468599796295 0
v -0.1143195852637291 0.09501378983259201 -0.014418000355362892
v -0.1143195852637291 0.09501378983259201 0
v -0.10891978442668915 0.10824302583932877 0
v -0.1143195852637291 0.09501378983259201 -0.014418000355362892
v -0.10891978442668915 0.10824302583932877 0
v -0.10891268402338028 0.10825469344854355 -0.014418000355362892
v -0.11432699114084244 -0.09500173479318619 -0.014418000355362892
v -0.11432696133852005 -0.09500371664762497 0
v -0.11432699859142303 0.09497600048780441 0
v -0.11432699114084244 -0.09500173479318619 -0.014418000355362892
v -0.11432699859142303 0.09497600048780441 0
v -0.11432699859142303 0.09497600048780441 -0.014418000355362892
v -0.07547903805971146 -0.09500371664762497 0
v -0.07547900825738907 -0.09500173479318619 -0.014418000355362892
v -0.07547900080680847 0.09497600048780441 0
v -0.07547900825738907 -0.09500173479318619 -0.014418000355362892
v -0.07547900080680847 0.09497600048780441 -0.014418000355362892
v -0.07547900080680847 0.09497600048780441 0
v -0.11422699689865112 -0.09500099718570709 -0.014518000185489655
v -0.11422699689865112 0.09497600048780441 -0.014518000185489655
v -0.07557900249958038 -0.09500099718570709 -0.014518000185489655
v -0.11422699689865112 0.09497600048780441 -0.014518000185489655
v -0.07557900249958038 0.09497600048780441 -0.014518000185489655
v -0.07557900249958038 -0.09500099718570709 -0.014518000185489655
v -0.11422699689865112 -0.09500099718570709 0.00009999999747378752
v -0.07557900249958038 -0.09500099718570709 0.00009999999747378752
v -0.07557900249958038 0.09497600048780441 0.00009999999747378752
v -0.11422699689865112 -0.09500099718570709 0.00009999999747378752
v -0.07557900249958038 0.09497600048780441 0.00009999999747378752
v -0.11422699689865112 0.09497600048780441 0.00009999999747378752
vt 0.4436880052089691 0.9322779774665833
vt 0.4436880052089691 0.6996669769287109
vt 0.6430789828300476 0.9322779774665833
vt 0.4436880052089691 0.6996669769287109
vt 0.6430789828300476 0.6996669769287109
vt 0.6430789828300476 0.9322779774665833
vt 0.9684969782829285 0.5467770099639893
vt 0.9657599925994873 0.330157995223999
vt 0.9929230213165283 0.34120500087738037
vt 0.9684969782829285 0.5467770099639893
vt 0.9929230213165283 0.34120500087738037
vt 1 0.4998700022697449
vt 0.5288320183753967 0.5609220266342163
vt 0.4704830050468445 0.3190479874610901
vt 0.5037199854850769 0.32448700070381165
vt 0.5288320183753967 0.5609220266342163
vt 0.5037199854850769 0.32448700070381165
vt 0.5521379709243774 0.500353991985321
vt 0.7727890014648438 0.31590598821640015
vt 0.7727890014648438 0.023329999297857285
vt 0.8107609748840332 0.026473000645637512
vt 0.7727890014648438 0.31590598821640015
vt 0.8107609748840332 0.026473000645637512
vt 0.8107609748840332 0.3190479874610901
vt 0.41349801421165466 0.9297800064086914
vt 0.41349801421165466 0.6971690058708191
vt 0.4436880052089691 0.6996669769287109
vt 0.41349801421165466 0.9297800064086914
vt 0.4436880052089691 0.6996669769287109
vt 0.4436880052089691 0.9322779774665833
vt 0.38337400555610657 0.9269840121269226
vt 0.38337400555610657 0.6943740248680115
vt 0.41349801421165466 0.6971690058708191
vt 0.38337400555610657 0.9269840121269226
vt 0.41349801421165466 0.6971690058708191
vt 0.41349801421165466 0.9297800064086914
vt 0.7348989844322205 0.31238898634910583
vt 0.7348989844322205 0.01981399953365326
vt 0.7727890014648438 0.023329999297857285
vt 0.7348989844322205 0.31238898634910583
vt 0.7727890014648438 0.023329999297857285
vt 0.7727890014648438 0.31590598821640015
vt 0.49678000807762146 0.5896589756011963
vt 0.4340539872646332 0.3190479874610901
vt 0.4704830050468445 0.3190479874610901
vt 0.49678000807762146 0.5896589756011963
vt 0.4704830050468445 0.3190479874610901
vt 0.5288320183753967 0.5609220266342163
vt 0.9357280135154724 0.5649710297584534
vt 0.9348350167274475 0.3231090009212494
vt 0.9657599925994873 0.330157995223999
vt 0.9357280135154724 0.5649710297584534
vt 0.9657599925994873 0.330157995223999
vt 0.9684969782829285 0.5467770099639893
vt 0.9021090269088745 0.571690022945404
vt 0.9021090269088745 0.3190479874610901
vt 0.9348350167274475 0.3231090009212494
vt 0.9021090269088745 0.571690022945404
vt 0.9348350167274475 0.3231090009212494
vt 0.9357280135154724 0.5649710297584534
vt 0.46084699034690857 0.6057630181312561
vt 0.396369993686676 0.3228519856929779
vt 0.4340539872646332 0.3190479874610901
vt 0.46084699034690857 0.6057630181312561
vt 0.4340539872646332 0.3190479874610901
vt 0.49678000807762146 0.5896589756011963
vt 0.6971060037612915 0.30845800042152405
vt 0.6971060037612915 0.01588200032711029
vt 0.7348989844322205 0.01981399953365326
vt 0.6971060037612915 0.30845800042152405
vt 0.7348989844322205 0.01981399953365326
vt 0.7348989844322205 0.31238898634910583
vt 0.3533270061016083 0.9238579869270325
vt 0.3533270061016083 0.6912479996681213
vt 0.38337400555610657 0.6943740248680115
vt 0.3533270061016083 0.9238579869270325
vt 0.38337400555610657 0.6943740248680115
vt 0.38337400555610657 0.9269840121269226
vt 0.2530210018157959 0.0002789999998640269
vt 0.2526949942111969 0.2953360080718994
vt 0 0.2950569987297058
vt 0.2530210018157959 0.0002789999998640269
vt 0 0.2950569987297058
vt 0.00032500000088475645 0
vt 0.5831509828567505 0.3444809913635254
vt 0.5859779715538025 0.5608609914779663
vt 0.5588729977607727 0.5495560169219971
vt 0.5831509828567505 0.3444809913635254
vt 0.5588729977607727 0.5495560169219971
vt 0.5521379709243774 0.38833799958229065
vt 0.04767199978232384 0.4365159869194031
vt 0.10613600164651871 0.6788409948348999
vt 0.07280199974775314 0.6730690002441406
vt 0.04767199978232384 0.4365159869194031
vt 0.07280199974775314 0.6730690002441406
vt 0.024041999131441116 0.4937030076980591
vt 0.32887399196624756 0.008318999782204628
vt 0.32887500524520874 0.30089399218559265
vt 0.29088398814201355 0.2978389859199524
vt 0.32887399196624756 0.008318999782204628
vt 0.29088398814201355 0.2978389859199524
vt 0.29088300466537476 0.0052629997953772545
vt 0.06056699901819229 0.685234010219574
vt 0.06056699901819229 0.9178450107574463
vt 0.030362000688910484 0.9154149889945984
vt 0.06056699901819229 0.685234010219574
vt 0.030362000688910484 0.9154149889945984
vt 0.030362000688910484 0.6828039884567261
vt 0.09067799896001816 0.6880850195884705
vt 0.09067799896001816 0.9206960201263428
vt 0.06056699901819229 0.9178450107574463
vt 0.09067799896001816 0.6880850195884705
vt 0.06056699901819229 0.9178450107574463
vt 0.06056699901819229 0.685234010219574
vt 0.36674800515174866 0.011904999613761902
vt 0.36674898862838745 0.30448099970817566
vt 0.32887500524520874 0.30089399218559265
vt 0.36674800515174866 0.011904999613761902
vt 0.32887500524520874 0.30089399218559265
vt 0.32887399196624756 0.008318999782204628
vt 0.07980599999427795 0.40871599316596985
vt 0.14240199327468872 0.6784070134162903
vt 0.10613600164651871 0.6788409948348999
vt 0.07980599999427795 0.40871599316596985
vt 0.10613600164651871 0.6788409948348999
vt 0.04767199978232384 0.4365159869194031
vt 0.6157050132751465 0.32713600993156433
vt 0.6167600154876709 0.5674759745597839
vt 0.5859779715538025 0.5608609914779663
vt 0.6157050132751465 0.32713600993156433
vt 0.5859779715538025 0.5608609914779663
vt 0.5831509828567505 0.3444809913635254
vt 0.6494659781455994 0.3190479874610901
vt 0.6494659781455994 0.571690022945404
vt 0.6167600154876709 0.5674759745597839
vt 0.6494659781455994 0.3190479874610901
vt 0.6167600154876709 0.5674759745597839
vt 0.6157050132751465 0.32713600993156433
vt 0.11345899850130081 0.38732901215553284
vt 0.17793600261211395 0.6702409982681274
vt 0.07980599999427795 0.40871599316596985
vt 0.17793600261211395 0.6702409982681274
vt 0.14240199327468872 0.6784070134162903
vt 0.07980599999427795 0.40871599316596985
vt 0.40452998876571655 0.015883000567555428
vt 0.40453100204467773 0.30845800042152405
vt 0.36674898862838745 0.30448099970817566
vt 0.40452998876571655 0.015883000567555428
vt 0.36674898862838745 0.30448099970817566
vt 0.36674800515174866 0.011904999613761902
vt 0.12071699649095535 0.6912479996681213
vt 0.12071699649095535 0.9238579869270325
vt 0.09067799896001816 0.9206960201263428
vt 0.12071699649095535 0.6912479996681213
vt 0.09067799896001816 0.9206960201263428
vt 0.09067799896001816 0.6880850195884705
vt 0.3533270061016083 0.6912479996681213
vt 0.3533270061016083 0.9238579869270325
vt 0.12071699649095535 0.9238579869270325
vt 0.3533270061016083 0.6912479996681213
vt 0.12071699649095535 0.9238579869270325
vt 0.12071699649095535 0.6912479996681213
vt 0.6971060037612915 0.01588200032711029
vt 0.6971060037612915 0.30845800042152405
vt 0.40452998876571655 0.015883000567555428
vt 0.6971060037612915 0.30845800042152405
vt 0.40453100204467773 0.30845800042152405
vt 0.40452998876571655 0.015883000567555428
vt 0.46084699034690857 0.6057630181312561
vt 0.17793600261211395 0.6702409982681274
vt 0.396369993686676 0.3228519856929779
vt 0.17793600261211395 0.6702409982681274
vt 0.11345899850130081 0.38732901215553284
vt 0.396369993686676 0.3228519856929779
vt 0.9021090269088745 0.3190479874610901
vt 0.9021090269088745 0.571690022945404
vt 0.6494659781455994 0.571690022945404
vt 0.9021090269088745 0.3190479874610901
vt 0.6494659781455994 0.571690022945404
vt 0.6494659781455994 0.3190479874610901
vt 0.19407899677753448 0.0010369999799877405
vt 0.19407899677753448 0.29020199179649353
vt 0.1448500007390976 0.29020199179649353
vt 0.19407899677753448 0.0010369999799877405
vt 0.1448500007390976 0.29020199179649353
vt 0.1448500007390976 0.0010369999799877405
vt 0.9823369979858398 0.5724740028381348
vt 0.9806039929389954 0.43382498621940613
vt 0.9983100295066833 0.43820101022720337
vt 0.9823369979858398 0.5724740028381348
vt 0.9983100295066833 0.43820101022720337
vt 1 0.5734109878540039
vt 0.7014549970626831 0.21426600217819214
vt 0.6996989846229553 0.07385999709367752
vt 0.7176300287246704 0.07828500121831894
vt 0.7014549970626831 0.21426600217819214
vt 0.7176300287246704 0.07828500121831894
vt 0.7193419933319092 0.21521399915218353
vt 0.10693199932575226 0.2891649901866913
vt 0.10693199932575226 0
vt 0.1448500007390976 0.0010369999799877405
vt 0.10693199932575226 0.2891649901866913
vt 0.1448500007390976 0.0010369999799877405
vt 0.1448500007390976 0.29020199179649353
vt 0.23199699819087982 0.002073999959975481
vt 0.23199699819087982 0.2912389934062958
vt 0.19407899677753448 0.29020199179649353
vt 0.23199699819087982 0.002073999959975481
vt 0.19407899677753448 0.29020199179649353
vt 0.19407899677753448 0.0010369999799877405
vt 0.30101099610328674 0.002073999959975481
vt 0.3010120093822479 0.2912389934062958
vt 0.23199699819087982 0.002073999959975481
vt 0.3010120093822479 0.2912389934062958
vt 0.23199699819087982 0.2912389934062958
vt 0.23199699819087982 0.002073999959975481
vt 0.03791699931025505 0.2891649901866913
vt 0.03791699931025505 0
vt 0.10693199932575226 0.2891649901866913
vt 0.03791699931025505 0
vt 0.10693199932575226 0
vt 0.10693199932575226 0.2891649901866913
vt 0.6831129789352417 0.21329399943351746
vt 0.6806979775428772 0.02010899968445301
vt 0.6996989846229553 0.07385999709367752
vt 0.6831129789352417 0.21329399943351746
vt 0.6996989846229553 0.07385999709367752
vt 0.7014549970626831 0.21426600217819214
vt 0.9642249941825867 0.5715140104293823
vt 0.9618399739265442 0.380744993686676
vt 0.9806039929389954 0.43382498621940613
vt 0.9642249941825867 0.5715140104293823
vt 0.9806039929389954 0.43382498621940613
vt 0.9823369979858398 0.5724740028381348
vt 0.932112991809845 0.6065469980239868
vt 0.932112991809845 0.36088699102401733
vt 0.9618399739265442 0.380744993686676
vt 0.932112991809845 0.6065469980239868
vt 0.9618399739265442 0.380744993686676
vt 0.9642249941825867 0.5715140104293823
vt 0.6505939960479736 0.24876999855041504
vt 0.6505939960479736 0
vt 0.6806979775428772 0.02010899968445301
vt 0.6505939960479736 0.24876999855041504
vt 0.6806979775428772 0.02010899968445301
vt 0.6831129789352417 0.21329399943351746
vt 0 0.2903220057487488
vt 0 0.0011579999700188637
vt 0.03791699931025505 0.2891649901866913
vt 0 0.0011579999700188637
vt 0.03791699931025505 0
vt 0.03791699931025505 0.2891649901866913
vt 0.3388809859752655 0.003407000098377466
vt 0.3388819992542267 0.2925719916820526
vt 0.3010120093822479 0.2912389934062958
vt 0.3388809859752655 0.003407000098377466
vt 0.3010120093822479 0.2912389934062958
vt 0.30101099610328674 0.002073999959975481
vt 0.4410400092601776 0.9008070230484009
vt 0.44103699922561646 0.6071490049362183
vt 0.5008869767189026 0.6071490049362183
vt 0.4410400092601776 0.9008070230484009
vt 0.5008869767189026 0.6071490049362183
vt 0.5008900165557861 0.9008060097694397
vt 0.6412190198898315 0.5035319924354553
vt 0.6476730108261108 0.5556460022926331
vt 0.6344720125198364 0.5048199892044067
vt 0.6476730108261108 0.5556460022926331
vt 0.6279500126838684 0.5069779753684998
vt 0.6344720125198364 0.5048199892044067
vt 0.3484469950199127 0.14284899830818176
vt 0.3566589951515198 0.18088600039482117
vt 0.34355199337005615 0.14424599707126617
vt 0.3566589951515198 0.18088600039482117
vt 0.3388819992542267 0.1462700068950653
vt 0.34355199337005615 0.14424599707126617
vt 0.40246400237083435 0.9002040028572083
vt 0.4024609923362732 0.6065469980239868
vt 0.44103699922561646 0.6071490049362183
vt 0.40246400237083435 0.9002040028572083
vt 0.44103699922561646 0.6071490049362183
vt 0.4410400092601776 0.9008070230484009
vt 0.5394629836082458 0.6077510118484497
vt 0.5394660234451294 0.9014089703559875
vt 0.5008900165557861 0.9008060097694397
vt 0.5394629836082458 0.6077510118484497
vt 0.5008900165557861 0.9008060097694397
vt 0.5008869767189026 0.6071490049362183
vt 0.5821390151977539 0.6077510118484497
vt 0.5821419954299927 0.9014080166816711
vt 0.5394660234451294 0.9014089703559875
vt 0.5821390151977539 0.6077510118484497
vt 0.5394660234451294 0.9014089703559875
vt 0.5394629836082458 0.6077510118484497
vt 0.3597880005836487 0.9002050161361694
vt 0.3597849905490875 0.6065469980239868
vt 0.4024609923362732 0.6065469980239868
vt 0.3597880005836487 0.9002050161361694
vt 0.4024609923362732 0.6065469980239868
vt 0.40246400237083435 0.9002040028572083
vt 0.3710089921951294 0.05475499853491783
vt 0.3737950026988983 0.21289999783039093
vt 0.3566589951515198 0.18088600039482117
vt 0.3710089921951294 0.05475499853491783
vt 0.3566589951515198 0.18088600039482117
vt 0.3484469950199127 0.14284899830818176
vt 0.6560239791870117 0.4149569869041443
vt 0.6587749719619751 0.5711249709129333
vt 0.6412190198898315 0.5035319924354553
vt 0.6587749719619751 0.5711249709129333
vt 0.6476730108261108 0.5556460022926331
vt 0.6412190198898315 0.5035319924354553
vt 0.6864529848098755 0.36088699102401733
vt 0.6864529848098755 0.6065469980239868
vt 0.6587749719619751 0.5711249709129333
vt 0.6864529848098755 0.36088699102401733
vt 0.6587749719619751 0.5711249709129333
vt 0.6560239791870117 0.4149569869041443
vt 0.4018239974975586 0
vt 0.4018239974975586 0.24876999855041504
vt 0.3737950026988983 0.21289999783039093
vt 0.4018239974975586 0
vt 0.3737950026988983 0.21289999783039093
vt 0.3710089921951294 0.05475499853491783
vt 0.313977986574173 0.9002050161361694
vt 0.3139750063419342 0.606548011302948
vt 0.3597849905490875 0.6065469980239868
vt 0.313977986574173 0.9002050161361694
vt 0.3597849905490875 0.6065469980239868
vt 0.3597880005836487 0.9002050161361694
vt 0.6279489994049072 0.6077510118484497
vt 0.6279510259628296 0.9014080166816711
vt 0.5821419954299927 0.9014080166816711
vt 0.6279489994049072 0.6077510118484497
vt 0.5821419954299927 0.9014080166816711
vt 0.5821390151977539 0.6077510118484497
vt 0.3139750063419342 0.2925719916820526
vt 0.3139750063419342 0.6065469980239868
vt 0 0.6065469980239868
vt 0.3139750063419342 0.2925719916820526
vt 0 0.6065469980239868
vt 0 0.2925719916820526
vt 0.6279500126838684 0.2925719916820526
vt 0.6279500126838684 0.6065469980239868
vt 0.3139750063419342 0.2925719916820526
vt 0.6279500126838684 0.6065469980239868
vt 0.3139750063419342 0.6065469980239868
vt 0.3139750063419342 0.2925719916820526
vt 0.6505939960479736 0.24876999855041504
vt 0.4018239974975586 0.24876999855041504
vt 0.6505939960479736 0
vt 0.4018239974975586 0.24876999855041504
vt 0.4018239974975586 0
vt 0.6505939960479736 0
vt 0.932112991809845 0.36088699102401733
vt 0.932112991809845 0.6065469980239868
vt 0.6864529848098755 0.6065469980239868
vt 0.932112991809845 0.36088699102401733
vt 0.6864529848098755 0.6065469980239868
vt 0.6864529848098755 0.36088699102401733
vt 0.19407899677753448 0.0010369999799877405
vt 0.19407899677753448 0.29020199179649353
vt 0.1448500007390976 0.29020199179649353
vt 0.19407899677753448 0.0010369999799877405
vt 0.1448500007390976 0.29020199179649353
vt 0.1448500007390976 0.0010369999799877405
vt 0.9823369979858398 0.5724740028381348
vt 0.9806039929389954 0.43382498621940613
vt 0.9983100295066833 0.43820101022720337
vt 0.9823369979858398 0.5724740028381348
vt 0.9983100295066833 0.43820101022720337
vt 1 0.5734109878540039
vt 0.7014549970626831 0.21426600217819214
vt 0.6996989846229553 0.07385999709367752
vt 0.7176300287246704 0.07828500121831894
vt 0.7014549970626831 0.21426600217819214
vt 0.7176300287246704 0.07828500121831894
vt 0.7193419933319092 0.21521399915218353
vt 0.10693199932575226 0.2891649901866913
vt 0.10693199932575226 0
vt 0.1448500007390976 0.0010369999799877405
vt 0.10693199932575226 0.2891649901866913
vt 0.1448500007390976 0.0010369999799877405
vt 0.1448500007390976 0.29020199179649353
vt 0.23199699819087982 0.002073999959975481
vt 0.23199699819087982 0.2912389934062958
vt 0.19407899677753448 0.29020199179649353
vt 0.23199699819087982 0.002073999959975481
vt 0.19407899677753448 0.29020199179649353
vt 0.19407899677753448 0.0010369999799877405
vt 0.30101099610328674 0.002073999959975481
vt 0.3010120093822479 0.2912389934062958
vt 0.23199699819087982 0.002073999959975481
vt 0.3010120093822479 0.2912389934062958
vt 0.23199699819087982 0.2912389934062958
vt 0.23199699819087982 0.002073999959975481
vt 0.03791699931025505 0.2891649901866913
vt 0.03791699931025505 0
vt 0.10693199932575226 0.2891649901866913
vt 0.03791699931025505 0
vt 0.10693199932575226 0
vt 0.10693199932575226 0.2891649901866913
vt 0.6831129789352417 0.21329399943351746
vt 0.6806979775428772 0.02010899968445301
vt 0.6996989846229553 0.07385999709367752
vt 0.6831129789352417 0.21329399943351746
vt 0.6996989846229553 0.07385999709367752
vt 0.7014549970626831 0.21426600217819214
vt 0.9642249941825867 0.5715140104293823
vt 0.9618399739265442 0.380744993686676
vt 0.9806039929389954 0.43382498621940613
vt 0.9642249941825867 0.5715140104293823
vt 0.9806039929389954 0.43382498621940613
vt 0.9823369979858398 0.5724740028381348
vt 0.932112991809845 0.6065469980239868
vt 0.932112991809845 0.36088699102401733
vt 0.9618399739265442 0.380744993686676
vt 0.932112991809845 0.6065469980239868
vt 0.9618399739265442 0.380744993686676
vt 0.9642249941825867 0.5715140104293823
vt 0.6505939960479736 0.24876999855041504
vt 0.6505939960479736 0
vt 0.6806979775428772 0.02010899968445301
vt 0.6505939960479736 0.24876999855041504
vt 0.6806979775428772 0.02010899968445301
vt 0.6831129789352417 0.21329399943351746
vt 0 0.2903220057487488
vt 0 0.0011579999700188637
vt 0.03791699931025505 0.2891649901866913
vt 0 0.0011579999700188637
vt 0.03791699931025505 0
vt 0.03791699931025505 0.2891649901866913
vt 0.3388809859752655 0.003407000098377466
vt 0.3388819992542267 0.2925719916820526
vt 0.3010120093822479 0.2912389934062958
vt 0.3388809859752655 0.003407000098377466
vt 0.3010120093822479 0.2912389934062958
vt 0.30101099610328674 0.002073999959975481
vt 0.4410400092601776 0.9008070230484009
vt 0.44103699922561646 0.6071490049362183
vt 0.5008869767189026 0.6071490049362183
vt 0.4410400092601776 0.9008070230484009
vt 0.5008869767189026 0.6071490049362183
vt 0.5008900165557861 0.9008060097694397
vt 0.6412190198898315 0.5035319924354553
vt 0.6476730108261108 0.5556460022926331
vt 0.6344720125198364 0.5048199892044067
vt 0.6476730108261108 0.5556460022926331
vt 0.6279500126838684 0.5069779753684998
vt 0.6344720125198364 0.5048199892044067
vt 0.3484469950199127 0.14284899830818176
vt 0.3566589951515198 0.18088600039482117
vt 0.34355199337005615 0.14424599707126617
vt 0.3566589951515198 0.18088600039482117
vt 0.3388819992542267 0.1462700068950653
vt 0.34355199337005615 0.14424599707126617
vt 0.40246400237083435 0.9002040028572083
vt 0.4024609923362732 0.6065469980239868
vt 0.44103699922561646 0.6071490049362183
vt 0.40246400237083435 0.9002040028572083
vt 0.44103699922561646 0.6071490049362183
vt 0.4410400092601776 0.9008070230484009
vt 0.5394629836082458 0.6077510118484497
vt 0.5394660234451294 0.9014089703559875
vt 0.5008900165557861 0.9008060097694397
vt 0.5394629836082458 0.6077510118484497
vt 0.5008900165557861 0.9008060097694397
vt 0.5008869767189026 0.6071490049362183
vt 0.5821390151977539 0.6077510118484497
vt 0.5821419954299927 0.9014080166816711
vt 0.5394660234451294 0.9014089703559875
vt 0.5821390151977539 0.6077510118484497
vt 0.5394660234451294 0.9014089703559875
vt 0.5394629836082458 0.6077510118484497
vt 0.3597880005836487 0.9002050161361694
vt 0.3597849905490875 0.6065469980239868
vt 0.4024609923362732 0.6065469980239868
vt 0.3597880005836487 0.9002050161361694
vt 0.4024609923362732 0.6065469980239868
vt 0.40246400237083435 0.9002040028572083
vt 0.3710089921951294 0.05475499853491783
vt 0.3737950026988983 0.21289999783039093
vt 0.3566589951515198 0.18088600039482117
vt 0.3710089921951294 0.05475499853491783
vt 0.3566589951515198 0.18088600039482117
vt 0.3484469950199127 0.14284899830818176
vt 0.6560239791870117 0.4149569869041443
vt 0.6587749719619751 0.5711249709129333
vt 0.6412190198898315 0.5035319924354553
vt 0.6587749719619751 0.5711249709129333
vt 0.6476730108261108 0.5556460022926331
vt 0.6412190198898315 0.5035319924354553
vt 0.6864529848098755 0.36088699102401733
vt 0.6864529848098755 0.6065469980239868
vt 0.6587749719619751 0.5711249709129333
vt 0.6864529848098755 0.36088699102401733
vt 0.6587749719619751 0.5711249709129333
vt 0.6560239791870117 0.4149569869041443
vt 0.4018239974975586 0
vt 0.4018239974975586 0.24876999855041504
vt 0.3737950026988983 0.21289999783039093
vt 0.4018239974975586 0
vt 0.3737950026988983 0.21289999783039093
vt 0.3710089921951294 0.05475499853491783
vt 0.313977986574173 0.9002050161361694
vt 0.3139750063419342 0.606548011302948
vt 0.3597849905490875 0.6065469980239868
vt 0.313977986574173 0.9002050161361694
vt 0.3597849905490875 0.6065469980239868
vt 0.3597880005836487 0.9002050161361694
vt 0.6279489994049072 0.6077510118484497
vt 0.6279510259628296 0.9014080166816711
vt 0.5821419954299927 0.9014080166816711
vt 0.6279489994049072 0.6077510118484497
vt 0.5821419954299927 0.9014080166816711
vt 0.5821390151977539 0.6077510118484497
vt 0.3139750063419342 0.2925719916820526
vt 0.3139750063419342 0.6065469980239868
vt 0 0.6065469980239868
vt 0.3139750063419342 0.2925719916820526
vt 0 0.6065469980239868
vt 0 0.2925719916820526
vt 0.6279500126838684 0.2925719916820526
vt 0.6279500126838684 0.6065469980239868
vt 0.3139750063419342 0.2925719916820526
vt 0.6279500126838684 0.6065469980239868
vt 0.3139750063419342 0.6065469980239868
vt 0.3139750063419342 0.2925719916820526
vt 0.6505939960479736 0.24876999855041504
vt 0.4018239974975586 0.24876999855041504
vt 0.6505939960479736 0
vt 0.4018239974975586 0.24876999855041504
vt 0.4018239974975586 0
vt 0.6505939960479736 0
vt 0.932112991809845 0.36088699102401733
vt 0.932112991809845 0.6065469980239868
vt 0.6864529848098755 0.6065469980239868
vt 0.932112991809845 0.36088699102401733
vt 0.6864529848098755 0.6065469980239868
vt 0.6864529848098755 0.36088699102401733
vn -0.021880988346178857 0.9997605825141308 0
vn -0.021880988346178857 0.9997605825141308 0
vn 0.021880988346178857 0.9997605825141308 0
vn -0.021880988346178857 0.9997605825141308 0
vn 0.021880988346178857 0.9997605825141308 0
vn 0.021880988346178857 0.9997605825141308 0
vn 0 0 -1
vn 0 0 -1
vn 0 0 -1
vn 0 0 -1
vn 0 0 -1
vn 0 0 -1
vn 0 0 1
vn 0 0 1
vn 0 0 1
vn 0 0 1
vn 0 0 1
vn 0 0 1
vn 0.5308221664629514 0.8474832314515602 0
vn 0.6530949984075711 0.7572759886956767 0
vn 0.021880988346178857 0.9997605825141308 0
vn 0.5308221664629514 0.8474832314515602 0
vn 0.021880988346178857 0.9997605825141308 0
vn 0.021880988346178857 0.9997605825141308 0
vn -0.5308281795075753 0.8474794651439487 0
vn -0.6530992234793663 0.7572723448605849 0
vn -0.021880988346178857 0.9997605825141308 0
vn -0.5308281795075753 0.8474794651439487 0
vn -0.021880988346178857 0.9997605825141308 0
vn -0.021880988346178857 0.9997605825141308 0
vn -0.8293570372129382 0.5587189855601626 0
vn -0.8836777204739538 0.46809580893013425 0
vn -0.6530992234793663 0.7572723448605849 0
vn -0.8293570372129382 0.5587189855601626 0
vn -0.6530992234793663 0.7572723448605849 0
vn -0.5308281795075753 0.8474794651439487 0
vn 0.8293570372129382 0.5587189855601626 0
vn 0.8836777204739538 0.46809580893013425 0
vn 0.6530949984075711 0.7572759886956767 0
vn 0.8293570372129382 0.5587189855601626 0
vn 0.6530949984075711 0.7572759886956767 0
vn 0.5308221664629514 0.8474832314515602 0
vn 0 0 1
vn 0 0 1
vn 0 0 1
vn 0 0 1
vn 0 0 1
vn 0 0 1
vn 0 0 -1
vn 0 0 -1
vn 0 0 -1
vn 0 0 -1
vn 0 0 -1
vn 0 0 -1
vn 0 0 -1
vn 0 0 -1
vn 0 0 -1
vn 0 0 -1
vn 0 0 -1
vn 0 0 -1
vn 0 0 1
vn 0 0 1
vn 0 0 1
vn 0 0 1
vn 0 0 1
vn 0 0 1
vn 0.9999596610405629 0.008981998198754643 0
vn 0.9999596610405629 0.008981998198754643 0
vn 0.8836777204739538 0.46809580893013425 0
vn 0.9999596610405629 0.008981998198754643 0
vn 0.8836777204739538 0.46809580893013425 0
vn 0.8293570372129382 0.5587189855601626 0
vn -0.9998463551477026 0.017529007326553356 0
vn -0.9999896623471519 0.004546998881565504 0
vn -0.8836777204739538 0.46809580893013425 0
vn -0.9998463551477026 0.017529007326553356 0
vn -0.8836777204739538 0.46809580893013425 0
vn -0.8293570372129382 0.5587189855601626 0
vn 0 -1 0
vn 0 -1 0
vn 0 -1 0
vn 0 -1 0
vn 0 -1 0
vn 0 -1 0
vn 0 0 -1
vn 0 0 -1
vn 0 0 -1
vn 0 0 -1
vn 0 0 -1
vn 0 0 -1
vn 0 0 1
vn 0 0 1
vn 0 0 1
vn 0 0 1
vn 0 0 1
vn 0 0 1
vn 0.5428850521942239 -0.8398070136073374 0
vn 0.6602366907499296 -0.7510575957858235 0
vn 0.4458759013056786 -0.895094788631265 0
vn 0.5428850521942239 -0.8398070136073374 0
vn 0.4458759013056786 -0.895094788631265 0
vn 0.445881913868194 -0.8950917935526146 0
vn -0.5428990195249008 -0.8397979843979749 0
vn -0.6602482971031134 -0.7510473927605628 0
vn -0.4458918633074516 -0.8950868372600553 0
vn -0.5428990195249008 -0.8397979843979749 0
vn -0.4458918633074516 -0.8950868372600553 0
vn -0.4458918633074516 -0.8950868372600553 0
vn -0.8308502359031309 -0.5564960786022771 0
vn -0.8753723685513004 -0.48344929038823325 0
vn -0.6602482971031134 -0.7510473927605628 0
vn -0.8308502359031309 -0.5564960786022771 0
vn -0.6602482971031134 -0.7510473927605628 0
vn -0.5428990195249008 -0.8397979843979749 0
vn 0.8308502359031309 -0.5564960786022771 0
vn 0.875369801989499 -0.4834539375833703 0
vn 0.6602366907499296 -0.7510575957858235 0
vn 0.8308502359031309 -0.5564960786022771 0
vn 0.6602366907499296 -0.7510575957858235 0
vn 0.5428850521942239 -0.8398070136073374 0
vn 0 0 1
vn 0 0 1
vn 0 0 1
vn 0 0 1
vn 0 0 1
vn 0 0 1
vn 0 0 -1
vn 0 0 -1
vn 0 0 -1
vn 0 0 -1
vn 0 0 -1
vn 0 0 -1
vn 0 0 -1
vn 0 0 -1
vn 0 0 -1
vn 0 0 -1
vn 0 0 -1
vn 0 0 -1
vn 0 0 1
vn 0 0 1
vn 0 0 1
vn 0 0 1
vn 0 0 1
vn 0 0 1
vn 0.9999534955083078 -0.009644004392191319 0
vn 0.9999534955083078 -0.009644004392191319 0
vn 0.875369801989499 -0.4834539375833703 0
vn 0.9999534955083078 -0.009644004392191319 0
vn 0.875369801989499 -0.4834539375833703 0
vn 0.8308502359031309 -0.5564960786022771 0
vn -0.9998223604990656 -0.01884800907461467 0
vn -0.9999880976030422 -0.004879001152782099 0
vn -0.8753723685513004 -0.48344929038823325 0
vn -0.9998223604990656 -0.01884800907461467 0
vn -0.8753723685513004 -0.48344929038823325 0
vn -0.8308502359031309 -0.5564960786022771 0
vn -0.9999896623471519 0.004546998881565504 0
vn -0.9998463551477026 0.017529007326553356 0
vn -0.9999880976030422 -0.004879001152782099 0
vn -0.9999896623471519 0.004546998881565504 0
vn -0.9999880976030422 -0.004879001152782099 0
vn -0.9998223604990656 -0.01884800907461467 0
vn 0.9999596610405629 0.008981998198754643 0
vn 0.9999596610405629 0.008981998198754643 0
vn 0.9999534955083078 -0.009644004392191319 0
vn 0.9999596610405629 0.008981998198754643 0
vn 0.9999534955083078 -0.009644004392191319 0
vn 0.9999534955083078 -0.009644004392191319 0
vn 0 0 1
vn 0 0 1
vn 0 0 1
vn 0 0 1
vn 0 0 1
vn 0 0 1
vn 0 0 -1
vn 0 0 -1
vn 0 0 -1
vn 0 0 -1
vn 0 0 -1
vn 0 0 -1
vn -0.11111499387492478 0.9938075558860355 0
vn -0.254597992806842 0.9670469802748609 0
vn 0.11111499387492478 0.9938075558860355 0
vn -0.11111499387492478 0.9938075558860355 0
vn 0.11111499387492478 0.9938075558860355 0
vn 0.254597992806842 0.9670469802748609 0
vn 0 0 -1
vn 0 0 -1
vn 0 0 -1
vn 0 0 -1
vn 0 0 -1
vn 0 0 -1
vn 0 0 1
vn 0 0 1
vn 0 0 1
vn 0 0 1
vn 0 0 1
vn 0 0 1
vn 0.510499178540632 0.8598782406302301 0
vn 0.5105017979437165 0.8598766855173089 0
vn 0.254597992806842 0.9670469802748609 0
vn 0.510499178540632 0.8598782406302301 0
vn 0.254597992806842 0.9670469802748609 0
vn 0.11111499387492478 0.9938075558860355 0
vn -0.5105049007315764 0.8598748434098089 0
vn -0.5105049007315764 0.8598748434098089 0
vn -0.254597992806842 0.9670469802748609 0
vn -0.5105049007315764 0.8598748434098089 0
vn -0.254597992806842 0.9670469802748609 0
vn -0.11111499387492478 0.9938075558860355 0
vn -0.820566700124482 0.5715507769628336 0
vn -0.8205642804532545 0.571554250832091 0
vn -0.5105049007315764 0.8598748434098089 0
vn -0.8205642804532545 0.571554250832091 0
vn -0.5105049007315764 0.8598748434098089 0
vn -0.5105049007315764 0.8598748434098089 0
vn 0.8870165094889354 0.4617377089799634 0
vn 0.7379835691203633 0.6748186806160378 0
vn 0.510499178540632 0.8598782406302301 0
vn 0.7379835691203633 0.6748186806160378 0
vn 0.5105017979437165 0.8598766855173089 0
vn 0.510499178540632 0.8598782406302301 0
vn 0 0 1
vn 0 0 1
vn 0 0 1
vn 0 0 1
vn 0 0 1
vn 0 0 1
vn 0 0 -1
vn 0 0 -1
vn 0 0 -1
vn 0 0 -1
vn 0 0 -1
vn 0 0 -1
vn 0 0 -1
vn 0 0 -1
vn 0 0 -1
vn 0 0 -1
vn 0 0 -1
vn 0 0 -1
vn 0 0 1
vn 0 0 1
vn 0 0 1
vn 0 0 1
vn 0 0 1
vn 0 0 1
vn 0.9999726862101513 0.007390996797054369 0
vn 0.9996305558390602 0.027179989567539815 0
vn 0.8870165094889354 0.4617377089799634 0
vn 0.9996305558390602 0.027179989567539815 0
vn 0.7379835691203633 0.6748186806160378 0
vn 0.8870165094889354 0.4617377089799634 0
vn -0.9996304742676559 0.027182989449674757 0
vn -0.9999726788170794 0.007391996982833581 0
vn -0.8205642804532545 0.571554250832091 0
vn -0.9996304742676559 0.027182989449674757 0
vn -0.8205642804532545 0.571554250832091 0
vn -0.820566700124482 0.5715507769628336 0
vn 0.06042199481021277 -0.9981729221648696 0
vn 0.14409999892291614 -0.9895631310383466 0
vn -0.06042199481021277 -0.9981729221648696 0
vn 0.06042199481021277 -0.9981729221648696 0
vn -0.06042199481021277 -0.9981729221648696 0
vn -0.14410300594973266 -0.9895626931509957 0
vn 0 0 -1
vn 0 0 -1
vn 0 0 -1
vn 0 0 -1
vn 0 0 -1
vn 0 0 -1
vn 0 0 1
vn 0 0 1
vn 0 0 1
vn 0 0 1
vn 0 0 1
vn 0 0 1
vn 0.4594351880209353 -0.8882112969379344 0
vn 0.5882409003779488 -0.8086857505375868 0
vn 0.14409999892291614 -0.9895631310383466 0
vn 0.4594351880209353 -0.8882112969379344 0
vn 0.14409999892291614 -0.9895631310383466 0
vn 0.06042199481021277 -0.9981729221648696 0
vn -0.4594398765911532 -0.8882088717176303 0
vn -0.5882361374483623 -0.808689215088115 0
vn -0.14410300594973266 -0.9895626931509957 0
vn -0.4594398765911532 -0.8882088717176303 0
vn -0.14410300594973266 -0.9895626931509957 0
vn -0.06042199481021277 -0.9981729221648696 0
vn -0.8168273152063287 -0.5768822558658057 0
vn -0.8877960602882531 -0.46023706427954764 0
vn -0.5882361374483623 -0.808689215088115 0
vn -0.8168273152063287 -0.5768822558658057 0
vn -0.5882361374483623 -0.808689215088115 0
vn -0.4594398765911532 -0.8882088717176303 0
vn 0.8168388589294905 -0.5768659103663242 0
vn 0.8878053359393296 -0.46021917113224886 0
vn 0.5882409003779488 -0.8086857505375868 0
vn 0.8168388589294905 -0.5768659103663242 0
vn 0.5882409003779488 -0.8086857505375868 0
vn 0.4594351880209353 -0.8882112969379344 0
vn 0 0 1
vn 0 0 1
vn 0 0 1
vn 0 0 1
vn 0 0 1
vn 0 0 1
vn 0 0 -1
vn 0 0 -1
vn 0 0 -1
vn 0 0 -1
vn 0 0 -1
vn 0 0 -1
vn 0 0 -1
vn 0 0 -1
vn 0 0 -1
vn 0 0 -1
vn 0 0 -1
vn 0 0 -1
vn 0 0 1
vn 0 0 1
vn 0 0 1
vn 0 0 1
vn 0 0 1
vn 0 0 1
vn 0.9258610821380255 -0.3778640715683407 0
vn 0.9258610821380255 -0.3778640715683407 0
vn 0.8878053359393296 -0.46021917113224886 0
vn 0.9258610821380255 -0.3778640715683407 0
vn 0.8878053359393296 -0.46021917113224886 0
vn 0.8168388589294905 -0.5768659103663242 0
vn -0.9258537983212727 -0.37788191824175954 0
vn -0.9258537983212727 -0.37788191824175954 0
vn -0.8877960602882531 -0.46023706427954764 0
vn -0.9258537983212727 -0.37788191824175954 0
vn -0.8877960602882531 -0.46023706427954764 0
vn -0.8168273152063287 -0.5768822558658057 0
vn -0.9999726788170794 0.007391996982833581 0
vn -0.9996304742676559 0.027182989449674757 0
vn -1 0 0
vn -0.9999726788170794 0.007391996982833581 0
vn -1 0 0
vn -1 0 0
vn 0.9996305558390602 0.027179989567539815 0
vn 0.9999726862101513 0.007390996797054369 0
vn 1 0 0
vn 0.9999726862101513 0.007390996797054369 0
vn 1 0 0
vn 1 0 0
vn 0 0 1
vn 0 0 1
vn 0 0 1
vn 0 0 1
vn 0 0 1
vn 0 0 1
vn 0 0 -1
vn 0 0 -1
vn 0 0 -1
vn 0 0 -1
vn 0 0 -1
vn 0 0 -1
vn -0.11111400201826635 -0.9938076667824034 0
vn -0.254658963024034 -0.9670309263676751 0
vn 0.11117098462056964 -0.993801294111903 0
vn -0.11111400201826635 -0.9938076667824034 0
vn 0.11117098462056964 -0.993801294111903 0
vn 0.254658963024034 -0.9670309263676751 0
vn 0 0 1
vn 0 0 1
vn 0 0 1
vn 0 0 1
vn 0 0 1
vn 0 0 1
vn 0 0 -1
vn 0 0 -1
vn 0 0 -1
vn 0 0 -1
vn 0 0 -1
vn 0 0 -1
vn 0.5105199311871941 -0.8598659196994743 0
vn 0.5105442875214843 -0.8598514583805622 0
vn 0.254658963024034 -0.9670309263676751 0
vn 0.5105199311871941 -0.8598659196994743 0
vn 0.254658963024034 -0.9670309263676751 0
vn 0.11117098462056964 -0.993801294111903 0
vn -0.5105531383851726 -0.8598462030415966 0
vn -0.5105531383851726 -0.8598462030415966 0
vn -0.254658963024034 -0.9670309263676751 0
vn -0.5105531383851726 -0.8598462030415966 0
vn -0.254658963024034 -0.9670309263676751 0
vn -0.11111400201826635 -0.9938076667824034 0
vn -0.8205617853866548 -0.5715578329120031 0
vn -0.8205617853866548 -0.5715578329120031 0
vn -0.5105531383851726 -0.8598462030415966 0
vn -0.8205617853866548 -0.5715578329120031 0
vn -0.5105531383851726 -0.8598462030415966 0
vn -0.5105531383851726 -0.8598462030415966 0
vn 0.8870148598172508 -0.4617408780510805 0
vn 0.7379793834887517 -0.6748232580057996 0
vn 0.5105199311871941 -0.8598659196994743 0
vn 0.7379793834887517 -0.6748232580057996 0
vn 0.5105442875214843 -0.8598514583805622 0
vn 0.5105199311871941 -0.8598659196994743 0
vn 0 0 -1
vn 0 0 -1
vn 0 0 -1
vn 0 0 -1
vn 0 0 -1
vn 0 0 -1
vn 0 0 1
vn 0 0 1
vn 0 0 1
vn 0 0 1
vn 0 0 1
vn 0 0 1
vn 0 0 1
vn 0 0 1
vn 0 0 1
vn 0 0 1
vn 0 0 1
vn 0 0 1
vn 0 0 -1
vn 0 0 -1
vn 0 0 -1
vn 0 0 -1
vn 0 0 -1
vn 0 0 -1
vn 0.9999726862101513 -0.007390996797054369 0
vn 0.9996305830150418 -0.027178990065997954 0
vn 0.8870148598172508 -0.4617408780510805 0
vn 0.9996305830150418 -0.027178990065997954 0
vn 0.7379793834887517 -0.6748232580057996 0
vn 0.8870148598172508 -0.4617408780510805 0
vn -0.9996304734578386 -0.027183019229976416 0
vn -0.9999726788170794 -0.007391996982833581 0
vn -0.8205617853866548 -0.5715578329120031 0
vn -0.9996304734578386 -0.027183019229976416 0
vn -0.8205617853866548 -0.5715578329120031 0
vn -0.8205617853866548 -0.5715578329120031 0
vn 0.06042100019413238 0.998172982371062 0
vn 0.14404098296118606 0.9895717231345968 0
vn -0.06042199481021277 0.9981729221648696 0
vn 0.06042100019413238 0.998172982371062 0
vn -0.06042199481021277 0.9981729221648696 0
vn -0.14410198821346587 0.9895628413561849 0
vn 0 0 1
vn 0 0 1
vn 0 0 1
vn 0 0 1
vn 0 0 1
vn 0 0 1
vn 0 0 -1
vn 0 0 -1
vn 0 0 -1
vn 0 0 -1
vn 0 0 -1
vn 0 0 -1
vn 0.459385888754507 0.8882367956875192 0
vn 0.5882409003779488 0.8086857505375868 0
vn 0.14404098296118606 0.9895717231345968 0
vn 0.459385888754507 0.8882367956875192 0
vn 0.14404098296118606 0.9895717231345968 0
vn 0.06042100019413238 0.998172982371062 0
vn -0.45943916637474347 0.888209239087773 0
vn -0.5882361374483623 0.808689215088115 0
vn -0.14410198821346587 0.9895628413561849 0
vn -0.45943916637474347 0.888209239087773 0
vn -0.14410198821346587 0.9895628413561849 0
vn -0.06042199481021277 0.9981729221648696 0
vn -0.8168273152063287 0.5768822558658057 0
vn -0.8877960602882531 0.46023706427954764 0
vn -0.5882361374483623 0.808689215088115 0
vn -0.8168273152063287 0.5768822558658057 0
vn -0.5882361374483623 0.808689215088115 0
vn -0.45943916637474347 0.888209239087773 0
vn 0.8168505543353025 0.5768493493817157 0
vn 0.8878100471363647 0.4602100826836869 0
vn 0.5882409003779488 0.8086857505375868 0
vn 0.8168505543353025 0.5768493493817157 0
vn 0.5882409003779488 0.8086857505375868 0
vn 0.459385888754507 0.8882367956875192 0
vn 0 0 -1
vn 0 0 -1
vn 0 0 -1
vn 0 0 -1
vn 0 0 -1
vn 0 0 -1
vn 0 0 1
vn 0 0 1
vn 0 0 1
vn 0 0 1
vn 0 0 1
vn 0 0 1
vn 0 0 1
vn 0 0 1
vn 0 0 1
vn 0 0 1
vn 0 0 1
vn 0 0 1
vn 0 0 -1
vn 0 0 -1
vn 0 0 -1
vn 0 0 -1
vn 0 0 -1
vn 0 0 -1
vn 0.9258598901443623 0.3778669922365131 0
vn 0.925859041146291 0.3778690724677934 0
vn 0.8878100471363647 0.4602100826836869 0
vn 0.9258598901443623 0.3778669922365131 0
vn 0.8878100471363647 0.4602100826836869 0
vn 0.8168505543353025 0.5768493493817157 0
vn -0.9258537983212727 0.37788191824175954 0
vn -0.9258537983212727 0.37788191824175954 0
vn -0.8877960602882531 0.46023706427954764 0
vn -0.9258537983212727 0.37788191824175954 0
vn -0.8877960602882531 0.46023706427954764 0
vn -0.8168273152063287 0.5768822558658057 0
vn -0.9999726788170794 -0.007391996982833581 0
vn -0.9996304734578386 -0.027183019229976416 0
vn -1 0 0
vn -0.9999726788170794 -0.007391996982833581 0
vn -1 0 0
vn -1 0 0
vn 0.9996305830150418 -0.027178990065997954 0
vn 0.9999726862101513 -0.007390996797054369 0
vn 1 0 0
vn 0.9999726862101513 -0.007390996797054369 0
vn 1 0 0
vn 1 0 0
vn 0 0 -1
vn 0 0 -1
vn 0 0 -1
vn 0 0 -1
vn 0 0 -1
vn 0 0 -1
vn 0 0 1
vn 0 0 1
vn 0 0 1
vn 0 0 1
vn 0 0 1
vn 0 0 1
f 1/1/1 2/2/2 3/3/3
f 4/4/4 5/5/5 6/6/6
f 7/7/7 8/8/8 9/9/9
f 10/10/10 11/11/11 12/12/12
f 13/13/13 14/14/14 15/15/15
f 16/16/16 17/17/17 18/18/18
f 19/19/19 20/20/20 21/21/21
f 22/22/22 23/23/23 24/24/24
f 25/25/25 26/26/26 27/27/27
f 28/28/28 29/29/29 30/30/30
f 31/31/31 32/32/32 33/33/33
f 34/34/34 35/35/35 36/36/36
f 37/37/37 38/38/38 39/39/39
f 40/40/40 41/41/41 42/42/42
f 43/43/43 44/44/44 45/45/45
f 46/46/46 47/47/47 48/48/48
f 49/49/49 50/50/50 51/51/51
f 52/52/52 53/53/53 54/54/54
f 55/55/55 56/56/56 57/57/57
f 58/58/58 59/59/59 60/60/60
f 61/61/61 62/62/62 63/63/63
f 64/64/64 65/65/65 66/66/66
f 67/67/67 68/68/68 69/69/69
f 70/70/70 71/71/71 72/72/72
f 73/73/73 74/74/74 75/75/75
f 76/76/76 77/77/77 78/78/78
f 79/79/79 80/80/80 81/81/81
f 82/82/82 83/83/83 84/84/84
f 85/85/85 86/86/86 87/87/87
f 88/88/88 89/89/89 90/90/90
f 91/91/91 92/92/92 93/93/93
f 94/94/94 95/95/95 96/96/96
f 97/97/97 98/98/98 99/99/99
f 100/100/100 101/101/101 102/102/102
f 103/103/103 104/104/104 105/105/105
f 106/106/106 107/107/107 108/108/108
f 109/109/109 110/110/110 111/111/111
f 112/112/112 113/113/113 114/114/114
f 115/115/115 116/116/116 117/117/117
f 118/118/118 119/119/119 120/120/120
f 121/121/121 122/122/122 123/123/123
f 124/124/124 125/125/125 126/126/126
f 127/127/127 128/128/128 129/129/129
f 130/130/130 131/131/131 132/132/132
f 133/133/133 134/134/134 135/135/135
f 136/136/136 137/137/137 138/138/138
f 139/139/139 140/140/140 141/141/141
f 142/142/142 143/143/143 144/144/144
f 145/145/145 146/146/146 147/147/147
f 148/148/148 149/149/149 150/150/150
f 151/151/151 152/152/152 153/153/153
f 154/154/154 155/155/155 156/156/156
f 157/157/157 158/158/158 159/159/159
f 160/160/160 161/161/161 162/162/162
f 163/163/163 164/164/164 165/165/165
f 166/166/166 167/167/167 168/168/168
f 169/169/169 170/170/170 171/171/171
f 172/172/172 173/173/173 174/174/174
f 175/175/175 176/176/176 177/177/177
f 178/178/178 179/179/179 180/180/180
f 181/181/181 182/182/182 183/183/183
f 184/184/184 185/185/185 186/186/186
f 187/187/187 188/188/188 189/189/189
f 190/190/190 191/191/191 192/192/192
f 193/193/193 194/194/194 195/195/195
f 196/196/196 197/197/197 198/198/198
f 199/199/199 200/200/200 201/201/201
f 202/202/202 203/203/203 204/204/204
f 205/205/205 206/206/206 207/207/207
f 208/208/208 209/209/209 210/210/210
f 211/211/211 212/212/212 213/213/213
f 214/214/214 215/215/215 216/216/216
f 217/217/217 218/218/218 219/219/219
f 220/220/220 221/221/221 222/222/222
f 223/223/223 224/224/224 225/225/225
f 226/226/226 227/227/227 228/228/228
f 229/229/229 230/230/230 231/231/231
f 232/232/232 233/233/233 234/234/234
f 235/235/235 236/236/236 237/237/237
f 238/238/238 239/239/239 240/240/240
f 241/241/241 242/242/242 243/243/243
f 244/244/244 245/245/245 246/246/246
f 247/247/247 248/248/248 249/249/249
f 250/250/250 251/251/251 252/252/252
f 253/253/253 254/254/254 255/255/255
f 256/256/256 257/257/257 258/258/258
f 259/259/259 260/260/260 261/261/261
f 262/262/262 263/263/263 264/264/264
f 265/265/265 266/266/266 267/267/267
f 268/268/268 269/269/269 270/270/270
f 271/271/271 272/272/272 273/273/273
f 274/274/274 275/275/275 276/276/276
f 277/277/277 278/278/278 279/279/279
f 280/280/280 281/281/281 282/282/282
f 283/283/283 284/284/284 285/285/285
f 286/286/286 287/287/287 288/288/288
f 289/289/289 290/290/290 291/291/291
f 292/292/292 293/293/293 294/294/294
f 295/295/295 296/296/296 297/297/297
f 298/298/298 299/299/299 300/300/300
f 301/301/301 302/302/302 303/303/303
f 304/304/304 305/305/305 306/306/306
f 307/307/307 308/308/308 309/309/309
f 310/310/310 311/311/311 312/312/312
f 313/313/313 314/314/314 315/315/315
f 316/316/316 317/317/317 318/318/318
f 319/319/319 320/320/320 321/321/321
f 322/322/322 323/323/323 324/324/324
f 325/325/325 326/326/326 327/327/327
f 328/328/328 329/329/329 330/330/330
f 331/331/331 332/332/332 333/333/333
f 334/334/334 335/335/335 336/336/336
f 337/337/337 338/338/338 339/339/339
f 340/340/340 341/341/341 342/342/342
f 343/343/343 344/344/344 345/345/345
f 346/346/346 347/347/347 348/348/348
f 349/349/349 350/350/350 351/351/351
f 352/352/352 353/353/353 354/354/354
f 355/355/355 356/356/356 357/357/357
f 358/358/358 359/359/359 360/360/360
f 361/361/361 362/362/362 363/363/363
f 364/364/364 365/365/365 366/366/366
f 367/367/367 368/368/368 369/369/369
f 370/370/370 371/371/371 372/372/372
f 373/373/373 374/374/374 375/375/375
f 376/376/376 377/377/377 378/378/378
f 379/379/379 380/380/380 381/381/381
f 382/382/382 383/383/383 384/384/384
f 385/385/385 386/386/386 387/387/387
f 388/388/388 389/389/389 390/390/390
f 391/391/391 392/392/392 393/393/393
f 394/394/394 395/395/395 396/396/396
f 397/397/397 398/398/398 399/399/399
f 400/400/400 401/401/401 402/402/402
f 403/403/403 404/404/404 405/405/405
f 406/406/406 407/407/407 408/408/408
f 409/409/409 410/410/410 411/411/411
f 412/412/412 413/413/413 414/414/414
f 415/415/415 416/416/416 417/417/417
f 418/418/418 419/419/419 420/420/420
f 421/421/421 422/422/422 423/423/423
f 424/424/424 425/425/425 426/426/426
f 427/427/427 428/428/428 429/429/429
f 430/430/430 431/431/431 432/432/432
f 433/433/433 434/434/434 435/435/435
f 436/436/436 437/437/437 438/438/438
f 439/439/439 440/440/440 441/441/441
f 442/442/442 443/443/443 444/444/444
f 445/445/445 446/446/446 447/447/447
f 448/448/448 449/449/449 450/450/450
f 451/451/451 452/452/452 453/453/453
f 454/454/454 455/455/455 456/456/456
f 457/457/457 458/458/458 459/459/459
f 460/460/460 461/461/461 462/462/462
f 463/463/463 464/464/464 465/465/465
f 466/466/466 467/467/467 468/468/468
f 469/469/469 470/470/470 471/471/471
f 472/472/472 473/473/473 474/474/474
f 475/475/475 476/476/476 477/477/477
f 478/478/478 479/479/479 480/480/480
f 481/481/481 482/482/482 483/483/483
f 484/484/484 485/485/485 486/486/486
f 487/487/487 488/488/488 489/489/489
f 490/490/490 491/491/491 492/492/492
f 493/493/493 494/494/494 495/495/495
f 496/496/496 497/497/497 498/498/498
f 499/499/499 500/500/500 501/501/501
f 502/502/502 503/503/503 504/504/504
f 505/505/505 506/506/506 507/507/507
f 508/508/508 509/509/509 510/510/510
f 511/511/511 512/512/512 513/513/513
f 514/514/514 515/515/515 516/516/516
f 517/517/517 518/518/518 519/519/519
f 520/520/520 521/521/521 522/522/522
f 523/523/523 524/524/524 525/525/525
f 526/526/526 527/527/527 528/528/528
f 529/529/529 530/530/530 531/531/531
f 532/532/532 533/533/533 534/534/534
f 535/535/535 536/536/536 537/537/537
f 538/538/538 539/539/539 540/540/540
