o Mesh
usemtl material_7
v -0.49670499563217163 0.03911599889397621 -0.23893700540065765
v -0.4901840090751648 0.051816001534461975 -0.2600879967212677
v -0.49670499563217163 0.051816001534461975 -0.23893700540065765
v -0.49670499563217163 0.03911599889397621 -0.23893700540065765
v -0.4901840090751648 0.03911599889397621 -0.2600879967212677
v -0.4901840090751648 0.051816001534461975 -0.2600879967212677
v -0.4901840090751648 0.03911599889397621 -0.2600879967212677
v -0.5082870125770569 0.051816001534461975 -0.2728239893913269
v -0.4901840090751648 0.051816001534461975 -0.2600879967212677
v -0.4901840090751648 0.03911599889397621 -0.2600879967212677
v -0.5082870125770569 0.03911599889397621 -0.2728239893913269
v -0.5082870125770569 0.051816001534461975 -0.2728239893913269
v -0.5082870125770569 0.03911599889397621 -0.2728239893913269
v -0.5259929895401001 0.051816001534461975 -0.2595449984073639
v -0.5082870125770569 0.051816001534461975 -0.2728239893913269
v -0.5082870125770569 0.03911599889397621 -0.2728239893913269
v -0.5259929895401001 0.03911599889397621 -0.2595449984073639
v -0.5259929895401001 0.051816001534461975 -0.2595449984073639
v -0.5259929895401001 0.03911599889397621 -0.2595449984073639
v -0.5188360214233398 0.051816001534461975 -0.23860099911689758
v -0.5259929895401001 0.051816001534461975 -0.2595449984073639
v -0.5259929895401001 0.03911599889397621 -0.2595449984073639
v -0.5188360214233398 0.03911599889397621 -0.23860099911689758
v -0.5188360214233398 0.051816001534461975 -0.23860099911689758
v -0.5188360214233398 0.03911599889397621 -0.23860099911689758
v -0.49670499563217163 0.051816001534461975 -0.23893700540065765
v -0.5188360214233398 0.051816001534461975 -0.23860099911689758
v -0.5188360214233398 0.03911599889397621 -0.23860099911689758
v -0.49670499563217163 0.03911599889397621 -0.23893700540065765
v -0.49670499563217163 0.051816001534461975 -0.23893700540065765
v -0.5080000162124634 0.03911599889397621 -0.2539989948272705
v -0.4901840090751648 0.03911599889397621 -0.2600879967212677
v -0.49670499563217163 0.03911599889397621 -0.23893700540065765
v -0.5080000162124634 0.03911599889397621 -0.2539989948272705
v -0.5082870125770569 0.03911599889397621 -0.2728239893913269
v -0.4901840090751648 0.03911599889397621 -0.2600879967212677
v -0.5080000162124634 0.03911599889397621 -0.2539989948272705
v -0.5259929895401001 0.03911599889397621 -0.2595449984073639
v -0.5082870125770569 0.03911599889397621 -0.2728239893913269
v -0.5080000162124634 0.03911599889397621 -0.2539989948272705
v -0.5188360214233398 0.03911599889397621 -0.23860099911689758
v -0.5259929895401001 0.03911599889397621 -0.2595449984073639
v -0.5080000162124634 0.03911599889397621 -0.2539989948272705
v -0.49670499563217163 0.03911599889397621 -0.23893700540065765
v -0.5188360214233398 0.03911599889397621 -0.23860099911689758
v -0.5080000162124634 0.051816001534461975 -0.2539989948272705
v -0.49670499563217163 0.051816001534461975 -0.23893700540065765
v -0.4901840090751648 0.051816001534461975 -0.2600879967212677
v -0.5080000162124634 0.051816001534461975 -0.2539989948272705
v -0.4901840090751648 0.051816001534461975 -0.2600879967212677
v -0.5082870125770569 0.051816001534461975 -0.2728239893913269
v -0.5080000162124634 0.051816001534461975 -0.2539989948272705
v -0.5082870125770569 0.051816001534461975 -0.2728239893913269
v -0.5259929895401001 0.051816001534461975 -0.2595449984073639
v -0.5080000162124634 0.051816001534461975 -0.2539989948272705
v -0.5259929895401001 0.051816001534461975 -0.2595449984073639
v -0.5188360214233398 0.051816001534461975 -0.23860099911689758
v -0.5080000162124634 0.051816001534461975 -0.2539989948272705
v -0.5188360214233398 0.051816001534461975 -0.23860099911689758
v -0.49670499563217163 0.051816001534461975 -0.23893700540065765
v 0.5192980170249939 0.03911599889397621 0.26906201243400574
v 0.525816023349762 0.051816001534461975 0.24790999293327332
v 0.5192980170249939 0.051816001534461975 0.26906201243400574
v 0.5192980170249939 0.03911599889397621 0.26906201243400574
v 0.525816023349762 0.03911599889397621 0.24790999293327332
v 0.525816023349762 0.051816001534461975 0.24790999293327332
v 0.525816023349762 0.03911599889397621 0.24790999293327332
v 0.5077160000801086 0.051816001534461975 0.2351740002632141
v 0.525816023349762 0.051816001534461975 0.24790999293327332
v 0.525816023349762 0.03911599889397621 0.24790999293327332
v 0.5077160000801086 0.03911599889397621 0.2351740002632141
v 0.5077160000801086 0.051816001534461975 0.2351740002632141
v 0.5077160000801086 0.03911599889397621 0.2351740002632141
v 0.4900070130825043 0.051816001534461975 0.2484540045261383
v 0.5077160000801086 0.051816001534461975 0.2351740002632141
v 0.5077160000801086 0.03911599889397621 0.2351740002632141
v 0.4900070130825043 0.03911599889397621 0.2484540045261383
v 0.4900070130825043 0.051816001534461975 0.2484540045261383
v 0.4900070130825043 0.03911599889397621 0.2484540045261383
v 0.4971669912338257 0.051816001534461975 0.26939699053764343
v 0.4900070130825043 0.051816001534461975 0.2484540045261383
v 0.4900070130825043 0.03911599889397621 0.2484540045261383
v 0.4971669912338257 0.03911599889397621 0.26939699053764343
v 0.4971669912338257 0.051816001534461975 0.26939699053764343
v 0.4971669912338257 0.03911599889397621 0.26939699053764343
v 0.5192980170249939 0.051816001534461975 0.26906201243400574
v 0.4971669912338257 0.051816001534461975 0.26939699053764343
v 0.4971669912338257 0.03911599889397621 0.26939699053764343
v 0.5192980170249939 0.03911599889397621 0.26906201243400574
v 0.5192980170249939 0.051816001534461975 0.26906201243400574
v 0.5080000162124634 0.03911599889397621 0.2539989948272705
v 0.525816023349762 0.03911599889397621 0.24790999293327332
v 0.5192980170249939 0.03911599889397621 0.26906201243400574
v 0.5080000162124634 0.03911599889397621 0.2539989948272705
v 0.5077160000801086 0.03911599889397621 0.2351740002632141
v 0.525816023349762 0.03911599889397621 0.24790999293327332
v 0.5080000162124634 0.03911599889397621 0.2539989948272705
v 0.4900070130825043 0.03911599889397621 0.2484540045261383
v 0.5077160000801086 0.03911599889397621 0.2351740002632141
v 0.5080000162124634 0.03911599889397621 0.2539989948272705
v 0.4971669912338257 0.03911599889397621 0.26939699053764343
v 0.4900070130825043 0.03911599889397621 0.2484540045261383
v 0.5080000162124634 0.03911599889397621 0.2539989948272705
v 0.5192980170249939 0.03911599889397621 0.26906201243400574
v 0.4971669912338257 0.03911599889397621 0.26939699053764343
v 0.5080000162124634 0.051816001534461975 0.2539989948272705
v 0.5192980170249939 0.051816001534461975 0.26906201243400574
v 0.525816023349762 0.051816001534461975 0.24790999293327332
v 0.5080000162124634 0.051816001534461975 0.2539989948272705
v 0.525816023349762 0.051816001534461975 0.24790999293327332
v 0.5077160000801086 0.051816001534461975 0.2351740002632141
v 0.5080000162124634 0.051816001534461975 0.2539989948272705
v 0.5077160000801086 0.051816001534461975 0.2351740002632141
v 0.4900070130825043 0.051816001534461975 0.2484540045261383
v 0.5080000162124634 0.051816001534461975 0.2539989948272705
v 0.4900070130825043 0.051816001534461975 0.2484540045261383
v 0.4971669912338257 0.051816001534461975 0.26939699053764343
v 0.5080000162124634 0.051816001534461975 0.2539989948272705
v 0.4971669912338257 0.051816001534461975 0.26939699053764343
v 0.5192980170249939 0.051816001534461975 0.26906201243400574
v 0.5188000202178955 0.03911599889397621 -0.2385769933462143
v 0.5260059833526611 0.051816001534461975 -0.2595039904117584
v 0.5188000202178955 0.051816001534461975 -0.2385769933462143
v 0.5188000202178955 0.03911599889397621 -0.2385769933462143
v 0.5260059833526611 0.03911599889397621 -0.2595039904117584
v 0.5260059833526611 0.051816001534461975 -0.2595039904117584
v 0.5260059833526611 0.03911599889397621 -0.2595039904117584
v 0.5083280205726624 0.051816001534461975 -0.2728239893913269
v 0.5260059833526611 0.051816001534461975 -0.2595039904117584
v 0.5260059833526611 0.03911599889397621 -0.2595039904117584
v 0.5083280205726624 0.03911599889397621 -0.2728239893913269
v 0.5083280205726624 0.051816001534461975 -0.2728239893913269
v 0.5083280205726624 0.03911599889397621 -0.2728239893913269
v 0.49019700288772583 0.051816001534461975 -0.26012900471687317
v 0.5083280205726624 0.051816001534461975 -0.2728239893913269
v 0.5083280205726624 0.03911599889397621 -0.2728239893913269
v 0.49019700288772583 0.03911599889397621 -0.26012900471687317
v 0.49019700288772583 0.051816001534461975 -0.26012900471687317
v 0.49019700288772583 0.03911599889397621 -0.26012900471687317
v 0.4966689944267273 0.051816001534461975 -0.23896299302577972
v 0.49019700288772583 0.051816001534461975 -0.26012900471687317
v 0.49019700288772583 0.03911599889397621 -0.26012900471687317
v 0.4966689944267273 0.03911599889397621 -0.23896299302577972
v 0.4966689944267273 0.051816001534461975 -0.23896299302577972
v 0.4966689944267273 0.03911599889397621 -0.23896299302577972
v 0.5188000202178955 0.051816001534461975 -0.2385769933462143
v 0.4966689944267273 0.051816001534461975 -0.23896299302577972
v 0.4966689944267273 0.03911599889397621 -0.23896299302577972
v 0.5188000202178955 0.03911599889397621 -0.2385769933462143
v 0.5188000202178955 0.051816001534461975 -0.2385769933462143
v 0.5080000162124634 0.03911599889397621 -0.2540000081062317
v 0.5260059833526611 0.03911599889397621 -0.2595039904117584
v 0.5188000202178955 0.03911599889397621 -0.2385769933462143
v 0.5080000162124634 0.03911599889397621 -0.2540000081062317
v 0.5083280205726624 0.03911599889397621 -0.2728239893913269
v 0.5260059833526611 0.03911599889397621 -0.2595039904117584
v 0.5080000162124634 0.03911599889397621 -0.2540000081062317
v 0.49019700288772583 0.03911599889397621 -0.26012900471687317
v 0.5083280205726624 0.03911599889397621 -0.2728239893913269
v 0.5080000162124634 0.03911599889397621 -0.2540000081062317
v 0.4966689944267273 0.03911599889397621 -0.23896299302577972
v 0.49019700288772583 0.03911599889397621 -0.26012900471687317
v 0.5080000162124634 0.03911599889397621 -0.2540000081062317
v 0.5188000202178955 0.03911599889397621 -0.2385769933462143
v 0.4966689944267273 0.03911599889397621 -0.23896299302577972
v 0.5080000162124634 0.051816001534461975 -0.2540000081062317
v 0.5188000202178955 0.051816001534461975 -0.2385769933462143
v 0.5260059833526611 0.051816001534461975 -0.2595039904117584
v 0.5080000162124634 0.051816001534461975 -0.2540000081062317
v 0.5260059833526611 0.051816001534461975 -0.2595039904117584
v 0.5083280205726624 0.051816001534461975 -0.2728239893913269
v 0.5080000162124634 0.051816001534461975 -0.2540000081062317
v 0.5083280205726624 0.051816001534461975 -0.2728239893913269
v 0.49019700288772583 0.051816001534461975 -0.26012900471687317
v 0.5080000162124634 0.051816001534461975 -0.2540000081062317
v 0.49019700288772583 0.051816001534461975 -0.26012900471687317
v 0.4966689944267273 0.051816001534461975 -0.23896299302577972
v 0.5080000162124634 0.051816001534461975 -0.2540000081062317
v 0.4966689944267273 0.051816001534461975 -0.23896299302577972
v 0.5188000202178955 0.051816001534461975 -0.2385769933462143
v -0.49720001220703125 0.03911599889397621 0.2694230079650879
v -0.48999398946762085 0.051816001534461975 0.24849499762058258
v -0.49720001220703125 0.051816001534461975 0.2694230079650879
v -0.49720001220703125 0.03911599889397621 0.2694230079650879
v -0.48999398946762085 0.03911599889397621 0.24849499762058258
v -0.48999398946762085 0.051816001534461975 0.24849499762058258
v -0.48999398946762085 0.03911599889397621 0.24849499762058258
v -0.5076720118522644 0.051816001534461975 0.2351749986410141
v -0.48999398946762085 0.051816001534461975 0.24849499762058258
v -0.48999398946762085 0.03911599889397621 0.24849499762058258
v -0.5076720118522644 0.03911599889397621 0.2351749986410141
v -0.5076720118522644 0.051816001534461975 0.2351749986410141
v -0.5076720118522644 0.03911599889397621 0.2351749986410141
v -0.5258030295372009 0.051816001534461975 0.24786999821662903
v -0.5076720118522644 0.051816001534461975 0.2351749986410141
v -0.5076720118522644 0.03911599889397621 0.2351749986410141
v -0.5258030295372009 0.03911599889397621 0.24786999821662903
v -0.5258030295372009 0.051816001534461975 0.24786999821662903
v -0.5258030295372009 0.03911599889397621 0.24786999821662903
v -0.5193309783935547 0.051816001534461975 0.26903700828552246
v -0.5258030295372009 0.051816001534461975 0.24786999821662903
v -0.5258030295372009 0.03911599889397621 0.24786999821662903
v -0.5193309783935547 0.03911599889397621 0.26903700828552246
v -0.5193309783935547 0.051816001534461975 0.26903700828552246
v -0.5193309783935547 0.03911599889397621 0.26903700828552246
v -0.49720001220703125 0.051816001534461975 0.2694230079650879
v -0.5193309783935547 0.051816001534461975 0.26903700828552246
v -0.5193309783935547 0.03911599889397621 0.26903700828552246
v -0.49720001220703125 0.03911599889397621 0.2694230079650879
v -0.49720001220703125 0.051816001534461975 0.2694230079650879
v -0.5080000162124634 0.03911599889397621 0.2540000081062317
v -0.48999398946762085 0.03911599889397621 0.24849499762058258
v -0.49720001220703125 0.03911599889397621 0.2694230079650879
v -0.5080000162124634 0.03911599889397621 0.2540000081062317
v -0.5076720118522644 0.03911599889397621 0.2351749986410141
v -0.48999398946762085 0.03911599889397621 0.24849499762058258
v -0.5080000162124634 0.03911599889397621 0.2540000081062317
v -0.5258030295372009 0.03911599889397621 0.24786999821662903
v -0.5076720118522644 0.03911599889397621 0.2351749986410141
v -0.5080000162124634 0.03911599889397621 0.2540000081062317
v -0.5193309783935547 0.03911599889397621 0.26903700828552246
v -0.5258030295372009 0.03911599889397621 0.24786999821662903
v -0.5080000162124634 0.03911599889397621 0.2540000081062317
v -0.49720001220703125 0.03911599889397621 0.2694230079650879
v -0.5193309783935547 0.03911599889397621 0.26903700828552246
v -0.5080000162124634 0.051816001534461975 0.2540000081062317
v -0.49720001220703125 0.051816001534461975 0.2694230079650879
v -0.48999398946762085 0.051816001534461975 0.24849499762058258
v -0.5080000162124634 0.051816001534461975 0.2540000081062317
v -0.48999398946762085 0.051816001534461975 0.24849499762058258
v -0.5076720118522644 0.051816001534461975 0.2351749986410141
v -0.5080000162124634 0.051816001534461975 0.2540000081062317
v -0.5076720118522644 0.051816001534461975 0.2351749986410141
v -0.5258030295372009 0.051816001534461975 0.24786999821662903
v -0.5080000162124634 0.051816001534461975 0.2540000081062317
v -0.5258030295372009 0.051816001534461975 0.24786999821662903
v -0.5193309783935547 0.051816001534461975 0.26903700828552246
v -0.5080000162124634 0.051816001534461975 0.2540000081062317
v -0.5193309783935547 0.051816001534461975 0.26903700828552246
v -0.49720001220703125 0.051816001534461975 0.2694230079650879
vt -0.0008019999950192869 0.3264729976654053
vt 0.2029770016670227 0.014833999797701836
vt -0.00013600000238511711 0.015166999772191048
vt -0.0008019999950192869 0.3264729976654053
vt 0.20222799479961395 0.32717400789260864
vt 0.2029770016670227 0.014833999797701836
vt 0.20222799479961395 0.32717400789260864
vt 0.39860498905181885 0.014462999999523163
vt 0.2029770016670227 0.014833999797701836
vt 0.20222799479961395 0.32717400789260864
vt 0.40161898732185364 0.32607999444007874
vt 0.39860498905181885 0.014462999999523163
vt 0.40161898732185364 0.32607999444007874
vt 0.5926690101623535 0.01477499958127737
vt 0.39860498905181885 0.014462999999523163
vt 0.40161898732185364 0.32607999444007874
vt 0.5920019745826721 0.32607999444007874
vt 0.5926690101623535 0.01477499958127737
vt 0.5920019745826721 0.32607999444007874
vt 0.7974600195884705 0.01477499958127737
vt 0.5926690101623535 0.01477499958127737
vt 0.5920019745826721 0.32607999444007874
vt 0.7967939972877502 0.32607999444007874
vt 0.7974600195884705 0.01477499958127737
vt 0.7967939972877502 0.32607999444007874
vt 0.9996320009231567 0.01477499958127737
vt 0.7974600195884705 0.01477499958127737
vt 0.7967939972877502 0.32607999444007874
vt 0.9989659786224365 0.32607999444007874
vt 0.9996320009231567 0.01477499958127737
vt 0.25267499685287476 0.6218760013580322
vt 0.251350998878479 0.8830689787864685
vt 0.5006750226020813 0.7038480043411255
vt 0.25267499685287476 0.6218760013580322
vt 0.0038560000248253345 0.7013300061225891
vt 0.251350998878479 0.8830689787864685
vt 0.25267499685287476 0.6218760013580322
vt 0.10022100061178207 0.40978801250457764
vt 0.0038560000248253345 0.7013300061225891
vt 0.25267499685287476 0.6218760013580322
vt 0.40727201104164124 0.4113450050354004
vt 0.10022100061178207 0.40978801250457764
vt 0.25267499685287476 0.6218760013580322
vt 0.5006750226020813 0.7038480043411255
vt 0.40727201104164124 0.4113450050354004
vt 0.7479739785194397 0.6217160224914551
vt 0.9800220131874084 0.6902170181274414
vt 0.7346569895744324 0.8546590209007263
vt 0.7479739785194397 0.6217160224914551
vt 0.7346569895744324 0.8546590209007263
vt 0.524101972579956 0.6929399967193604
vt 0.7479739785194397 0.6217160224914551
vt 0.524101972579956 0.6929399967193604
vt 0.6236929893493652 0.4371280074119568
vt 0.7479739785194397 0.6217160224914551
vt 0.6236929893493652 0.4371280074119568
vt 0.8982849717140198 0.44304999709129333
vt 0.7479739785194397 0.6217160224914551
vt 0.8982849717140198 0.44304999709129333
vt 0.9800220131874084 0.6902170181274414
vt -0.0008019999950192869 0.3264729976654053
vt 0.2029770016670227 0.014833999797701836
vt -0.00013600000238511711 0.015166999772191048
vt -0.0008019999950192869 0.3264729976654053
vt 0.20222799479961395 0.32717400789260864
vt 0.2029770016670227 0.014833999797701836
vt 0.20222799479961395 0.32717400789260864
vt 0.39860498905181885 0.014462999999523163
vt 0.2029770016670227 0.014833999797701836
vt 0.20222799479961395 0.32717400789260864
vt 0.40161898732185364 0.32607999444007874
vt 0.39860498905181885 0.014462999999523163
vt 0.40161898732185364 0.32607999444007874
vt 0.5926690101623535 0.01477499958127737
vt 0.39860498905181885 0.014462999999523163
vt 0.40161898732185364 0.32607999444007874
vt 0.5920019745826721 0.32607999444007874
vt 0.5926690101623535 0.01477499958127737
vt 0.5920019745826721 0.32607999444007874
vt 0.7974600195884705 0.01477499958127737
vt 0.5926690101623535 0.01477499958127737
vt 0.5920019745826721 0.32607999444007874
vt 0.7967939972877502 0.32607999444007874
vt 0.7974600195884705 0.01477499958127737
vt 0.7967939972877502 0.32607999444007874
vt 0.9996320009231567 0.01477499958127737
vt 0.7974600195884705 0.01477499958127737
vt 0.7967939972877502 0.32607999444007874
vt 0.9989659786224365 0.32607999444007874
vt 0.9996320009231567 0.01477499958127737
vt 0.25267499685287476 0.6218760013580322
vt 0.251350998878479 0.8830689787864685
vt 0.5006750226020813 0.7038480043411255
vt 0.25267499685287476 0.6218760013580322
vt 0.0038560000248253345 0.7013300061225891
vt 0.251350998878479 0.8830689787864685
vt 0.25267499685287476 0.6218760013580322
vt 0.10022100061178207 0.40978801250457764
vt 0.0038560000248253345 0.7013300061225891
vt 0.25267499685287476 0.6218760013580322
vt 0.40727201104164124 0.4113450050354004
vt 0.10022100061178207 0.40978801250457764
vt 0.25267499685287476 0.6218760013580322
vt 0.5006750226020813 0.7038480043411255
vt 0.40727201104164124 0.4113450050354004
vt 0.7479739785194397 0.6217160224914551
vt 0.9800220131874084 0.6902170181274414
vt 0.7346569895744324 0.8546590209007263
vt 0.7479739785194397 0.6217160224914551
vt 0.7346569895744324 0.8546590209007263
vt 0.524101972579956 0.6929399967193604
vt 0.7479739785194397 0.6217160224914551
vt 0.524101972579956 0.6929399967193604
vt 0.6236929893493652 0.4371280074119568
vt 0.7479739785194397 0.6217160224914551
vt 0.6236929893493652 0.4371280074119568
vt 0.8982849717140198 0.44304999709129333
vt 0.7479739785194397 0.6217160224914551
vt 0.8982849717140198 0.44304999709129333
vt 0.9800220131874084 0.6902170181274414
vt -0.0008019999950192869 0.3264729976654053
vt 0.2029770016670227 0.014833999797701836
vt -0.00013600000238511711 0.015166999772191048
vt -0.0008019999950192869 0.3264729976654053
vt 0.20222799479961395 0.32717400789260864
vt 0.2029770016670227 0.014833999797701836
vt 0.20222799479961395 0.32717400789260864
vt 0.39860498905181885 0.014462999999523163
vt 0.2029770016670227 0.014833999797701836
vt 0.20222799479961395 0.32717400789260864
vt 0.40161898732185364 0.32607999444007874
vt 0.39860498905181885 0.014462999999523163
vt 0.40161898732185364 0.32607999444007874
vt 0.5926690101623535 0.01477499958127737
vt 0.39860498905181885 0.014462999999523163
vt 0.40161898732185364 0.32607999444007874
vt 0.5920019745826721 0.32607999444007874
vt 0.5926690101623535 0.01477499958127737
vt 0.5920019745826721 0.32607999444007874
vt 0.7974600195884705 0.01477499958127737
vt 0.5926690101623535 0.01477499958127737
vt 0.5920019745826721 0.32607999444007874
vt 0.7967939972877502 0.32607999444007874
vt 0.7974600195884705 0.01477499958127737
vt 0.7967939972877502 0.32607999444007874
vt 0.9996320009231567 0.01477499958127737
vt 0.7974600195884705 0.01477499958127737
vt 0.7967939972877502 0.32607999444007874
vt 0.9989659786224365 0.32607999444007874
vt 0.9996320009231567 0.01477499958127737
vt 0.25267499685287476 0.6218760013580322
vt 0.251350998878479 0.8830689787864685
vt 0.5006750226020813 0.7038480043411255
vt 0.25267499685287476 0.6218760013580322
vt 0.0038560000248253345 0.7013300061225891
vt 0.251350998878479 0.8830689787864685
vt 0.25267499685287476 0.6218760013580322
vt 0.10022100061178207 0.40978801250457764
vt 0.0038560000248253345 0.7013300061225891
vt 0.25267499685287476 0.6218760013580322
vt 0.40727201104164124 0.4113450050354004
vt 0.10022100061178207 0.40978801250457764
vt 0.25267499685287476 0.6218760013580322
vt 0.5006750226020813 0.7038480043411255
vt 0.40727201104164124 0.4113450050354004
vt 0.7479739785194397 0.6217160224914551
vt 0.9800220131874084 0.6902170181274414
vt 0.7346569895744324 0.8546590209007263
vt 0.7479739785194397 0.6217160224914551
vt 0.7346569895744324 0.8546590209007263
vt 0.524101972579956 0.6929399967193604
vt 0.7479739785194397 0.6217160224914551
vt 0.524101972579956 0.6929399967193604
vt 0.6236929893493652 0.4371280074119568
vt 0.7479739785194397 0.6217160224914551
vt 0.6236929893493652 0.4371280074119568
vt 0.8982849717140198 0.44304999709129333
vt 0.7479739785194397 0.6217160224914551
vt 0.8982849717140198 0.44304999709129333
vt 0.9800220131874084 0.6902170181274414
vt -0.0008019999950192869 0.3264729976654053
vt 0.2029770016670227 0.014833999797701836
vt -0.00013600000238511711 0.015166999772191048
vt -0.0008019999950192869 0.3264729976654053
vt 0.20222799479961395 0.32717400789260864
vt 0.2029770016670227 0.014833999797701836
vt 0.20222799479961395 0.32717400789260864
vt 0.39860498905181885 0.014462999999523163
vt 0.2029770016670227 0.014833999797701836
vt 0.20222799479961395 0.32717400789260864
vt 0.40161898732185364 0.32607999444007874
vt 0.39860498905181885 0.014462999999523163
vt 0.40161898732185364 0.32607999444007874
vt 0.5926690101623535 0.01477499958127737
vt 0.39860498905181885 0.014462999999523163
vt 0.40161898732185364 0.32607999444007874
vt 0.5920019745826721 0.32607999444007874
vt 0.5926690101623535 0.01477499958127737
vt 0.5920019745826721 0.32607999444007874
vt 0.7974600195884705 0.01477499958127737
vt 0.5926690101623535 0.01477499958127737
vt 0.5920019745826721 0.32607999444007874
vt 0.7967939972877502 0.32607999444007874
vt 0.7974600195884705 0.01477499958127737
vt 0.7967939972877502 0.32607999444007874
vt 0.9996320009231567 0.01477499958127737
vt 0.7974600195884705 0.01477499958127737
vt 0.7967939972877502 0.32607999444007874
vt 0.9989659786224365 0.32607999444007874
vt 0.9996320009231567 0.01477499958127737
vt 0.25267499685287476 0.6218760013580322
vt 0.251350998878479 0.8830689787864685
vt 0.5006750226020813 0.7038480043411255
vt 0.25267499685287476 0.6218760013580322
vt 0.0038560000248253345 0.7013300061225891
vt 0.251350998878479 0.8830689787864685
vt 0.25267499685287476 0.6218760013580322
vt 0.10022100061178207 0.40978801250457764
vt 0.0038560000248253345 0.7013300061225891
vt 0.25267499685287476 0.6218760013580322
vt 0.40727201104164124 0.4113450050354004
vt 0.10022100061178207 0.40978801250457764
vt 0.25267499685287476 0.6218760013580322
vt 0.5006750226020813 0.7038480043411255
vt 0.40727201104164124 0.4113450050354004
vt 0.7479739785194397 0.6217160224914551
vt 0.9800220131874084 0.6902170181274414
vt 0.7346569895744324 0.8546590209007263
vt 0.7479739785194397 0.6217160224914551
vt 0.7346569895744324 0.8546590209007263
vt 0.524101972579956 0.6929399967193604
vt 0.7479739785194397 0.6217160224914551
vt 0.524101972579956 0.6929399967193604
vt 0.6236929893493652 0.4371280074119568
vt 0.7479739785194397 0.6217160224914551
vt 0.6236929893493652 0.4371280074119568
vt 0.8982849717140198 0.44304999709129333
vt 0.7479739785194397 0.6217160224914551
vt 0.8982849717140198 0.44304999709129333
vt 0.9800220131874084 0.6902170181274414
vn 0.556338068324478 -0.6927239851303624 0.45893510887498884
vn 0.7181523793532038 0.6927453639418906 -0.06603802515482775
vn 0.2847450714583366 0.6927231649968582 0.6626121497202735
vn 0.556338068324478 -0.6927239851303624 0.45893510887498884
vn 0.6083449342219054 -0.6927389749548456 -0.3873359699086254
vn 0.7181523793532038 0.6927453639418906 -0.06603802515482775
vn 0.6083449342219054 -0.6927389749548456 -0.3873359699086254
vn 0.1590921045124544 0.692726340358575 -0.7034343748035161
vn 0.7181523793532038 0.6927453639418906 -0.06603802515482775
vn 0.6083449342219054 -0.6927389749548456 -0.3873359699086254
vn -0.18035107141334356 -0.6927423800620325 -0.6982703530195518
vn 0.1590921045124544 0.692726340358575 -0.7034343748035161
vn -0.18035107141334356 -0.6927423800620325 -0.6982703530195518
vn -0.6198100024630122 0.6927589967517555 -0.36867402033002317
vn 0.1590921045124544 0.692726340358575 -0.7034343748035161
vn -0.18035107141334356 -0.6927423800620325 -0.6982703530195518
vn -0.7198166816317675 -0.692751821880897 -0.04425898920364823
vn -0.6198100024630122 0.6927589967517555 -0.36867402033002317
vn -0.7198166816317675 -0.692751821880897 -0.04425898920364823
vn -0.5421710651270005 0.6927610687992395 0.47553405524230224
vn -0.6198100024630122 0.6927589967517555 -0.36867402033002317
vn -0.7198166816317675 -0.692751821880897 -0.04425898920364823
vn -0.26450789023738047 -0.6927576673936975 0.6709116113687503
vn -0.5421710651270005 0.6927610687992395 0.47553405524230224
vn -0.26450789023738047 -0.6927576673936975 0.6709116113687503
vn 0.2847450714583366 0.6927231649968582 0.6626121497202735
vn -0.5421710651270005 0.6927610687992395 0.47553405524230224
vn -0.26450789023738047 -0.6927576673936975 0.6709116113687503
vn 0.556338068324478 -0.6927239851303624 0.45893510887498884
vn 0.2847450714583366 0.6927231649968582 0.6626121497202735
vn 0 -1 0
vn 0.6083449342219054 -0.6927389749548456 -0.3873359699086254
vn 0.556338068324478 -0.6927239851303624 0.45893510887498884
vn 0 -1 0
vn -0.18035107141334356 -0.6927423800620325 -0.6982703530195518
vn 0.6083449342219054 -0.6927389749548456 -0.3873359699086254
vn 0 -1 0
vn -0.7198166816317675 -0.692751821880897 -0.04425898920364823
vn -0.18035107141334356 -0.6927423800620325 -0.6982703530195518
vn 0 -1 0
vn -0.26450789023738047 -0.6927576673936975 0.6709116113687503
vn -0.7198166816317675 -0.692751821880897 -0.04425898920364823
vn 0 -1 0
vn 0.556338068324478 -0.6927239851303624 0.45893510887498884
vn -0.26450789023738047 -0.6927576673936975 0.6709116113687503
vn 0 1 0
vn 0.2847450714583366 0.6927231649968582 0.6626121497202735
vn 0.7181523793532038 0.6927453639418906 -0.06603802515482775
vn 0 1 0
vn 0.7181523793532038 0.6927453639418906 -0.06603802515482775
vn 0.1590921045124544 0.692726340358575 -0.7034343748035161
vn 0 1 0
vn 0.1590921045124544 0.692726340358575 -0.7034343748035161
vn -0.6198100024630122 0.6927589967517555 -0.36867402033002317
vn 0 1 0
vn -0.6198100024630122 0.6927589967517555 -0.36867402033002317
vn -0.5421710651270005 0.6927610687992395 0.47553405524230224
vn 0 1 0
vn -0.5421710651270005 0.6927610687992395 0.47553405524230224
vn 0.2847450714583366 0.6927231649968582 0.6626121497202735
vn 0.5563479758894669 -0.6927698375312248 0.4588538786265771
vn 0.7181541190966464 0.6927401295454758 -0.06607400503857355
vn 0.2847298985462423 0.6927698864508057 0.6625698222080328
vn 0.5563479758894669 -0.6927698375312248 0.4588538786265771
vn 0.6083552208595541 -0.6927533112448737 -0.38729417115699816
vn 0.7181541190966464 0.6927401295454758 -0.06607400503857355
vn 0.6083552208595541 -0.6927533112448737 -0.38729417115699816
vn 0.15908401118776547 0.6927459416050319 -0.7034169018257728
vn 0.7181541190966464 0.6927401295454758 -0.06607400503857355
vn 0.6083552208595541 -0.6927533112448737 -0.38729417115699816
vn -0.18037189394772354 -0.6927195730407928 -0.6982876004912969
vn 0.15908401118776547 0.6927459416050319 -0.7034169018257728
vn -0.18037189394772354 -0.6927195730407928 -0.6982876004912969
vn -0.6198139270145924 0.6927379458558078 -0.36870697613447095
vn 0.15908401118776547 0.6927459416050319 -0.7034169018257728
vn -0.18037189394772354 -0.6927195730407928 -0.6982876004912969
vn -0.7198160002172761 -0.6927549561322143 -0.044220997110605245
vn -0.6198139270145924 0.6927379458558078 -0.36870697613447095
vn -0.7198160002172761 -0.6927549561322143 -0.044220997110605245
vn -0.54214717407502 0.692732233453363 0.4756032951706553
vn -0.6198139270145924 0.6927379458558078 -0.36870697613447095
vn -0.7198160002172761 -0.6927549561322143 -0.044220997110605245
vn -0.26451599672491205 -0.6927289982294814 0.6709380168753336
vn -0.54214717407502 0.692732233453363 0.4756032951706553
vn -0.26451599672491205 -0.6927289982294814 0.6709380168753336
vn 0.2847298985462423 0.6927698864508057 0.6625698222080328
vn -0.54214717407502 0.692732233453363 0.4756032951706553
vn -0.26451599672491205 -0.6927289982294814 0.6709380168753336
vn 0.5563479758894669 -0.6927698375312248 0.4588538786265771
vn 0.2847298985462423 0.6927698864508057 0.6625698222080328
vn 0 -1 0
vn 0.6083552208595541 -0.6927533112448737 -0.38729417115699816
vn 0.5563479758894669 -0.6927698375312248 0.4588538786265771
vn 0 -1 0
vn -0.18037189394772354 -0.6927195730407928 -0.6982876004912969
vn 0.6083552208595541 -0.6927533112448737 -0.38729417115699816
vn 0 -1 0
vn -0.7198160002172761 -0.6927549561322143 -0.044220997110605245
vn -0.18037189394772354 -0.6927195730407928 -0.6982876004912969
vn 0 -1 0
vn -0.26451599672491205 -0.6927289982294814 0.6709380168753336
vn -0.7198160002172761 -0.6927549561322143 -0.044220997110605245
vn 0 -1 0
vn 0.5563479758894669 -0.6927698375312248 0.4588538786265771
vn -0.26451599672491205 -0.6927289982294814 0.6709380168753336
vn 0 1 0
vn 0.2847298985462423 0.6927698864508057 0.6625698222080328
vn 0.7181541190966464 0.6927401295454758 -0.06607400503857355
vn 0 1 0
vn 0.7181541190966464 0.6927401295454758 -0.06607400503857355
vn 0.15908401118776547 0.6927459416050319 -0.7034169018257728
vn 0 1 0
vn 0.15908401118776547 0.6927459416050319 -0.7034169018257728
vn -0.6198139270145924 0.6927379458558078 -0.36870697613447095
vn 0 1 0
vn -0.6198139270145924 0.6927379458558078 -0.36870697613447095
vn -0.54214717407502 0.692732233453363 0.4756032951706553
vn 0 1 0
vn -0.54214717407502 0.692732233453363 0.4756032951706553
vn 0.2847298985462423 0.6927698864508057 0.6625698222080328
vn 0.5410578275742618 -0.6927627356885311 0.4767978809327519
vn 0.7199069569007048 0.6927610954095599 -0.0426149984502338
vn 0.2629700894176893 0.6927513467153741 0.6715223776581746
vn 0.5410578275742618 -0.6927627356885311 0.4767978809327519
vn 0.6206408565787973 -0.6927487656752473 -0.36729290055833924
vn 0.7199069569007048 0.6927610954095599 -0.0426149984502338
vn 0.6206408565787973 -0.6927487656752473 -0.36729290055833924
vn 0.18194790718290912 0.6927246058560799 -0.6978736128507067
vn 0.7199069569007048 0.6927610954095599 -0.0426149984502338
vn 0.6206408565787973 -0.6927487656752473 -0.36729290055833924
vn -0.1574849843857044 -0.692731168208844 -0.7037911680925276
vn 0.18194790718290912 0.6927246058560799 -0.6978736128507067
vn -0.1574849843857044 -0.692731168208844 -0.7037911680925276
vn -0.6074569188942068 0.6927559334286769 -0.38869693642595055
vn 0.18194790718290912 0.6927246058560799 -0.6978736128507067
vn -0.1574849843857044 -0.692731168208844 -0.7037911680925276
vn -0.7179876434886963 -0.6927576534668607 -0.06767996277066034
vn -0.6074569188942068 0.6927559334286769 -0.38869693642595055
vn -0.7179876434886963 -0.6927576534668607 -0.06767996277066034
vn -0.5573611701859852 0.692758302664905 0.45764009883067425
vn -0.6074569188942068 0.6927559334286769 -0.38869693642595055
vn -0.7179876434886963 -0.6927576534668607 -0.06767996277066034
vn -0.2862317861237498 -0.6927505734271537 0.6619426014608499
vn -0.5573611701859852 0.692758302664905 0.45764009883067425
vn -0.2862317861237498 -0.6927505734271537 0.6619426014608499
vn 0.2629700894176893 0.6927513467153741 0.6715223776581746
vn -0.5573611701859852 0.692758302664905 0.45764009883067425
vn -0.2862317861237498 -0.6927505734271537 0.6619426014608499
vn 0.5410578275742618 -0.6927627356885311 0.4767978809327519
vn 0.2629700894176893 0.6927513467153741 0.6715223776581746
vn 0 -1 0
vn 0.6206408565787973 -0.6927487656752473 -0.36729290055833924
vn 0.5410578275742618 -0.6927627356885311 0.4767978809327519
vn 0 -1 0
vn -0.1574849843857044 -0.692731168208844 -0.7037911680925276
vn 0.6206408565787973 -0.6927487656752473 -0.36729290055833924
vn 0 -1 0
vn -0.7179876434886963 -0.6927576534668607 -0.06767996277066034
vn -0.1574849843857044 -0.692731168208844 -0.7037911680925276
vn 0 -1 0
vn -0.2862317861237498 -0.6927505734271537 0.6619426014608499
vn -0.7179876434886963 -0.6927576534668607 -0.06767996277066034
vn 0 -1 0
vn 0.5410578275742618 -0.6927627356885311 0.4767978809327519
vn -0.2862317861237498 -0.6927505734271537 0.6619426014608499
vn 0 1 0
vn 0.2629700894176893 0.6927513467153741 0.6715223776581746
vn 0.7199069569007048 0.6927610954095599 -0.0426149984502338
vn 0 1 0
vn 0.7199069569007048 0.6927610954095599 -0.0426149984502338
vn 0.18194790718290912 0.6927246058560799 -0.6978736128507067
vn 0 1 0
vn 0.18194790718290912 0.6927246058560799 -0.6978736128507067
vn -0.6074569188942068 0.6927559334286769 -0.38869693642595055
vn 0 1 0
vn -0.6074569188942068 0.6927559334286769 -0.38869693642595055
vn -0.5573611701859852 0.692758302664905 0.45764009883067425
vn 0 1 0
vn -0.5573611701859852 0.692758302664905 0.45764009883067425
vn 0.2629700894176893 0.6927513467153741 0.6715223776581746
vn 0.5410718219053667 -0.692758725839491 0.47678782630563465
vn 0.7199036569116004 0.6927646485266695 -0.042612985309939184
vn 0.2629799851219599 0.6927548669015394 0.6715148708773947
vn 0.5410718219053667 -0.692758725839491 0.47678782630563465
vn 0.6206349118396832 -0.6927598696915128 -0.3672820022145747
vn 0.7199036569116004 0.6927646485266695 -0.042612985309939184
vn 0.6206349118396832 -0.6927598696915128 -0.3672820022145747
vn 0.18194301016771283 0.692743822236479 -0.6978558144805453
vn 0.7199036569116004 0.6927646485266695 -0.042612985309939184
vn 0.6206349118396832 -0.6927598696915128 -0.3672820022145747
vn -0.1574808915917791 -0.6927507943000605 -0.7037727657277549
vn 0.18194301016771283 0.692743822236479 -0.6978558144805453
vn -0.1574808915917791 -0.6927507943000605 -0.7037727657277549
vn -0.6074529942275094 0.6927660767557408 -0.3886849916069467
vn 0.18194301016771283 0.692743822236479 -0.6978558144805453
vn -0.1574808915917791 -0.6927507943000605 -0.7037727657277549
vn -0.717985373156859 -0.6927603901132436 -0.06767603580996902
vn -0.6074529942275094 0.6927660767557408 -0.3886849916069467
vn -0.717985373156859 -0.6927603901132436 -0.06767603580996902
vn -0.5573753602796004 0.6927533606854097 0.45763029730586713
vn -0.6074529942275094 0.6927660767557408 -0.3886849916069467
vn -0.717985373156859 -0.6927603901132436 -0.06767603580996902
vn -0.28624215300973155 -0.6927533047803445 0.6619352600944176
vn -0.5573753602796004 0.6927533606854097 0.45763029730586713
vn -0.28624215300973155 -0.6927533047803445 0.6619352600944176
vn 0.2629799851219599 0.6927548669015394 0.6715148708773947
vn -0.5573753602796004 0.6927533606854097 0.45763029730586713
vn -0.28624215300973155 -0.6927533047803445 0.6619352600944176
vn 0.5410718219053667 -0.692758725839491 0.47678782630563465
vn 0.2629799851219599 0.6927548669015394 0.6715148708773947
vn 0 -1 0
vn 0.6206349118396832 -0.6927598696915128 -0.3672820022145747
vn 0.5410718219053667 -0.692758725839491 0.47678782630563465
vn 0 -1 0
vn -0.1574808915917791 -0.6927507943000605 -0.7037727657277549
vn 0.6206349118396832 -0.6927598696915128 -0.3672820022145747
vn 0 -1 0
vn -0.717985373156859 -0.6927603901132436 -0.06767603580996902
vn -0.1574808915917791 -0.6927507943000605 -0.7037727657277549
vn 0 -1 0
vn -0.28624215300973155 -0.6927533047803445 0.6619352600944176
vn -0.717985373156859 -0.6927603901132436 -0.06767603580996902
vn 0 -1 0
vn 0.5410718219053667 -0.692758725839491 0.47678782630563465
vn -0.28624215300973155 -0.6927533047803445 0.6619352600944176
vn 0 1 0
vn 0.2629799851219599 0.6927548669015394 0.6715148708773947
vn 0.7199036569116004 0.6927646485266695 -0.042612985309939184
vn 0 1 0
vn 0.7199036569116004 0.6927646485266695 -0.042612985309939184
vn 0.18194301016771283 0.692743822236479 -0.6978558144805453
vn 0 1 0
vn 0.18194301016771283 0.692743822236479 -0.6978558144805453
vn -0.6074529942275094 0.6927660767557408 -0.3886849916069467
vn 0 1 0
vn -0.6074529942275094 0.6927660767557408 -0.3886849916069467
vn -0.5573753602796004 0.6927533606854097 0.45763029730586713
vn 0 1 0
vn -0.5573753602796004 0.6927533606854097 0.45763029730586713
vn 0.2629799851219599 0.6927548669015394 0.6715148708773947
f 1/1/1 2/2/2 3/3/3
f 4/4/4 5/5/5 6/6/6
f 7/7/7 8/8/8 9/9/9
f 10/10/10 11/11/11 12/12/12
f 13/13/13 14/14/14 15/15/15
f 16/16/16 17/17/17 18/18/18
f 19/19/19 20/20/20 21/21/21
f 22/22/22 23/23/23 24/24/24
f 25/25/25 26/26/26 27/27/27
f 28/28/28 29/29/29 30/30/30
f 31/31/31 32/32/32 33/33/33
f 34/34/34 35/35/35 36/36/36
f 37/37/37 38/38/38 39/39/39
f 40/40/40 41/41/41 42/42/42
f 43/43/43 44/44/44 45/45/45
f 46/46/46 47/47/47 48/48/48
f 49/49/49 50/50/50 51/51/51
f 52/52/52 53/53/53 54/54/54
f 55/55/55 56/56/56 57/57/57
f 58/58/58 59/59/59 60/60/60
f 61/61/61 62/62/62 63/63/63
f 64/64/64 65/65/65 66/66/66
f 67/67/67 68/68/68 69/69/69
f 70/70/70 71/71/71 72/72/72
f 73/73/73 74/74/74 75/75/75
f 76/76/76 77/77/77 78/78/78
f 79/79/79 80/80/80 81/81/81
f 82/82/82 83/83/83 84/84/84
f 85/85/85 86/86/86 87/87/87
f 88/88/88 89/89/89 90/90/90
f 91/91/91 92/92/92 93/93/93
f 94/94/94 95/95/95 96/96/96
f 97/97/97 98/98/98 99/99/99
f 100/100/100 101/101/101 102/102/102
f 103/103/103 104/104/104 105/105/105
f 106/106/106 107/107/107 108/108/108
f 109/109/109 110/110/110 111/111/111
f 112/112/112 113/113/113 114/114/114
f 115/115/115 116/116/116 117/117/117
f 118/118/118 119/119/119 120/120/120
f 121/121/121 122/122/122 123/123/123
f 124/124/124 125/125/125 126/126/126
f 127/127/127 128/128/128 129/129/129
f 130/130/130 131/131/131 132/132/132
f 133/133/133 134/134/134 135/135/135
f 136/136/136 137/137/137 138/138/138
f 139/139/139 140/140/140 141/141/141
f 142/142/142 143/143/143 144/144/144
f 145/145/145 146/146/146 147/147/147
f 148/148/148 149/149/149 150/150/150
f 151/151/151 152/152/152 153/153/153
f 154/154/154 155/155/155 156/156/156
f 157/157/157 158/158/158 159/159/159
f 160/160/160 161/161/161 162/162/162
f 163/163/163 164/164/164 165/165/165
f 166/166/166 167/167/167 168/168/168
f 169/169/169 170/170/170 171/171/171
f 172/172/172 173/173/173 174/174/174
f 175/175/175 176/176/176 177/177/177
f 178/178/178 179/179/179 180/180/180
f 181/181/181 182/182/182 183/183/183
f 184/184/184 185/185/185 186/186/186
f 187/187/187 188/188/188 189/189/189
f 190/190/190 191/191/191 192/192/192
f 193/193/193 194/194/194 195/195/195
f 196/196/196 197/197/197 198/198/198
f 199/199/199 200/200/200 201/201/201
f 202/202/202 203/203/203 204/204/204
f 205/205/205 206/206/206 207/207/207
f 208/208/208 209/209/209 210/210/210
f 211/211/211 212/212/212 213/213/213
f 214/214/214 215/215/215 216/216/216
f 217/217/217 218/218/218 219/219/219
f 220/220/220 221/221/221 222/222/222
f 223/223/223 224/224/224 225/225/225
f 226/226/226 227/227/227 228/228/228
f 229/229/229 230/230/230 231/231/231
f 232/232/232 233/233/233 234/234/234
f 235/235/235 236/236/236 237/237/237
f 238/238/238 239/239/239 240/240/240
