o Mesh
usemtl material_19
v -0.040316998958587646 -0.11254565417766571 -0.6251362562179565
v -0.02505899965763092 -0.11254517734050751 -0.6251362562179565
v -0.02505899965763092 -0.09245429188013077 -0.6251360177993774
v -0.040316998958587646 -0.11254565417766571 -0.6251362562179565
v -0.02505899965763092 -0.09245429188013077 -0.6251360177993774
v -0.040316998958587646 -0.09244497120380402 -0.6251368522644043
v -0.04151758551597595 -0.11254103481769562 -0.6251509785652161
v -0.040316998958587646 -0.11254565417766571 -0.6251362562179565
v -0.040316998958587646 -0.09244497120380402 -0.6251368522644043
v -0.04151758551597595 -0.11254103481769562 -0.6251509785652161
v -0.040316998958587646 -0.09244497120380402 -0.6251368522644043
v -0.04151517525315285 -0.09245183318853378 -0.625149667263031
v -0.04148000106215477 -0.09102310985326767 -0.6267712712287903
v -0.042899440973997116 -0.09111294895410538 -0.6267615556716919
v -0.04151517525315285 -0.09245183318853378 -0.625149667263031
v -0.04148000106215477 -0.09102310985326767 -0.6267712712287903
v -0.04151517525315285 -0.09245183318853378 -0.625149667263031
v -0.040316998958587646 -0.09244497120380402 -0.6251368522644043
v -0.023936999961733818 -0.09102386236190796 -0.626762866973877
v -0.04148000106215477 -0.09102310985326767 -0.6267712712287903
v -0.040316998958587646 -0.09244497120380402 -0.6251368522644043
v -0.023936999961733818 -0.09102386236190796 -0.626762866973877
v -0.040316998958587646 -0.09244497120380402 -0.6251368522644043
v -0.02505899965763092 -0.09245429188013077 -0.6251360177993774
v -0.04148000106215477 -0.11397390067577362 -0.6267714500427246
v -0.023936999961733818 -0.11397301405668259 -0.6267619729042053
v -0.040316998958587646 -0.11254565417766571 -0.6251362562179565
v -0.023936999961733818 -0.11397301405668259 -0.6267619729042053
v -0.02505899965763092 -0.11254517734050751 -0.6251362562179565
v -0.040316998958587646 -0.11254565417766571 -0.6251362562179565
v -0.042900849133729935 -0.11387704312801361 -0.6267714500427246
v -0.04148000106215477 -0.11397390067577362 -0.6267714500427246
v -0.04151758551597595 -0.11254103481769562 -0.6251509785652161
v -0.04148000106215477 -0.11397390067577362 -0.6267714500427246
v -0.040316998958587646 -0.11254565417766571 -0.6251362562179565
v -0.04151758551597595 -0.11254103481769562 -0.6251509785652161
v -0.04148000106215477 -0.11397390067577362 -0.6267714500427246
v -0.042900849133729935 -0.11387704312801361 -0.6267714500427246
v -0.04289994388818741 -0.11388549208641052 -0.6415548324584961
v -0.04148000106215477 -0.11397390067577362 -0.6267714500427246
v -0.04289994388818741 -0.11388549208641052 -0.6415548324584961
v -0.04148000106215477 -0.11392587423324585 -0.6416314840316772
v -0.023936999961733818 -0.11397301405668259 -0.6267619729042053
v -0.04148000106215477 -0.11397390067577362 -0.6267714500427246
v -0.023936999961733818 -0.1139301285147667 -0.6416288018226624
v -0.04148000106215477 -0.11397390067577362 -0.6267714500427246
v -0.04148000106215477 -0.11392587423324585 -0.6416314840316772
v -0.023936999961733818 -0.1139301285147667 -0.6416288018226624
v -0.04148000106215477 -0.09102310985326767 -0.6267712712287903
v -0.023936999961733818 -0.09102386236190796 -0.626762866973877
v -0.023936999961733818 -0.09104768186807632 -0.6416118144989014
v -0.04148000106215477 -0.09102310985326767 -0.6267712712287903
v -0.023936999961733818 -0.09104768186807632 -0.6416118144989014
v -0.04148000106215477 -0.09108913689851761 -0.6416401267051697
v -0.04148000106215477 -0.09108913689851761 -0.6416401267051697
v -0.04290056228637695 -0.09112010896205902 -0.6415548920631409
v -0.042899440973997116 -0.09111294895410538 -0.6267615556716919
v -0.04148000106215477 -0.09108913689851761 -0.6416401267051697
v -0.042899440973997116 -0.09111294895410538 -0.6267615556716919
v -0.04148000106215477 -0.09102310985326767 -0.6267712712287903
v -0.04148000106215477 -0.09108913689851761 -0.6416401267051697
v -0.023936999961733818 -0.09104768186807632 -0.6416118144989014
v -0.023936999961733818 -0.1139301285147667 -0.6416288018226624
v -0.04148000106215477 -0.09108913689851761 -0.6416401267051697
v -0.023936999961733818 -0.1139301285147667 -0.6416288018226624
v -0.04148000106215477 -0.11392587423324585 -0.6416314840316772
v -0.04290056228637695 -0.09112010896205902 -0.6415548920631409
v -0.04148000106215477 -0.09108913689851761 -0.6416401267051697
v -0.04148000106215477 -0.11392587423324585 -0.6416314840316772
v -0.04290056228637695 -0.09112010896205902 -0.6415548920631409
v -0.04148000106215477 -0.11392587423324585 -0.6416314840316772
v -0.04289994388818741 -0.11388549208641052 -0.6415548324584961
v -0.02505899965763092 -0.11254517734050751 -0.6251362562179565
v -0.023598957806825638 -0.11254304647445679 -0.6251417398452759
v -0.02505899965763092 -0.09245429188013077 -0.6251360177993774
v -0.023598957806825638 -0.11254304647445679 -0.6251417398452759
v -0.02357291243970394 -0.09245377033948898 -0.6251553893089294
v -0.02505899965763092 -0.09245429188013077 -0.6251360177993774
v -0.02219717763364315 -0.09111922234296799 -0.6267713904380798
v -0.023936999961733818 -0.09102386236190796 -0.626762866973877
v -0.02357291243970394 -0.09245377033948898 -0.6251553893089294
v -0.023936999961733818 -0.09102386236190796 -0.626762866973877
v -0.02505899965763092 -0.09245429188013077 -0.6251360177993774
v -0.02357291243970394 -0.09245377033948898 -0.6251553893089294
v -0.023936999961733818 -0.11397301405668259 -0.6267619729042053
v -0.022198842838406563 -0.11388645321130753 -0.6267614960670471
v -0.023598957806825638 -0.11254304647445679 -0.6251417398452759
v -0.023936999961733818 -0.11397301405668259 -0.6267619729042053
v -0.023598957806825638 -0.11254304647445679 -0.6251417398452759
v -0.02505899965763092 -0.11254517734050751 -0.6251362562179565
v -0.022198842838406563 -0.11388645321130753 -0.6267614960670471
v -0.023936999961733818 -0.11397301405668259 -0.6267619729042053
v -0.023936999961733818 -0.1139301285147667 -0.6416288018226624
v -0.022198842838406563 -0.11388645321130753 -0.6267614960670471
v -0.023936999961733818 -0.1139301285147667 -0.6416288018226624
v -0.022197674959897995 -0.11387758702039719 -0.6415570378303528
v -0.023936999961733818 -0.09102386236190796 -0.626762866973877
v -0.02219717763364315 -0.09111922234296799 -0.6267713904380798
v -0.022198617458343506 -0.09110881388187408 -0.6415569186210632
v -0.023936999961733818 -0.09102386236190796 -0.626762866973877
v -0.022198617458343506 -0.09110881388187408 -0.6415569186210632
v -0.023936999961733818 -0.09104768186807632 -0.6416118144989014
v -0.023936999961733818 -0.09104768186807632 -0.6416118144989014
v -0.022198617458343506 -0.09110881388187408 -0.6415569186210632
v -0.022197674959897995 -0.11387758702039719 -0.6415570378303528
v -0.023936999961733818 -0.09104768186807632 -0.6416118144989014
v -0.022197674959897995 -0.11387758702039719 -0.6415570378303528
v -0.023936999961733818 -0.1139301285147667 -0.6416288018226624
v -0.022198842838406563 -0.11388645321130753 -0.6267614960670471
v -0.02219717763364315 -0.09111922234296799 -0.6267713904380798
v -0.02357291243970394 -0.09245377033948898 -0.6251553893089294
v -0.022198842838406563 -0.11388645321130753 -0.6267614960670471
v -0.02357291243970394 -0.09245377033948898 -0.6251553893089294
v -0.023598957806825638 -0.11254304647445679 -0.6251417398452759
v -0.042899440973997116 -0.09111294895410538 -0.6267615556716919
v -0.042900849133729935 -0.11387704312801361 -0.6267714500427246
v -0.04151758551597595 -0.11254103481769562 -0.6251509785652161
v -0.042899440973997116 -0.09111294895410538 -0.6267615556716919
v -0.04151758551597595 -0.11254103481769562 -0.6251509785652161
v -0.04151517525315285 -0.09245183318853378 -0.625149667263031
v -0.042899440973997116 -0.09111294895410538 -0.6267615556716919
v -0.04290056228637695 -0.09112010896205902 -0.6415548920631409
v -0.042900849133729935 -0.11387704312801361 -0.6267714500427246
v -0.04290056228637695 -0.09112010896205902 -0.6415548920631409
v -0.04289994388818741 -0.11388549208641052 -0.6415548324584961
v -0.042900849133729935 -0.11387704312801361 -0.6267714500427246
v -0.022198617458343506 -0.09110881388187408 -0.6415569186210632
v -0.02219717763364315 -0.09111922234296799 -0.6267713904380798
v -0.022197674959897995 -0.11387758702039719 -0.6415570378303528
v -0.02219717763364315 -0.09111922234296799 -0.6267713904380798
v -0.022198842838406563 -0.11388645321130753 -0.6267614960670471
v -0.022197674959897995 -0.11387758702039719 -0.6415570378303528
v -0.040316998958587646 0.11257565021514893 -0.036827705800533295
v -0.02505899965763092 0.11257517337799072 -0.03682773932814598
v -0.02505899965763092 0.09248428791761398 -0.0368279293179512
v -0.040316998958587646 0.11257565021514893 -0.036827705800533295
v -0.02505899965763092 0.09248428791761398 -0.0368279293179512
v -0.040316998958587646 0.09247496724128723 -0.036827147006988525
v -0.04151758924126625 0.11257103085517883 -0.03681299835443497
v -0.040316998958587646 0.11257565021514893 -0.036827705800533295
v -0.040316998958587646 0.09247496724128723 -0.036827147006988525
v -0.04151758924126625 0.11257103085517883 -0.03681299835443497
v -0.040316998958587646 0.09247496724128723 -0.036827147006988525
v -0.041515178978443146 0.092481829226017 -0.03681427612900734
v -0.04148000106215477 0.0910521075129509 -0.03519269451498985
v -0.042899440973997116 0.0911419466137886 -0.03520243987441063
v -0.041515178978443146 0.092481829226017 -0.03681427612900734
v -0.04148000106215477 0.0910521075129509 -0.03519269451498985
v -0.041515178978443146 0.092481829226017 -0.03681427612900734
v -0.040316998958587646 0.09247496724128723 -0.036827147006988525
v -0.023936999961733818 0.09105286002159119 -0.03520108759403229
v -0.04148000106215477 0.0910521075129509 -0.03519269451498985
v -0.040316998958587646 0.09247496724128723 -0.036827147006988525
v -0.023936999961733818 0.09105286002159119 -0.03520108759403229
v -0.040316998958587646 0.09247496724128723 -0.036827147006988525
v -0.02505899965763092 0.09248428791761398 -0.0368279293179512
v -0.04148000106215477 0.11400389671325684 -0.035192541778087616
v -0.023936999961733818 0.1140030100941658 -0.035202015191316605
v -0.040316998958587646 0.11257565021514893 -0.036827705800533295
v -0.023936999961733818 0.1140030100941658 -0.035202015191316605
v -0.02505899965763092 0.11257517337799072 -0.03682773932814598
v -0.040316998958587646 0.11257565021514893 -0.036827705800533295
v -0.042900849133729935 0.11390703916549683 -0.035192541778087616
v -0.04148000106215477 0.11400389671325684 -0.035192541778087616
v -0.04151758924126625 0.11257103085517883 -0.03681299835443497
v -0.04148000106215477 0.11400389671325684 -0.035192541778087616
v -0.040316998958587646 0.11257565021514893 -0.036827705800533295
v -0.04151758924126625 0.11257103085517883 -0.03681299835443497
v -0.04148000106215477 0.11400389671325684 -0.035192541778087616
v -0.042900849133729935 0.11390703916549683 -0.035192541778087616
v -0.04289994388818741 0.11391548812389374 -0.02041015215218067
v -0.04148000106215477 0.11400389671325684 -0.035192541778087616
v -0.04289994388818741 0.11391548812389374 -0.02041015215218067
v -0.04148000106215477 0.11395587027072906 -0.02033350244164467
v -0.023936999961733818 0.1140030100941658 -0.035202015191316605
v -0.04148000106215477 0.11400389671325684 -0.035192541778087616
v -0.023936999961733818 0.11396012455224991 -0.02033623494207859
v -0.04148000106215477 0.11400389671325684 -0.035192541778087616
v -0.04148000106215477 0.11395587027072906 -0.02033350244164467
v -0.023936999961733818 0.11396012455224991 -0.02033623494207859
v -0.04148000106215477 0.0910521075129509 -0.03519269451498985
v -0.023936999961733818 0.09105286002159119 -0.03520108759403229
v -0.023936999961733818 0.09107667952775955 -0.02035321481525898
v -0.04148000106215477 0.0910521075129509 -0.03519269451498985
v -0.023936999961733818 0.09107667952775955 -0.02035321481525898
v -0.04148000106215477 0.09111813455820084 -0.020324908196926117
v -0.04148000106215477 0.09111813455820084 -0.020324908196926117
v -0.04290056228637695 0.09114910662174225 -0.020410098135471344
v -0.042899440973997116 0.0911419466137886 -0.03520243987441063
v -0.04148000106215477 0.09111813455820084 -0.020324908196926117
v -0.042899440973997116 0.0911419466137886 -0.03520243987441063
v -0.04148000106215477 0.0910521075129509 -0.03519269451498985
v -0.04148000106215477 0.09111813455820084 -0.020324908196926117
v -0.023936999961733818 0.09107667952775955 -0.02035321481525898
v -0.023936999961733818 0.11396012455224991 -0.02033623494207859
v -0.04148000106215477 0.09111813455820084 -0.020324908196926117
v -0.023936999961733818 0.11396012455224991 -0.02033623494207859
v -0.04148000106215477 0.11395587027072906 -0.02033350244164467
v -0.04290056228637695 0.09114910662174225 -0.020410098135471344
v -0.04148000106215477 0.09111813455820084 -0.020324908196926117
v -0.04148000106215477 0.11395587027072906 -0.02033350244164467
v -0.04290056228637695 0.09114910662174225 -0.020410098135471344
v -0.04148000106215477 0.11395587027072906 -0.02033350244164467
v -0.04289994388818741 0.11391548812389374 -0.02041015215218067
v -0.02505899965763092 0.11257517337799072 -0.03682773932814598
v -0.02359895408153534 0.11257304251194 -0.03682224452495575
v -0.02505899965763092 0.09248428791761398 -0.0368279293179512
v -0.02359895408153534 0.11257304251194 -0.03682224452495575
v -0.023572908714413643 0.0924837663769722 -0.0368085615336895
v -0.02505899965763092 0.09248428791761398 -0.0368279293179512
v -0.022196177393198013 0.09114822000265121 -0.03519259765744209
v -0.023936999961733818 0.09105286002159119 -0.03520108759403229
v -0.023572908714413643 0.0924837663769722 -0.0368085615336895
v -0.023936999961733818 0.09105286002159119 -0.03520108759403229
v -0.02505899965763092 0.09248428791761398 -0.0368279293179512
v -0.023572908714413643 0.0924837663769722 -0.0368085615336895
v -0.023936999961733818 0.1140030100941658 -0.035202015191316605
v -0.022197844460606575 0.11391644924879074 -0.0352025032043457
v -0.02359895408153534 0.11257304251194 -0.03682224452495575
v -0.023936999961733818 0.1140030100941658 -0.035202015191316605
v -0.02359895408153534 0.11257304251194 -0.03682224452495575
v -0.02505899965763092 0.11257517337799072 -0.03682773932814598
v -0.022197844460606575 0.11391644924879074 -0.0352025032043457
v -0.023936999961733818 0.1140030100941658 -0.035202015191316605
v -0.023936999961733818 0.11396012455224991 -0.02033623494207859
v -0.022197844460606575 0.11391644924879074 -0.0352025032043457
v -0.023936999961733818 0.11396012455224991 -0.02033623494207859
v -0.022196674719452858 0.1139075830578804 -0.020407967269420624
v -0.023936999961733818 0.09105286002159119 -0.03520108759403229
v -0.022196177393198013 0.09114822000265121 -0.03519259765744209
v -0.02219761721789837 0.09113781154155731 -0.02040807157754898
v -0.023936999961733818 0.09105286002159119 -0.03520108759403229
v -0.02219761721789837 0.09113781154155731 -0.02040807157754898
v -0.023936999961733818 0.09107667952775955 -0.02035321481525898
v -0.023936999961733818 0.09107667952775955 -0.02035321481525898
v -0.02219761721789837 0.09113781154155731 -0.02040807157754898
v -0.022196674719452858 0.1139075830578804 -0.020407967269420624
v -0.023936999961733818 0.09107667952775955 -0.02035321481525898
v -0.022196674719452858 0.1139075830578804 -0.020407967269420624
v -0.023936999961733818 0.11396012455224991 -0.02033623494207859
v -0.022197844460606575 0.11391644924879074 -0.0352025032043457
v -0.022196177393198013 0.09114822000265121 -0.03519259765744209
v -0.023572908714413643 0.0924837663769722 -0.0368085615336895
v -0.022197844460606575 0.11391644924879074 -0.0352025032043457
v -0.023572908714413643 0.0924837663769722 -0.0368085615336895
v -0.02359895408153534 0.11257304251194 -0.03682224452495575
v -0.042899440973997116 0.0911419466137886 -0.03520243987441063
v -0.042900849133729935 0.11390703916549683 -0.035192541778087616
v -0.04151758924126625 0.11257103085517883 -0.03681299835443497
v -0.042899440973997116 0.0911419466137886 -0.03520243987441063
v -0.04151758924126625 0.11257103085517883 -0.03681299835443497
v -0.041515178978443146 0.092481829226017 -0.03681427612900734
v -0.042899440973997116 0.0911419466137886 -0.03520243987441063
v -0.04290056228637695 0.09114910662174225 -0.020410098135471344
v -0.042900849133729935 0.11390703916549683 -0.035192541778087616
v -0.04290056228637695 0.09114910662174225 -0.020410098135471344
v -0.04289994388818741 0.11391548812389374 -0.02041015215218067
v -0.042900849133729935 0.11390703916549683 -0.035192541778087616
v -0.02219761721789837 0.09113781154155731 -0.02040807157754898
v -0.022196177393198013 0.09114822000265121 -0.03519259765744209
v -0.022196674719452858 0.1139075830578804 -0.020407967269420624
v -0.022196177393198013 0.09114822000265121 -0.03519259765744209
v -0.022197844460606575 0.11391644924879074 -0.0352025032043457
v -0.022196674719452858 0.1139075830578804 -0.020407967269420624
vt 0.04382000118494034 0.31004399061203003
vt 0.044950999319553375 0.07579299807548523
vt 0.29593199491500854 0.06954699754714966
vt 0.04382000118494034 0.31004399061203003
vt 0.29593199491500854 0.06954699754714966
vt 0.2862359881401062 0.30994901061058044
vt 0.04657899960875511 0.33415400981903076
vt 0.04382000118494034 0.31004399061203003
vt 0.2862359881401062 0.30994901061058044
vt 0.04657899960875511 0.33415400981903076
vt 0.2862359881401062 0.30994901061058044
vt 0.28345099091529846 0.3367759883403778
vt 0.3319360017776489 0.349837988615036
vt 0.3213199973106384 0.37885698676109314
vt 0.28345099091529846 0.3367759883403778
vt 0.3319360017776489 0.349837988615036
vt 0.28345099091529846 0.3367759883403778
vt 0.2862359881401062 0.30994901061058044
vt 0.3432610034942627 0.03596799820661545
vt 0.3319360017776489 0.349837988615036
vt 0.2862359881401062 0.30994901061058044
vt 0.3432610034942627 0.03596799820661545
vt 0.2862359881401062 0.30994901061058044
vt 0.29593199491500854 0.06954699754714966
vt 0 0.3442800045013428
vt 0 0.04253299906849861
vt 0.04382000118494034 0.31004399061203003
vt 0 0.04253299906849861
vt 0.044950999319553375 0.07579299807548523
vt 0.04382000118494034 0.31004399061203003
vt 0.008426000364124775 0.3715119957923889
vt 0 0.3442800045013428
vt 0.04657899960875511 0.33415400981903076
vt 0 0.3442800045013428
vt 0.04382000118494034 0.31004399061203003
vt 0.04657899960875511 0.33415400981903076
vt 0.30535900592803955 0.6881309747695923
vt 0.3432610034942627 0.6862469911575317
vt 0.3432610034942627 0.9760289788246155
vt 0.30535900592803955 0.6881309747695923
vt 0.3432610034942627 0.9760289788246155
vt 0.30535900592803955 0.9779130220413208
vt 0.0574209988117218 0.6881309747695923
vt 0.30535900592803955 0.6881309747695923
vt 0.0574209988117218 0.9779130220413208
vt 0.30535900592803955 0.6881309747695923
vt 0.30535900592803955 0.9779130220413208
vt 0.0574209988117218 0.9779130220413208
vt 0.3035280108451843 0.6846100091934204
vt 0.04361499845981598 0.6846100091934204
vt 0.04361499845981598 0.3808319866657257
vt 0.3035280108451843 0.6846100091934204
vt 0.04361499845981598 0.3808319866657257
vt 0.3035280108451843 0.3808319866657257
vt 0.3035280108451843 0.3808319866657257
vt 0.3432610034942627 0.37885698676109314
vt 0.3432610034942627 0.6826350092887878
vt 0.3035280108451843 0.3808319866657257
vt 0.3432610034942627 0.6826350092887878
vt 0.3035280108451843 0.6846100091934204
vt 0.6570680141448975 0.3503119945526123
vt 0.3887909948825836 0.3503119945526123
vt 0.3887909948825836 0.0023960000835359097
vt 0.6570680141448975 0.3503119945526123
vt 0.3887909948825836 0.0023960000835359097
vt 0.6570680141448975 0.0023960000835359097
vt 0.7025560140609741 0.34791600704193115
vt 0.6570680141448975 0.3503119945526123
vt 0.6570680141448975 0.0023960000835359097
vt 0.7025560140609741 0.34791600704193115
vt 0.6570680141448975 0.0023960000835359097
vt 0.7025560140609741 0
vt 0.044950999319553375 0.07579299807548523
vt 0.04842599853873253 0.04783099889755249
vt 0.29593199491500854 0.06954699754714966
vt 0.04842599853873253 0.04783099889755249
vt 0.2933650016784668 0.03954000025987625
vt 0.29593199491500854 0.06954699754714966
vt 0.3315649926662445 0
vt 0.3432610034942627 0.03596799820661545
vt 0.2933650016784668 0.03954000025987625
vt 0.3432610034942627 0.03596799820661545
vt 0.29593199491500854 0.06954699754714966
vt 0.2933650016784668 0.03954000025987625
vt 0 0.04253299906849861
vt 0.01182399969547987 0.007172999903559685
vt 0.04842599853873253 0.04783099889755249
vt 0 0.04253299906849861
vt 0.04842599853873253 0.04783099889755249
vt 0.044950999319553375 0.07579299807548523
vt 0.01947600021958351 0.6896920204162598
vt 0.0574209988117218 0.6881309747695923
vt 0.0574209988117218 0.9779130220413208
vt 0.01947600021958351 0.6896920204162598
vt 0.0574209988117218 0.9779130220413208
vt 0.01947600021958351 0.9794740080833435
vt 0.04361499845981598 0.6846100091934204
vt 0.003837999887764454 0.6862469911575317
vt 0.003837000112980604 0.3824689984321594
vt 0.04361499845981598 0.6846100091934204
vt 0.003837000112980604 0.3824689984321594
vt 0.04361499845981598 0.3808319866657257
vt 0.3887909948825836 0.3503119945526123
vt 0.3432610034942627 0.3523940145969391
vt 0.3432610034942627 0.004476999863982201
vt 0.3887909948825836 0.3503119945526123
vt 0.3432610034942627 0.004476999863982201
vt 0.3887909948825836 0.0023960000835359097
vt 0.01182399969547987 0.007172999903559685
vt 0.3315649926662445 0
vt 0.2933650016784668 0.03954000025987625
vt 0.01182399969547987 0.007172999903559685
vt 0.2933650016784668 0.03954000025987625
vt 0.04842599853873253 0.04783099889755249
vt 0.3213199973106384 0.37885698676109314
vt 0.008426000364124775 0.3715119957923889
vt 0.04657899960875511 0.33415400981903076
vt 0.3213199973106384 0.37885698676109314
vt 0.04657899960875511 0.33415400981903076
vt 0.28345099091529846 0.3367759883403778
vt 0.702551007270813 0.3523940145969391
vt 0.702551007270813 0.6761969923973083
vt 0.3432610034942627 0.3523940145969391
vt 0.702551007270813 0.6761969923973083
vt 0.3432610034942627 0.6761969923973083
vt 0.3432610034942627 0.3523940145969391
vt 0.702551007270813 0.6761969923973083
vt 0.702551007270813 1
vt 0.3432610034942627 0.6761969923973083
vt 0.702551007270813 1
vt 0.3432610034942627 1
vt 0.3432610034942627 0.6761969923973083
vt 0.04382000118494034 0.31004399061203003
vt 0.044950999319553375 0.07579299807548523
vt 0.29593199491500854 0.06954699754714966
vt 0.04382000118494034 0.31004399061203003
vt 0.29593199491500854 0.06954699754714966
vt 0.2862359881401062 0.30994901061058044
vt 0.04657899960875511 0.33415400981903076
vt 0.04382000118494034 0.31004399061203003
vt 0.2862359881401062 0.30994901061058044
vt 0.04657899960875511 0.33415400981903076
vt 0.2862359881401062 0.30994901061058044
vt 0.28345099091529846 0.3367759883403778
vt 0.3319360017776489 0.349837988615036
vt 0.3213199973106384 0.37885698676109314
vt 0.28345099091529846 0.3367759883403778
vt 0.3319360017776489 0.349837988615036
vt 0.28345099091529846 0.3367759883403778
vt 0.2862359881401062 0.30994901061058044
vt 0.3432610034942627 0.03596799820661545
vt 0.3319360017776489 0.349837988615036
vt 0.2862359881401062 0.30994901061058044
vt 0.3432610034942627 0.03596799820661545
vt 0.2862359881401062 0.30994901061058044
vt 0.29593199491500854 0.06954699754714966
vt 0 0.3442800045013428
vt 0 0.04253299906849861
vt 0.04382000118494034 0.31004399061203003
vt 0 0.04253299906849861
vt 0.044950999319553375 0.07579299807548523
vt 0.04382000118494034 0.31004399061203003
vt 0.008426000364124775 0.3715119957923889
vt 0 0.3442800045013428
vt 0.04657899960875511 0.33415400981903076
vt 0 0.3442800045013428
vt 0.04382000118494034 0.31004399061203003
vt 0.04657899960875511 0.33415400981903076
vt 0.30535900592803955 0.6881309747695923
vt 0.3432610034942627 0.6862469911575317
vt 0.3432610034942627 0.9760289788246155
vt 0.30535900592803955 0.6881309747695923
vt 0.3432610034942627 0.9760289788246155
vt 0.30535900592803955 0.9779130220413208
vt 0.0574209988117218 0.6881309747695923
vt 0.30535900592803955 0.6881309747695923
vt 0.0574209988117218 0.9779130220413208
vt 0.30535900592803955 0.6881309747695923
vt 0.30535900592803955 0.9779130220413208
vt 0.0574209988117218 0.9779130220413208
vt 0.3035280108451843 0.6846100091934204
vt 0.04361499845981598 0.6846100091934204
vt 0.04361499845981598 0.3808319866657257
vt 0.3035280108451843 0.6846100091934204
vt 0.04361499845981598 0.3808319866657257
vt 0.3035280108451843 0.3808319866657257
vt 0.3035280108451843 0.3808319866657257
vt 0.3432610034942627 0.37885698676109314
vt 0.3432610034942627 0.6826350092887878
vt 0.3035280108451843 0.3808319866657257
vt 0.3432610034942627 0.6826350092887878
vt 0.3035280108451843 0.6846100091934204
vt 0.6570680141448975 0.3503119945526123
vt 0.3887909948825836 0.3503119945526123
vt 0.3887909948825836 0.0023960000835359097
vt 0.6570680141448975 0.3503119945526123
vt 0.3887909948825836 0.0023960000835359097
vt 0.6570680141448975 0.0023960000835359097
vt 0.7025560140609741 0.34791600704193115
vt 0.6570680141448975 0.3503119945526123
vt 0.6570680141448975 0.0023960000835359097
vt 0.7025560140609741 0.34791600704193115
vt 0.6570680141448975 0.0023960000835359097
vt 0.7025560140609741 0
vt 0.044950999319553375 0.07579299807548523
vt 0.04842599853873253 0.04783099889755249
vt 0.29593199491500854 0.06954699754714966
vt 0.04842599853873253 0.04783099889755249
vt 0.2933650016784668 0.03954000025987625
vt 0.29593199491500854 0.06954699754714966
vt 0.3315649926662445 0
vt 0.3432610034942627 0.03596799820661545
vt 0.2933650016784668 0.03954000025987625
vt 0.3432610034942627 0.03596799820661545
vt 0.29593199491500854 0.06954699754714966
vt 0.2933650016784668 0.03954000025987625
vt 0 0.04253299906849861
vt 0.01182399969547987 0.007172999903559685
vt 0.04842599853873253 0.04783099889755249
vt 0 0.04253299906849861
vt 0.04842599853873253 0.04783099889755249
vt 0.044950999319553375 0.07579299807548523
vt 0.01947600021958351 0.6896920204162598
vt 0.0574209988117218 0.6881309747695923
vt 0.0574209988117218 0.9779130220413208
vt 0.01947600021958351 0.6896920204162598
vt 0.0574209988117218 0.9779130220413208
vt 0.01947600021958351 0.9794740080833435
vt 0.04361499845981598 0.6846100091934204
vt 0.003837999887764454 0.6862469911575317
vt 0.003837000112980604 0.3824689984321594
vt 0.04361499845981598 0.6846100091934204
vt 0.003837000112980604 0.3824689984321594
vt 0.04361499845981598 0.3808319866657257
vt 0.3887909948825836 0.3503119945526123
vt 0.3432610034942627 0.3523940145969391
vt 0.3432610034942627 0.004476999863982201
vt 0.3887909948825836 0.3503119945526123
vt 0.3432610034942627 0.004476999863982201
vt 0.3887909948825836 0.0023960000835359097
vt 0.01182399969547987 0.007172999903559685
vt 0.3315649926662445 0
vt 0.2933650016784668 0.03954000025987625
vt 0.01182399969547987 0.007172999903559685
vt 0.2933650016784668 0.03954000025987625
vt 0.04842599853873253 0.04783099889755249
vt 0.3213199973106384 0.37885698676109314
vt 0.008426000364124775 0.3715119957923889
vt 0.04657899960875511 0.33415400981903076
vt 0.3213199973106384 0.37885698676109314
vt 0.04657899960875511 0.33415400981903076
vt 0.28345099091529846 0.3367759883403778
vt 0.702551007270813 0.3523940145969391
vt 0.702551007270813 0.6761969923973083
vt 0.3432610034942627 0.3523940145969391
vt 0.702551007270813 0.6761969923973083
vt 0.3432610034942627 0.6761969923973083
vt 0.3432610034942627 0.3523940145969391
vt 0.702551007270813 0.6761969923973083
vt 0.702551007270813 1
vt 0.3432610034942627 0.6761969923973083
vt 0.702551007270813 1
vt 0.3432610034942627 1
vt 0.3432610034942627 0.6761969923973083
vn 0 -0.0765269623124487 0.9970675122774932
vn 0 -0.07172296862274938 0.9974245915215547
vn 0 0.03708699708800545 0.9993120406794839
vn 0 -0.0765269623124487 0.9970675122774932
vn 0 0.03708699708800545 0.9993120406794839
vn 0 0.13029408299617487 0.991475391492994
vn -0.5258709305151479 -0.030315999592377192 0.8500239435497375
vn 0 -0.0765269623124487 0.9970675122774932
vn 0 0.13029408299617487 0.991475391492994
vn -0.5258709305151479 -0.030315999592377192 0.8500239435497375
vn 0 0.13029408299617487 0.991475391492994
vn -0.5017629119716669 0.06169998838696238 0.862801884329631
vn 0 0.998897286935967 0.04694901651753986
vn -0.9844059915708849 0.1005079966859621 0.14437100249536763
vn -0.5017629119716669 0.06169998838696238 0.862801884329631
vn 0 0.998897286935967 0.04694901651753986
vn -0.5017629119716669 0.06169998838696238 0.862801884329631
vn 0 0.13029408299617487 0.991475391492994
vn 0 0.9913986134376308 0.13087700055373666
vn 0 0.998897286935967 0.04694901651753986
vn 0 0.13029408299617487 0.991475391492994
vn 0 0.9913986134376308 0.13087700055373666
vn 0 0.13029408299617487 0.991475391492994
vn 0 0.03708699708800545 0.9993120406794839
vn 0 -0.9989680248576679 0.04541899725852515
vn 0 -0.9901321255137638 0.1401369830758331
vn 0 -0.0765269623124487 0.9970675122774932
vn 0 -0.9901321255137638 0.1401369830758331
vn 0 -0.07172296862274938 0.9974245915215547
vn 0 -0.0765269623124487 0.9970675122774932
vn -0.99850622142937 -0.030415010760585337 0.045390008672344
vn 0 -0.9989680248576679 0.04541899725852515
vn -0.5258709305151479 -0.030315999592377192 0.8500239435497375
vn 0 -0.9989680248576679 0.04541899725852515
vn 0 -0.0765269623124487 0.9970675122774932
vn -0.5258709305151479 -0.030315999592377192 0.8500239435497375
vn 0 -0.9989680248576679 0.04541899725852515
vn -0.99850622142937 -0.030415010760585337 0.045390008672344
vn -0.9894343112764552 -0.11486298700292895 -0.08846602673146158
vn 0 -0.9989680248576679 0.04541899725852515
vn -0.9894343112764552 -0.11486298700292895 -0.08846602673146158
vn 0 -0.5187108623089933 -0.8549497302898345
vn 0 -0.9901321255137638 0.1401369830758331
vn 0 -0.9989680248576679 0.04541899725852515
vn 0 -0.5612818504642191 -0.8276247243403633
vn 0 -0.9989680248576679 0.04541899725852515
vn 0 -0.5187108623089933 -0.8549497302898345
vn 0 -0.5612818504642191 -0.8276247243403633
vn 0 0.998897286935967 0.04694901651753986
vn 0 0.9913986134376308 0.13087700055373666
vn 0 0.7531788339598849 -0.6578158131839247
vn 0 0.998897286935967 0.04694901651753986
vn 0 0.7531788339598849 -0.6578158131839247
vn 0 0.3386500851375988 -0.9409123869076742
vn 0 0.3386500851375988 -0.9409123869076742
vn -0.9956108070613594 0.02889499178756946 -0.08901797746649286
vn -0.9844059915708849 0.1005079966859621 0.14437100249536763
vn 0 0.3386500851375988 -0.9409123869076742
vn -0.9844059915708849 0.1005079966859621 0.14437100249536763
vn 0 0.998897286935967 0.04694901651753986
vn 0 0.3386500851375988 -0.9409123869076742
vn 0 0.7531788339598849 -0.6578158131839247
vn 0 -0.5612818504642191 -0.8276247243403633
vn 0 0.3386500851375988 -0.9409123869076742
vn 0 -0.5612818504642191 -0.8276247243403633
vn 0 -0.5187108623089933 -0.8549497302898345
vn -0.9956108070613594 0.02889499178756946 -0.08901797746649286
vn 0 0.3386500851375988 -0.9409123869076742
vn 0 -0.5187108623089933 -0.8549497302898345
vn -0.9956108070613594 0.02889499178756946 -0.08901797746649286
vn 0 -0.5187108623089933 -0.8549497302898345
vn -0.9894343112764552 -0.11486298700292895 -0.08846602673146158
vn 0 -0.07172296862274938 0.9974245915215547
vn 0.3304220720726949 -0.050466004525396214 0.9424831227530971
vn 0 0.03708699708800545 0.9993120406794839
vn 0.3304220720726949 -0.050466004525396214 0.9424831227530971
vn 0.5908680935690117 0.04230799742008735 0.8056580722343839
vn 0 0.03708699708800545 0.9993120406794839
vn 0.9982280848151631 0.03776700093885831 0.04598200002540096
vn 0 0.9913986134376308 0.13087700055373666
vn 0.5908680935690117 0.04230799742008735 0.8056580722343839
vn 0 0.9913986134376308 0.13087700055373666
vn 0 0.03708699708800545 0.9993120406794839
vn 0.5908680935690117 0.04230799742008735 0.8056580722343839
vn 0 -0.9901321255137638 0.1401369830758331
vn 0.9815685696911618 -0.12448000096714319 0.14500990432955527
vn 0.3304220720726949 -0.050466004525396214 0.9424831227530971
vn 0 -0.9901321255137638 0.1401369830758331
vn 0.3304220720726949 -0.050466004525396214 0.9424831227530971
vn 0 -0.07172296862274938 0.9974245915215547
vn 0.9815685696911618 -0.12448000096714319 0.14500990432955527
vn 0 -0.9901321255137638 0.1401369830758331
vn 0 -0.5612818504642191 -0.8276247243403633
vn 0.9815685696911618 -0.12448000096714319 0.14500990432955527
vn 0 -0.5612818504642191 -0.8276247243403633
vn 0.9932524089987118 -0.035805017203602414 -0.11030708391261934
vn 0 0.9913986134376308 0.13087700055373666
vn 0.9982280848151631 0.03776700093885831 0.04598200002540096
vn 0.9838379984667522 0.1418620016373253 -0.10926099607996533
vn 0 0.9913986134376308 0.13087700055373666
vn 0.9838379984667522 0.1418620016373253 -0.10926099607996533
vn 0 0.7531788339598849 -0.6578158131839247
vn 0 0.7531788339598849 -0.6578158131839247
vn 0.9838379984667522 0.1418620016373253 -0.10926099607996533
vn 0.9932524089987118 -0.035805017203602414 -0.11030708391261934
vn 0 0.7531788339598849 -0.6578158131839247
vn 0.9932524089987118 -0.035805017203602414 -0.11030708391261934
vn 0 -0.5612818504642191 -0.8276247243403633
vn 0.9815685696911618 -0.12448000096714319 0.14500990432955527
vn 0.9982280848151631 0.03776700093885831 0.04598200002540096
vn 0.5908680935690117 0.04230799742008735 0.8056580722343839
vn 0.9815685696911618 -0.12448000096714319 0.14500990432955527
vn 0.5908680935690117 0.04230799742008735 0.8056580722343839
vn 0.3304220720726949 -0.050466004525396214 0.9424831227530971
vn -0.9844059915708849 0.1005079966859621 0.14437100249536763
vn -0.99850622142937 -0.030415010760585337 0.045390008672344
vn -0.5258709305151479 -0.030315999592377192 0.8500239435497375
vn -0.9844059915708849 0.1005079966859621 0.14437100249536763
vn -0.5258709305151479 -0.030315999592377192 0.8500239435497375
vn -0.5017629119716669 0.06169998838696238 0.862801884329631
vn -0.9844059915708849 0.1005079966859621 0.14437100249536763
vn -0.9956108070613594 0.02889499178756946 -0.08901797746649286
vn -0.99850622142937 -0.030415010760585337 0.045390008672344
vn -0.9956108070613594 0.02889499178756946 -0.08901797746649286
vn -0.9894343112764552 -0.11486298700292895 -0.08846602673146158
vn -0.99850622142937 -0.030415010760585337 0.045390008672344
vn 0.9838379984667522 0.1418620016373253 -0.10926099607996533
vn 0.9982280848151631 0.03776700093885831 0.04598200002540096
vn 0.9932524089987118 -0.035805017203602414 -0.11030708391261934
vn 0.9982280848151631 0.03776700093885831 0.04598200002540096
vn 0.9815685696911618 -0.12448000096714319 0.14500990432955527
vn 0.9932524089987118 -0.035805017203602414 -0.11030708391261934
vn 0 0.07653598669841866 -0.9970668195964099
vn 0 0.07173199176282304 -0.9974239426431162
vn 0 -0.037090991733274306 -0.9993118924201003
vn 0 0.07653598669841866 -0.9970668195964099
vn 0 -0.037090991733274306 -0.9993118924201003
vn 0 -0.130314006397857 -0.9914727730687009
vn -0.5259167619957885 0.030314987917100668 -0.849995624082531
vn 0 0.07653598669841866 -0.9970668195964099
vn 0 -0.130314006397857 -0.9914727730687009
vn -0.5259167619957885 0.030314987917100668 -0.849995624082531
vn 0 -0.130314006397857 -0.9914727730687009
vn -0.501814844392809 -0.06169897717079764 -0.8627717532250915
vn 0 -0.9988973339313421 -0.04694801662325199
vn -0.9844010205428823 -0.10050499166772789 -0.14440698530196444
vn -0.501814844392809 -0.06169897717079764 -0.8627717532250915
vn 0 -0.9988973339313421 -0.04694801662325199
vn -0.501814844392809 -0.06169897717079764 -0.8627717532250915
vn 0 -0.130314006397857 -0.9914727730687009
vn 0 -0.9913990120480463 -0.13087398102815453
vn 0 -0.9988973339313421 -0.04694801662325199
vn 0 -0.130314006397857 -0.9914727730687009
vn 0 -0.9913990120480463 -0.13087398102815453
vn 0 -0.130314006397857 -0.9914727730687009
vn 0 -0.037090991733274306 -0.9993118924201003
vn 0 0.9989679339666402 -0.04542099631692805
vn 0 0.9901312726278936 -0.1401430089739327
vn 0 0.07653598669841866 -0.9970668195964099
vn 0 0.9901312726278936 -0.1401430089739327
vn 0 0.07173199176282304 -0.9974239426431162
vn 0 0.07653598669841866 -0.9970668195964099
vn -0.9985056322370816 0.03041498675497972 -0.04540298416977261
vn 0 0.9989679339666402 -0.04542099631692805
vn -0.5259167619957885 0.030314987917100668 -0.849995624082531
vn 0 0.9989679339666402 -0.04542099631692805
vn 0 0.07653598669841866 -0.9970668195964099
vn -0.5259167619957885 0.030314987917100668 -0.849995624082531
vn 0 0.9989679339666402 -0.04542099631692805
vn -0.9985056322370816 0.03041498675497972 -0.04540298416977261
vn -0.9894338045359787 0.11486200005484652 0.08847297544933676
vn 0 0.9989679339666402 -0.04542099631692805
vn -0.9894338045359787 0.11486200005484652 0.08847297544933676
vn 0 0.5186821176862964 0.8549671694237498
vn 0 0.9901312726278936 -0.1401430089739327
vn 0 0.9989679339666402 -0.04542099631692805
vn 0 0.5612530766662615 0.8276442375396903
vn 0 0.9989679339666402 -0.04542099631692805
vn 0 0.5186821176862964 0.8549671694237498
vn 0 0.5612530766662615 0.8276442375396903
vn 0 -0.9988973339313421 -0.04694801662325199
vn 0 -0.9913990120480463 -0.13087398102815453
vn 0 -0.7531517673803768 0.6578468022965642
vn 0 -0.9988973339313421 -0.04694801662325199
vn 0 -0.7531517673803768 0.6578468022965642
vn 0 -0.3386268535955042 0.9409207480037884
vn 0 -0.3386268535955042 0.9409207480037884
vn -0.9956101768045807 -0.028895009288379115 0.08902502053566806
vn -0.9844010205428823 -0.10050499166772789 -0.14440698530196444
vn 0 -0.3386268535955042 0.9409207480037884
vn -0.9844010205428823 -0.10050499166772789 -0.14440698530196444
vn 0 -0.9988973339313421 -0.04694801662325199
vn 0 -0.3386268535955042 0.9409207480037884
vn 0 -0.7531517673803768 0.6578468022965642
vn 0 0.5612530766662615 0.8276442375396903
vn 0 -0.3386268535955042 0.9409207480037884
vn 0 0.5612530766662615 0.8276442375396903
vn 0 0.5186821176862964 0.8549671694237498
vn -0.9956101768045807 -0.028895009288379115 0.08902502053566806
vn 0 -0.3386268535955042 0.9409207480037884
vn 0 0.5186821176862964 0.8549671694237498
vn -0.9956101768045807 -0.028895009288379115 0.08902502053566806
vn 0 0.5186821176862964 0.8549671694237498
vn -0.9894338045359787 0.11486200005484652 0.08847297544933676
vn 0 0.07173199176282304 -0.9974239426431162
vn 0.3304449089063179 0.050472990705529415 -0.9424747420420001
vn 0 -0.037090991733274306 -0.9993118924201003
vn 0.3304449089063179 0.050472990705529415 -0.9424747420420001
vn 0.5909070760108828 -0.042314010110418375 -0.8056291653537899
vn 0 -0.037090991733274306 -0.9993118924201003
vn 0.9982278339090576 -0.03776999559980232 -0.045984987132997264
vn 0 -0.9913990120480463 -0.13087398102815453
vn 0.5909070760108828 -0.042314010110418375 -0.8056291653537899
vn 0 -0.9913990120480463 -0.13087398102815453
vn 0 -0.037090991733274306 -0.9993118924201003
vn 0.5909070760108828 -0.042314010110418375 -0.8056291653537899
vn 0 0.9901312726278936 -0.1401430089739327
vn 0.9815670146058589 0.12448400124856149 -0.14501699648968613
vn 0.3304449089063179 0.050472990705529415 -0.9424747420420001
vn 0 0.9901312726278936 -0.1401430089739327
vn 0.3304449089063179 0.050472990705529415 -0.9424747420420001
vn 0 0.07173199176282304 -0.9974239426431162
vn 0.9815670146058589 0.12448400124856149 -0.14501699648968613
vn 0 0.9901312726278936 -0.1401430089739327
vn 0 0.5612530766662615 0.8276442375396903
vn 0.9815670146058589 0.12448400124856149 -0.14501699648968613
vn 0 0.5612530766662615 0.8276442375396903
vn 0.9932506819912365 0.03580699166254292 0.11032199269421374
vn 0 -0.9913990120480463 -0.13087398102815453
vn 0.9982278339090576 -0.03776999559980232 -0.045984987132997264
vn 0.9838351783530388 -0.1418700094598396 0.10927599119161174
vn 0 -0.9913990120480463 -0.13087398102815453
vn 0.9838351783530388 -0.1418700094598396 0.10927599119161174
vn 0 -0.7531517673803768 0.6578468022965642
vn 0 -0.7531517673803768 0.6578468022965642
vn 0.9838351783530388 -0.1418700094598396 0.10927599119161174
vn 0.9932506819912365 0.03580699166254292 0.11032199269421374
vn 0 -0.7531517673803768 0.6578468022965642
vn 0.9932506819912365 0.03580699166254292 0.11032199269421374
vn 0 0.5612530766662615 0.8276442375396903
vn 0.9815670146058589 0.12448400124856149 -0.14501699648968613
vn 0.9982278339090576 -0.03776999559980232 -0.045984987132997264
vn 0.5909070760108828 -0.042314010110418375 -0.8056291653537899
vn 0.9815670146058589 0.12448400124856149 -0.14501699648968613
vn 0.5909070760108828 -0.042314010110418375 -0.8056291653537899
vn 0.3304449089063179 0.050472990705529415 -0.9424747420420001
vn -0.9844010205428823 -0.10050499166772789 -0.14440698530196444
vn -0.9985056322370816 0.03041498675497972 -0.04540298416977261
vn -0.5259167619957885 0.030314987917100668 -0.849995624082531
vn -0.9844010205428823 -0.10050499166772789 -0.14440698530196444
vn -0.5259167619957885 0.030314987917100668 -0.849995624082531
vn -0.501814844392809 -0.06169897717079764 -0.8627717532250915
vn -0.9844010205428823 -0.10050499166772789 -0.14440698530196444
vn -0.9956101768045807 -0.028895009288379115 0.08902502053566806
vn -0.9985056322370816 0.03041498675497972 -0.04540298416977261
vn -0.9956101768045807 -0.028895009288379115 0.08902502053566806
vn -0.9894338045359787 0.11486200005484652 0.08847297544933676
vn -0.9985056322370816 0.03041498675497972 -0.04540298416977261
vn 0.9838351783530388 -0.1418700094598396 0.10927599119161174
vn 0.9982278339090576 -0.03776999559980232 -0.045984987132997264
vn 0.9932506819912365 0.03580699166254292 0.11032199269421374
vn 0.9982278339090576 -0.03776999559980232 -0.045984987132997264
vn 0.9815670146058589 0.12448400124856149 -0.14501699648968613
vn 0.9932506819912365 0.03580699166254292 0.11032199269421374
f 1/1/1 2/2/2 3/3/3
f 4/4/4 5/5/5 6/6/6
f 7/7/7 8/8/8 9/9/9
f 10/10/10 11/11/11 12/12/12
f 13/13/13 14/14/14 15/15/15
f 16/16/16 17/17/17 18/18/18
f 19/19/19 20/20/20 21/21/21
f 22/22/22 23/23/23 24/24/24
f 25/25/25 26/26/26 27/27/27
f 28/28/28 29/29/29 30/30/30
f 31/31/31 32/32/32 33/33/33
f 34/34/34 35/35/35 36/36/36
f 37/37/37 38/38/38 39/39/39
f 40/40/40 41/41/41 42/42/42
f 43/43/43 44/44/44 45/45/45
f 46/46/46 47/47/47 48/48/48
f 49/49/49 50/50/50 51/51/51
f 52/52/52 53/53/53 54/54/54
f 55/55/55 56/56/56 57/57/57
f 58/58/58 59/59/59 60/60/60
f 61/61/61 62/62/62 63/63/63
f 64/64/64 65/65/65 66/66/66
f 67/67/67 68/68/68 69/69/69
f 70/70/70 71/71/71 72/72/72
f 73/73/73 74/74/74 75/75/75
f 76/76/76 77/77/77 78/78/78
f 79/79/79 80/80/80 81/81/81
f 82/82/82 83/83/83 84/84/84
f 85/85/85 86/86/86 87/87/87
f 88/88/88 89/89/89 90/90/90
f 91/91/91 92/92/92 93/93/93
f 94/94/94 95/95/95 96/96/96
f 97/97/97 98/98/98 99/99/99
f 100/100/100 101/101/101 102/102/102
f 103/103/103 104/104/104 105/105/105
f 106/106/106 107/107/107 108/108/108
f 109/109/109 110/110/110 111/111/111
f 112/112/112 113/113/113 114/114/114
f 115/115/115 116/116/116 117/117/117
f 118/118/118 119/119/119 120/120/120
f 121/121/121 122/122/122 123/123/123
f 124/124/124 125/125/125 126/126/126
f 127/127/127 128/128/128 129/129/129
f 130/130/130 131/131/131 132/132/132
f 133/133/133 134/134/134 135/135/135
f 136/136/136 137/137/137 138/138/138
f 139/139/139 140/140/140 141/141/141
f 142/142/142 143/143/143 144/144/144
f 145/145/145 146/146/146 147/147/147
f 148/148/148 149/149/149 150/150/150
f 151/151/151 152/152/152 153/153/153
f 154/154/154 155/155/155 156/156/156
f 157/157/157 158/158/158 159/159/159
f 160/160/160 161/161/161 162/162/162
f 163/163/163 164/164/164 165/165/165
f 166/166/166 167/167/167 168/168/168
f 169/169/169 170/170/170 171/171/171
f 172/172/172 173/173/173 174/174/174
f 175/175/175 176/176/176 177/177/177
f 178/178/178 179/179/179 180/180/180
f 181/181/181 182/182/182 183/183/183
f 184/184/184 185/185/185 186/186/186
f 187/187/187 188/188/188 189/189/189
f 190/190/190 191/191/191 192/192/192
f 193/193/193 194/194/194 195/195/195
f 196/196/196 197/197/197 198/198/198
f 199/199/199 200/200/200 201/201/201
f 202/202/202 203/203/203 204/204/204
f 205/205/205 206/206/206 207/207/207
f 208/208/208 209/209/209 210/210/210
f 211/211/211 212/212/212 213/213/213
f 214/214/214 215/215/215 216/216/216
f 217/217/217 218/218/218 219/219/219
f 220/220/220 221/221/221 222/222/222
f 223/223/223 224/224/224 225/225/225
f 226/226/226 227/227/227 228/228/228
f 229/229/229 230/230/230 231/231/231
f 232/232/232 233/233/233 234/234/234
f 235/235/235 236/236/236 237/237/237
f 238/238/238 239/239/239 240/240/240
f 241/241/241 242/242/242 243/243/243
f 244/244/244 245/245/245 246/246/246
f 247/247/247 248/248/248 249/249/249
f 250/250/250 251/251/251 252/252/252
f 253/253/253 254/254/254 255/255/255
f 256/256/256 257/257/257 258/258/258
f 259/259/259 260/260/260 261/261/261
f 262/262/262 263/263/263 264/264/264
