o Mesh
usemtl material_9
v 0.024044999852776527 0.09277334809303284 -0.6251362562179565
v 0.0393030010163784 0.09277382493019104 -0.6251362562179565
v 0.0393030010163784 0.11286570876836777 -0.6251360177993774
v 0.024044999852776527 0.09277334809303284 -0.6251362562179565
v 0.0393030010163784 0.11286570876836777 -0.6251360177993774
v 0.024044999852776527 0.11287502944469452 -0.6251368522644043
v 0.022843411192297935 0.09277796745300293 -0.6251509785652161
v 0.024044999852776527 0.09277334809303284 -0.6251362562179565
v 0.024044999852776527 0.11287502944469452 -0.6251368522644043
v 0.022843411192297935 0.09277796745300293 -0.6251509785652161
v 0.024044999852776527 0.11287502944469452 -0.6251368522644043
v 0.02284582145512104 0.11286816745996475 -0.625149667263031
v 0.022880999371409416 0.11429689079523087 -0.6267712712287903
v 0.021462559700012207 0.11420705169439316 -0.6267615556716919
v 0.02284582145512104 0.11286816745996475 -0.625149667263031
v 0.022880999371409416 0.11429689079523087 -0.6267712712287903
v 0.02284582145512104 0.11286816745996475 -0.625149667263031
v 0.024044999852776527 0.11287502944469452 -0.6251368522644043
v 0.040424998849630356 0.11429613828659058 -0.626762866973877
v 0.022880999371409416 0.11429689079523087 -0.6267712712287903
v 0.024044999852776527 0.11287502944469452 -0.6251368522644043
v 0.040424998849630356 0.11429613828659058 -0.626762866973877
v 0.024044999852776527 0.11287502944469452 -0.6251368522644043
v 0.0393030010163784 0.11286570876836777 -0.6251360177993774
v 0.022880999371409416 0.09134609997272491 -0.6267714500427246
v 0.040424998849630356 0.09134698659181595 -0.6267619729042053
v 0.024044999852776527 0.09277334809303284 -0.6251362562179565
v 0.040424998849630356 0.09134698659181595 -0.6267619729042053
v 0.0393030010163784 0.09277382493019104 -0.6251362562179565
v 0.024044999852776527 0.09277334809303284 -0.6251362562179565
v 0.02146114967763424 0.09144295752048492 -0.6267714500427246
v 0.022880999371409416 0.09134609997272491 -0.6267714500427246
v 0.022843411192297935 0.09277796745300293 -0.6251509785652161
v 0.022880999371409416 0.09134609997272491 -0.6267714500427246
v 0.024044999852776527 0.09277334809303284 -0.6251362562179565
v 0.022843411192297935 0.09277796745300293 -0.6251509785652161
v 0.022880999371409416 0.09134609997272491 -0.6267714500427246
v 0.02146114967763424 0.09144295752048492 -0.6267714500427246
v 0.021462056785821915 0.09143450856208801 -0.6415548324584961
v 0.022880999371409416 0.09134609997272491 -0.6267714500427246
v 0.021462056785821915 0.09143450856208801 -0.6415548324584961
v 0.022880999371409416 0.09139412641525269 -0.6416314840316772
v 0.040424998849630356 0.09134698659181595 -0.6267619729042053
v 0.022880999371409416 0.09134609997272491 -0.6267714500427246
v 0.040424998849630356 0.09138987213373184 -0.6416288018226624
v 0.022880999371409416 0.09134609997272491 -0.6267714500427246
v 0.022880999371409416 0.09139412641525269 -0.6416314840316772
v 0.040424998849630356 0.09138987213373184 -0.6416288018226624
v 0.022880999371409416 0.11429689079523087 -0.6267712712287903
v 0.040424998849630356 0.11429613828659058 -0.626762866973877
v 0.040424998849630356 0.11427231878042221 -0.6416118144989014
v 0.022880999371409416 0.11429689079523087 -0.6267712712287903
v 0.040424998849630356 0.11427231878042221 -0.6416118144989014
v 0.022880999371409416 0.11423086374998093 -0.6416401267051697
v 0.022880999371409416 0.11423086374998093 -0.6416401267051697
v 0.02146144025027752 0.11419989168643951 -0.6415548920631409
v 0.021462559700012207 0.11420705169439316 -0.6267615556716919
v 0.022880999371409416 0.11423086374998093 -0.6416401267051697
v 0.021462559700012207 0.11420705169439316 -0.6267615556716919
v 0.022880999371409416 0.11429689079523087 -0.6267712712287903
v 0.022880999371409416 0.11423086374998093 -0.6416401267051697
v 0.040424998849630356 0.11427231878042221 -0.6416118144989014
v 0.040424998849630356 0.09138987213373184 -0.6416288018226624
v 0.022880999371409416 0.11423086374998093 -0.6416401267051697
v 0.040424998849630356 0.09138987213373184 -0.6416288018226624
v 0.022880999371409416 0.09139412641525269 -0.6416314840316772
v 0.02146144025027752 0.11419989168643951 -0.6415548920631409
v 0.022880999371409416 0.11423086374998093 -0.6416401267051697
v 0.022880999371409416 0.09139412641525269 -0.6416314840316772
v 0.02146144025027752 0.11419989168643951 -0.6415548920631409
v 0.022880999371409416 0.09139412641525269 -0.6416314840316772
v 0.021462056785821915 0.09143450856208801 -0.6415548324584961
v 0.0393030010163784 0.09277382493019104 -0.6251362562179565
v 0.040763042867183685 0.09277595579624176 -0.6251417398452759
v 0.0393030010163784 0.11286570876836777 -0.6251360177993774
v 0.040763042867183685 0.09277595579624176 -0.6251417398452759
v 0.04078908637166023 0.11286623030900955 -0.6251553893089294
v 0.0393030010163784 0.11286570876836777 -0.6251360177993774
v 0.042164821177721024 0.11420077830553055 -0.6267713904380798
v 0.040424998849630356 0.11429613828659058 -0.626762866973877
v 0.04078908637166023 0.11286623030900955 -0.6251553893089294
v 0.040424998849630356 0.11429613828659058 -0.626762866973877
v 0.0393030010163784 0.11286570876836777 -0.6251360177993774
v 0.04078908637166023 0.11286623030900955 -0.6251553893089294
v 0.040424998849630356 0.09134698659181595 -0.6267619729042053
v 0.04216315597295761 0.09143354743719101 -0.6267614960670471
v 0.040763042867183685 0.09277595579624176 -0.6251417398452759
v 0.040424998849630356 0.09134698659181595 -0.6267619729042053
v 0.040763042867183685 0.09277595579624176 -0.6251417398452759
v 0.0393030010163784 0.09277382493019104 -0.6251362562179565
v 0.04216315597295761 0.09143354743719101 -0.6267614960670471
v 0.040424998849630356 0.09134698659181595 -0.6267619729042053
v 0.040424998849630356 0.09138987213373184 -0.6416288018226624
v 0.04216315597295761 0.09143354743719101 -0.6267614960670471
v 0.040424998849630356 0.09138987213373184 -0.6416288018226624
v 0.04216432198882103 0.09144241362810135 -0.6415570378303528
v 0.040424998849630356 0.11429613828659058 -0.626762866973877
v 0.042164821177721024 0.11420077830553055 -0.6267713904380798
v 0.04216338321566582 0.11421118676662445 -0.6415569186210632
v 0.040424998849630356 0.11429613828659058 -0.626762866973877
v 0.04216338321566582 0.11421118676662445 -0.6415569186210632
v 0.040424998849630356 0.11427231878042221 -0.6416118144989014
v 0.040424998849630356 0.11427231878042221 -0.6416118144989014
v 0.04216338321566582 0.11421118676662445 -0.6415569186210632
v 0.04216432198882103 0.09144241362810135 -0.6415570378303528
v 0.040424998849630356 0.11427231878042221 -0.6416118144989014
v 0.04216432198882103 0.09144241362810135 -0.6415570378303528
v 0.040424998849630356 0.09138987213373184 -0.6416288018226624
v 0.04216315597295761 0.09143354743719101 -0.6267614960670471
v 0.042164821177721024 0.11420077830553055 -0.6267713904380798
v 0.04078908637166023 0.11286623030900955 -0.6251553893089294
v 0.04216315597295761 0.09143354743719101 -0.6267614960670471
v 0.04078908637166023 0.11286623030900955 -0.6251553893089294
v 0.040763042867183685 0.09277595579624176 -0.6251417398452759
v 0.021462559700012207 0.11420705169439316 -0.6267615556716919
v 0.02146114967763424 0.09144295752048492 -0.6267714500427246
v 0.022843411192297935 0.09277796745300293 -0.6251509785652161
v 0.021462559700012207 0.11420705169439316 -0.6267615556716919
v 0.022843411192297935 0.09277796745300293 -0.6251509785652161
v 0.02284582145512104 0.11286816745996475 -0.625149667263031
v 0.021462559700012207 0.11420705169439316 -0.6267615556716919
v 0.02146144025027752 0.11419989168643951 -0.6415548920631409
v 0.02146114967763424 0.09144295752048492 -0.6267714500427246
v 0.02146144025027752 0.11419989168643951 -0.6415548920631409
v 0.021462056785821915 0.09143450856208801 -0.6415548324584961
v 0.02146114967763424 0.09144295752048492 -0.6267714500427246
v 0.04216338321566582 0.11421118676662445 -0.6415569186210632
v 0.042164821177721024 0.11420077830553055 -0.6267713904380798
v 0.04216432198882103 0.09144241362810135 -0.6415570378303528
v 0.042164821177721024 0.11420077830553055 -0.6267713904380798
v 0.04216315597295761 0.09143354743719101 -0.6267614960670471
v 0.04216432198882103 0.09144241362810135 -0.6415570378303528
v 0.024044999852776527 -0.09274334460496902 -0.036827705800533295
v 0.0393030010163784 -0.09274382144212723 -0.03682773932814598
v 0.0393030010163784 -0.11283571273088455 -0.0368279293179512
v 0.024044999852776527 -0.09274334460496902 -0.036827705800533295
v 0.0393030010163784 -0.11283571273088455 -0.0368279293179512
v 0.024044999852776527 -0.1128450334072113 -0.036827147006988525
v 0.022843407467007637 -0.09274796396493912 -0.03681299835443497
v 0.024044999852776527 -0.09274334460496902 -0.036827705800533295
v 0.024044999852776527 -0.1128450334072113 -0.036827147006988525
v 0.022843407467007637 -0.09274796396493912 -0.03681299835443497
v 0.024044999852776527 -0.1128450334072113 -0.036827147006988525
v 0.022845817729830742 -0.11283817142248154 -0.03681427612900734
v 0.022880999371409416 -0.11426688730716705 -0.03519269451498985
v 0.021462559700012207 -0.11417704820632935 -0.03520243987441063
v 0.022845817729830742 -0.11283817142248154 -0.03681427612900734
v 0.022880999371409416 -0.11426688730716705 -0.03519269451498985
v 0.022845817729830742 -0.11283817142248154 -0.03681427612900734
v 0.024044999852776527 -0.1128450334072113 -0.036827147006988525
v 0.040424998849630356 -0.11426613479852676 -0.03520108759403229
v 0.022880999371409416 -0.11426688730716705 -0.03519269451498985
v 0.024044999852776527 -0.1128450334072113 -0.036827147006988525
v 0.040424998849630356 -0.11426613479852676 -0.03520108759403229
v 0.024044999852776527 -0.1128450334072113 -0.036827147006988525
v 0.0393030010163784 -0.11283571273088455 -0.0368279293179512
v 0.022880999371409416 -0.0913161039352417 -0.035192541778087616
v 0.040424998849630356 -0.09131699055433273 -0.03520200774073601
v 0.024044999852776527 -0.09274334460496902 -0.036827705800533295
v 0.040424998849630356 -0.09131699055433273 -0.03520200774073601
v 0.0393030010163784 -0.09274382144212723 -0.03682773932814598
v 0.024044999852776527 -0.09274334460496902 -0.036827705800533295
v 0.02146114967763424 -0.09141296148300171 -0.035192541778087616
v 0.022880999371409416 -0.0913161039352417 -0.035192541778087616
v 0.022843407467007637 -0.09274796396493912 -0.03681299835443497
v 0.022880999371409416 -0.0913161039352417 -0.035192541778087616
v 0.024044999852776527 -0.09274334460496902 -0.036827705800533295
v 0.022843407467007637 -0.09274796396493912 -0.03681299835443497
v 0.022880999371409416 -0.0913161039352417 -0.035192541778087616
v 0.02146114967763424 -0.09141296148300171 -0.035192541778087616
v 0.021462056785821915 -0.0914045125246048 -0.02041015401482582
v 0.022880999371409416 -0.0913161039352417 -0.035192541778087616
v 0.021462056785821915 -0.0914045125246048 -0.02041015401482582
v 0.022880999371409416 -0.09136413037776947 -0.020333504304289818
v 0.040424998849630356 -0.09131699055433273 -0.03520200774073601
v 0.022880999371409416 -0.0913161039352417 -0.035192541778087616
v 0.040424998849630356 -0.09135987609624863 -0.02033623494207859
v 0.022880999371409416 -0.0913161039352417 -0.035192541778087616
v 0.022880999371409416 -0.09136413037776947 -0.020333504304289818
v 0.040424998849630356 -0.09135987609624863 -0.02033623494207859
v 0.022880999371409416 -0.11426688730716705 -0.03519269451498985
v 0.040424998849630356 -0.11426613479852676 -0.03520108759403229
v 0.040424998849630356 -0.1142423152923584 -0.02035321667790413
v 0.022880999371409416 -0.11426688730716705 -0.03519269451498985
v 0.040424998849630356 -0.1142423152923584 -0.02035321667790413
v 0.022880999371409416 -0.11420086026191711 -0.020324908196926117
v 0.022880999371409416 -0.11420086026191711 -0.020324908196926117
v 0.02146144025027752 -0.1141698881983757 -0.020410098135471344
v 0.021462559700012207 -0.11417704820632935 -0.03520243987441063
v 0.022880999371409416 -0.11420086026191711 -0.020324908196926117
v 0.021462559700012207 -0.11417704820632935 -0.03520243987441063
v 0.022880999371409416 -0.11426688730716705 -0.03519269451498985
v 0.022880999371409416 -0.11420086026191711 -0.020324908196926117
v 0.040424998849630356 -0.1142423152923584 -0.02035321667790413
v 0.040424998849630356 -0.09135987609624863 -0.02033623494207859
v 0.022880999371409416 -0.11420086026191711 -0.020324908196926117
v 0.040424998849630356 -0.09135987609624863 -0.02033623494207859
v 0.022880999371409416 -0.09136413037776947 -0.020333504304289818
v 0.02146144025027752 -0.1141698881983757 -0.020410098135471344
v 0.022880999371409416 -0.11420086026191711 -0.020324908196926117
v 0.022880999371409416 -0.09136413037776947 -0.020333504304289818
v 0.02146144025027752 -0.1141698881983757 -0.020410098135471344
v 0.022880999371409416 -0.09136413037776947 -0.020333504304289818
v 0.021462056785821915 -0.0914045125246048 -0.02041015401482582
v 0.0393030010163784 -0.09274382144212723 -0.03682773932814598
v 0.040763046592473984 -0.09274595230817795 -0.03682224452495575
v 0.0393030010163784 -0.11283571273088455 -0.0368279293179512
v 0.040763046592473984 -0.09274595230817795 -0.03682224452495575
v 0.04078909382224083 -0.11283623427152634 -0.0368085615336895
v 0.0393030010163784 -0.11283571273088455 -0.0368279293179512
v 0.042164821177721024 -0.11417077481746674 -0.03519259765744209
v 0.040424998849630356 -0.11426613479852676 -0.03520108759403229
v 0.04078909382224083 -0.11283623427152634 -0.0368085615336895
v 0.040424998849630356 -0.11426613479852676 -0.03520108759403229
v 0.0393030010163784 -0.11283571273088455 -0.0368279293179512
v 0.04078909382224083 -0.11283623427152634 -0.0368085615336895
v 0.040424998849630356 -0.09131699055433273 -0.03520200774073601
v 0.04216315597295761 -0.0914035513997078 -0.035202499479055405
v 0.040763046592473984 -0.09274595230817795 -0.03682224452495575
v 0.040424998849630356 -0.09131699055433273 -0.03520200774073601
v 0.040763046592473984 -0.09274595230817795 -0.03682224452495575
v 0.0393030010163784 -0.09274382144212723 -0.03682773932814598
v 0.04216315597295761 -0.0914035513997078 -0.035202499479055405
v 0.040424998849630356 -0.09131699055433273 -0.03520200774073601
v 0.040424998849630356 -0.09135987609624863 -0.02033623494207859
v 0.04216315597295761 -0.0914035513997078 -0.035202499479055405
v 0.040424998849630356 -0.09135987609624863 -0.02033623494207859
v 0.04216432198882103 -0.09141241759061813 -0.020407969132065773
v 0.040424998849630356 -0.11426613479852676 -0.03520108759403229
v 0.042164821177721024 -0.11417077481746674 -0.03519259765744209
v 0.04216338321566582 -0.11418118327856064 -0.02040807344019413
v 0.040424998849630356 -0.11426613479852676 -0.03520108759403229
v 0.04216338321566582 -0.11418118327856064 -0.02040807344019413
v 0.040424998849630356 -0.1142423152923584 -0.02035321667790413
v 0.040424998849630356 -0.1142423152923584 -0.02035321667790413
v 0.04216338321566582 -0.11418118327856064 -0.02040807344019413
v 0.04216432198882103 -0.09141241759061813 -0.020407969132065773
v 0.040424998849630356 -0.1142423152923584 -0.02035321667790413
v 0.04216432198882103 -0.09141241759061813 -0.020407969132065773
v 0.040424998849630356 -0.09135987609624863 -0.02033623494207859
v 0.04216315597295761 -0.0914035513997078 -0.035202499479055405
v 0.042164821177721024 -0.11417077481746674 -0.03519259765744209
v 0.04078909382224083 -0.11283623427152634 -0.0368085615336895
v 0.04216315597295761 -0.0914035513997078 -0.035202499479055405
v 0.04078909382224083 -0.11283623427152634 -0.0368085615336895
v 0.040763046592473984 -0.09274595230817795 -0.03682224452495575
v 0.021462559700012207 -0.11417704820632935 -0.03520243987441063
v 0.02146114967763424 -0.09141296148300171 -0.035192541778087616
v 0.022843407467007637 -0.09274796396493912 -0.03681299835443497
v 0.021462559700012207 -0.11417704820632935 -0.03520243987441063
v 0.022843407467007637 -0.09274796396493912 -0.03681299835443497
v 0.022845817729830742 -0.11283817142248154 -0.03681427612900734
v 0.021462559700012207 -0.11417704820632935 -0.03520243987441063
v 0.02146144025027752 -0.1141698881983757 -0.020410098135471344
v 0.02146114967763424 -0.09141296148300171 -0.035192541778087616
v 0.02146144025027752 -0.1141698881983757 -0.020410098135471344
v 0.021462056785821915 -0.0914045125246048 -0.02041015401482582
v 0.02146114967763424 -0.09141296148300171 -0.035192541778087616
v 0.04216338321566582 -0.11418118327856064 -0.02040807344019413
v 0.042164821177721024 -0.11417077481746674 -0.03519259765744209
v 0.04216432198882103 -0.09141241759061813 -0.020407969132065773
v 0.042164821177721024 -0.11417077481746674 -0.03519259765744209
v 0.04216315597295761 -0.0914035513997078 -0.035202499479055405
v 0.04216432198882103 -0.09141241759061813 -0.020407969132065773
vt 0.04382000118494034 0.31004399061203003
vt 0.044950999319553375 0.07579299807548523
vt 0.29593199491500854 0.06954699754714966
vt 0.04382000118494034 0.31004399061203003
vt 0.29593199491500854 0.06954699754714966
vt 0.2862359881401062 0.30994901061058044
vt 0.04657899960875511 0.33415400981903076
vt 0.04382000118494034 0.31004399061203003
vt 0.2862359881401062 0.30994901061058044
vt 0.04657899960875511 0.33415400981903076
vt 0.2862359881401062 0.30994901061058044
vt 0.28345099091529846 0.3367759883403778
vt 0.3319360017776489 0.349837988615036
vt 0.3213199973106384 0.37885698676109314
vt 0.28345099091529846 0.3367759883403778
vt 0.3319360017776489 0.349837988615036
vt 0.28345099091529846 0.3367759883403778
vt 0.2862359881401062 0.30994901061058044
vt 0.3432610034942627 0.03596799820661545
vt 0.3319360017776489 0.349837988615036
vt 0.2862359881401062 0.30994901061058044
vt 0.3432610034942627 0.03596799820661545
vt 0.2862359881401062 0.30994901061058044
vt 0.29593199491500854 0.06954699754714966
vt 0 0.3442800045013428
vt 0 0.04253299906849861
vt 0.04382000118494034 0.31004399061203003
vt 0 0.04253299906849861
vt 0.044950999319553375 0.07579299807548523
vt 0.04382000118494034 0.31004399061203003
vt 0.008426000364124775 0.3715119957923889
vt 0 0.3442800045013428
vt 0.04657899960875511 0.33415400981903076
vt 0 0.3442800045013428
vt 0.04382000118494034 0.31004399061203003
vt 0.04657899960875511 0.33415400981903076
vt 0.30535900592803955 0.6881309747695923
vt 0.3432610034942627 0.6862469911575317
vt 0.3432610034942627 0.9760289788246155
vt 0.30535900592803955 0.6881309747695923
vt 0.3432610034942627 0.9760289788246155
vt 0.30535900592803955 0.9779130220413208
vt 0.0574209988117218 0.6881309747695923
vt 0.30535900592803955 0.6881309747695923
vt 0.0574209988117218 0.9779130220413208
vt 0.30535900592803955 0.6881309747695923
vt 0.30535900592803955 0.9779130220413208
vt 0.0574209988117218 0.9779130220413208
vt 0.3035280108451843 0.6846100091934204
vt 0.04361499845981598 0.6846100091934204
vt 0.04361499845981598 0.3808319866657257
vt 0.3035280108451843 0.6846100091934204
vt 0.04361499845981598 0.3808319866657257
vt 0.3035280108451843 0.3808319866657257
vt 0.3035280108451843 0.3808319866657257
vt 0.3432610034942627 0.37885698676109314
vt 0.3432610034942627 0.6826350092887878
vt 0.3035280108451843 0.3808319866657257
vt 0.3432610034942627 0.6826350092887878
vt 0.3035280108451843 0.6846100091934204
vt 0.6570680141448975 0.3503119945526123
vt 0.3887909948825836 0.3503119945526123
vt 0.3887909948825836 0.0023960000835359097
vt 0.6570680141448975 0.3503119945526123
vt 0.3887909948825836 0.0023960000835359097
vt 0.6570680141448975 0.0023960000835359097
vt 0.7025560140609741 0.34791600704193115
vt 0.6570680141448975 0.3503119945526123
vt 0.6570680141448975 0.0023960000835359097
vt 0.7025560140609741 0.34791600704193115
vt 0.6570680141448975 0.0023960000835359097
vt 0.7025560140609741 0
vt 0.044950999319553375 0.07579299807548523
vt 0.04842599853873253 0.04783099889755249
vt 0.29593199491500854 0.06954699754714966
vt 0.04842599853873253 0.04783099889755249
vt 0.2933650016784668 0.03954000025987625
vt 0.29593199491500854 0.06954699754714966
vt 0.3315649926662445 0
vt 0.3432610034942627 0.03596799820661545
vt 0.2933650016784668 0.03954000025987625
vt 0.3432610034942627 0.03596799820661545
vt 0.29593199491500854 0.06954699754714966
vt 0.2933650016784668 0.03954000025987625
vt 0 0.04253299906849861
vt 0.01182399969547987 0.007172999903559685
vt 0.04842599853873253 0.04783099889755249
vt 0 0.04253299906849861
vt 0.04842599853873253 0.04783099889755249
vt 0.044950999319553375 0.07579299807548523
vt 0.01947600021958351 0.6896920204162598
vt 0.0574209988117218 0.6881309747695923
vt 0.0574209988117218 0.9779130220413208
vt 0.01947600021958351 0.6896920204162598
vt 0.0574209988117218 0.9779130220413208
vt 0.01947600021958351 0.9794740080833435
vt 0.04361499845981598 0.6846100091934204
vt 0.003837999887764454 0.6862469911575317
vt 0.003837000112980604 0.3824689984321594
vt 0.04361499845981598 0.6846100091934204
vt 0.003837000112980604 0.3824689984321594
vt 0.04361499845981598 0.3808319866657257
vt 0.3887909948825836 0.3503119945526123
vt 0.3432610034942627 0.3523940145969391
vt 0.3432610034942627 0.004476999863982201
vt 0.3887909948825836 0.3503119945526123
vt 0.3432610034942627 0.004476999863982201
vt 0.3887909948825836 0.0023960000835359097
vt 0.01182399969547987 0.007172999903559685
vt 0.3315649926662445 0
vt 0.2933650016784668 0.03954000025987625
vt 0.01182399969547987 0.007172999903559685
vt 0.2933650016784668 0.03954000025987625
vt 0.04842599853873253 0.04783099889755249
vt 0.3213199973106384 0.37885698676109314
vt 0.008426000364124775 0.3715119957923889
vt 0.04657899960875511 0.33415400981903076
vt 0.3213199973106384 0.37885698676109314
vt 0.04657899960875511 0.33415400981903076
vt 0.28345099091529846 0.3367759883403778
vt 0.702551007270813 0.3523940145969391
vt 0.702551007270813 0.6761969923973083
vt 0.3432610034942627 0.3523940145969391
vt 0.702551007270813 0.6761969923973083
vt 0.3432610034942627 0.6761969923973083
vt 0.3432610034942627 0.3523940145969391
vt 0.702551007270813 0.6761969923973083
vt 0.702551007270813 1
vt 0.3432610034942627 0.6761969923973083
vt 0.702551007270813 1
vt 0.3432610034942627 1
vt 0.3432610034942627 0.6761969923973083
vt 0.04382000118494034 0.31004399061203003
vt 0.044950999319553375 0.07579299807548523
vt 0.29593199491500854 0.06954699754714966
vt 0.04382000118494034 0.31004399061203003
vt 0.29593199491500854 0.06954699754714966
vt 0.2862359881401062 0.30994901061058044
vt 0.04657899960875511 0.33415400981903076
vt 0.04382000118494034 0.31004399061203003
vt 0.2862359881401062 0.30994901061058044
vt 0.04657899960875511 0.33415400981903076
vt 0.2862359881401062 0.30994901061058044
vt 0.28345099091529846 0.3367759883403778
vt 0.3319360017776489 0.349837988615036
vt 0.3213199973106384 0.37885698676109314
vt 0.28345099091529846 0.3367759883403778
vt 0.3319360017776489 0.349837988615036
vt 0.28345099091529846 0.3367759883403778
vt 0.2862359881401062 0.30994901061058044
vt 0.3432610034942627 0.03596799820661545
vt 0.3319360017776489 0.349837988615036
vt 0.2862359881401062 0.30994901061058044
vt 0.3432610034942627 0.03596799820661545
vt 0.2862359881401062 0.30994901061058044
vt 0.29593199491500854 0.06954699754714966
vt 0 0.3442800045013428
vt 0 0.04253299906849861
vt 0.04382000118494034 0.31004399061203003
vt 0 0.04253299906849861
vt 0.044950999319553375 0.07579299807548523
vt 0.04382000118494034 0.31004399061203003
vt 0.008426000364124775 0.3715119957923889
vt 0 0.3442800045013428
vt 0.04657899960875511 0.33415400981903076
vt 0 0.3442800045013428
vt 0.04382000118494034 0.31004399061203003
vt 0.04657899960875511 0.33415400981903076
vt 0.30535900592803955 0.6881309747695923
vt 0.3432610034942627 0.6862469911575317
vt 0.3432610034942627 0.9760289788246155
vt 0.30535900592803955 0.6881309747695923
vt 0.3432610034942627 0.9760289788246155
vt 0.30535900592803955 0.9779130220413208
vt 0.0574209988117218 0.6881309747695923
vt 0.30535900592803955 0.6881309747695923
vt 0.0574209988117218 0.9779130220413208
vt 0.30535900592803955 0.6881309747695923
vt 0.30535900592803955 0.9779130220413208
vt 0.0574209988117218 0.9779130220413208
vt 0.3035280108451843 0.6846100091934204
vt 0.04361499845981598 0.6846100091934204
vt 0.04361499845981598 0.3808319866657257
vt 0.3035280108451843 0.6846100091934204
vt 0.04361499845981598 0.3808319866657257
vt 0.3035280108451843 0.3808319866657257
vt 0.3035280108451843 0.3808319866657257
vt 0.3432610034942627 0.37885698676109314
vt 0.3432610034942627 0.6826350092887878
vt 0.3035280108451843 0.3808319866657257
vt 0.3432610034942627 0.6826350092887878
vt 0.3035280108451843 0.6846100091934204
vt 0.6570680141448975 0.3503119945526123
vt 0.3887909948825836 0.3503119945526123
vt 0.3887909948825836 0.0023960000835359097
vt 0.6570680141448975 0.3503119945526123
vt 0.3887909948825836 0.0023960000835359097
vt 0.6570680141448975 0.0023960000835359097
vt 0.7025560140609741 0.34791600704193115
vt 0.6570680141448975 0.3503119945526123
vt 0.6570680141448975 0.0023960000835359097
vt 0.7025560140609741 0.34791600704193115
vt 0.6570680141448975 0.0023960000835359097
vt 0.7025560140609741 0
vt 0.044950999319553375 0.07579299807548523
vt 0.04842599853873253 0.04783099889755249
vt 0.29593199491500854 0.06954699754714966
vt 0.04842599853873253 0.04783099889755249
vt 0.2933650016784668 0.03954000025987625
vt 0.29593199491500854 0.06954699754714966
vt 0.3315649926662445 0
vt 0.3432610034942627 0.03596799820661545
vt 0.2933650016784668 0.03954000025987625
vt 0.3432610034942627 0.03596799820661545
vt 0.29593199491500854 0.06954699754714966
vt 0.2933650016784668 0.03954000025987625
vt 0 0.04253299906849861
vt 0.01182399969547987 0.007172999903559685
vt 0.04842599853873253 0.04783099889755249
vt 0 0.04253299906849861
vt 0.04842599853873253 0.04783099889755249
vt 0.044950999319553375 0.07579299807548523
vt 0.01947600021958351 0.6896920204162598
vt 0.0574209988117218 0.6881309747695923
vt 0.0574209988117218 0.9779130220413208
vt 0.01947600021958351 0.6896920204162598
vt 0.0574209988117218 0.9779130220413208
vt 0.01947600021958351 0.9794740080833435
vt 0.04361499845981598 0.6846100091934204
vt 0.003837999887764454 0.6862469911575317
vt 0.003837000112980604 0.3824689984321594
vt 0.04361499845981598 0.6846100091934204
vt 0.003837000112980604 0.3824689984321594
vt 0.04361499845981598 0.3808319866657257
vt 0.3887909948825836 0.3503119945526123
vt 0.3432610034942627 0.3523940145969391
vt 0.3432610034942627 0.004476999863982201
vt 0.3887909948825836 0.3503119945526123
vt 0.3432610034942627 0.004476999863982201
vt 0.3887909948825836 0.0023960000835359097
vt 0.01182399969547987 0.007172999903559685
vt 0.3315649926662445 0
vt 0.2933650016784668 0.03954000025987625
vt 0.01182399969547987 0.007172999903559685
vt 0.2933650016784668 0.03954000025987625
vt 0.04842599853873253 0.04783099889755249
vt 0.3213199973106384 0.37885698676109314
vt 0.008426000364124775 0.3715119957923889
vt 0.04657899960875511 0.33415400981903076
vt 0.3213199973106384 0.37885698676109314
vt 0.04657899960875511 0.33415400981903076
vt 0.28345099091529846 0.3367759883403778
vt 0.702551007270813 0.3523940145969391
vt 0.702551007270813 0.6761969923973083
vt 0.3432610034942627 0.3523940145969391
vt 0.702551007270813 0.6761969923973083
vt 0.3432610034942627 0.6761969923973083
vt 0.3432610034942627 0.3523940145969391
vt 0.702551007270813 0.6761969923973083
vt 0.702551007270813 1
vt 0.3432610034942627 0.6761969923973083
vt 0.702551007270813 1
vt 0.3432610034942627 1
vt 0.3432610034942627 0.6761969923973083
vn 0 -0.07652597264043026 0.9970675882363421
vn 0 -0.07172296862274938 0.9974245915215547
vn 0 0.037085997874389535 0.9993120777623279
vn 0 -0.07652597264043026 0.9970675882363421
vn 0 0.037085997874389535 0.9993120777623279
vn 0 0.13029499193561347 0.9914752720448949
vn -0.5258717420916659 -0.03031298637573586 0.8500235489246523
vn 0 -0.07652597264043026 0.9970675882363421
vn 0 0.13029499193561347 0.9914752720448949
vn -0.5258717420916659 -0.03031298637573586 0.8500235489246523
vn 0 0.13029499193561347 0.9914752720448949
vn -0.5017719920275561 0.061694008048423635 0.8627970313970832
vn 0 0.9988978050555061 0.04693799159840672
vn -0.9844051955820247 0.10050000005595362 0.14438199645339803
vn -0.5017719920275561 0.061694008048423635 0.8627970313970832
vn 0 0.9988978050555061 0.04693799159840672
vn -0.5017719920275561 0.061694008048423635 0.8627970313970832
vn 0 0.13029499193561347 0.9914752720448949
vn 0 0.9914023092839941 0.1308490013197032
vn 0 0.9988978050555061 0.04693799159840672
vn 0 0.13029499193561347 0.9914752720448949
vn 0 0.9914023092839941 0.1308490013197032
vn 0 0.13029499193561347 0.9914752720448949
vn 0 0.037085997874389535 0.9993120777623279
vn 0 -0.9989687979074934 0.04540199122568927
vn 0 -0.9901394675054407 0.14008509873659877
vn 0 -0.07652597264043026 0.9970675882363421
vn 0 -0.9901394675054407 0.14008509873659877
vn 0 -0.07172296862274938 0.9974245915215547
vn 0 -0.07652597264043026 0.9970675882363421
vn -0.9985061461878415 -0.030413007893650416 0.0453930058044789
vn 0 -0.9989687979074934 0.04540199122568927
vn -0.5258717420916659 -0.03031298637573586 0.8500235489246523
vn 0 -0.9989687979074934 0.04540199122568927
vn 0 -0.07652597264043026 0.9970675882363421
vn -0.5258717420916659 -0.03031298637573586 0.8500235489246523
vn 0 -0.9989687979074934 0.04540199122568927
vn -0.9985061461878415 -0.030413007893650416 0.0453930058044789
vn -0.9894358953255781 -0.11485399121798279 -0.08845998950130633
vn 0 -0.9989687979074934 0.04540199122568927
vn -0.9894358953255781 -0.11485399121798279 -0.08845998950130633
vn 0 -0.5187151357703852 -0.8549471375019105
vn 0 -0.9901394675054407 0.14008509873659877
vn 0 -0.9989687979074934 0.04540199122568927
vn 0 -0.5612829452954512 -0.8276239818422756
vn 0 -0.9989687979074934 0.04540199122568927
vn 0 -0.5187151357703852 -0.8549471375019105
vn 0 -0.5612829452954512 -0.8276239818422756
vn 0 0.9988978050555061 0.04693799159840672
vn 0 0.9914023092839941 0.1308490013197032
vn 0 0.7531806413190745 -0.6578137438076128
vn 0 0.9988978050555061 0.04693799159840672
vn 0 0.7531806413190745 -0.6578137438076128
vn 0 0.33864887781887004 -0.9409128214409771
vn 0 0.33864887781887004 -0.9409128214409771
vn -0.995611395747326 0.02889300958668283 -0.08901203657419163
vn -0.9844051955820247 0.10050000005595362 0.14438199645339803
vn 0 0.33864887781887004 -0.9409128214409771
vn -0.9844051955820247 0.10050000005595362 0.14438199645339803
vn 0 0.9988978050555061 0.04693799159840672
vn 0 0.33864887781887004 -0.9409128214409771
vn 0 0.7531806413190745 -0.6578137438076128
vn 0 -0.5612829452954512 -0.8276239818422756
vn 0 0.33864887781887004 -0.9409128214409771
vn 0 -0.5612829452954512 -0.8276239818422756
vn 0 -0.5187151357703852 -0.8549471375019105
vn -0.995611395747326 0.02889300958668283 -0.08901203657419163
vn 0 0.33864887781887004 -0.9409128214409771
vn 0 -0.5187151357703852 -0.8549471375019105
vn -0.995611395747326 0.02889300958668283 -0.08901203657419163
vn 0 -0.5187151357703852 -0.8549471375019105
vn -0.9894358953255781 -0.11485399121798279 -0.08845998950130633
vn 0 -0.07172296862274938 0.9974245915215547
vn 0.3304209071186365 -0.05046598176685318 0.9424835323883408
vn 0 0.037085997874389535 0.9993120777623279
vn 0.3304209071186365 -0.05046598176685318 0.9424835323883408
vn 0.5908778962104392 0.04230998869275006 0.8056507783318679
vn 0 0.037085997874389535 0.9993120777623279
vn 0.9982282308242489 0.037768005526077834 0.04597800500317553
vn 0 0.9914023092839941 0.1308490013197032
vn 0.5908778962104392 0.04230998869275006 0.8056507783318679
vn 0 0.9914023092839941 0.1308490013197032
vn 0 0.037085997874389535 0.9993120777623279
vn 0.5908778962104392 0.04230998869275006 0.8056507783318679
vn 0 -0.9901394675054407 0.14008509873659877
vn 0.9815700375544666 -0.1244799906945234 0.14499997686901273
vn 0.3304209071186365 -0.05046598176685318 0.9424835323883408
vn 0 -0.9901394675054407 0.14008509873659877
vn 0.3304209071186365 -0.05046598176685318 0.9424835323883408
vn 0 -0.07172296862274938 0.9974245915215547
vn 0.9815700375544666 -0.1244799906945234 0.14499997686901273
vn 0 -0.9901394675054407 0.14008509873659877
vn 0 -0.5612829452954512 -0.8276239818422756
vn 0.9815700375544666 -0.1244799906945234 0.14499997686901273
vn 0 -0.5612829452954512 -0.8276239818422756
vn 0.9932524089987118 -0.035805017203602414 -0.11030708391261934
vn 0 0.9914023092839941 0.1308490013197032
vn 0.9982282308242489 0.037768005526077834 0.04597800500317553
vn 0.9838378541910536 0.14186300499528948 -0.10926099246505908
vn 0 0.9914023092839941 0.1308490013197032
vn 0.9838378541910536 0.14186300499528948 -0.10926099246505908
vn 0 0.7531806413190745 -0.6578137438076128
vn 0 0.7531806413190745 -0.6578137438076128
vn 0.9838378541910536 0.14186300499528948 -0.10926099246505908
vn 0.9932524089987118 -0.035805017203602414 -0.11030708391261934
vn 0 0.7531806413190745 -0.6578137438076128
vn 0.9932524089987118 -0.035805017203602414 -0.11030708391261934
vn 0 -0.5612829452954512 -0.8276239818422756
vn 0.9815700375544666 -0.1244799906945234 0.14499997686901273
vn 0.9982282308242489 0.037768005526077834 0.04597800500317553
vn 0.5908778962104392 0.04230998869275006 0.8056507783318679
vn 0.9815700375544666 -0.1244799906945234 0.14499997686901273
vn 0.5908778962104392 0.04230998869275006 0.8056507783318679
vn 0.3304209071186365 -0.05046598176685318 0.9424835323883408
vn -0.9844051955820247 0.10050000005595362 0.14438199645339803
vn -0.9985061461878415 -0.030413007893650416 0.0453930058044789
vn -0.5258717420916659 -0.03031298637573586 0.8500235489246523
vn -0.9844051955820247 0.10050000005595362 0.14438199645339803
vn -0.5258717420916659 -0.03031298637573586 0.8500235489246523
vn -0.5017719920275561 0.061694008048423635 0.8627970313970832
vn -0.9844051955820247 0.10050000005595362 0.14438199645339803
vn -0.995611395747326 0.02889300958668283 -0.08901203657419163
vn -0.9985061461878415 -0.030413007893650416 0.0453930058044789
vn -0.995611395747326 0.02889300958668283 -0.08901203657419163
vn -0.9894358953255781 -0.11485399121798279 -0.08845998950130633
vn -0.9985061461878415 -0.030413007893650416 0.0453930058044789
vn 0.9838378541910536 0.14186300499528948 -0.10926099246505908
vn 0.9982282308242489 0.037768005526077834 0.04597800500317553
vn 0.9932524089987118 -0.035805017203602414 -0.11030708391261934
vn 0.9982282308242489 0.037768005526077834 0.04597800500317553
vn 0.9815700375544666 -0.1244799906945234 0.14499997686901273
vn 0.9932524089987118 -0.035805017203602414 -0.11030708391261934
vn 0 0.07653699118338762 -0.9970667424904884
vn 0 0.07173298926798496 -0.997423870904782
vn 0 -0.037090991733274306 -0.9993118924201003
vn 0 0.07653699118338762 -0.9970667424904884
vn 0 -0.037090991733274306 -0.9993118924201003
vn 0 -0.13031097892267768 -0.9914731709795347
vn -0.5259209796358155 0.030316000372358452 -0.8499929783829553
vn 0 0.07653699118338762 -0.9970667424904884
vn 0 -0.13031097892267768 -0.9914731709795347
vn -0.5259209796358155 0.030316000372358452 -0.8499929783829553
vn 0 -0.13031097892267768 -0.9914731709795347
vn -0.5018190879993102 -0.06170002168776821 -0.8627692103009178
vn 0 -0.9988976647071391 -0.04694097828788446
vn -0.9844044175768457 -0.10049899390653963 -0.1443880011599455
vn -0.5018190879993102 -0.06170002168776821 -0.8627692103009178
vn 0 -0.9988976647071391 -0.04694097828788446
vn -0.5018190879993102 -0.06170002168776821 -0.8627692103009178
vn 0 -0.13031097892267768 -0.9914731709795347
vn 0 -0.9914017839701247 -0.1308529813984174
vn 0 -0.9988976647071391 -0.04694097828788446
vn 0 -0.13031097892267768 -0.9914731709795347
vn 0 -0.9914017839701247 -0.1308529813984174
vn 0 -0.13031097892267768 -0.9914731709795347
vn 0 -0.037090991733274306 -0.9993118924201003
vn 0 0.9989691608655469 -0.04539400444535434
vn 0 0.9901430209023577 -0.14005998057387162
vn 0 0.07653699118338762 -0.9970667424904884
vn 0 0.9901430209023577 -0.14005998057387162
vn 0 0.07173298926798496 -0.997423870904782
vn 0 0.07653699118338762 -0.9970667424904884
vn -0.9985060556185282 0.030412997637287154 -0.04539500487765971
vn 0 0.9989691608655469 -0.04539400444535434
vn -0.5259209796358155 0.030316000372358452 -0.8499929783829553
vn 0 0.9989691608655469 -0.04539400444535434
vn 0 0.07653699118338762 -0.9970667424904884
vn -0.5259209796358155 0.030316000372358452 -0.8499929783829553
vn 0 0.9989691608655469 -0.04539400444535434
vn -0.9985060556185282 0.030412997637287154 -0.04539500487765971
vn -0.9894351228527639 0.11485600315186491 0.08846601723438552
vn 0 0.9989691608655469 -0.04539400444535434
vn -0.9894351228527639 0.11485600315186491 0.08846601723438552
vn 0 0.5186927976151418 0.8549606901502418
vn 0 0.9901430209023577 -0.14005998057387162
vn 0 0.9989691608655469 -0.04539400444535434
vn 0 0.5612608894056713 0.8276389394074901
vn 0 0.9989691608655469 -0.04539400444535434
vn 0 0.5186927976151418 0.8549606901502418
vn 0 0.5612608894056713 0.8276389394074901
vn 0 -0.9988976647071391 -0.04694097828788446
vn 0 -0.9914017839701247 -0.1308529813984174
vn 0 -0.7531620216990996 0.6578350622079405
vn 0 -0.9988976647071391 -0.04694097828788446
vn 0 -0.7531620216990996 0.6578350622079405
vn 0 -0.33863195414622344 0.940918912357016
vn 0 -0.33863195414622344 0.940918912357016
vn -0.9956108642569652 -0.02889299868740088 0.08901798470168022
vn -0.9844044175768457 -0.10049899390653963 -0.1443880011599455
vn 0 -0.33863195414622344 0.940918912357016
vn -0.9844044175768457 -0.10049899390653963 -0.1443880011599455
vn 0 -0.9988976647071391 -0.04694097828788446
vn 0 -0.33863195414622344 0.940918912357016
vn 0 -0.7531620216990996 0.6578350622079405
vn 0 0.5612608894056713 0.8276389394074901
vn 0 -0.33863195414622344 0.940918912357016
vn 0 0.5612608894056713 0.8276389394074901
vn 0 0.5186927976151418 0.8549606901502418
vn -0.9956108642569652 -0.02889299868740088 0.08901798470168022
vn 0 -0.33863195414622344 0.940918912357016
vn 0 0.5186927976151418 0.8549606901502418
vn -0.9956108642569652 -0.02889299868740088 0.08901798470168022
vn 0 0.5186927976151418 0.8549606901502418
vn -0.9894351228527639 0.11485600315186491 0.08846601723438552
vn 0 0.07173298926798496 -0.997423870904782
vn 0.33046019636088486 0.05047201823106515 -0.9424694339854256
vn 0 -0.037090991733274306 -0.9993118924201003
vn 0.33046019636088486 0.05047201823106515 -0.9424694339854256
vn 0.5909249814073378 -0.04231299855026706 -0.8056160850569102
vn 0 -0.037090991733274306 -0.9993118924201003
vn 0.9982280930013082 -0.03776799962639312 -0.045981002024664576
vn 0 -0.9914017839701247 -0.1308529813984174
vn 0.5909249814073378 -0.04231299855026706 -0.8056160850569102
vn 0 -0.9914017839701247 -0.1308529813984174
vn 0 -0.037090991733274306 -0.9993118924201003
vn 0.5909249814073378 -0.04231299855026706 -0.8056160850569102
vn 0 0.9901430209023577 -0.14005998057387162
vn 0.9815693972093227 0.12447908366475877 -0.14500509022827063
vn 0.33046019636088486 0.05047201823106515 -0.9424694339854256
vn 0 0.9901430209023577 -0.14005998057387162
vn 0.33046019636088486 0.05047201823106515 -0.9424694339854256
vn 0 0.07173298926798496 -0.997423870904782
vn 0.9815693972093227 0.12447908366475877 -0.14500509022827063
vn 0 0.9901430209023577 -0.14005998057387162
vn 0 0.5612608894056713 0.8276389394074901
vn 0.9815693972093227 0.12447908366475877 -0.14500509022827063
vn 0 0.5612608894056713 0.8276389394074901
vn 0.9932516064420271 0.035805988505951514 0.11031399497545262
vn 0 -0.9914017839701247 -0.1308529813984174
vn 0.9982280930013082 -0.03776799962639312 -0.045981002024664576
vn 0.9838366762785957 -0.14186500379567218 0.1092690034142324
vn 0 -0.9914017839701247 -0.1308529813984174
vn 0.9838366762785957 -0.14186500379567218 0.1092690034142324
vn 0 -0.7531620216990996 0.6578350622079405
vn 0 -0.7531620216990996 0.6578350622079405
vn 0.9838366762785957 -0.14186500379567218 0.1092690034142324
vn 0.9932516064420271 0.035805988505951514 0.11031399497545262
vn 0 -0.7531620216990996 0.6578350622079405
vn 0.9932516064420271 0.035805988505951514 0.11031399497545262
vn 0 0.5612608894056713 0.8276389394074901
vn 0.9815693972093227 0.12447908366475877 -0.14500509022827063
vn 0.9982280930013082 -0.03776799962639312 -0.045981002024664576
vn 0.5909249814073378 -0.04231299855026706 -0.8056160850569102
vn 0.9815693972093227 0.12447908366475877 -0.14500509022827063
vn 0.5909249814073378 -0.04231299855026706 -0.8056160850569102
vn 0.33046019636088486 0.05047201823106515 -0.9424694339854256
vn -0.9844044175768457 -0.10049899390653963 -0.1443880011599455
vn -0.9985060556185282 0.030412997637287154 -0.04539500487765971
vn -0.5259209796358155 0.030316000372358452 -0.8499929783829553
vn -0.9844044175768457 -0.10049899390653963 -0.1443880011599455
vn -0.5259209796358155 0.030316000372358452 -0.8499929783829553
vn -0.5018190879993102 -0.06170002168776821 -0.8627692103009178
vn -0.9844044175768457 -0.10049899390653963 -0.1443880011599455
vn -0.9956108642569652 -0.02889299868740088 0.08901798470168022
vn -0.9985060556185282 0.030412997637287154 -0.04539500487765971
vn -0.9956108642569652 -0.02889299868740088 0.08901798470168022
vn -0.9894351228527639 0.11485600315186491 0.08846601723438552
vn -0.9985060556185282 0.030412997637287154 -0.04539500487765971
vn 0.9838366762785957 -0.14186500379567218 0.1092690034142324
vn 0.9982280930013082 -0.03776799962639312 -0.045981002024664576
vn 0.9932516064420271 0.035805988505951514 0.11031399497545262
vn 0.9982280930013082 -0.03776799962639312 -0.045981002024664576
vn 0.9815693972093227 0.12447908366475877 -0.14500509022827063
vn 0.9932516064420271 0.035805988505951514 0.11031399497545262
f 1/1/1 2/2/2 3/3/3
f 4/4/4 5/5/5 6/6/6
f 7/7/7 8/8/8 9/9/9
f 10/10/10 11/11/11 12/12/12
f 13/13/13 14/14/14 15/15/15
f 16/16/16 17/17/17 18/18/18
f 19/19/19 20/20/20 21/21/21
f 22/22/22 23/23/23 24/24/24
f 25/25/25 26/26/26 27/27/27
f 28/28/28 29/29/29 30/30/30
f 31/31/31 32/32/32 33/33/33
f 34/34/34 35/35/35 36/36/36
f 37/37/37 38/38/38 39/39/39
f 40/40/40 41/41/41 42/42/42
f 43/43/43 44/44/44 45/45/45
f 46/46/46 47/47/47 48/48/48
f 49/49/49 50/50/50 51/51/51
f 52/52/52 53/53/53 54/54/54
f 55/55/55 56/56/56 57/57/57
f 58/58/58 59/59/59 60/60/60
f 61/61/61 62/62/62 63/63/63
f 64/64/64 65/65/65 66/66/66
f 67/67/67 68/68/68 69/69/69
f 70/70/70 71/71/71 72/72/72
f 73/73/73 74/74/74 75/75/75
f 76/76/76 77/77/77 78/78/78
f 79/79/79 80/80/80 81/81/81
f 82/82/82 83/83/83 84/84/84
f 85/85/85 86/86/86 87/87/87
f 88/88/88 89/89/89 90/90/90
f 91/91/91 92/92/92 93/93/93
f 94/94/94 95/95/95 96/96/96
f 97/97/97 98/98/98 99/99/99
f 100/100/100 101/101/101 102/102/102
f 103/103/103 104/104/104 105/105/105
f 106/106/106 107/107/107 108/108/108
f 109/109/109 110/110/110 111/111/111
f 112/112/112 113/113/113 114/114/114
f 115/115/115 116/116/116 117/117/117
f 118/118/118 119/119/119 120/120/120
f 121/121/121 122/122/122 123/123/123
f 124/124/124 125/125/125 126/126/126
f 127/127/127 128/128/128 129/129/129
f 130/130/130 131/131/131 132/132/132
f 133/133/133 134/134/134 135/135/135
f 136/136/136 137/137/137 138/138/138
f 139/139/139 140/140/140 141/141/141
f 142/142/142 143/143/143 144/144/144
f 145/145/145 146/146/146 147/147/147
f 148/148/148 149/149/149 150/150/150
f 151/151/151 152/152/152 153/153/153
f 154/154/154 155/155/155 156/156/156
f 157/157/157 158/158/158 159/159/159
f 160/160/160 161/161/161 162/162/162
f 163/163/163 164/164/164 165/165/165
f 166/166/166 167/167/167 168/168/168
f 169/169/169 170/170/170 171/171/171
f 172/172/172 173/173/173 174/174/174
f 175/175/175 176/176/176 177/177/177
f 178/178/178 179/179/179 180/180/180
f 181/181/181 182/182/182 183/183/183
f 184/184/184 185/185/185 186/186/186
f 187/187/187 188/188/188 189/189/189
f 190/190/190 191/191/191 192/192/192
f 193/193/193 194/194/194 195/195/195
f 196/196/196 197/197/197 198/198/198
f 199/199/199 200/200/200 201/201/201
f 202/202/202 203/203/203 204/204/204
f 205/205/205 206/206/206 207/207/207
f 208/208/208 209/209/209 210/210/210
f 211/211/211 212/212/212 213/213/213
f 214/214/214 215/215/215 216/216/216
f 217/217/217 218/218/218 219/219/219
f 220/220/220 221/221/221 222/222/222
f 223/223/223 224/224/224 225/225/225
f 226/226/226 227/227/227 228/228/228
f 229/229/229 230/230/230 231/231/231
f 232/232/232 233/233/233 234/234/234
f 235/235/235 236/236/236 237/237/237
f 238/238/238 239/239/239 240/240/240
f 241/241/241 242/242/242 243/243/243
f 244/244/244 245/245/245 246/246/246
f 247/247/247 248/248/248 249/249/249
f 250/250/250 251/251/251 252/252/252
f 253/253/253 254/254/254 255/255/255
f 256/256/256 257/257/257 258/258/258
f 259/259/259 260/260/260 261/261/261
f 262/262/262 263/263/263 264/264/264
